G04 #@! TF.GenerationSoftware,KiCad,Pcbnew,5.0.2+dfsg1-1*
G04 #@! TF.CreationDate,2019-07-24T00:12:58-07:00*
G04 #@! TF.ProjectId,WeightAndMotionSensorShield,57656967-6874-4416-9e64-4d6f74696f6e,v01*
G04 #@! TF.SameCoordinates,Original*
G04 #@! TF.FileFunction,Profile,NP*
%FSLAX46Y46*%
G04 Gerber Fmt 4.6, Leading zero omitted, Abs format (unit mm)*
G04 Created by KiCad (PCBNEW 5.0.2+dfsg1-1) date Wed 24 Jul 2019 12:12:58 AM PDT*
%MOMM*%
%LPD*%
G01*
G04 APERTURE LIST*
%ADD10C,0.150000*%
G04 APERTURE END LIST*
D10*
X115125500Y-50101500D02*
G75*
G02X116395500Y-51371500I0J-1270000D01*
G01*
X116395500Y-59055000D02*
G75*
G02X115125500Y-60325000I-1270000J0D01*
G01*
X122999500Y-52197000D02*
G75*
G02X122999500Y-58293000I0J-3048000D01*
G01*
X116395500Y-52197000D02*
X116395500Y-51371500D01*
X112776000Y-59055000D02*
X112776000Y-51435000D01*
X116395500Y-58293000D02*
X116395500Y-59055000D01*
X114046000Y-60325000D02*
G75*
G02X112776000Y-59055000I0J1270000D01*
G01*
X122999500Y-58293000D02*
X116395500Y-58293000D01*
X115125500Y-50101500D02*
X114046000Y-50101500D01*
X122999500Y-52197000D02*
X116395500Y-52197000D01*
X112776000Y-51371500D02*
G75*
G02X114046000Y-50101500I1270000J0D01*
G01*
X115062000Y-60325000D02*
X115062000Y-61595000D01*
X114046000Y-60325000D02*
X114046000Y-61595000D01*
X122936000Y-63627000D02*
G75*
G02X122936000Y-69723000I0J-3048000D01*
G01*
X115062000Y-61595000D02*
G75*
G02X116332000Y-62865000I0J-1270000D01*
G01*
X116332000Y-63627000D02*
X116332000Y-62865000D01*
X116332000Y-69723000D02*
X116332000Y-70485000D01*
X122936000Y-69723000D02*
X116332000Y-69723000D01*
X122936000Y-63627000D02*
X116332000Y-63627000D01*
X116332000Y-70485000D02*
G75*
G02X115062000Y-71755000I-1270000J0D01*
G01*
X112268000Y-71755000D02*
G75*
G02X110998000Y-70485000I0J1270000D01*
G01*
X114046000Y-61595000D02*
X112268000Y-61595000D01*
X110998000Y-62865000D02*
G75*
G02X112268000Y-61595000I1270000J0D01*
G01*
X110998000Y-70485000D02*
X110998000Y-62865000D01*
X113538000Y-71755000D02*
X115062000Y-71755000D01*
X122428000Y-73025000D02*
X113538000Y-73025000D01*
X113538000Y-71755000D02*
X113538000Y-73025000D01*
X112268000Y-71755000D02*
X112268000Y-73025000D01*
X175768000Y-73025000D02*
G75*
G02X177038000Y-74295000I0J-1270000D01*
G01*
X177038000Y-125095000D02*
G75*
G02X175768000Y-126365000I-1270000J0D01*
G01*
X112268000Y-126365000D02*
G75*
G02X110998000Y-125095000I0J1270000D01*
G01*
X110998000Y-74295000D02*
G75*
G02X112268000Y-73025000I1270000J0D01*
G01*
X156718000Y-73025000D02*
X140208000Y-73025000D01*
X130048000Y-71755000D02*
G75*
G02X128778000Y-70485000I0J1270000D01*
G01*
X140208000Y-61595000D02*
G75*
G02X142113000Y-63500000I0J-1905000D01*
G01*
X138938000Y-71755000D02*
X138938000Y-73025000D01*
X140208000Y-71755000D02*
X140208000Y-73025000D01*
X130048000Y-71755000D02*
X138938000Y-71755000D01*
X142113000Y-69850000D02*
G75*
G02X140208000Y-71755000I-1905000J0D01*
G01*
X128778000Y-70485000D02*
X128778000Y-62865000D01*
X128778000Y-62865000D02*
G75*
G02X130048000Y-61595000I1270000J0D01*
G01*
X142113000Y-63500000D02*
X142113000Y-69850000D01*
X140208000Y-61595000D02*
X130048000Y-61595000D01*
X157988000Y-73025000D02*
X171958000Y-73025000D01*
X149098000Y-71755000D02*
X156718000Y-71755000D01*
X147828000Y-70485000D02*
X147828000Y-62865000D01*
X159893000Y-63500000D02*
X159893000Y-69850000D01*
X157988000Y-61595000D02*
X149098000Y-61595000D01*
X157988000Y-71755000D02*
X157988000Y-73025000D01*
X156718000Y-71755000D02*
X156718000Y-73025000D01*
X159893000Y-69850000D02*
G75*
G02X157988000Y-71755000I-1905000J0D01*
G01*
X157988000Y-61595000D02*
G75*
G02X159893000Y-63500000I0J-1905000D01*
G01*
X149098000Y-71755000D02*
G75*
G02X147828000Y-70485000I0J1270000D01*
G01*
X147828000Y-62865000D02*
G75*
G02X149098000Y-61595000I1270000J0D01*
G01*
X173228000Y-73025000D02*
X175768000Y-73025000D01*
X171958000Y-71755000D02*
X171958000Y-73025000D01*
X173228000Y-71755000D02*
X173228000Y-73025000D01*
X165608000Y-71755000D02*
G75*
G02X164338000Y-70485000I0J1270000D01*
G01*
X164338000Y-62865000D02*
G75*
G02X165608000Y-61595000I1270000J0D01*
G01*
X173228000Y-61595000D02*
G75*
G02X175133000Y-63500000I0J-1905000D01*
G01*
X175133000Y-69850000D02*
G75*
G02X173228000Y-71755000I-1905000J0D01*
G01*
X164338000Y-70485000D02*
X164338000Y-62865000D01*
X175133000Y-63500000D02*
X175133000Y-69850000D01*
X165608000Y-71755000D02*
X171958000Y-71755000D01*
X173228000Y-61595000D02*
X165608000Y-61595000D01*
X177038000Y-85979000D02*
X177038000Y-74295000D01*
X179578000Y-88519000D02*
X177038000Y-85979000D01*
X179578000Y-121285000D02*
X179578000Y-88519000D01*
X177038000Y-123825000D02*
X179578000Y-121285000D01*
X177038000Y-125095000D02*
X177038000Y-123825000D01*
X112268000Y-126365000D02*
X175768000Y-126365000D01*
X110998000Y-74295000D02*
X110998000Y-125095000D01*
X138938000Y-73025000D02*
X122428000Y-73025000D01*
M02*
