G04 #@! TF.GenerationSoftware,KiCad,Pcbnew,5.0.2+dfsg1-1*
G04 #@! TF.CreationDate,2019-07-23T01:47:13-07:00*
G04 #@! TF.ProjectId,WeightAndMotionSensorShield,57656967-6874-4416-9e64-4d6f74696f6e,v01*
G04 #@! TF.SameCoordinates,Original*
G04 #@! TF.FileFunction,Soldermask,Top*
G04 #@! TF.FilePolarity,Negative*
%FSLAX46Y46*%
G04 Gerber Fmt 4.6, Leading zero omitted, Abs format (unit mm)*
G04 Created by KiCad (PCBNEW 5.0.2+dfsg1-1) date Tue 23 Jul 2019 01:47:13 AM PDT*
%MOMM*%
%LPD*%
G01*
G04 APERTURE LIST*
%ADD10C,0.100000*%
G04 APERTURE END LIST*
D10*
G36*
X125575528Y-121822240D02*
X125575531Y-121822241D01*
X125575530Y-121822241D01*
X125954576Y-121979246D01*
X126291112Y-122204112D01*
X126295711Y-122207185D01*
X126585815Y-122497289D01*
X126585817Y-122497292D01*
X126813754Y-122838424D01*
X126902526Y-123052740D01*
X126970760Y-123217472D01*
X127050800Y-123619861D01*
X127050800Y-124030139D01*
X126970760Y-124432528D01*
X126970759Y-124432530D01*
X126813754Y-124811576D01*
X126768990Y-124878570D01*
X126585815Y-125152711D01*
X126295711Y-125442815D01*
X126295708Y-125442817D01*
X125954576Y-125670754D01*
X125661400Y-125792191D01*
X125575528Y-125827760D01*
X125173139Y-125907800D01*
X124762861Y-125907800D01*
X124360472Y-125827760D01*
X124274600Y-125792191D01*
X123981424Y-125670754D01*
X123640292Y-125442817D01*
X123640289Y-125442815D01*
X123350185Y-125152711D01*
X123167010Y-124878570D01*
X123122246Y-124811576D01*
X122965241Y-124432530D01*
X122965240Y-124432528D01*
X122885200Y-124030139D01*
X122885200Y-123619861D01*
X122965240Y-123217472D01*
X123033474Y-123052740D01*
X123122246Y-122838424D01*
X123350183Y-122497292D01*
X123350185Y-122497289D01*
X123640289Y-122207185D01*
X123644888Y-122204112D01*
X123981424Y-121979246D01*
X124360470Y-121822241D01*
X124360469Y-121822241D01*
X124360472Y-121822240D01*
X124762861Y-121742200D01*
X125173139Y-121742200D01*
X125575528Y-121822240D01*
X125575528Y-121822240D01*
G37*
G36*
X141657249Y-122771430D02*
X141657252Y-122771431D01*
X141657253Y-122771431D01*
X141829618Y-122823717D01*
X141829620Y-122823718D01*
X141988473Y-122908627D01*
X142127707Y-123022893D01*
X142241973Y-123162127D01*
X142326882Y-123320979D01*
X142379170Y-123493349D01*
X142392400Y-123627679D01*
X142392400Y-124022320D01*
X142379170Y-124156650D01*
X142379169Y-124156653D01*
X142326883Y-124329019D01*
X142271556Y-124432528D01*
X142241973Y-124487873D01*
X142127707Y-124627107D01*
X141988473Y-124741373D01*
X141988471Y-124741374D01*
X141829619Y-124826283D01*
X141689339Y-124868836D01*
X141657251Y-124878570D01*
X141478000Y-124896224D01*
X141298751Y-124878570D01*
X141298748Y-124878569D01*
X141298747Y-124878569D01*
X141126382Y-124826283D01*
X140967530Y-124741374D01*
X140967528Y-124741373D01*
X140828296Y-124627109D01*
X140714025Y-124487870D01*
X140629118Y-124329021D01*
X140576830Y-124156651D01*
X140563600Y-124022321D01*
X140563600Y-123627680D01*
X140576830Y-123493350D01*
X140629118Y-123320980D01*
X140714027Y-123162127D01*
X140828293Y-123022893D01*
X140967527Y-122908627D01*
X141126379Y-122823718D01*
X141126381Y-122823717D01*
X141298746Y-122771431D01*
X141298749Y-122771430D01*
X141478000Y-122753776D01*
X141657249Y-122771430D01*
X141657249Y-122771430D01*
G37*
G36*
X144197249Y-122771430D02*
X144197252Y-122771431D01*
X144197253Y-122771431D01*
X144369618Y-122823717D01*
X144369620Y-122823718D01*
X144528473Y-122908627D01*
X144667707Y-123022893D01*
X144781973Y-123162127D01*
X144866882Y-123320979D01*
X144919170Y-123493349D01*
X144932400Y-123627679D01*
X144932400Y-124022320D01*
X144919170Y-124156650D01*
X144919169Y-124156653D01*
X144866883Y-124329019D01*
X144811556Y-124432528D01*
X144781973Y-124487873D01*
X144667707Y-124627107D01*
X144528473Y-124741373D01*
X144528471Y-124741374D01*
X144369619Y-124826283D01*
X144229339Y-124868836D01*
X144197251Y-124878570D01*
X144018000Y-124896224D01*
X143838751Y-124878570D01*
X143838748Y-124878569D01*
X143838747Y-124878569D01*
X143666382Y-124826283D01*
X143507530Y-124741374D01*
X143507528Y-124741373D01*
X143368296Y-124627109D01*
X143254025Y-124487870D01*
X143169118Y-124329021D01*
X143116830Y-124156651D01*
X143103600Y-124022321D01*
X143103600Y-123627680D01*
X143116830Y-123493350D01*
X143169118Y-123320980D01*
X143254027Y-123162127D01*
X143368293Y-123022893D01*
X143507527Y-122908627D01*
X143666379Y-122823718D01*
X143666381Y-122823717D01*
X143838746Y-122771431D01*
X143838749Y-122771430D01*
X144018000Y-122753776D01*
X144197249Y-122771430D01*
X144197249Y-122771430D01*
G37*
G36*
X146737249Y-122771430D02*
X146737252Y-122771431D01*
X146737253Y-122771431D01*
X146909618Y-122823717D01*
X146909620Y-122823718D01*
X147068473Y-122908627D01*
X147207707Y-123022893D01*
X147321973Y-123162127D01*
X147406882Y-123320979D01*
X147459170Y-123493349D01*
X147472400Y-123627679D01*
X147472400Y-124022320D01*
X147459170Y-124156650D01*
X147459169Y-124156653D01*
X147406883Y-124329019D01*
X147351556Y-124432528D01*
X147321973Y-124487873D01*
X147207707Y-124627107D01*
X147068473Y-124741373D01*
X147068471Y-124741374D01*
X146909619Y-124826283D01*
X146769339Y-124868836D01*
X146737251Y-124878570D01*
X146558000Y-124896224D01*
X146378751Y-124878570D01*
X146378748Y-124878569D01*
X146378747Y-124878569D01*
X146206382Y-124826283D01*
X146047530Y-124741374D01*
X146047528Y-124741373D01*
X145908296Y-124627109D01*
X145794025Y-124487870D01*
X145709118Y-124329021D01*
X145656830Y-124156651D01*
X145643600Y-124022321D01*
X145643600Y-123627680D01*
X145656830Y-123493350D01*
X145709118Y-123320980D01*
X145794027Y-123162127D01*
X145908293Y-123022893D01*
X146047527Y-122908627D01*
X146206379Y-122823718D01*
X146206381Y-122823717D01*
X146378746Y-122771431D01*
X146378749Y-122771430D01*
X146558000Y-122753776D01*
X146737249Y-122771430D01*
X146737249Y-122771430D01*
G37*
G36*
X149277249Y-122771430D02*
X149277252Y-122771431D01*
X149277253Y-122771431D01*
X149449618Y-122823717D01*
X149449620Y-122823718D01*
X149608473Y-122908627D01*
X149747707Y-123022893D01*
X149861973Y-123162127D01*
X149946882Y-123320979D01*
X149999170Y-123493349D01*
X150012400Y-123627679D01*
X150012400Y-124022320D01*
X149999170Y-124156650D01*
X149999169Y-124156653D01*
X149946883Y-124329019D01*
X149891556Y-124432528D01*
X149861973Y-124487873D01*
X149747707Y-124627107D01*
X149608473Y-124741373D01*
X149608471Y-124741374D01*
X149449619Y-124826283D01*
X149309339Y-124868836D01*
X149277251Y-124878570D01*
X149098000Y-124896224D01*
X148918751Y-124878570D01*
X148918748Y-124878569D01*
X148918747Y-124878569D01*
X148746382Y-124826283D01*
X148587530Y-124741374D01*
X148587528Y-124741373D01*
X148448296Y-124627109D01*
X148334025Y-124487870D01*
X148249118Y-124329021D01*
X148196830Y-124156651D01*
X148183600Y-124022321D01*
X148183600Y-123627680D01*
X148196830Y-123493350D01*
X148249118Y-123320980D01*
X148334027Y-123162127D01*
X148448293Y-123022893D01*
X148587527Y-122908627D01*
X148746379Y-122823718D01*
X148746381Y-122823717D01*
X148918746Y-122771431D01*
X148918749Y-122771430D01*
X149098000Y-122753776D01*
X149277249Y-122771430D01*
X149277249Y-122771430D01*
G37*
G36*
X151817249Y-122771430D02*
X151817252Y-122771431D01*
X151817253Y-122771431D01*
X151989618Y-122823717D01*
X151989620Y-122823718D01*
X152148473Y-122908627D01*
X152287707Y-123022893D01*
X152401973Y-123162127D01*
X152486882Y-123320979D01*
X152539170Y-123493349D01*
X152552400Y-123627679D01*
X152552400Y-124022320D01*
X152539170Y-124156650D01*
X152539169Y-124156653D01*
X152486883Y-124329019D01*
X152431556Y-124432528D01*
X152401973Y-124487873D01*
X152287707Y-124627107D01*
X152148473Y-124741373D01*
X152148471Y-124741374D01*
X151989619Y-124826283D01*
X151849339Y-124868836D01*
X151817251Y-124878570D01*
X151638000Y-124896224D01*
X151458751Y-124878570D01*
X151458748Y-124878569D01*
X151458747Y-124878569D01*
X151286382Y-124826283D01*
X151127530Y-124741374D01*
X151127528Y-124741373D01*
X150988296Y-124627109D01*
X150874025Y-124487870D01*
X150789118Y-124329021D01*
X150736830Y-124156651D01*
X150723600Y-124022321D01*
X150723600Y-123627680D01*
X150736830Y-123493350D01*
X150789118Y-123320980D01*
X150874027Y-123162127D01*
X150988293Y-123022893D01*
X151127527Y-122908627D01*
X151286379Y-122823718D01*
X151286381Y-122823717D01*
X151458746Y-122771431D01*
X151458749Y-122771430D01*
X151638000Y-122753776D01*
X151817249Y-122771430D01*
X151817249Y-122771430D01*
G37*
G36*
X154357249Y-122771430D02*
X154357252Y-122771431D01*
X154357253Y-122771431D01*
X154529618Y-122823717D01*
X154529620Y-122823718D01*
X154688473Y-122908627D01*
X154827707Y-123022893D01*
X154941973Y-123162127D01*
X155026882Y-123320979D01*
X155079170Y-123493349D01*
X155092400Y-123627679D01*
X155092400Y-124022320D01*
X155079170Y-124156650D01*
X155079169Y-124156653D01*
X155026883Y-124329019D01*
X154971556Y-124432528D01*
X154941973Y-124487873D01*
X154827707Y-124627107D01*
X154688473Y-124741373D01*
X154688471Y-124741374D01*
X154529619Y-124826283D01*
X154389339Y-124868836D01*
X154357251Y-124878570D01*
X154178000Y-124896224D01*
X153998751Y-124878570D01*
X153998748Y-124878569D01*
X153998747Y-124878569D01*
X153826382Y-124826283D01*
X153667530Y-124741374D01*
X153667528Y-124741373D01*
X153528296Y-124627109D01*
X153414025Y-124487870D01*
X153329118Y-124329021D01*
X153276830Y-124156651D01*
X153263600Y-124022321D01*
X153263600Y-123627680D01*
X153276830Y-123493350D01*
X153329118Y-123320980D01*
X153414027Y-123162127D01*
X153528293Y-123022893D01*
X153667527Y-122908627D01*
X153826379Y-122823718D01*
X153826381Y-122823717D01*
X153998746Y-122771431D01*
X153998749Y-122771430D01*
X154178000Y-122753776D01*
X154357249Y-122771430D01*
X154357249Y-122771430D01*
G37*
G36*
X139117249Y-122771430D02*
X139117252Y-122771431D01*
X139117253Y-122771431D01*
X139289618Y-122823717D01*
X139289620Y-122823718D01*
X139448473Y-122908627D01*
X139587707Y-123022893D01*
X139701973Y-123162127D01*
X139786882Y-123320979D01*
X139839170Y-123493349D01*
X139852400Y-123627679D01*
X139852400Y-124022320D01*
X139839170Y-124156650D01*
X139839169Y-124156653D01*
X139786883Y-124329019D01*
X139731556Y-124432528D01*
X139701973Y-124487873D01*
X139587707Y-124627107D01*
X139448473Y-124741373D01*
X139448471Y-124741374D01*
X139289619Y-124826283D01*
X139149339Y-124868836D01*
X139117251Y-124878570D01*
X138938000Y-124896224D01*
X138758751Y-124878570D01*
X138758748Y-124878569D01*
X138758747Y-124878569D01*
X138586382Y-124826283D01*
X138427530Y-124741374D01*
X138427528Y-124741373D01*
X138288296Y-124627109D01*
X138174025Y-124487870D01*
X138089118Y-124329021D01*
X138036830Y-124156651D01*
X138023600Y-124022321D01*
X138023600Y-123627680D01*
X138036830Y-123493350D01*
X138089118Y-123320980D01*
X138174027Y-123162127D01*
X138288293Y-123022893D01*
X138427527Y-122908627D01*
X138586379Y-122823718D01*
X138586381Y-122823717D01*
X138758746Y-122771431D01*
X138758749Y-122771430D01*
X138938000Y-122753776D01*
X139117249Y-122771430D01*
X139117249Y-122771430D01*
G37*
G36*
X164517249Y-122771430D02*
X164517252Y-122771431D01*
X164517253Y-122771431D01*
X164689618Y-122823717D01*
X164689620Y-122823718D01*
X164848473Y-122908627D01*
X164987707Y-123022893D01*
X165101973Y-123162127D01*
X165186882Y-123320979D01*
X165239170Y-123493349D01*
X165252400Y-123627679D01*
X165252400Y-124022320D01*
X165239170Y-124156650D01*
X165239169Y-124156653D01*
X165186883Y-124329019D01*
X165131556Y-124432528D01*
X165101973Y-124487873D01*
X164987707Y-124627107D01*
X164848473Y-124741373D01*
X164848471Y-124741374D01*
X164689619Y-124826283D01*
X164549339Y-124868836D01*
X164517251Y-124878570D01*
X164338000Y-124896224D01*
X164158751Y-124878570D01*
X164158748Y-124878569D01*
X164158747Y-124878569D01*
X163986382Y-124826283D01*
X163827530Y-124741374D01*
X163827528Y-124741373D01*
X163688296Y-124627109D01*
X163574025Y-124487870D01*
X163489118Y-124329021D01*
X163436830Y-124156651D01*
X163423600Y-124022321D01*
X163423600Y-123627680D01*
X163436830Y-123493350D01*
X163489118Y-123320980D01*
X163574027Y-123162127D01*
X163688293Y-123022893D01*
X163827527Y-122908627D01*
X163986379Y-122823718D01*
X163986381Y-122823717D01*
X164158746Y-122771431D01*
X164158749Y-122771430D01*
X164338000Y-122753776D01*
X164517249Y-122771430D01*
X164517249Y-122771430D01*
G37*
G36*
X156897249Y-122771430D02*
X156897252Y-122771431D01*
X156897253Y-122771431D01*
X157069618Y-122823717D01*
X157069620Y-122823718D01*
X157228473Y-122908627D01*
X157367707Y-123022893D01*
X157481973Y-123162127D01*
X157566882Y-123320979D01*
X157619170Y-123493349D01*
X157632400Y-123627679D01*
X157632400Y-124022320D01*
X157619170Y-124156650D01*
X157619169Y-124156653D01*
X157566883Y-124329019D01*
X157511556Y-124432528D01*
X157481973Y-124487873D01*
X157367707Y-124627107D01*
X157228473Y-124741373D01*
X157228471Y-124741374D01*
X157069619Y-124826283D01*
X156929339Y-124868836D01*
X156897251Y-124878570D01*
X156718000Y-124896224D01*
X156538751Y-124878570D01*
X156538748Y-124878569D01*
X156538747Y-124878569D01*
X156366382Y-124826283D01*
X156207530Y-124741374D01*
X156207528Y-124741373D01*
X156068296Y-124627109D01*
X155954025Y-124487870D01*
X155869118Y-124329021D01*
X155816830Y-124156651D01*
X155803600Y-124022321D01*
X155803600Y-123627680D01*
X155816830Y-123493350D01*
X155869118Y-123320980D01*
X155954027Y-123162127D01*
X156068293Y-123022893D01*
X156207527Y-122908627D01*
X156366379Y-122823718D01*
X156366381Y-122823717D01*
X156538746Y-122771431D01*
X156538749Y-122771430D01*
X156718000Y-122753776D01*
X156897249Y-122771430D01*
X156897249Y-122771430D01*
G37*
G36*
X174677249Y-122771430D02*
X174677252Y-122771431D01*
X174677253Y-122771431D01*
X174849618Y-122823717D01*
X174849620Y-122823718D01*
X175008473Y-122908627D01*
X175147707Y-123022893D01*
X175261973Y-123162127D01*
X175346882Y-123320979D01*
X175399170Y-123493349D01*
X175412400Y-123627679D01*
X175412400Y-124022320D01*
X175399170Y-124156650D01*
X175399169Y-124156653D01*
X175346883Y-124329019D01*
X175291556Y-124432528D01*
X175261973Y-124487873D01*
X175147707Y-124627107D01*
X175008473Y-124741373D01*
X175008471Y-124741374D01*
X174849619Y-124826283D01*
X174709339Y-124868836D01*
X174677251Y-124878570D01*
X174498000Y-124896224D01*
X174318751Y-124878570D01*
X174318748Y-124878569D01*
X174318747Y-124878569D01*
X174146382Y-124826283D01*
X173987530Y-124741374D01*
X173987528Y-124741373D01*
X173848296Y-124627109D01*
X173734025Y-124487870D01*
X173649118Y-124329021D01*
X173596830Y-124156651D01*
X173583600Y-124022321D01*
X173583600Y-123627680D01*
X173596830Y-123493350D01*
X173649118Y-123320980D01*
X173734027Y-123162127D01*
X173848293Y-123022893D01*
X173987527Y-122908627D01*
X174146379Y-122823718D01*
X174146381Y-122823717D01*
X174318746Y-122771431D01*
X174318749Y-122771430D01*
X174498000Y-122753776D01*
X174677249Y-122771430D01*
X174677249Y-122771430D01*
G37*
G36*
X172137249Y-122771430D02*
X172137252Y-122771431D01*
X172137253Y-122771431D01*
X172309618Y-122823717D01*
X172309620Y-122823718D01*
X172468473Y-122908627D01*
X172607707Y-123022893D01*
X172721973Y-123162127D01*
X172806882Y-123320979D01*
X172859170Y-123493349D01*
X172872400Y-123627679D01*
X172872400Y-124022320D01*
X172859170Y-124156650D01*
X172859169Y-124156653D01*
X172806883Y-124329019D01*
X172751556Y-124432528D01*
X172721973Y-124487873D01*
X172607707Y-124627107D01*
X172468473Y-124741373D01*
X172468471Y-124741374D01*
X172309619Y-124826283D01*
X172169339Y-124868836D01*
X172137251Y-124878570D01*
X171958000Y-124896224D01*
X171778751Y-124878570D01*
X171778748Y-124878569D01*
X171778747Y-124878569D01*
X171606382Y-124826283D01*
X171447530Y-124741374D01*
X171447528Y-124741373D01*
X171308296Y-124627109D01*
X171194025Y-124487870D01*
X171109118Y-124329021D01*
X171056830Y-124156651D01*
X171043600Y-124022321D01*
X171043600Y-123627680D01*
X171056830Y-123493350D01*
X171109118Y-123320980D01*
X171194027Y-123162127D01*
X171308293Y-123022893D01*
X171447527Y-122908627D01*
X171606379Y-122823718D01*
X171606381Y-122823717D01*
X171778746Y-122771431D01*
X171778749Y-122771430D01*
X171958000Y-122753776D01*
X172137249Y-122771430D01*
X172137249Y-122771430D01*
G37*
G36*
X169597249Y-122771430D02*
X169597252Y-122771431D01*
X169597253Y-122771431D01*
X169769618Y-122823717D01*
X169769620Y-122823718D01*
X169928473Y-122908627D01*
X170067707Y-123022893D01*
X170181973Y-123162127D01*
X170266882Y-123320979D01*
X170319170Y-123493349D01*
X170332400Y-123627679D01*
X170332400Y-124022320D01*
X170319170Y-124156650D01*
X170319169Y-124156653D01*
X170266883Y-124329019D01*
X170211556Y-124432528D01*
X170181973Y-124487873D01*
X170067707Y-124627107D01*
X169928473Y-124741373D01*
X169928471Y-124741374D01*
X169769619Y-124826283D01*
X169629339Y-124868836D01*
X169597251Y-124878570D01*
X169418000Y-124896224D01*
X169238751Y-124878570D01*
X169238748Y-124878569D01*
X169238747Y-124878569D01*
X169066382Y-124826283D01*
X168907530Y-124741374D01*
X168907528Y-124741373D01*
X168768296Y-124627109D01*
X168654025Y-124487870D01*
X168569118Y-124329021D01*
X168516830Y-124156651D01*
X168503600Y-124022321D01*
X168503600Y-123627680D01*
X168516830Y-123493350D01*
X168569118Y-123320980D01*
X168654027Y-123162127D01*
X168768293Y-123022893D01*
X168907527Y-122908627D01*
X169066379Y-122823718D01*
X169066381Y-122823717D01*
X169238746Y-122771431D01*
X169238749Y-122771430D01*
X169418000Y-122753776D01*
X169597249Y-122771430D01*
X169597249Y-122771430D01*
G37*
G36*
X167057249Y-122771430D02*
X167057252Y-122771431D01*
X167057253Y-122771431D01*
X167229618Y-122823717D01*
X167229620Y-122823718D01*
X167388473Y-122908627D01*
X167527707Y-123022893D01*
X167641973Y-123162127D01*
X167726882Y-123320979D01*
X167779170Y-123493349D01*
X167792400Y-123627679D01*
X167792400Y-124022320D01*
X167779170Y-124156650D01*
X167779169Y-124156653D01*
X167726883Y-124329019D01*
X167671556Y-124432528D01*
X167641973Y-124487873D01*
X167527707Y-124627107D01*
X167388473Y-124741373D01*
X167388471Y-124741374D01*
X167229619Y-124826283D01*
X167089339Y-124868836D01*
X167057251Y-124878570D01*
X166878000Y-124896224D01*
X166698751Y-124878570D01*
X166698748Y-124878569D01*
X166698747Y-124878569D01*
X166526382Y-124826283D01*
X166367530Y-124741374D01*
X166367528Y-124741373D01*
X166228296Y-124627109D01*
X166114025Y-124487870D01*
X166029118Y-124329021D01*
X165976830Y-124156651D01*
X165963600Y-124022321D01*
X165963600Y-123627680D01*
X165976830Y-123493350D01*
X166029118Y-123320980D01*
X166114027Y-123162127D01*
X166228293Y-123022893D01*
X166367527Y-122908627D01*
X166526379Y-122823718D01*
X166526381Y-122823717D01*
X166698746Y-122771431D01*
X166698749Y-122771430D01*
X166878000Y-122753776D01*
X167057249Y-122771430D01*
X167057249Y-122771430D01*
G37*
G36*
X161977249Y-122771430D02*
X161977252Y-122771431D01*
X161977253Y-122771431D01*
X162149618Y-122823717D01*
X162149620Y-122823718D01*
X162308473Y-122908627D01*
X162447707Y-123022893D01*
X162561973Y-123162127D01*
X162646882Y-123320979D01*
X162699170Y-123493349D01*
X162712400Y-123627679D01*
X162712400Y-124022320D01*
X162699170Y-124156650D01*
X162699169Y-124156653D01*
X162646883Y-124329019D01*
X162591556Y-124432528D01*
X162561973Y-124487873D01*
X162447707Y-124627107D01*
X162308473Y-124741373D01*
X162308471Y-124741374D01*
X162149619Y-124826283D01*
X162009339Y-124868836D01*
X161977251Y-124878570D01*
X161798000Y-124896224D01*
X161618751Y-124878570D01*
X161618748Y-124878569D01*
X161618747Y-124878569D01*
X161446382Y-124826283D01*
X161287530Y-124741374D01*
X161287528Y-124741373D01*
X161148296Y-124627109D01*
X161034025Y-124487870D01*
X160949118Y-124329021D01*
X160896830Y-124156651D01*
X160883600Y-124022321D01*
X160883600Y-123627680D01*
X160896830Y-123493350D01*
X160949118Y-123320980D01*
X161034027Y-123162127D01*
X161148293Y-123022893D01*
X161287527Y-122908627D01*
X161446379Y-122823718D01*
X161446381Y-122823717D01*
X161618746Y-122771431D01*
X161618749Y-122771430D01*
X161798000Y-122753776D01*
X161977249Y-122771430D01*
X161977249Y-122771430D01*
G37*
G36*
X128934507Y-121544582D02*
X129125740Y-121623793D01*
X129296687Y-121738016D01*
X129297849Y-121738793D01*
X129444207Y-121885151D01*
X129444209Y-121885154D01*
X129559207Y-122057260D01*
X129638418Y-122248493D01*
X129678800Y-122451505D01*
X129678800Y-122658495D01*
X129638418Y-122861507D01*
X129559207Y-123052740D01*
X129449136Y-123217472D01*
X129444207Y-123224849D01*
X129297849Y-123371207D01*
X129297846Y-123371209D01*
X129125740Y-123486207D01*
X128934507Y-123565418D01*
X128731495Y-123605800D01*
X128524505Y-123605800D01*
X128321493Y-123565418D01*
X128130260Y-123486207D01*
X127958154Y-123371209D01*
X127958151Y-123371207D01*
X127811793Y-123224849D01*
X127806864Y-123217472D01*
X127696793Y-123052740D01*
X127617582Y-122861507D01*
X127577200Y-122658495D01*
X127577200Y-122451505D01*
X127617582Y-122248493D01*
X127696793Y-122057260D01*
X127811791Y-121885154D01*
X127811793Y-121885151D01*
X127958151Y-121738793D01*
X127959313Y-121738016D01*
X128130260Y-121623793D01*
X128321493Y-121544582D01*
X128524505Y-121504200D01*
X128731495Y-121504200D01*
X128934507Y-121544582D01*
X128934507Y-121544582D01*
G37*
G36*
X135434507Y-121544582D02*
X135625740Y-121623793D01*
X135796687Y-121738016D01*
X135797849Y-121738793D01*
X135944207Y-121885151D01*
X135944209Y-121885154D01*
X136059207Y-122057260D01*
X136138418Y-122248493D01*
X136178800Y-122451505D01*
X136178800Y-122658495D01*
X136138418Y-122861507D01*
X136059207Y-123052740D01*
X135949136Y-123217472D01*
X135944207Y-123224849D01*
X135797849Y-123371207D01*
X135797846Y-123371209D01*
X135625740Y-123486207D01*
X135434507Y-123565418D01*
X135231495Y-123605800D01*
X135024505Y-123605800D01*
X134821493Y-123565418D01*
X134630260Y-123486207D01*
X134458154Y-123371209D01*
X134458151Y-123371207D01*
X134311793Y-123224849D01*
X134306864Y-123217472D01*
X134196793Y-123052740D01*
X134117582Y-122861507D01*
X134077200Y-122658495D01*
X134077200Y-122451505D01*
X134117582Y-122248493D01*
X134196793Y-122057260D01*
X134311791Y-121885154D01*
X134311793Y-121885151D01*
X134458151Y-121738793D01*
X134459313Y-121738016D01*
X134630260Y-121623793D01*
X134821493Y-121544582D01*
X135024505Y-121504200D01*
X135231495Y-121504200D01*
X135434507Y-121544582D01*
X135434507Y-121544582D01*
G37*
G36*
X177645528Y-116742240D02*
X177645531Y-116742241D01*
X177645530Y-116742241D01*
X178024576Y-116899246D01*
X178024577Y-116899247D01*
X178365711Y-117127185D01*
X178655815Y-117417289D01*
X178655817Y-117417292D01*
X178883754Y-117758424D01*
X179005191Y-118051600D01*
X179040760Y-118137472D01*
X179120800Y-118539861D01*
X179120800Y-118950139D01*
X179040760Y-119352528D01*
X179040759Y-119352530D01*
X178883754Y-119731576D01*
X178883753Y-119731577D01*
X178655815Y-120072711D01*
X178365711Y-120362815D01*
X178365708Y-120362817D01*
X178024576Y-120590754D01*
X177731400Y-120712191D01*
X177645528Y-120747760D01*
X177243139Y-120827800D01*
X176832861Y-120827800D01*
X176430472Y-120747760D01*
X176344600Y-120712191D01*
X176051424Y-120590754D01*
X175710292Y-120362817D01*
X175710289Y-120362815D01*
X175420185Y-120072711D01*
X175192247Y-119731577D01*
X175192246Y-119731576D01*
X175035241Y-119352530D01*
X175035240Y-119352528D01*
X174955200Y-118950139D01*
X174955200Y-118539861D01*
X175035240Y-118137472D01*
X175070809Y-118051600D01*
X175192246Y-117758424D01*
X175420183Y-117417292D01*
X175420185Y-117417289D01*
X175710289Y-117127185D01*
X176051423Y-116899247D01*
X176051424Y-116899246D01*
X176430470Y-116742241D01*
X176430469Y-116742241D01*
X176430472Y-116742240D01*
X176832861Y-116662200D01*
X177243139Y-116662200D01*
X177645528Y-116742240D01*
X177645528Y-116742240D01*
G37*
G36*
X125245338Y-117830738D02*
X125418373Y-117902412D01*
X125574100Y-118006465D01*
X125706535Y-118138900D01*
X125810588Y-118294627D01*
X125882262Y-118467662D01*
X125918800Y-118651354D01*
X125918800Y-118838646D01*
X125882262Y-119022338D01*
X125810588Y-119195373D01*
X125706535Y-119351100D01*
X125574100Y-119483535D01*
X125418373Y-119587588D01*
X125245338Y-119659262D01*
X125061646Y-119695800D01*
X124874354Y-119695800D01*
X124690662Y-119659262D01*
X124517627Y-119587588D01*
X124361900Y-119483535D01*
X124229465Y-119351100D01*
X124125412Y-119195373D01*
X124053738Y-119022338D01*
X124017200Y-118838646D01*
X124017200Y-118651354D01*
X124053738Y-118467662D01*
X124125412Y-118294627D01*
X124229465Y-118138900D01*
X124361900Y-118006465D01*
X124517627Y-117902412D01*
X124690662Y-117830738D01*
X124874354Y-117794200D01*
X125061646Y-117794200D01*
X125245338Y-117830738D01*
X125245338Y-117830738D01*
G37*
G36*
X123378800Y-119695800D02*
X121477200Y-119695800D01*
X121477200Y-117794200D01*
X123378800Y-117794200D01*
X123378800Y-119695800D01*
X123378800Y-119695800D01*
G37*
G36*
X128934507Y-117044582D02*
X129125740Y-117123793D01*
X129296687Y-117238016D01*
X129297849Y-117238793D01*
X129444207Y-117385151D01*
X129444209Y-117385154D01*
X129559207Y-117557260D01*
X129638418Y-117748493D01*
X129678800Y-117951505D01*
X129678800Y-118158495D01*
X129638418Y-118361507D01*
X129559207Y-118552740D01*
X129493315Y-118651354D01*
X129444207Y-118724849D01*
X129297849Y-118871207D01*
X129297846Y-118871209D01*
X129125740Y-118986207D01*
X128934507Y-119065418D01*
X128731495Y-119105800D01*
X128524505Y-119105800D01*
X128321493Y-119065418D01*
X128130260Y-118986207D01*
X127958154Y-118871209D01*
X127958151Y-118871207D01*
X127811793Y-118724849D01*
X127762685Y-118651354D01*
X127696793Y-118552740D01*
X127617582Y-118361507D01*
X127577200Y-118158495D01*
X127577200Y-117951505D01*
X127617582Y-117748493D01*
X127696793Y-117557260D01*
X127811791Y-117385154D01*
X127811793Y-117385151D01*
X127958151Y-117238793D01*
X127959313Y-117238016D01*
X128130260Y-117123793D01*
X128321493Y-117044582D01*
X128524505Y-117004200D01*
X128731495Y-117004200D01*
X128934507Y-117044582D01*
X128934507Y-117044582D01*
G37*
G36*
X135434507Y-117044582D02*
X135625740Y-117123793D01*
X135796687Y-117238016D01*
X135797849Y-117238793D01*
X135944207Y-117385151D01*
X135944209Y-117385154D01*
X136059207Y-117557260D01*
X136138418Y-117748493D01*
X136178800Y-117951505D01*
X136178800Y-118158495D01*
X136138418Y-118361507D01*
X136059207Y-118552740D01*
X135993315Y-118651354D01*
X135944207Y-118724849D01*
X135797849Y-118871207D01*
X135797846Y-118871209D01*
X135625740Y-118986207D01*
X135434507Y-119065418D01*
X135231495Y-119105800D01*
X135024505Y-119105800D01*
X134821493Y-119065418D01*
X134630260Y-118986207D01*
X134458154Y-118871209D01*
X134458151Y-118871207D01*
X134311793Y-118724849D01*
X134262685Y-118651354D01*
X134196793Y-118552740D01*
X134117582Y-118361507D01*
X134077200Y-118158495D01*
X134077200Y-117951505D01*
X134117582Y-117748493D01*
X134196793Y-117557260D01*
X134311791Y-117385154D01*
X134311793Y-117385151D01*
X134458151Y-117238793D01*
X134459313Y-117238016D01*
X134630260Y-117123793D01*
X134821493Y-117044582D01*
X135024505Y-117004200D01*
X135231495Y-117004200D01*
X135434507Y-117044582D01*
X135434507Y-117044582D01*
G37*
G36*
X132836169Y-114116895D02*
X132991005Y-114181031D01*
X133130354Y-114274140D01*
X133248860Y-114392646D01*
X133341969Y-114531995D01*
X133406105Y-114686831D01*
X133438800Y-114851203D01*
X133438800Y-115018797D01*
X133406105Y-115183169D01*
X133341969Y-115338005D01*
X133248860Y-115477354D01*
X133130354Y-115595860D01*
X132991005Y-115688969D01*
X132836169Y-115753105D01*
X132671797Y-115785800D01*
X132504203Y-115785800D01*
X132339831Y-115753105D01*
X132184995Y-115688969D01*
X132045646Y-115595860D01*
X131927140Y-115477354D01*
X131834031Y-115338005D01*
X131769895Y-115183169D01*
X131737200Y-115018797D01*
X131737200Y-114851203D01*
X131769895Y-114686831D01*
X131834031Y-114531995D01*
X131927140Y-114392646D01*
X132045646Y-114274140D01*
X132184995Y-114181031D01*
X132339831Y-114116895D01*
X132504203Y-114084200D01*
X132671797Y-114084200D01*
X132836169Y-114116895D01*
X132836169Y-114116895D01*
G37*
G36*
X122594787Y-114096510D02*
X122755160Y-114145160D01*
X122755162Y-114145161D01*
X122902966Y-114224163D01*
X123032517Y-114330483D01*
X123138837Y-114460034D01*
X123217839Y-114607838D01*
X123217840Y-114607840D01*
X123266490Y-114768213D01*
X123282916Y-114935000D01*
X123266490Y-115101787D01*
X123217840Y-115262160D01*
X123217839Y-115262162D01*
X123138837Y-115409966D01*
X123032517Y-115539517D01*
X122902966Y-115645837D01*
X122755162Y-115724839D01*
X122755160Y-115724840D01*
X122594787Y-115773490D01*
X122469794Y-115785800D01*
X122386206Y-115785800D01*
X122261213Y-115773490D01*
X122100840Y-115724840D01*
X122100838Y-115724839D01*
X121953034Y-115645837D01*
X121823483Y-115539517D01*
X121717163Y-115409966D01*
X121638161Y-115262162D01*
X121638160Y-115262160D01*
X121589510Y-115101787D01*
X121573084Y-114935000D01*
X121589510Y-114768213D01*
X121638160Y-114607840D01*
X121638161Y-114607838D01*
X121717163Y-114460034D01*
X121823483Y-114330483D01*
X121953034Y-114224163D01*
X122100838Y-114145161D01*
X122100840Y-114145160D01*
X122261213Y-114096510D01*
X122386206Y-114084200D01*
X122469794Y-114084200D01*
X122594787Y-114096510D01*
X122594787Y-114096510D01*
G37*
G36*
X137905085Y-111613435D02*
X138053004Y-111674705D01*
X138186133Y-111763659D01*
X138299341Y-111876867D01*
X138388295Y-112009996D01*
X138449565Y-112157915D01*
X138480800Y-112314945D01*
X138480800Y-112475055D01*
X138449565Y-112632085D01*
X138388295Y-112780004D01*
X138299341Y-112913133D01*
X138186133Y-113026341D01*
X138053004Y-113115295D01*
X137905085Y-113176565D01*
X137748055Y-113207800D01*
X137587945Y-113207800D01*
X137430915Y-113176565D01*
X137282996Y-113115295D01*
X137149867Y-113026341D01*
X137036659Y-112913133D01*
X136947705Y-112780004D01*
X136886435Y-112632085D01*
X136855200Y-112475055D01*
X136855200Y-112314945D01*
X136886435Y-112157915D01*
X136947705Y-112009996D01*
X137036659Y-111876867D01*
X137149867Y-111763659D01*
X137282996Y-111674705D01*
X137430915Y-111613435D01*
X137587945Y-111582200D01*
X137748055Y-111582200D01*
X137905085Y-111613435D01*
X137905085Y-111613435D01*
G37*
G36*
X163305085Y-109073435D02*
X163453004Y-109134705D01*
X163586133Y-109223659D01*
X163699341Y-109336867D01*
X163788295Y-109469996D01*
X163849565Y-109617915D01*
X163880800Y-109774945D01*
X163880800Y-109935055D01*
X163849565Y-110092085D01*
X163788295Y-110240004D01*
X163699341Y-110373133D01*
X163586133Y-110486341D01*
X163453004Y-110575295D01*
X163305085Y-110636565D01*
X163148055Y-110667800D01*
X162987945Y-110667800D01*
X162830915Y-110636565D01*
X162682996Y-110575295D01*
X162549867Y-110486341D01*
X162436659Y-110373133D01*
X162347705Y-110240004D01*
X162286435Y-110092085D01*
X162255200Y-109935055D01*
X162255200Y-109774945D01*
X162286435Y-109617915D01*
X162347705Y-109469996D01*
X162436659Y-109336867D01*
X162549867Y-109223659D01*
X162682996Y-109134705D01*
X162830915Y-109073435D01*
X162987945Y-109042200D01*
X163148055Y-109042200D01*
X163305085Y-109073435D01*
X163305085Y-109073435D01*
G37*
G36*
X137905085Y-109073435D02*
X138053004Y-109134705D01*
X138186133Y-109223659D01*
X138299341Y-109336867D01*
X138388295Y-109469996D01*
X138449565Y-109617915D01*
X138480800Y-109774945D01*
X138480800Y-109935055D01*
X138449565Y-110092085D01*
X138388295Y-110240004D01*
X138299341Y-110373133D01*
X138186133Y-110486341D01*
X138053004Y-110575295D01*
X137905085Y-110636565D01*
X137748055Y-110667800D01*
X137587945Y-110667800D01*
X137430915Y-110636565D01*
X137282996Y-110575295D01*
X137149867Y-110486341D01*
X137036659Y-110373133D01*
X136947705Y-110240004D01*
X136886435Y-110092085D01*
X136855200Y-109935055D01*
X136855200Y-109774945D01*
X136886435Y-109617915D01*
X136947705Y-109469996D01*
X137036659Y-109336867D01*
X137149867Y-109223659D01*
X137282996Y-109134705D01*
X137430915Y-109073435D01*
X137587945Y-109042200D01*
X137748055Y-109042200D01*
X137905085Y-109073435D01*
X137905085Y-109073435D01*
G37*
G36*
X116166362Y-106418545D02*
X116254588Y-106427234D01*
X116367789Y-106461573D01*
X116424390Y-106478743D01*
X116468274Y-106502200D01*
X116580879Y-106562389D01*
X116616609Y-106591712D01*
X116718044Y-106674956D01*
X116801288Y-106776391D01*
X116830611Y-106812121D01*
X116830612Y-106812123D01*
X116914257Y-106968610D01*
X116914257Y-106968611D01*
X116965766Y-107138412D01*
X116983158Y-107315000D01*
X116965766Y-107491588D01*
X116947414Y-107552085D01*
X116914257Y-107661390D01*
X116840178Y-107799980D01*
X116830611Y-107817879D01*
X116818092Y-107833133D01*
X116718044Y-107955044D01*
X116620257Y-108035294D01*
X116580879Y-108067611D01*
X116580877Y-108067612D01*
X116424390Y-108151257D01*
X116367789Y-108168427D01*
X116254588Y-108202766D01*
X116166362Y-108211455D01*
X116122250Y-108215800D01*
X116033750Y-108215800D01*
X115989638Y-108211455D01*
X115901412Y-108202766D01*
X115788211Y-108168427D01*
X115731610Y-108151257D01*
X115575123Y-108067612D01*
X115575121Y-108067611D01*
X115535743Y-108035294D01*
X115437956Y-107955044D01*
X115337908Y-107833133D01*
X115325389Y-107817879D01*
X115315822Y-107799980D01*
X115241743Y-107661390D01*
X115208586Y-107552085D01*
X115190234Y-107491588D01*
X115172842Y-107315000D01*
X115190234Y-107138412D01*
X115241743Y-106968611D01*
X115241743Y-106968610D01*
X115325388Y-106812123D01*
X115325389Y-106812121D01*
X115354712Y-106776391D01*
X115437956Y-106674956D01*
X115539391Y-106591712D01*
X115575121Y-106562389D01*
X115687726Y-106502200D01*
X115731610Y-106478743D01*
X115788211Y-106461573D01*
X115901412Y-106427234D01*
X115989638Y-106418545D01*
X116033750Y-106414200D01*
X116122250Y-106414200D01*
X116166362Y-106418545D01*
X116166362Y-106418545D01*
G37*
G36*
X137905085Y-106533435D02*
X138053004Y-106594705D01*
X138186133Y-106683659D01*
X138299341Y-106796867D01*
X138388295Y-106929996D01*
X138449565Y-107077915D01*
X138480800Y-107234945D01*
X138480800Y-107395055D01*
X138449565Y-107552085D01*
X138388295Y-107700004D01*
X138299341Y-107833133D01*
X138186133Y-107946341D01*
X138053004Y-108035295D01*
X137905085Y-108096565D01*
X137748055Y-108127800D01*
X137587945Y-108127800D01*
X137430915Y-108096565D01*
X137282996Y-108035295D01*
X137149867Y-107946341D01*
X137036659Y-107833133D01*
X136947705Y-107700004D01*
X136886435Y-107552085D01*
X136855200Y-107395055D01*
X136855200Y-107234945D01*
X136886435Y-107077915D01*
X136947705Y-106929996D01*
X137036659Y-106796867D01*
X137149867Y-106683659D01*
X137282996Y-106594705D01*
X137430915Y-106533435D01*
X137587945Y-106502200D01*
X137748055Y-106502200D01*
X137905085Y-106533435D01*
X137905085Y-106533435D01*
G37*
G36*
X163305085Y-106533435D02*
X163453004Y-106594705D01*
X163586133Y-106683659D01*
X163699341Y-106796867D01*
X163788295Y-106929996D01*
X163849565Y-107077915D01*
X163880800Y-107234945D01*
X163880800Y-107395055D01*
X163849565Y-107552085D01*
X163788295Y-107700004D01*
X163699341Y-107833133D01*
X163586133Y-107946341D01*
X163453004Y-108035295D01*
X163305085Y-108096565D01*
X163148055Y-108127800D01*
X162987945Y-108127800D01*
X162830915Y-108096565D01*
X162682996Y-108035295D01*
X162549867Y-107946341D01*
X162436659Y-107833133D01*
X162347705Y-107700004D01*
X162286435Y-107552085D01*
X162255200Y-107395055D01*
X162255200Y-107234945D01*
X162286435Y-107077915D01*
X162347705Y-106929996D01*
X162436659Y-106796867D01*
X162549867Y-106683659D01*
X162682996Y-106594705D01*
X162830915Y-106533435D01*
X162987945Y-106502200D01*
X163148055Y-106502200D01*
X163305085Y-106533435D01*
X163305085Y-106533435D01*
G37*
G36*
X116166362Y-103878545D02*
X116254588Y-103887234D01*
X116367789Y-103921573D01*
X116424390Y-103938743D01*
X116468274Y-103962200D01*
X116580879Y-104022389D01*
X116616609Y-104051712D01*
X116718044Y-104134956D01*
X116801288Y-104236391D01*
X116830611Y-104272121D01*
X116830612Y-104272123D01*
X116914257Y-104428610D01*
X116914257Y-104428611D01*
X116965766Y-104598412D01*
X116983158Y-104775000D01*
X116965766Y-104951588D01*
X116947414Y-105012085D01*
X116914257Y-105121390D01*
X116840178Y-105259980D01*
X116830611Y-105277879D01*
X116818092Y-105293133D01*
X116718044Y-105415044D01*
X116620257Y-105495294D01*
X116580879Y-105527611D01*
X116580877Y-105527612D01*
X116424390Y-105611257D01*
X116367789Y-105628427D01*
X116254588Y-105662766D01*
X116166362Y-105671455D01*
X116122250Y-105675800D01*
X116033750Y-105675800D01*
X115989638Y-105671455D01*
X115901412Y-105662766D01*
X115788211Y-105628427D01*
X115731610Y-105611257D01*
X115575123Y-105527612D01*
X115575121Y-105527611D01*
X115535743Y-105495294D01*
X115437956Y-105415044D01*
X115337908Y-105293133D01*
X115325389Y-105277879D01*
X115315822Y-105259980D01*
X115241743Y-105121390D01*
X115208586Y-105012085D01*
X115190234Y-104951588D01*
X115172842Y-104775000D01*
X115190234Y-104598412D01*
X115241743Y-104428611D01*
X115241743Y-104428610D01*
X115325388Y-104272123D01*
X115325389Y-104272121D01*
X115354712Y-104236391D01*
X115437956Y-104134956D01*
X115539391Y-104051712D01*
X115575121Y-104022389D01*
X115687726Y-103962200D01*
X115731610Y-103938743D01*
X115788211Y-103921573D01*
X115901412Y-103887234D01*
X115989638Y-103878545D01*
X116033750Y-103874200D01*
X116122250Y-103874200D01*
X116166362Y-103878545D01*
X116166362Y-103878545D01*
G37*
G36*
X163305085Y-103993435D02*
X163453004Y-104054705D01*
X163586133Y-104143659D01*
X163699341Y-104256867D01*
X163788295Y-104389996D01*
X163849565Y-104537915D01*
X163880800Y-104694945D01*
X163880800Y-104855055D01*
X163849565Y-105012085D01*
X163788295Y-105160004D01*
X163699341Y-105293133D01*
X163586133Y-105406341D01*
X163453004Y-105495295D01*
X163305085Y-105556565D01*
X163148055Y-105587800D01*
X162987945Y-105587800D01*
X162830915Y-105556565D01*
X162682996Y-105495295D01*
X162549867Y-105406341D01*
X162436659Y-105293133D01*
X162347705Y-105160004D01*
X162286435Y-105012085D01*
X162255200Y-104855055D01*
X162255200Y-104694945D01*
X162286435Y-104537915D01*
X162347705Y-104389996D01*
X162436659Y-104256867D01*
X162549867Y-104143659D01*
X162682996Y-104054705D01*
X162830915Y-103993435D01*
X162987945Y-103962200D01*
X163148055Y-103962200D01*
X163305085Y-103993435D01*
X163305085Y-103993435D01*
G37*
G36*
X137905085Y-103993435D02*
X138053004Y-104054705D01*
X138186133Y-104143659D01*
X138299341Y-104256867D01*
X138388295Y-104389996D01*
X138449565Y-104537915D01*
X138480800Y-104694945D01*
X138480800Y-104855055D01*
X138449565Y-105012085D01*
X138388295Y-105160004D01*
X138299341Y-105293133D01*
X138186133Y-105406341D01*
X138053004Y-105495295D01*
X137905085Y-105556565D01*
X137748055Y-105587800D01*
X137587945Y-105587800D01*
X137430915Y-105556565D01*
X137282996Y-105495295D01*
X137149867Y-105406341D01*
X137036659Y-105293133D01*
X136947705Y-105160004D01*
X136886435Y-105012085D01*
X136855200Y-104855055D01*
X136855200Y-104694945D01*
X136886435Y-104537915D01*
X136947705Y-104389996D01*
X137036659Y-104256867D01*
X137149867Y-104143659D01*
X137282996Y-104054705D01*
X137430915Y-103993435D01*
X137587945Y-103962200D01*
X137748055Y-103962200D01*
X137905085Y-103993435D01*
X137905085Y-103993435D01*
G37*
G36*
X116166362Y-101338545D02*
X116254588Y-101347234D01*
X116367789Y-101381573D01*
X116424390Y-101398743D01*
X116468274Y-101422200D01*
X116580879Y-101482389D01*
X116616609Y-101511712D01*
X116718044Y-101594956D01*
X116801288Y-101696391D01*
X116830611Y-101732121D01*
X116830612Y-101732123D01*
X116914257Y-101888610D01*
X116914257Y-101888611D01*
X116965766Y-102058412D01*
X116983158Y-102235000D01*
X116965766Y-102411588D01*
X116947414Y-102472085D01*
X116914257Y-102581390D01*
X116840178Y-102719980D01*
X116830611Y-102737879D01*
X116818092Y-102753133D01*
X116718044Y-102875044D01*
X116620257Y-102955294D01*
X116580879Y-102987611D01*
X116580877Y-102987612D01*
X116424390Y-103071257D01*
X116367789Y-103088427D01*
X116254588Y-103122766D01*
X116166362Y-103131455D01*
X116122250Y-103135800D01*
X116033750Y-103135800D01*
X115989638Y-103131455D01*
X115901412Y-103122766D01*
X115788211Y-103088427D01*
X115731610Y-103071257D01*
X115575123Y-102987612D01*
X115575121Y-102987611D01*
X115535743Y-102955294D01*
X115437956Y-102875044D01*
X115337908Y-102753133D01*
X115325389Y-102737879D01*
X115315822Y-102719980D01*
X115241743Y-102581390D01*
X115208586Y-102472085D01*
X115190234Y-102411588D01*
X115172842Y-102235000D01*
X115190234Y-102058412D01*
X115241743Y-101888611D01*
X115241743Y-101888610D01*
X115325388Y-101732123D01*
X115325389Y-101732121D01*
X115354712Y-101696391D01*
X115437956Y-101594956D01*
X115539391Y-101511712D01*
X115575121Y-101482389D01*
X115687726Y-101422200D01*
X115731610Y-101398743D01*
X115788211Y-101381573D01*
X115901412Y-101347234D01*
X115989638Y-101338545D01*
X116033750Y-101334200D01*
X116122250Y-101334200D01*
X116166362Y-101338545D01*
X116166362Y-101338545D01*
G37*
G36*
X163305085Y-101453435D02*
X163453004Y-101514705D01*
X163586133Y-101603659D01*
X163699341Y-101716867D01*
X163788295Y-101849996D01*
X163849565Y-101997915D01*
X163880800Y-102154945D01*
X163880800Y-102315055D01*
X163849565Y-102472085D01*
X163788295Y-102620004D01*
X163699341Y-102753133D01*
X163586133Y-102866341D01*
X163453004Y-102955295D01*
X163305085Y-103016565D01*
X163148055Y-103047800D01*
X162987945Y-103047800D01*
X162830915Y-103016565D01*
X162682996Y-102955295D01*
X162549867Y-102866341D01*
X162436659Y-102753133D01*
X162347705Y-102620004D01*
X162286435Y-102472085D01*
X162255200Y-102315055D01*
X162255200Y-102154945D01*
X162286435Y-101997915D01*
X162347705Y-101849996D01*
X162436659Y-101716867D01*
X162549867Y-101603659D01*
X162682996Y-101514705D01*
X162830915Y-101453435D01*
X162987945Y-101422200D01*
X163148055Y-101422200D01*
X163305085Y-101453435D01*
X163305085Y-101453435D01*
G37*
G36*
X137905085Y-101453435D02*
X138053004Y-101514705D01*
X138186133Y-101603659D01*
X138299341Y-101716867D01*
X138388295Y-101849996D01*
X138449565Y-101997915D01*
X138480800Y-102154945D01*
X138480800Y-102315055D01*
X138449565Y-102472085D01*
X138388295Y-102620004D01*
X138299341Y-102753133D01*
X138186133Y-102866341D01*
X138053004Y-102955295D01*
X137905085Y-103016565D01*
X137748055Y-103047800D01*
X137587945Y-103047800D01*
X137430915Y-103016565D01*
X137282996Y-102955295D01*
X137149867Y-102866341D01*
X137036659Y-102753133D01*
X136947705Y-102620004D01*
X136886435Y-102472085D01*
X136855200Y-102315055D01*
X136855200Y-102154945D01*
X136886435Y-101997915D01*
X136947705Y-101849996D01*
X137036659Y-101716867D01*
X137149867Y-101603659D01*
X137282996Y-101514705D01*
X137430915Y-101453435D01*
X137587945Y-101422200D01*
X137748055Y-101422200D01*
X137905085Y-101453435D01*
X137905085Y-101453435D01*
G37*
G36*
X116210229Y-98802854D02*
X116340754Y-98828817D01*
X116504689Y-98896721D01*
X116652227Y-98995303D01*
X116777697Y-99120773D01*
X116876279Y-99268311D01*
X116944183Y-99432246D01*
X116978800Y-99606279D01*
X116978800Y-99783721D01*
X116944183Y-99957754D01*
X116876279Y-100121689D01*
X116777697Y-100269227D01*
X116652227Y-100394697D01*
X116504689Y-100493279D01*
X116340754Y-100561183D01*
X116210229Y-100587146D01*
X116166722Y-100595800D01*
X115989278Y-100595800D01*
X115945771Y-100587146D01*
X115815246Y-100561183D01*
X115651311Y-100493279D01*
X115503773Y-100394697D01*
X115378303Y-100269227D01*
X115279721Y-100121689D01*
X115211817Y-99957754D01*
X115177200Y-99783721D01*
X115177200Y-99606279D01*
X115211817Y-99432246D01*
X115279721Y-99268311D01*
X115378303Y-99120773D01*
X115503773Y-98995303D01*
X115651311Y-98896721D01*
X115815246Y-98828817D01*
X115945771Y-98802854D01*
X115989278Y-98794200D01*
X116166722Y-98794200D01*
X116210229Y-98802854D01*
X116210229Y-98802854D01*
G37*
G36*
X137905085Y-98913435D02*
X138053004Y-98974705D01*
X138186133Y-99063659D01*
X138299341Y-99176867D01*
X138388295Y-99309996D01*
X138449565Y-99457915D01*
X138480800Y-99614945D01*
X138480800Y-99775055D01*
X138449565Y-99932085D01*
X138388295Y-100080004D01*
X138299341Y-100213133D01*
X138186133Y-100326341D01*
X138053004Y-100415295D01*
X137905085Y-100476565D01*
X137748055Y-100507800D01*
X137587945Y-100507800D01*
X137430915Y-100476565D01*
X137282996Y-100415295D01*
X137149867Y-100326341D01*
X137036659Y-100213133D01*
X136947705Y-100080004D01*
X136886435Y-99932085D01*
X136855200Y-99775055D01*
X136855200Y-99614945D01*
X136886435Y-99457915D01*
X136947705Y-99309996D01*
X137036659Y-99176867D01*
X137149867Y-99063659D01*
X137282996Y-98974705D01*
X137430915Y-98913435D01*
X137587945Y-98882200D01*
X137748055Y-98882200D01*
X137905085Y-98913435D01*
X137905085Y-98913435D01*
G37*
G36*
X177645528Y-88802240D02*
X177645531Y-88802241D01*
X177645530Y-88802241D01*
X178024576Y-88959246D01*
X178024577Y-88959247D01*
X178365711Y-89187185D01*
X178655815Y-89477289D01*
X178655817Y-89477292D01*
X178883754Y-89818424D01*
X178980664Y-90052388D01*
X179040760Y-90197472D01*
X179120800Y-90599861D01*
X179120800Y-91010139D01*
X179040760Y-91412528D01*
X179040759Y-91412530D01*
X178883754Y-91791576D01*
X178883753Y-91791577D01*
X178655815Y-92132711D01*
X178365711Y-92422815D01*
X178365708Y-92422817D01*
X178024576Y-92650754D01*
X177731400Y-92772191D01*
X177645528Y-92807760D01*
X177243139Y-92887800D01*
X176832861Y-92887800D01*
X176430472Y-92807760D01*
X176344600Y-92772191D01*
X176051424Y-92650754D01*
X175710292Y-92422817D01*
X175710289Y-92422815D01*
X175420185Y-92132711D01*
X175192247Y-91791577D01*
X175192246Y-91791576D01*
X175035241Y-91412530D01*
X175035240Y-91412528D01*
X174955200Y-91010139D01*
X174955200Y-90599861D01*
X175035240Y-90197472D01*
X175095336Y-90052388D01*
X175192246Y-89818424D01*
X175420183Y-89477292D01*
X175420185Y-89477289D01*
X175710289Y-89187185D01*
X176051423Y-88959247D01*
X176051424Y-88959246D01*
X176430470Y-88802241D01*
X176430469Y-88802241D01*
X176430472Y-88802240D01*
X176832861Y-88722200D01*
X177243139Y-88722200D01*
X177645528Y-88802240D01*
X177645528Y-88802240D01*
G37*
G36*
X151726362Y-89908545D02*
X151814588Y-89917234D01*
X151927789Y-89951573D01*
X151984390Y-89968743D01*
X152122980Y-90042822D01*
X152140879Y-90052389D01*
X152176609Y-90081712D01*
X152278044Y-90164956D01*
X152361288Y-90266391D01*
X152390611Y-90302121D01*
X152390612Y-90302123D01*
X152474257Y-90458610D01*
X152474257Y-90458611D01*
X152525766Y-90628412D01*
X152543158Y-90805000D01*
X152525766Y-90981588D01*
X152517105Y-91010138D01*
X152474257Y-91151390D01*
X152400178Y-91289980D01*
X152390611Y-91307879D01*
X152361288Y-91343609D01*
X152278044Y-91445044D01*
X152176609Y-91528288D01*
X152140879Y-91557611D01*
X152140877Y-91557612D01*
X151984390Y-91641257D01*
X151927789Y-91658427D01*
X151814588Y-91692766D01*
X151726362Y-91701455D01*
X151682250Y-91705800D01*
X151593750Y-91705800D01*
X151549638Y-91701455D01*
X151461412Y-91692766D01*
X151348211Y-91658427D01*
X151291610Y-91641257D01*
X151135123Y-91557612D01*
X151135121Y-91557611D01*
X151099391Y-91528288D01*
X150997956Y-91445044D01*
X150914712Y-91343609D01*
X150885389Y-91307879D01*
X150875822Y-91289980D01*
X150801743Y-91151390D01*
X150758895Y-91010138D01*
X150750234Y-90981588D01*
X150732842Y-90805000D01*
X150750234Y-90628412D01*
X150801743Y-90458611D01*
X150801743Y-90458610D01*
X150885388Y-90302123D01*
X150885389Y-90302121D01*
X150914712Y-90266391D01*
X150997956Y-90164956D01*
X151099391Y-90081712D01*
X151135121Y-90052389D01*
X151153020Y-90042822D01*
X151291610Y-89968743D01*
X151348211Y-89951573D01*
X151461412Y-89917234D01*
X151549638Y-89908545D01*
X151593750Y-89904200D01*
X151682250Y-89904200D01*
X151726362Y-89908545D01*
X151726362Y-89908545D01*
G37*
G36*
X149186362Y-89908545D02*
X149274588Y-89917234D01*
X149387789Y-89951573D01*
X149444390Y-89968743D01*
X149582980Y-90042822D01*
X149600879Y-90052389D01*
X149636609Y-90081712D01*
X149738044Y-90164956D01*
X149821288Y-90266391D01*
X149850611Y-90302121D01*
X149850612Y-90302123D01*
X149934257Y-90458610D01*
X149934257Y-90458611D01*
X149985766Y-90628412D01*
X150003158Y-90805000D01*
X149985766Y-90981588D01*
X149977105Y-91010138D01*
X149934257Y-91151390D01*
X149860178Y-91289980D01*
X149850611Y-91307879D01*
X149821288Y-91343609D01*
X149738044Y-91445044D01*
X149636609Y-91528288D01*
X149600879Y-91557611D01*
X149600877Y-91557612D01*
X149444390Y-91641257D01*
X149387789Y-91658427D01*
X149274588Y-91692766D01*
X149186362Y-91701455D01*
X149142250Y-91705800D01*
X149053750Y-91705800D01*
X149009638Y-91701455D01*
X148921412Y-91692766D01*
X148808211Y-91658427D01*
X148751610Y-91641257D01*
X148595123Y-91557612D01*
X148595121Y-91557611D01*
X148559391Y-91528288D01*
X148457956Y-91445044D01*
X148374712Y-91343609D01*
X148345389Y-91307879D01*
X148335822Y-91289980D01*
X148261743Y-91151390D01*
X148218895Y-91010138D01*
X148210234Y-90981588D01*
X148192842Y-90805000D01*
X148210234Y-90628412D01*
X148261743Y-90458611D01*
X148261743Y-90458610D01*
X148345388Y-90302123D01*
X148345389Y-90302121D01*
X148374712Y-90266391D01*
X148457956Y-90164956D01*
X148559391Y-90081712D01*
X148595121Y-90052389D01*
X148613020Y-90042822D01*
X148751610Y-89968743D01*
X148808211Y-89951573D01*
X148921412Y-89917234D01*
X149009638Y-89908545D01*
X149053750Y-89904200D01*
X149142250Y-89904200D01*
X149186362Y-89908545D01*
X149186362Y-89908545D01*
G37*
G36*
X147458800Y-91705800D02*
X145657200Y-91705800D01*
X145657200Y-89904200D01*
X147458800Y-89904200D01*
X147458800Y-91705800D01*
X147458800Y-91705800D01*
G37*
G36*
X116166362Y-79748545D02*
X116254588Y-79757234D01*
X116367789Y-79791573D01*
X116424390Y-79808743D01*
X116562980Y-79882822D01*
X116580879Y-79892389D01*
X116616609Y-79921712D01*
X116718044Y-80004956D01*
X116801288Y-80106391D01*
X116830611Y-80142121D01*
X116830612Y-80142123D01*
X116914257Y-80298610D01*
X116914257Y-80298611D01*
X116965766Y-80468412D01*
X116983158Y-80645000D01*
X116965766Y-80821588D01*
X116931427Y-80934789D01*
X116914257Y-80991390D01*
X116840178Y-81129980D01*
X116830611Y-81147879D01*
X116801288Y-81183609D01*
X116718044Y-81285044D01*
X116616609Y-81368288D01*
X116580879Y-81397611D01*
X116580877Y-81397612D01*
X116424390Y-81481257D01*
X116367789Y-81498427D01*
X116254588Y-81532766D01*
X116166362Y-81541455D01*
X116122250Y-81545800D01*
X116033750Y-81545800D01*
X115989638Y-81541455D01*
X115901412Y-81532766D01*
X115788211Y-81498427D01*
X115731610Y-81481257D01*
X115575123Y-81397612D01*
X115575121Y-81397611D01*
X115539391Y-81368288D01*
X115437956Y-81285044D01*
X115354712Y-81183609D01*
X115325389Y-81147879D01*
X115315822Y-81129980D01*
X115241743Y-80991390D01*
X115224573Y-80934789D01*
X115190234Y-80821588D01*
X115172842Y-80645000D01*
X115190234Y-80468412D01*
X115241743Y-80298611D01*
X115241743Y-80298610D01*
X115325388Y-80142123D01*
X115325389Y-80142121D01*
X115354712Y-80106391D01*
X115437956Y-80004956D01*
X115539391Y-79921712D01*
X115575121Y-79892389D01*
X115593020Y-79882822D01*
X115731610Y-79808743D01*
X115788211Y-79791573D01*
X115901412Y-79757234D01*
X115989638Y-79748545D01*
X116033750Y-79744200D01*
X116122250Y-79744200D01*
X116166362Y-79748545D01*
X116166362Y-79748545D01*
G37*
G36*
X116166362Y-77208545D02*
X116254588Y-77217234D01*
X116367789Y-77251573D01*
X116424390Y-77268743D01*
X116562980Y-77342822D01*
X116580879Y-77352389D01*
X116616609Y-77381712D01*
X116718044Y-77464956D01*
X116801288Y-77566391D01*
X116830611Y-77602121D01*
X116830612Y-77602123D01*
X116914257Y-77758610D01*
X116914257Y-77758611D01*
X116965766Y-77928412D01*
X116983158Y-78105000D01*
X116965766Y-78281588D01*
X116931427Y-78394789D01*
X116914257Y-78451390D01*
X116840178Y-78589980D01*
X116830611Y-78607879D01*
X116801288Y-78643609D01*
X116718044Y-78745044D01*
X116616609Y-78828288D01*
X116580879Y-78857611D01*
X116580877Y-78857612D01*
X116424390Y-78941257D01*
X116367789Y-78958427D01*
X116254588Y-78992766D01*
X116166362Y-79001455D01*
X116122250Y-79005800D01*
X116033750Y-79005800D01*
X115989638Y-79001455D01*
X115901412Y-78992766D01*
X115788211Y-78958427D01*
X115731610Y-78941257D01*
X115575123Y-78857612D01*
X115575121Y-78857611D01*
X115539391Y-78828288D01*
X115437956Y-78745044D01*
X115354712Y-78643609D01*
X115325389Y-78607879D01*
X115315822Y-78589980D01*
X115241743Y-78451390D01*
X115224573Y-78394789D01*
X115190234Y-78281588D01*
X115172842Y-78105000D01*
X115190234Y-77928412D01*
X115241743Y-77758611D01*
X115241743Y-77758610D01*
X115325388Y-77602123D01*
X115325389Y-77602121D01*
X115354712Y-77566391D01*
X115437956Y-77464956D01*
X115539391Y-77381712D01*
X115575121Y-77352389D01*
X115593020Y-77342822D01*
X115731610Y-77268743D01*
X115788211Y-77251573D01*
X115901412Y-77217234D01*
X115989638Y-77208545D01*
X116033750Y-77204200D01*
X116122250Y-77204200D01*
X116166362Y-77208545D01*
X116166362Y-77208545D01*
G37*
G36*
X126845528Y-73562240D02*
X126845531Y-73562241D01*
X126845530Y-73562241D01*
X127224576Y-73719246D01*
X127224577Y-73719247D01*
X127565711Y-73947185D01*
X127855815Y-74237289D01*
X127855817Y-74237292D01*
X128083754Y-74578424D01*
X128119283Y-74664200D01*
X128240760Y-74957472D01*
X128320800Y-75359861D01*
X128320800Y-75770139D01*
X128240760Y-76172528D01*
X128240759Y-76172530D01*
X128083754Y-76551576D01*
X128038990Y-76618570D01*
X127855815Y-76892711D01*
X127565711Y-77182815D01*
X127565708Y-77182817D01*
X127224576Y-77410754D01*
X126931400Y-77532191D01*
X126845528Y-77567760D01*
X126443139Y-77647800D01*
X126032861Y-77647800D01*
X125630472Y-77567760D01*
X125544600Y-77532191D01*
X125251424Y-77410754D01*
X124910292Y-77182817D01*
X124910289Y-77182815D01*
X124620185Y-76892711D01*
X124437010Y-76618570D01*
X124392246Y-76551576D01*
X124235241Y-76172530D01*
X124235240Y-76172528D01*
X124155200Y-75770139D01*
X124155200Y-75359861D01*
X124235240Y-74957472D01*
X124356717Y-74664200D01*
X124392246Y-74578424D01*
X124620183Y-74237292D01*
X124620185Y-74237289D01*
X124910289Y-73947185D01*
X125251423Y-73719247D01*
X125251424Y-73719246D01*
X125630470Y-73562241D01*
X125630469Y-73562241D01*
X125630472Y-73562240D01*
X126032861Y-73482200D01*
X126443139Y-73482200D01*
X126845528Y-73562240D01*
X126845528Y-73562240D01*
G37*
G36*
X147753249Y-74511430D02*
X147753252Y-74511431D01*
X147753253Y-74511431D01*
X147925618Y-74563717D01*
X147925620Y-74563718D01*
X148084473Y-74648627D01*
X148223707Y-74762893D01*
X148337973Y-74902127D01*
X148422882Y-75060979D01*
X148475170Y-75233349D01*
X148488400Y-75367679D01*
X148488400Y-75762320D01*
X148475170Y-75896650D01*
X148475169Y-75896653D01*
X148422883Y-76069019D01*
X148367556Y-76172528D01*
X148337973Y-76227873D01*
X148223707Y-76367107D01*
X148084473Y-76481373D01*
X148084471Y-76481374D01*
X147925619Y-76566283D01*
X147785339Y-76608836D01*
X147753251Y-76618570D01*
X147574000Y-76636224D01*
X147394751Y-76618570D01*
X147394748Y-76618569D01*
X147394747Y-76618569D01*
X147222382Y-76566283D01*
X147063530Y-76481374D01*
X147063528Y-76481373D01*
X146924296Y-76367109D01*
X146810025Y-76227870D01*
X146725118Y-76069021D01*
X146672830Y-75896651D01*
X146659600Y-75762321D01*
X146659600Y-75367680D01*
X146672830Y-75233350D01*
X146725118Y-75060980D01*
X146810027Y-74902127D01*
X146924293Y-74762893D01*
X147063527Y-74648627D01*
X147222379Y-74563718D01*
X147222381Y-74563717D01*
X147394746Y-74511431D01*
X147394749Y-74511430D01*
X147574000Y-74493776D01*
X147753249Y-74511430D01*
X147753249Y-74511430D01*
G37*
G36*
X145213249Y-74511430D02*
X145213252Y-74511431D01*
X145213253Y-74511431D01*
X145385618Y-74563717D01*
X145385620Y-74563718D01*
X145544473Y-74648627D01*
X145683707Y-74762893D01*
X145797973Y-74902127D01*
X145882882Y-75060979D01*
X145935170Y-75233349D01*
X145948400Y-75367679D01*
X145948400Y-75762320D01*
X145935170Y-75896650D01*
X145935169Y-75896653D01*
X145882883Y-76069019D01*
X145827556Y-76172528D01*
X145797973Y-76227873D01*
X145683707Y-76367107D01*
X145544473Y-76481373D01*
X145544471Y-76481374D01*
X145385619Y-76566283D01*
X145245339Y-76608836D01*
X145213251Y-76618570D01*
X145034000Y-76636224D01*
X144854751Y-76618570D01*
X144854748Y-76618569D01*
X144854747Y-76618569D01*
X144682382Y-76566283D01*
X144523530Y-76481374D01*
X144523528Y-76481373D01*
X144384296Y-76367109D01*
X144270025Y-76227870D01*
X144185118Y-76069021D01*
X144132830Y-75896651D01*
X144119600Y-75762321D01*
X144119600Y-75367680D01*
X144132830Y-75233350D01*
X144185118Y-75060980D01*
X144270027Y-74902127D01*
X144384293Y-74762893D01*
X144523527Y-74648627D01*
X144682379Y-74563718D01*
X144682381Y-74563717D01*
X144854746Y-74511431D01*
X144854749Y-74511430D01*
X145034000Y-74493776D01*
X145213249Y-74511430D01*
X145213249Y-74511430D01*
G37*
G36*
X142673249Y-74511430D02*
X142673252Y-74511431D01*
X142673253Y-74511431D01*
X142845618Y-74563717D01*
X142845620Y-74563718D01*
X143004473Y-74648627D01*
X143143707Y-74762893D01*
X143257973Y-74902127D01*
X143342882Y-75060979D01*
X143395170Y-75233349D01*
X143408400Y-75367679D01*
X143408400Y-75762320D01*
X143395170Y-75896650D01*
X143395169Y-75896653D01*
X143342883Y-76069019D01*
X143287556Y-76172528D01*
X143257973Y-76227873D01*
X143143707Y-76367107D01*
X143004473Y-76481373D01*
X143004471Y-76481374D01*
X142845619Y-76566283D01*
X142705339Y-76608836D01*
X142673251Y-76618570D01*
X142494000Y-76636224D01*
X142314751Y-76618570D01*
X142314748Y-76618569D01*
X142314747Y-76618569D01*
X142142382Y-76566283D01*
X141983530Y-76481374D01*
X141983528Y-76481373D01*
X141844296Y-76367109D01*
X141730025Y-76227870D01*
X141645118Y-76069021D01*
X141592830Y-75896651D01*
X141579600Y-75762321D01*
X141579600Y-75367680D01*
X141592830Y-75233350D01*
X141645118Y-75060980D01*
X141730027Y-74902127D01*
X141844293Y-74762893D01*
X141983527Y-74648627D01*
X142142379Y-74563718D01*
X142142381Y-74563717D01*
X142314746Y-74511431D01*
X142314749Y-74511430D01*
X142494000Y-74493776D01*
X142673249Y-74511430D01*
X142673249Y-74511430D01*
G37*
G36*
X140133249Y-74511430D02*
X140133252Y-74511431D01*
X140133253Y-74511431D01*
X140305618Y-74563717D01*
X140305620Y-74563718D01*
X140464473Y-74648627D01*
X140603707Y-74762893D01*
X140717973Y-74902127D01*
X140802882Y-75060979D01*
X140855170Y-75233349D01*
X140868400Y-75367679D01*
X140868400Y-75762320D01*
X140855170Y-75896650D01*
X140855169Y-75896653D01*
X140802883Y-76069019D01*
X140747556Y-76172528D01*
X140717973Y-76227873D01*
X140603707Y-76367107D01*
X140464473Y-76481373D01*
X140464471Y-76481374D01*
X140305619Y-76566283D01*
X140165339Y-76608836D01*
X140133251Y-76618570D01*
X139954000Y-76636224D01*
X139774751Y-76618570D01*
X139774748Y-76618569D01*
X139774747Y-76618569D01*
X139602382Y-76566283D01*
X139443530Y-76481374D01*
X139443528Y-76481373D01*
X139304296Y-76367109D01*
X139190025Y-76227870D01*
X139105118Y-76069021D01*
X139052830Y-75896651D01*
X139039600Y-75762321D01*
X139039600Y-75367680D01*
X139052830Y-75233350D01*
X139105118Y-75060980D01*
X139190027Y-74902127D01*
X139304293Y-74762893D01*
X139443527Y-74648627D01*
X139602379Y-74563718D01*
X139602381Y-74563717D01*
X139774746Y-74511431D01*
X139774749Y-74511430D01*
X139954000Y-74493776D01*
X140133249Y-74511430D01*
X140133249Y-74511430D01*
G37*
G36*
X137593249Y-74511430D02*
X137593252Y-74511431D01*
X137593253Y-74511431D01*
X137765618Y-74563717D01*
X137765620Y-74563718D01*
X137924473Y-74648627D01*
X138063707Y-74762893D01*
X138177973Y-74902127D01*
X138262882Y-75060979D01*
X138315170Y-75233349D01*
X138328400Y-75367679D01*
X138328400Y-75762320D01*
X138315170Y-75896650D01*
X138315169Y-75896653D01*
X138262883Y-76069019D01*
X138207556Y-76172528D01*
X138177973Y-76227873D01*
X138063707Y-76367107D01*
X137924473Y-76481373D01*
X137924471Y-76481374D01*
X137765619Y-76566283D01*
X137625339Y-76608836D01*
X137593251Y-76618570D01*
X137414000Y-76636224D01*
X137234751Y-76618570D01*
X137234748Y-76618569D01*
X137234747Y-76618569D01*
X137062382Y-76566283D01*
X136903530Y-76481374D01*
X136903528Y-76481373D01*
X136764296Y-76367109D01*
X136650025Y-76227870D01*
X136565118Y-76069021D01*
X136512830Y-75896651D01*
X136499600Y-75762321D01*
X136499600Y-75367680D01*
X136512830Y-75233350D01*
X136565118Y-75060980D01*
X136650027Y-74902127D01*
X136764293Y-74762893D01*
X136903527Y-74648627D01*
X137062379Y-74563718D01*
X137062381Y-74563717D01*
X137234746Y-74511431D01*
X137234749Y-74511430D01*
X137414000Y-74493776D01*
X137593249Y-74511430D01*
X137593249Y-74511430D01*
G37*
G36*
X135053249Y-74511430D02*
X135053252Y-74511431D01*
X135053253Y-74511431D01*
X135225618Y-74563717D01*
X135225620Y-74563718D01*
X135384473Y-74648627D01*
X135523707Y-74762893D01*
X135637973Y-74902127D01*
X135722882Y-75060979D01*
X135775170Y-75233349D01*
X135788400Y-75367679D01*
X135788400Y-75762320D01*
X135775170Y-75896650D01*
X135775169Y-75896653D01*
X135722883Y-76069019D01*
X135667556Y-76172528D01*
X135637973Y-76227873D01*
X135523707Y-76367107D01*
X135384473Y-76481373D01*
X135384471Y-76481374D01*
X135225619Y-76566283D01*
X135085339Y-76608836D01*
X135053251Y-76618570D01*
X134874000Y-76636224D01*
X134694751Y-76618570D01*
X134694748Y-76618569D01*
X134694747Y-76618569D01*
X134522382Y-76566283D01*
X134363530Y-76481374D01*
X134363528Y-76481373D01*
X134224296Y-76367109D01*
X134110025Y-76227870D01*
X134025118Y-76069021D01*
X133972830Y-75896651D01*
X133959600Y-75762321D01*
X133959600Y-75367680D01*
X133972830Y-75233350D01*
X134025118Y-75060980D01*
X134110027Y-74902127D01*
X134224293Y-74762893D01*
X134363527Y-74648627D01*
X134522379Y-74563718D01*
X134522381Y-74563717D01*
X134694746Y-74511431D01*
X134694749Y-74511430D01*
X134874000Y-74493776D01*
X135053249Y-74511430D01*
X135053249Y-74511430D01*
G37*
G36*
X132513249Y-74511430D02*
X132513252Y-74511431D01*
X132513253Y-74511431D01*
X132685618Y-74563717D01*
X132685620Y-74563718D01*
X132844473Y-74648627D01*
X132983707Y-74762893D01*
X133097973Y-74902127D01*
X133182882Y-75060979D01*
X133235170Y-75233349D01*
X133248400Y-75367679D01*
X133248400Y-75762320D01*
X133235170Y-75896650D01*
X133235169Y-75896653D01*
X133182883Y-76069019D01*
X133127556Y-76172528D01*
X133097973Y-76227873D01*
X132983707Y-76367107D01*
X132844473Y-76481373D01*
X132844471Y-76481374D01*
X132685619Y-76566283D01*
X132545339Y-76608836D01*
X132513251Y-76618570D01*
X132334000Y-76636224D01*
X132154751Y-76618570D01*
X132154748Y-76618569D01*
X132154747Y-76618569D01*
X131982382Y-76566283D01*
X131823530Y-76481374D01*
X131823528Y-76481373D01*
X131684296Y-76367109D01*
X131570025Y-76227870D01*
X131485118Y-76069021D01*
X131432830Y-75896651D01*
X131419600Y-75762321D01*
X131419600Y-75367680D01*
X131432830Y-75233350D01*
X131485118Y-75060980D01*
X131570027Y-74902127D01*
X131684293Y-74762893D01*
X131823527Y-74648627D01*
X131982379Y-74563718D01*
X131982381Y-74563717D01*
X132154746Y-74511431D01*
X132154749Y-74511430D01*
X132334000Y-74493776D01*
X132513249Y-74511430D01*
X132513249Y-74511430D01*
G37*
G36*
X129973249Y-74511430D02*
X129973252Y-74511431D01*
X129973253Y-74511431D01*
X130145618Y-74563717D01*
X130145620Y-74563718D01*
X130304473Y-74648627D01*
X130443707Y-74762893D01*
X130557973Y-74902127D01*
X130642882Y-75060979D01*
X130695170Y-75233349D01*
X130708400Y-75367679D01*
X130708400Y-75762320D01*
X130695170Y-75896650D01*
X130695169Y-75896653D01*
X130642883Y-76069019D01*
X130587556Y-76172528D01*
X130557973Y-76227873D01*
X130443707Y-76367107D01*
X130304473Y-76481373D01*
X130304471Y-76481374D01*
X130145619Y-76566283D01*
X130005339Y-76608836D01*
X129973251Y-76618570D01*
X129794000Y-76636224D01*
X129614751Y-76618570D01*
X129614748Y-76618569D01*
X129614747Y-76618569D01*
X129442382Y-76566283D01*
X129283530Y-76481374D01*
X129283528Y-76481373D01*
X129144296Y-76367109D01*
X129030025Y-76227870D01*
X128945118Y-76069021D01*
X128892830Y-75896651D01*
X128879600Y-75762321D01*
X128879600Y-75367680D01*
X128892830Y-75233350D01*
X128945118Y-75060980D01*
X129030027Y-74902127D01*
X129144293Y-74762893D01*
X129283527Y-74648627D01*
X129442379Y-74563718D01*
X129442381Y-74563717D01*
X129614746Y-74511431D01*
X129614749Y-74511430D01*
X129794000Y-74493776D01*
X129973249Y-74511430D01*
X129973249Y-74511430D01*
G37*
G36*
X156897249Y-74511430D02*
X156897252Y-74511431D01*
X156897253Y-74511431D01*
X157069618Y-74563717D01*
X157069620Y-74563718D01*
X157228473Y-74648627D01*
X157367707Y-74762893D01*
X157481973Y-74902127D01*
X157566882Y-75060979D01*
X157619170Y-75233349D01*
X157632400Y-75367679D01*
X157632400Y-75762320D01*
X157619170Y-75896650D01*
X157619169Y-75896653D01*
X157566883Y-76069019D01*
X157511556Y-76172528D01*
X157481973Y-76227873D01*
X157367707Y-76367107D01*
X157228473Y-76481373D01*
X157228471Y-76481374D01*
X157069619Y-76566283D01*
X156929339Y-76608836D01*
X156897251Y-76618570D01*
X156718000Y-76636224D01*
X156538751Y-76618570D01*
X156538748Y-76618569D01*
X156538747Y-76618569D01*
X156366382Y-76566283D01*
X156207530Y-76481374D01*
X156207528Y-76481373D01*
X156068296Y-76367109D01*
X155954025Y-76227870D01*
X155869118Y-76069021D01*
X155816830Y-75896651D01*
X155803600Y-75762321D01*
X155803600Y-75367680D01*
X155816830Y-75233350D01*
X155869118Y-75060980D01*
X155954027Y-74902127D01*
X156068293Y-74762893D01*
X156207527Y-74648627D01*
X156366379Y-74563718D01*
X156366381Y-74563717D01*
X156538746Y-74511431D01*
X156538749Y-74511430D01*
X156718000Y-74493776D01*
X156897249Y-74511430D01*
X156897249Y-74511430D01*
G37*
G36*
X161977249Y-74511430D02*
X161977252Y-74511431D01*
X161977253Y-74511431D01*
X162149618Y-74563717D01*
X162149620Y-74563718D01*
X162308473Y-74648627D01*
X162447707Y-74762893D01*
X162561973Y-74902127D01*
X162646882Y-75060979D01*
X162699170Y-75233349D01*
X162712400Y-75367679D01*
X162712400Y-75762320D01*
X162699170Y-75896650D01*
X162699169Y-75896653D01*
X162646883Y-76069019D01*
X162591556Y-76172528D01*
X162561973Y-76227873D01*
X162447707Y-76367107D01*
X162308473Y-76481373D01*
X162308471Y-76481374D01*
X162149619Y-76566283D01*
X162009339Y-76608836D01*
X161977251Y-76618570D01*
X161798000Y-76636224D01*
X161618751Y-76618570D01*
X161618748Y-76618569D01*
X161618747Y-76618569D01*
X161446382Y-76566283D01*
X161287530Y-76481374D01*
X161287528Y-76481373D01*
X161148296Y-76367109D01*
X161034025Y-76227870D01*
X160949118Y-76069021D01*
X160896830Y-75896651D01*
X160883600Y-75762321D01*
X160883600Y-75367680D01*
X160896830Y-75233350D01*
X160949118Y-75060980D01*
X161034027Y-74902127D01*
X161148293Y-74762893D01*
X161287527Y-74648627D01*
X161446379Y-74563718D01*
X161446381Y-74563717D01*
X161618746Y-74511431D01*
X161618749Y-74511430D01*
X161798000Y-74493776D01*
X161977249Y-74511430D01*
X161977249Y-74511430D01*
G37*
G36*
X150293249Y-74511430D02*
X150293252Y-74511431D01*
X150293253Y-74511431D01*
X150465618Y-74563717D01*
X150465620Y-74563718D01*
X150624473Y-74648627D01*
X150763707Y-74762893D01*
X150877973Y-74902127D01*
X150962882Y-75060979D01*
X151015170Y-75233349D01*
X151028400Y-75367679D01*
X151028400Y-75762320D01*
X151015170Y-75896650D01*
X151015169Y-75896653D01*
X150962883Y-76069019D01*
X150907556Y-76172528D01*
X150877973Y-76227873D01*
X150763707Y-76367107D01*
X150624473Y-76481373D01*
X150624471Y-76481374D01*
X150465619Y-76566283D01*
X150325339Y-76608836D01*
X150293251Y-76618570D01*
X150114000Y-76636224D01*
X149934751Y-76618570D01*
X149934748Y-76618569D01*
X149934747Y-76618569D01*
X149762382Y-76566283D01*
X149603530Y-76481374D01*
X149603528Y-76481373D01*
X149464296Y-76367109D01*
X149350025Y-76227870D01*
X149265118Y-76069021D01*
X149212830Y-75896651D01*
X149199600Y-75762321D01*
X149199600Y-75367680D01*
X149212830Y-75233350D01*
X149265118Y-75060980D01*
X149350027Y-74902127D01*
X149464293Y-74762893D01*
X149603527Y-74648627D01*
X149762379Y-74563718D01*
X149762381Y-74563717D01*
X149934746Y-74511431D01*
X149934749Y-74511430D01*
X150114000Y-74493776D01*
X150293249Y-74511430D01*
X150293249Y-74511430D01*
G37*
G36*
X167057249Y-74511430D02*
X167057252Y-74511431D01*
X167057253Y-74511431D01*
X167229618Y-74563717D01*
X167229620Y-74563718D01*
X167388473Y-74648627D01*
X167527707Y-74762893D01*
X167641973Y-74902127D01*
X167726882Y-75060979D01*
X167779170Y-75233349D01*
X167792400Y-75367679D01*
X167792400Y-75762320D01*
X167779170Y-75896650D01*
X167779169Y-75896653D01*
X167726883Y-76069019D01*
X167671556Y-76172528D01*
X167641973Y-76227873D01*
X167527707Y-76367107D01*
X167388473Y-76481373D01*
X167388471Y-76481374D01*
X167229619Y-76566283D01*
X167089339Y-76608836D01*
X167057251Y-76618570D01*
X166878000Y-76636224D01*
X166698751Y-76618570D01*
X166698748Y-76618569D01*
X166698747Y-76618569D01*
X166526382Y-76566283D01*
X166367530Y-76481374D01*
X166367528Y-76481373D01*
X166228296Y-76367109D01*
X166114025Y-76227870D01*
X166029118Y-76069021D01*
X165976830Y-75896651D01*
X165963600Y-75762321D01*
X165963600Y-75367680D01*
X165976830Y-75233350D01*
X166029118Y-75060980D01*
X166114027Y-74902127D01*
X166228293Y-74762893D01*
X166367527Y-74648627D01*
X166526379Y-74563718D01*
X166526381Y-74563717D01*
X166698746Y-74511431D01*
X166698749Y-74511430D01*
X166878000Y-74493776D01*
X167057249Y-74511430D01*
X167057249Y-74511430D01*
G37*
G36*
X169597249Y-74511430D02*
X169597252Y-74511431D01*
X169597253Y-74511431D01*
X169769618Y-74563717D01*
X169769620Y-74563718D01*
X169928473Y-74648627D01*
X170067707Y-74762893D01*
X170181973Y-74902127D01*
X170266882Y-75060979D01*
X170319170Y-75233349D01*
X170332400Y-75367679D01*
X170332400Y-75762320D01*
X170319170Y-75896650D01*
X170319169Y-75896653D01*
X170266883Y-76069019D01*
X170211556Y-76172528D01*
X170181973Y-76227873D01*
X170067707Y-76367107D01*
X169928473Y-76481373D01*
X169928471Y-76481374D01*
X169769619Y-76566283D01*
X169629339Y-76608836D01*
X169597251Y-76618570D01*
X169418000Y-76636224D01*
X169238751Y-76618570D01*
X169238748Y-76618569D01*
X169238747Y-76618569D01*
X169066382Y-76566283D01*
X168907530Y-76481374D01*
X168907528Y-76481373D01*
X168768296Y-76367109D01*
X168654025Y-76227870D01*
X168569118Y-76069021D01*
X168516830Y-75896651D01*
X168503600Y-75762321D01*
X168503600Y-75367680D01*
X168516830Y-75233350D01*
X168569118Y-75060980D01*
X168654027Y-74902127D01*
X168768293Y-74762893D01*
X168907527Y-74648627D01*
X169066379Y-74563718D01*
X169066381Y-74563717D01*
X169238746Y-74511431D01*
X169238749Y-74511430D01*
X169418000Y-74493776D01*
X169597249Y-74511430D01*
X169597249Y-74511430D01*
G37*
G36*
X174677249Y-74511430D02*
X174677252Y-74511431D01*
X174677253Y-74511431D01*
X174849618Y-74563717D01*
X174849620Y-74563718D01*
X175008473Y-74648627D01*
X175147707Y-74762893D01*
X175261973Y-74902127D01*
X175346882Y-75060979D01*
X175399170Y-75233349D01*
X175412400Y-75367679D01*
X175412400Y-75762320D01*
X175399170Y-75896650D01*
X175399169Y-75896653D01*
X175346883Y-76069019D01*
X175291556Y-76172528D01*
X175261973Y-76227873D01*
X175147707Y-76367107D01*
X175008473Y-76481373D01*
X175008471Y-76481374D01*
X174849619Y-76566283D01*
X174709339Y-76608836D01*
X174677251Y-76618570D01*
X174498000Y-76636224D01*
X174318751Y-76618570D01*
X174318748Y-76618569D01*
X174318747Y-76618569D01*
X174146382Y-76566283D01*
X173987530Y-76481374D01*
X173987528Y-76481373D01*
X173848296Y-76367109D01*
X173734025Y-76227870D01*
X173649118Y-76069021D01*
X173596830Y-75896651D01*
X173583600Y-75762321D01*
X173583600Y-75367680D01*
X173596830Y-75233350D01*
X173649118Y-75060980D01*
X173734027Y-74902127D01*
X173848293Y-74762893D01*
X173987527Y-74648627D01*
X174146379Y-74563718D01*
X174146381Y-74563717D01*
X174318746Y-74511431D01*
X174318749Y-74511430D01*
X174498000Y-74493776D01*
X174677249Y-74511430D01*
X174677249Y-74511430D01*
G37*
G36*
X152833249Y-74511430D02*
X152833252Y-74511431D01*
X152833253Y-74511431D01*
X153005618Y-74563717D01*
X153005620Y-74563718D01*
X153164473Y-74648627D01*
X153303707Y-74762893D01*
X153417973Y-74902127D01*
X153502882Y-75060979D01*
X153555170Y-75233349D01*
X153568400Y-75367679D01*
X153568400Y-75762320D01*
X153555170Y-75896650D01*
X153555169Y-75896653D01*
X153502883Y-76069019D01*
X153447556Y-76172528D01*
X153417973Y-76227873D01*
X153303707Y-76367107D01*
X153164473Y-76481373D01*
X153164471Y-76481374D01*
X153005619Y-76566283D01*
X152865339Y-76608836D01*
X152833251Y-76618570D01*
X152654000Y-76636224D01*
X152474751Y-76618570D01*
X152474748Y-76618569D01*
X152474747Y-76618569D01*
X152302382Y-76566283D01*
X152143530Y-76481374D01*
X152143528Y-76481373D01*
X152004296Y-76367109D01*
X151890025Y-76227870D01*
X151805118Y-76069021D01*
X151752830Y-75896651D01*
X151739600Y-75762321D01*
X151739600Y-75367680D01*
X151752830Y-75233350D01*
X151805118Y-75060980D01*
X151890027Y-74902127D01*
X152004293Y-74762893D01*
X152143527Y-74648627D01*
X152302379Y-74563718D01*
X152302381Y-74563717D01*
X152474746Y-74511431D01*
X152474749Y-74511430D01*
X152654000Y-74493776D01*
X152833249Y-74511430D01*
X152833249Y-74511430D01*
G37*
G36*
X172137249Y-74511430D02*
X172137252Y-74511431D01*
X172137253Y-74511431D01*
X172309618Y-74563717D01*
X172309620Y-74563718D01*
X172468473Y-74648627D01*
X172607707Y-74762893D01*
X172721973Y-74902127D01*
X172806882Y-75060979D01*
X172859170Y-75233349D01*
X172872400Y-75367679D01*
X172872400Y-75762320D01*
X172859170Y-75896650D01*
X172859169Y-75896653D01*
X172806883Y-76069019D01*
X172751556Y-76172528D01*
X172721973Y-76227873D01*
X172607707Y-76367107D01*
X172468473Y-76481373D01*
X172468471Y-76481374D01*
X172309619Y-76566283D01*
X172169339Y-76608836D01*
X172137251Y-76618570D01*
X171958000Y-76636224D01*
X171778751Y-76618570D01*
X171778748Y-76618569D01*
X171778747Y-76618569D01*
X171606382Y-76566283D01*
X171447530Y-76481374D01*
X171447528Y-76481373D01*
X171308296Y-76367109D01*
X171194025Y-76227870D01*
X171109118Y-76069021D01*
X171056830Y-75896651D01*
X171043600Y-75762321D01*
X171043600Y-75367680D01*
X171056830Y-75233350D01*
X171109118Y-75060980D01*
X171194027Y-74902127D01*
X171308293Y-74762893D01*
X171447527Y-74648627D01*
X171606379Y-74563718D01*
X171606381Y-74563717D01*
X171778746Y-74511431D01*
X171778749Y-74511430D01*
X171958000Y-74493776D01*
X172137249Y-74511430D01*
X172137249Y-74511430D01*
G37*
G36*
X164517249Y-74511430D02*
X164517252Y-74511431D01*
X164517253Y-74511431D01*
X164689618Y-74563717D01*
X164689620Y-74563718D01*
X164848473Y-74648627D01*
X164987707Y-74762893D01*
X165101973Y-74902127D01*
X165186882Y-75060979D01*
X165239170Y-75233349D01*
X165252400Y-75367679D01*
X165252400Y-75762320D01*
X165239170Y-75896650D01*
X165239169Y-75896653D01*
X165186883Y-76069019D01*
X165131556Y-76172528D01*
X165101973Y-76227873D01*
X164987707Y-76367107D01*
X164848473Y-76481373D01*
X164848471Y-76481374D01*
X164689619Y-76566283D01*
X164549339Y-76608836D01*
X164517251Y-76618570D01*
X164338000Y-76636224D01*
X164158751Y-76618570D01*
X164158748Y-76618569D01*
X164158747Y-76618569D01*
X163986382Y-76566283D01*
X163827530Y-76481374D01*
X163827528Y-76481373D01*
X163688296Y-76367109D01*
X163574025Y-76227870D01*
X163489118Y-76069021D01*
X163436830Y-75896651D01*
X163423600Y-75762321D01*
X163423600Y-75367680D01*
X163436830Y-75233350D01*
X163489118Y-75060980D01*
X163574027Y-74902127D01*
X163688293Y-74762893D01*
X163827527Y-74648627D01*
X163986379Y-74563718D01*
X163986381Y-74563717D01*
X164158746Y-74511431D01*
X164158749Y-74511430D01*
X164338000Y-74493776D01*
X164517249Y-74511430D01*
X164517249Y-74511430D01*
G37*
G36*
X159437249Y-74511430D02*
X159437252Y-74511431D01*
X159437253Y-74511431D01*
X159609618Y-74563717D01*
X159609620Y-74563718D01*
X159768473Y-74648627D01*
X159907707Y-74762893D01*
X160021973Y-74902127D01*
X160106882Y-75060979D01*
X160159170Y-75233349D01*
X160172400Y-75367679D01*
X160172400Y-75762320D01*
X160159170Y-75896650D01*
X160159169Y-75896653D01*
X160106883Y-76069019D01*
X160051556Y-76172528D01*
X160021973Y-76227873D01*
X159907707Y-76367107D01*
X159768473Y-76481373D01*
X159768471Y-76481374D01*
X159609619Y-76566283D01*
X159469339Y-76608836D01*
X159437251Y-76618570D01*
X159258000Y-76636224D01*
X159078751Y-76618570D01*
X159078748Y-76618569D01*
X159078747Y-76618569D01*
X158906382Y-76566283D01*
X158747530Y-76481374D01*
X158747528Y-76481373D01*
X158608296Y-76367109D01*
X158494025Y-76227870D01*
X158409118Y-76069021D01*
X158356830Y-75896651D01*
X158343600Y-75762321D01*
X158343600Y-75367680D01*
X158356830Y-75233350D01*
X158409118Y-75060980D01*
X158494027Y-74902127D01*
X158608293Y-74762893D01*
X158747527Y-74648627D01*
X158906379Y-74563718D01*
X158906381Y-74563717D01*
X159078746Y-74511431D01*
X159078749Y-74511430D01*
X159258000Y-74493776D01*
X159437249Y-74511430D01*
X159437249Y-74511430D01*
G37*
G36*
X116978800Y-76465800D02*
X115177200Y-76465800D01*
X115177200Y-74664200D01*
X116978800Y-74664200D01*
X116978800Y-76465800D01*
X116978800Y-76465800D01*
G37*
G36*
X168236362Y-69588545D02*
X168324588Y-69597234D01*
X168437789Y-69631573D01*
X168494390Y-69648743D01*
X168632980Y-69722822D01*
X168650879Y-69732389D01*
X168686609Y-69761712D01*
X168788044Y-69844956D01*
X168871288Y-69946391D01*
X168900611Y-69982121D01*
X168900612Y-69982123D01*
X168984257Y-70138610D01*
X168984257Y-70138611D01*
X169035766Y-70308412D01*
X169053158Y-70485000D01*
X169035766Y-70661588D01*
X169001427Y-70774789D01*
X168984257Y-70831390D01*
X168941336Y-70911689D01*
X168900611Y-70987879D01*
X168871288Y-71023609D01*
X168788044Y-71125044D01*
X168715355Y-71184697D01*
X168650879Y-71237611D01*
X168650877Y-71237612D01*
X168494390Y-71321257D01*
X168437789Y-71338427D01*
X168324588Y-71372766D01*
X168236362Y-71381455D01*
X168192250Y-71385800D01*
X168103750Y-71385800D01*
X168059638Y-71381455D01*
X167971412Y-71372766D01*
X167858211Y-71338427D01*
X167801610Y-71321257D01*
X167645123Y-71237612D01*
X167645121Y-71237611D01*
X167580645Y-71184697D01*
X167507956Y-71125044D01*
X167424712Y-71023609D01*
X167395389Y-70987879D01*
X167354664Y-70911689D01*
X167311743Y-70831390D01*
X167294573Y-70774789D01*
X167260234Y-70661588D01*
X167242842Y-70485000D01*
X167260234Y-70308412D01*
X167311743Y-70138611D01*
X167311743Y-70138610D01*
X167395388Y-69982123D01*
X167395389Y-69982121D01*
X167424712Y-69946391D01*
X167507956Y-69844956D01*
X167609391Y-69761712D01*
X167645121Y-69732389D01*
X167663020Y-69722822D01*
X167801610Y-69648743D01*
X167858211Y-69631573D01*
X167971412Y-69597234D01*
X168059638Y-69588545D01*
X168103750Y-69584200D01*
X168192250Y-69584200D01*
X168236362Y-69588545D01*
X168236362Y-69588545D01*
G37*
G36*
X132720229Y-69592854D02*
X132850754Y-69618817D01*
X133014689Y-69686721D01*
X133162227Y-69785303D01*
X133287697Y-69910773D01*
X133386279Y-70058311D01*
X133454183Y-70222246D01*
X133488800Y-70396279D01*
X133488800Y-70573721D01*
X133454183Y-70747754D01*
X133386279Y-70911689D01*
X133287697Y-71059227D01*
X133162227Y-71184697D01*
X133014689Y-71283279D01*
X132850754Y-71351183D01*
X132720229Y-71377146D01*
X132676722Y-71385800D01*
X132499278Y-71385800D01*
X132455771Y-71377146D01*
X132325246Y-71351183D01*
X132161311Y-71283279D01*
X132013773Y-71184697D01*
X131888303Y-71059227D01*
X131789721Y-70911689D01*
X131721817Y-70747754D01*
X131687200Y-70573721D01*
X131687200Y-70396279D01*
X131721817Y-70222246D01*
X131789721Y-70058311D01*
X131888303Y-69910773D01*
X132013773Y-69785303D01*
X132161311Y-69686721D01*
X132325246Y-69618817D01*
X132455771Y-69592854D01*
X132499278Y-69584200D01*
X132676722Y-69584200D01*
X132720229Y-69592854D01*
X132720229Y-69592854D01*
G37*
G36*
X135216362Y-69588545D02*
X135304588Y-69597234D01*
X135417789Y-69631573D01*
X135474390Y-69648743D01*
X135612980Y-69722822D01*
X135630879Y-69732389D01*
X135666609Y-69761712D01*
X135768044Y-69844956D01*
X135851288Y-69946391D01*
X135880611Y-69982121D01*
X135880612Y-69982123D01*
X135964257Y-70138610D01*
X135964257Y-70138611D01*
X136015766Y-70308412D01*
X136033158Y-70485000D01*
X136015766Y-70661588D01*
X135981427Y-70774789D01*
X135964257Y-70831390D01*
X135921336Y-70911689D01*
X135880611Y-70987879D01*
X135851288Y-71023609D01*
X135768044Y-71125044D01*
X135695355Y-71184697D01*
X135630879Y-71237611D01*
X135630877Y-71237612D01*
X135474390Y-71321257D01*
X135417789Y-71338427D01*
X135304588Y-71372766D01*
X135216362Y-71381455D01*
X135172250Y-71385800D01*
X135083750Y-71385800D01*
X135039638Y-71381455D01*
X134951412Y-71372766D01*
X134838211Y-71338427D01*
X134781610Y-71321257D01*
X134625123Y-71237612D01*
X134625121Y-71237611D01*
X134560645Y-71184697D01*
X134487956Y-71125044D01*
X134404712Y-71023609D01*
X134375389Y-70987879D01*
X134334664Y-70911689D01*
X134291743Y-70831390D01*
X134274573Y-70774789D01*
X134240234Y-70661588D01*
X134222842Y-70485000D01*
X134240234Y-70308412D01*
X134291743Y-70138611D01*
X134291743Y-70138610D01*
X134375388Y-69982123D01*
X134375389Y-69982121D01*
X134404712Y-69946391D01*
X134487956Y-69844956D01*
X134589391Y-69761712D01*
X134625121Y-69732389D01*
X134643020Y-69722822D01*
X134781610Y-69648743D01*
X134838211Y-69631573D01*
X134951412Y-69597234D01*
X135039638Y-69588545D01*
X135083750Y-69584200D01*
X135172250Y-69584200D01*
X135216362Y-69588545D01*
X135216362Y-69588545D01*
G37*
G36*
X137756362Y-69588545D02*
X137844588Y-69597234D01*
X137957789Y-69631573D01*
X138014390Y-69648743D01*
X138152980Y-69722822D01*
X138170879Y-69732389D01*
X138206609Y-69761712D01*
X138308044Y-69844956D01*
X138391288Y-69946391D01*
X138420611Y-69982121D01*
X138420612Y-69982123D01*
X138504257Y-70138610D01*
X138504257Y-70138611D01*
X138555766Y-70308412D01*
X138573158Y-70485000D01*
X138555766Y-70661588D01*
X138521427Y-70774789D01*
X138504257Y-70831390D01*
X138461336Y-70911689D01*
X138420611Y-70987879D01*
X138391288Y-71023609D01*
X138308044Y-71125044D01*
X138235355Y-71184697D01*
X138170879Y-71237611D01*
X138170877Y-71237612D01*
X138014390Y-71321257D01*
X137957789Y-71338427D01*
X137844588Y-71372766D01*
X137756362Y-71381455D01*
X137712250Y-71385800D01*
X137623750Y-71385800D01*
X137579638Y-71381455D01*
X137491412Y-71372766D01*
X137378211Y-71338427D01*
X137321610Y-71321257D01*
X137165123Y-71237612D01*
X137165121Y-71237611D01*
X137100645Y-71184697D01*
X137027956Y-71125044D01*
X136944712Y-71023609D01*
X136915389Y-70987879D01*
X136874664Y-70911689D01*
X136831743Y-70831390D01*
X136814573Y-70774789D01*
X136780234Y-70661588D01*
X136762842Y-70485000D01*
X136780234Y-70308412D01*
X136831743Y-70138611D01*
X136831743Y-70138610D01*
X136915388Y-69982123D01*
X136915389Y-69982121D01*
X136944712Y-69946391D01*
X137027956Y-69844956D01*
X137129391Y-69761712D01*
X137165121Y-69732389D01*
X137183020Y-69722822D01*
X137321610Y-69648743D01*
X137378211Y-69631573D01*
X137491412Y-69597234D01*
X137579638Y-69588545D01*
X137623750Y-69584200D01*
X137712250Y-69584200D01*
X137756362Y-69588545D01*
X137756362Y-69588545D01*
G37*
G36*
X141108800Y-71385800D02*
X139307200Y-71385800D01*
X139307200Y-69584200D01*
X141108800Y-69584200D01*
X141108800Y-71385800D01*
X141108800Y-71385800D01*
G37*
G36*
X152996362Y-69588545D02*
X153084588Y-69597234D01*
X153197789Y-69631573D01*
X153254390Y-69648743D01*
X153392980Y-69722822D01*
X153410879Y-69732389D01*
X153446609Y-69761712D01*
X153548044Y-69844956D01*
X153631288Y-69946391D01*
X153660611Y-69982121D01*
X153660612Y-69982123D01*
X153744257Y-70138610D01*
X153744257Y-70138611D01*
X153795766Y-70308412D01*
X153813158Y-70485000D01*
X153795766Y-70661588D01*
X153761427Y-70774789D01*
X153744257Y-70831390D01*
X153701336Y-70911689D01*
X153660611Y-70987879D01*
X153631288Y-71023609D01*
X153548044Y-71125044D01*
X153475355Y-71184697D01*
X153410879Y-71237611D01*
X153410877Y-71237612D01*
X153254390Y-71321257D01*
X153197789Y-71338427D01*
X153084588Y-71372766D01*
X152996362Y-71381455D01*
X152952250Y-71385800D01*
X152863750Y-71385800D01*
X152819638Y-71381455D01*
X152731412Y-71372766D01*
X152618211Y-71338427D01*
X152561610Y-71321257D01*
X152405123Y-71237612D01*
X152405121Y-71237611D01*
X152340645Y-71184697D01*
X152267956Y-71125044D01*
X152184712Y-71023609D01*
X152155389Y-70987879D01*
X152114664Y-70911689D01*
X152071743Y-70831390D01*
X152054573Y-70774789D01*
X152020234Y-70661588D01*
X152002842Y-70485000D01*
X152020234Y-70308412D01*
X152071743Y-70138611D01*
X152071743Y-70138610D01*
X152155388Y-69982123D01*
X152155389Y-69982121D01*
X152184712Y-69946391D01*
X152267956Y-69844956D01*
X152369391Y-69761712D01*
X152405121Y-69732389D01*
X152423020Y-69722822D01*
X152561610Y-69648743D01*
X152618211Y-69631573D01*
X152731412Y-69597234D01*
X152819638Y-69588545D01*
X152863750Y-69584200D01*
X152952250Y-69584200D01*
X152996362Y-69588545D01*
X152996362Y-69588545D01*
G37*
G36*
X155536362Y-69588545D02*
X155624588Y-69597234D01*
X155737789Y-69631573D01*
X155794390Y-69648743D01*
X155932980Y-69722822D01*
X155950879Y-69732389D01*
X155986609Y-69761712D01*
X156088044Y-69844956D01*
X156171288Y-69946391D01*
X156200611Y-69982121D01*
X156200612Y-69982123D01*
X156284257Y-70138610D01*
X156284257Y-70138611D01*
X156335766Y-70308412D01*
X156353158Y-70485000D01*
X156335766Y-70661588D01*
X156301427Y-70774789D01*
X156284257Y-70831390D01*
X156241336Y-70911689D01*
X156200611Y-70987879D01*
X156171288Y-71023609D01*
X156088044Y-71125044D01*
X156015355Y-71184697D01*
X155950879Y-71237611D01*
X155950877Y-71237612D01*
X155794390Y-71321257D01*
X155737789Y-71338427D01*
X155624588Y-71372766D01*
X155536362Y-71381455D01*
X155492250Y-71385800D01*
X155403750Y-71385800D01*
X155359638Y-71381455D01*
X155271412Y-71372766D01*
X155158211Y-71338427D01*
X155101610Y-71321257D01*
X154945123Y-71237612D01*
X154945121Y-71237611D01*
X154880645Y-71184697D01*
X154807956Y-71125044D01*
X154724712Y-71023609D01*
X154695389Y-70987879D01*
X154654664Y-70911689D01*
X154611743Y-70831390D01*
X154594573Y-70774789D01*
X154560234Y-70661588D01*
X154542842Y-70485000D01*
X154560234Y-70308412D01*
X154611743Y-70138611D01*
X154611743Y-70138610D01*
X154695388Y-69982123D01*
X154695389Y-69982121D01*
X154724712Y-69946391D01*
X154807956Y-69844956D01*
X154909391Y-69761712D01*
X154945121Y-69732389D01*
X154963020Y-69722822D01*
X155101610Y-69648743D01*
X155158211Y-69631573D01*
X155271412Y-69597234D01*
X155359638Y-69588545D01*
X155403750Y-69584200D01*
X155492250Y-69584200D01*
X155536362Y-69588545D01*
X155536362Y-69588545D01*
G37*
G36*
X158888800Y-71385800D02*
X157087200Y-71385800D01*
X157087200Y-69584200D01*
X158888800Y-69584200D01*
X158888800Y-71385800D01*
X158888800Y-71385800D01*
G37*
G36*
X170776362Y-69588545D02*
X170864588Y-69597234D01*
X170977789Y-69631573D01*
X171034390Y-69648743D01*
X171172980Y-69722822D01*
X171190879Y-69732389D01*
X171226609Y-69761712D01*
X171328044Y-69844956D01*
X171411288Y-69946391D01*
X171440611Y-69982121D01*
X171440612Y-69982123D01*
X171524257Y-70138610D01*
X171524257Y-70138611D01*
X171575766Y-70308412D01*
X171593158Y-70485000D01*
X171575766Y-70661588D01*
X171541427Y-70774789D01*
X171524257Y-70831390D01*
X171481336Y-70911689D01*
X171440611Y-70987879D01*
X171411288Y-71023609D01*
X171328044Y-71125044D01*
X171255355Y-71184697D01*
X171190879Y-71237611D01*
X171190877Y-71237612D01*
X171034390Y-71321257D01*
X170977789Y-71338427D01*
X170864588Y-71372766D01*
X170776362Y-71381455D01*
X170732250Y-71385800D01*
X170643750Y-71385800D01*
X170599638Y-71381455D01*
X170511412Y-71372766D01*
X170398211Y-71338427D01*
X170341610Y-71321257D01*
X170185123Y-71237612D01*
X170185121Y-71237611D01*
X170120645Y-71184697D01*
X170047956Y-71125044D01*
X169964712Y-71023609D01*
X169935389Y-70987879D01*
X169894664Y-70911689D01*
X169851743Y-70831390D01*
X169834573Y-70774789D01*
X169800234Y-70661588D01*
X169782842Y-70485000D01*
X169800234Y-70308412D01*
X169851743Y-70138611D01*
X169851743Y-70138610D01*
X169935388Y-69982123D01*
X169935389Y-69982121D01*
X169964712Y-69946391D01*
X170047956Y-69844956D01*
X170149391Y-69761712D01*
X170185121Y-69732389D01*
X170203020Y-69722822D01*
X170341610Y-69648743D01*
X170398211Y-69631573D01*
X170511412Y-69597234D01*
X170599638Y-69588545D01*
X170643750Y-69584200D01*
X170732250Y-69584200D01*
X170776362Y-69588545D01*
X170776362Y-69588545D01*
G37*
G36*
X174128800Y-71385800D02*
X172327200Y-71385800D01*
X172327200Y-69584200D01*
X174128800Y-69584200D01*
X174128800Y-71385800D01*
X174128800Y-71385800D01*
G37*
G36*
X150500229Y-69592854D02*
X150630754Y-69618817D01*
X150794689Y-69686721D01*
X150942227Y-69785303D01*
X151067697Y-69910773D01*
X151166279Y-70058311D01*
X151234183Y-70222246D01*
X151268800Y-70396279D01*
X151268800Y-70573721D01*
X151234183Y-70747754D01*
X151166279Y-70911689D01*
X151067697Y-71059227D01*
X150942227Y-71184697D01*
X150794689Y-71283279D01*
X150630754Y-71351183D01*
X150500229Y-71377146D01*
X150456722Y-71385800D01*
X150279278Y-71385800D01*
X150235771Y-71377146D01*
X150105246Y-71351183D01*
X149941311Y-71283279D01*
X149793773Y-71184697D01*
X149668303Y-71059227D01*
X149569721Y-70911689D01*
X149501817Y-70747754D01*
X149467200Y-70573721D01*
X149467200Y-70396279D01*
X149501817Y-70222246D01*
X149569721Y-70058311D01*
X149668303Y-69910773D01*
X149793773Y-69785303D01*
X149941311Y-69686721D01*
X150105246Y-69618817D01*
X150235771Y-69592854D01*
X150279278Y-69584200D01*
X150456722Y-69584200D01*
X150500229Y-69592854D01*
X150500229Y-69592854D01*
G37*
G36*
X165740229Y-69592854D02*
X165870754Y-69618817D01*
X166034689Y-69686721D01*
X166182227Y-69785303D01*
X166307697Y-69910773D01*
X166406279Y-70058311D01*
X166474183Y-70222246D01*
X166508800Y-70396279D01*
X166508800Y-70573721D01*
X166474183Y-70747754D01*
X166406279Y-70911689D01*
X166307697Y-71059227D01*
X166182227Y-71184697D01*
X166034689Y-71283279D01*
X165870754Y-71351183D01*
X165740229Y-71377146D01*
X165696722Y-71385800D01*
X165519278Y-71385800D01*
X165475771Y-71377146D01*
X165345246Y-71351183D01*
X165181311Y-71283279D01*
X165033773Y-71184697D01*
X164908303Y-71059227D01*
X164809721Y-70911689D01*
X164741817Y-70747754D01*
X164707200Y-70573721D01*
X164707200Y-70396279D01*
X164741817Y-70222246D01*
X164809721Y-70058311D01*
X164908303Y-69910773D01*
X165033773Y-69785303D01*
X165181311Y-69686721D01*
X165345246Y-69618817D01*
X165475771Y-69592854D01*
X165519278Y-69584200D01*
X165696722Y-69584200D01*
X165740229Y-69592854D01*
X165740229Y-69592854D01*
G37*
G36*
X168236362Y-67048545D02*
X168324588Y-67057234D01*
X168437789Y-67091573D01*
X168494390Y-67108743D01*
X168632980Y-67182822D01*
X168650879Y-67192389D01*
X168686609Y-67221712D01*
X168788044Y-67304956D01*
X168871288Y-67406391D01*
X168900611Y-67442121D01*
X168900612Y-67442123D01*
X168984257Y-67598610D01*
X168984257Y-67598611D01*
X169035766Y-67768412D01*
X169053158Y-67945000D01*
X169035766Y-68121588D01*
X169001427Y-68234789D01*
X168984257Y-68291390D01*
X168910178Y-68429980D01*
X168900611Y-68447879D01*
X168871288Y-68483609D01*
X168788044Y-68585044D01*
X168686609Y-68668288D01*
X168650879Y-68697611D01*
X168650877Y-68697612D01*
X168494390Y-68781257D01*
X168437789Y-68798427D01*
X168324588Y-68832766D01*
X168236362Y-68841455D01*
X168192250Y-68845800D01*
X168103750Y-68845800D01*
X168059638Y-68841455D01*
X167971412Y-68832766D01*
X167858211Y-68798427D01*
X167801610Y-68781257D01*
X167645123Y-68697612D01*
X167645121Y-68697611D01*
X167609391Y-68668288D01*
X167507956Y-68585044D01*
X167424712Y-68483609D01*
X167395389Y-68447879D01*
X167385822Y-68429980D01*
X167311743Y-68291390D01*
X167294573Y-68234789D01*
X167260234Y-68121588D01*
X167242842Y-67945000D01*
X167260234Y-67768412D01*
X167311743Y-67598611D01*
X167311743Y-67598610D01*
X167395388Y-67442123D01*
X167395389Y-67442121D01*
X167424712Y-67406391D01*
X167507956Y-67304956D01*
X167609391Y-67221712D01*
X167645121Y-67192389D01*
X167663020Y-67182822D01*
X167801610Y-67108743D01*
X167858211Y-67091573D01*
X167971412Y-67057234D01*
X168059638Y-67048545D01*
X168103750Y-67044200D01*
X168192250Y-67044200D01*
X168236362Y-67048545D01*
X168236362Y-67048545D01*
G37*
G36*
X132676362Y-67048545D02*
X132764588Y-67057234D01*
X132877789Y-67091573D01*
X132934390Y-67108743D01*
X133072980Y-67182822D01*
X133090879Y-67192389D01*
X133126609Y-67221712D01*
X133228044Y-67304956D01*
X133311288Y-67406391D01*
X133340611Y-67442121D01*
X133340612Y-67442123D01*
X133424257Y-67598610D01*
X133424257Y-67598611D01*
X133475766Y-67768412D01*
X133493158Y-67945000D01*
X133475766Y-68121588D01*
X133441427Y-68234789D01*
X133424257Y-68291390D01*
X133350178Y-68429980D01*
X133340611Y-68447879D01*
X133311288Y-68483609D01*
X133228044Y-68585044D01*
X133126609Y-68668288D01*
X133090879Y-68697611D01*
X133090877Y-68697612D01*
X132934390Y-68781257D01*
X132877789Y-68798427D01*
X132764588Y-68832766D01*
X132676362Y-68841455D01*
X132632250Y-68845800D01*
X132543750Y-68845800D01*
X132499638Y-68841455D01*
X132411412Y-68832766D01*
X132298211Y-68798427D01*
X132241610Y-68781257D01*
X132085123Y-68697612D01*
X132085121Y-68697611D01*
X132049391Y-68668288D01*
X131947956Y-68585044D01*
X131864712Y-68483609D01*
X131835389Y-68447879D01*
X131825822Y-68429980D01*
X131751743Y-68291390D01*
X131734573Y-68234789D01*
X131700234Y-68121588D01*
X131682842Y-67945000D01*
X131700234Y-67768412D01*
X131751743Y-67598611D01*
X131751743Y-67598610D01*
X131835388Y-67442123D01*
X131835389Y-67442121D01*
X131864712Y-67406391D01*
X131947956Y-67304956D01*
X132049391Y-67221712D01*
X132085121Y-67192389D01*
X132103020Y-67182822D01*
X132241610Y-67108743D01*
X132298211Y-67091573D01*
X132411412Y-67057234D01*
X132499638Y-67048545D01*
X132543750Y-67044200D01*
X132632250Y-67044200D01*
X132676362Y-67048545D01*
X132676362Y-67048545D01*
G37*
G36*
X135216362Y-67048545D02*
X135304588Y-67057234D01*
X135417789Y-67091573D01*
X135474390Y-67108743D01*
X135612980Y-67182822D01*
X135630879Y-67192389D01*
X135666609Y-67221712D01*
X135768044Y-67304956D01*
X135851288Y-67406391D01*
X135880611Y-67442121D01*
X135880612Y-67442123D01*
X135964257Y-67598610D01*
X135964257Y-67598611D01*
X136015766Y-67768412D01*
X136033158Y-67945000D01*
X136015766Y-68121588D01*
X135981427Y-68234789D01*
X135964257Y-68291390D01*
X135890178Y-68429980D01*
X135880611Y-68447879D01*
X135851288Y-68483609D01*
X135768044Y-68585044D01*
X135666609Y-68668288D01*
X135630879Y-68697611D01*
X135630877Y-68697612D01*
X135474390Y-68781257D01*
X135417789Y-68798427D01*
X135304588Y-68832766D01*
X135216362Y-68841455D01*
X135172250Y-68845800D01*
X135083750Y-68845800D01*
X135039638Y-68841455D01*
X134951412Y-68832766D01*
X134838211Y-68798427D01*
X134781610Y-68781257D01*
X134625123Y-68697612D01*
X134625121Y-68697611D01*
X134589391Y-68668288D01*
X134487956Y-68585044D01*
X134404712Y-68483609D01*
X134375389Y-68447879D01*
X134365822Y-68429980D01*
X134291743Y-68291390D01*
X134274573Y-68234789D01*
X134240234Y-68121588D01*
X134222842Y-67945000D01*
X134240234Y-67768412D01*
X134291743Y-67598611D01*
X134291743Y-67598610D01*
X134375388Y-67442123D01*
X134375389Y-67442121D01*
X134404712Y-67406391D01*
X134487956Y-67304956D01*
X134589391Y-67221712D01*
X134625121Y-67192389D01*
X134643020Y-67182822D01*
X134781610Y-67108743D01*
X134838211Y-67091573D01*
X134951412Y-67057234D01*
X135039638Y-67048545D01*
X135083750Y-67044200D01*
X135172250Y-67044200D01*
X135216362Y-67048545D01*
X135216362Y-67048545D01*
G37*
G36*
X174128800Y-68845800D02*
X172327200Y-68845800D01*
X172327200Y-67044200D01*
X174128800Y-67044200D01*
X174128800Y-68845800D01*
X174128800Y-68845800D01*
G37*
G36*
X170776362Y-67048545D02*
X170864588Y-67057234D01*
X170977789Y-67091573D01*
X171034390Y-67108743D01*
X171172980Y-67182822D01*
X171190879Y-67192389D01*
X171226609Y-67221712D01*
X171328044Y-67304956D01*
X171411288Y-67406391D01*
X171440611Y-67442121D01*
X171440612Y-67442123D01*
X171524257Y-67598610D01*
X171524257Y-67598611D01*
X171575766Y-67768412D01*
X171593158Y-67945000D01*
X171575766Y-68121588D01*
X171541427Y-68234789D01*
X171524257Y-68291390D01*
X171450178Y-68429980D01*
X171440611Y-68447879D01*
X171411288Y-68483609D01*
X171328044Y-68585044D01*
X171226609Y-68668288D01*
X171190879Y-68697611D01*
X171190877Y-68697612D01*
X171034390Y-68781257D01*
X170977789Y-68798427D01*
X170864588Y-68832766D01*
X170776362Y-68841455D01*
X170732250Y-68845800D01*
X170643750Y-68845800D01*
X170599638Y-68841455D01*
X170511412Y-68832766D01*
X170398211Y-68798427D01*
X170341610Y-68781257D01*
X170185123Y-68697612D01*
X170185121Y-68697611D01*
X170149391Y-68668288D01*
X170047956Y-68585044D01*
X169964712Y-68483609D01*
X169935389Y-68447879D01*
X169925822Y-68429980D01*
X169851743Y-68291390D01*
X169834573Y-68234789D01*
X169800234Y-68121588D01*
X169782842Y-67945000D01*
X169800234Y-67768412D01*
X169851743Y-67598611D01*
X169851743Y-67598610D01*
X169935388Y-67442123D01*
X169935389Y-67442121D01*
X169964712Y-67406391D01*
X170047956Y-67304956D01*
X170149391Y-67221712D01*
X170185121Y-67192389D01*
X170203020Y-67182822D01*
X170341610Y-67108743D01*
X170398211Y-67091573D01*
X170511412Y-67057234D01*
X170599638Y-67048545D01*
X170643750Y-67044200D01*
X170732250Y-67044200D01*
X170776362Y-67048545D01*
X170776362Y-67048545D01*
G37*
G36*
X165696362Y-67048545D02*
X165784588Y-67057234D01*
X165897789Y-67091573D01*
X165954390Y-67108743D01*
X166092980Y-67182822D01*
X166110879Y-67192389D01*
X166146609Y-67221712D01*
X166248044Y-67304956D01*
X166331288Y-67406391D01*
X166360611Y-67442121D01*
X166360612Y-67442123D01*
X166444257Y-67598610D01*
X166444257Y-67598611D01*
X166495766Y-67768412D01*
X166513158Y-67945000D01*
X166495766Y-68121588D01*
X166461427Y-68234789D01*
X166444257Y-68291390D01*
X166370178Y-68429980D01*
X166360611Y-68447879D01*
X166331288Y-68483609D01*
X166248044Y-68585044D01*
X166146609Y-68668288D01*
X166110879Y-68697611D01*
X166110877Y-68697612D01*
X165954390Y-68781257D01*
X165897789Y-68798427D01*
X165784588Y-68832766D01*
X165696362Y-68841455D01*
X165652250Y-68845800D01*
X165563750Y-68845800D01*
X165519638Y-68841455D01*
X165431412Y-68832766D01*
X165318211Y-68798427D01*
X165261610Y-68781257D01*
X165105123Y-68697612D01*
X165105121Y-68697611D01*
X165069391Y-68668288D01*
X164967956Y-68585044D01*
X164884712Y-68483609D01*
X164855389Y-68447879D01*
X164845822Y-68429980D01*
X164771743Y-68291390D01*
X164754573Y-68234789D01*
X164720234Y-68121588D01*
X164702842Y-67945000D01*
X164720234Y-67768412D01*
X164771743Y-67598611D01*
X164771743Y-67598610D01*
X164855388Y-67442123D01*
X164855389Y-67442121D01*
X164884712Y-67406391D01*
X164967956Y-67304956D01*
X165069391Y-67221712D01*
X165105121Y-67192389D01*
X165123020Y-67182822D01*
X165261610Y-67108743D01*
X165318211Y-67091573D01*
X165431412Y-67057234D01*
X165519638Y-67048545D01*
X165563750Y-67044200D01*
X165652250Y-67044200D01*
X165696362Y-67048545D01*
X165696362Y-67048545D01*
G37*
G36*
X155536362Y-67048545D02*
X155624588Y-67057234D01*
X155737789Y-67091573D01*
X155794390Y-67108743D01*
X155932980Y-67182822D01*
X155950879Y-67192389D01*
X155986609Y-67221712D01*
X156088044Y-67304956D01*
X156171288Y-67406391D01*
X156200611Y-67442121D01*
X156200612Y-67442123D01*
X156284257Y-67598610D01*
X156284257Y-67598611D01*
X156335766Y-67768412D01*
X156353158Y-67945000D01*
X156335766Y-68121588D01*
X156301427Y-68234789D01*
X156284257Y-68291390D01*
X156210178Y-68429980D01*
X156200611Y-68447879D01*
X156171288Y-68483609D01*
X156088044Y-68585044D01*
X155986609Y-68668288D01*
X155950879Y-68697611D01*
X155950877Y-68697612D01*
X155794390Y-68781257D01*
X155737789Y-68798427D01*
X155624588Y-68832766D01*
X155536362Y-68841455D01*
X155492250Y-68845800D01*
X155403750Y-68845800D01*
X155359638Y-68841455D01*
X155271412Y-68832766D01*
X155158211Y-68798427D01*
X155101610Y-68781257D01*
X154945123Y-68697612D01*
X154945121Y-68697611D01*
X154909391Y-68668288D01*
X154807956Y-68585044D01*
X154724712Y-68483609D01*
X154695389Y-68447879D01*
X154685822Y-68429980D01*
X154611743Y-68291390D01*
X154594573Y-68234789D01*
X154560234Y-68121588D01*
X154542842Y-67945000D01*
X154560234Y-67768412D01*
X154611743Y-67598611D01*
X154611743Y-67598610D01*
X154695388Y-67442123D01*
X154695389Y-67442121D01*
X154724712Y-67406391D01*
X154807956Y-67304956D01*
X154909391Y-67221712D01*
X154945121Y-67192389D01*
X154963020Y-67182822D01*
X155101610Y-67108743D01*
X155158211Y-67091573D01*
X155271412Y-67057234D01*
X155359638Y-67048545D01*
X155403750Y-67044200D01*
X155492250Y-67044200D01*
X155536362Y-67048545D01*
X155536362Y-67048545D01*
G37*
G36*
X152996362Y-67048545D02*
X153084588Y-67057234D01*
X153197789Y-67091573D01*
X153254390Y-67108743D01*
X153392980Y-67182822D01*
X153410879Y-67192389D01*
X153446609Y-67221712D01*
X153548044Y-67304956D01*
X153631288Y-67406391D01*
X153660611Y-67442121D01*
X153660612Y-67442123D01*
X153744257Y-67598610D01*
X153744257Y-67598611D01*
X153795766Y-67768412D01*
X153813158Y-67945000D01*
X153795766Y-68121588D01*
X153761427Y-68234789D01*
X153744257Y-68291390D01*
X153670178Y-68429980D01*
X153660611Y-68447879D01*
X153631288Y-68483609D01*
X153548044Y-68585044D01*
X153446609Y-68668288D01*
X153410879Y-68697611D01*
X153410877Y-68697612D01*
X153254390Y-68781257D01*
X153197789Y-68798427D01*
X153084588Y-68832766D01*
X152996362Y-68841455D01*
X152952250Y-68845800D01*
X152863750Y-68845800D01*
X152819638Y-68841455D01*
X152731412Y-68832766D01*
X152618211Y-68798427D01*
X152561610Y-68781257D01*
X152405123Y-68697612D01*
X152405121Y-68697611D01*
X152369391Y-68668288D01*
X152267956Y-68585044D01*
X152184712Y-68483609D01*
X152155389Y-68447879D01*
X152145822Y-68429980D01*
X152071743Y-68291390D01*
X152054573Y-68234789D01*
X152020234Y-68121588D01*
X152002842Y-67945000D01*
X152020234Y-67768412D01*
X152071743Y-67598611D01*
X152071743Y-67598610D01*
X152155388Y-67442123D01*
X152155389Y-67442121D01*
X152184712Y-67406391D01*
X152267956Y-67304956D01*
X152369391Y-67221712D01*
X152405121Y-67192389D01*
X152423020Y-67182822D01*
X152561610Y-67108743D01*
X152618211Y-67091573D01*
X152731412Y-67057234D01*
X152819638Y-67048545D01*
X152863750Y-67044200D01*
X152952250Y-67044200D01*
X152996362Y-67048545D01*
X152996362Y-67048545D01*
G37*
G36*
X150456362Y-67048545D02*
X150544588Y-67057234D01*
X150657789Y-67091573D01*
X150714390Y-67108743D01*
X150852980Y-67182822D01*
X150870879Y-67192389D01*
X150906609Y-67221712D01*
X151008044Y-67304956D01*
X151091288Y-67406391D01*
X151120611Y-67442121D01*
X151120612Y-67442123D01*
X151204257Y-67598610D01*
X151204257Y-67598611D01*
X151255766Y-67768412D01*
X151273158Y-67945000D01*
X151255766Y-68121588D01*
X151221427Y-68234789D01*
X151204257Y-68291390D01*
X151130178Y-68429980D01*
X151120611Y-68447879D01*
X151091288Y-68483609D01*
X151008044Y-68585044D01*
X150906609Y-68668288D01*
X150870879Y-68697611D01*
X150870877Y-68697612D01*
X150714390Y-68781257D01*
X150657789Y-68798427D01*
X150544588Y-68832766D01*
X150456362Y-68841455D01*
X150412250Y-68845800D01*
X150323750Y-68845800D01*
X150279638Y-68841455D01*
X150191412Y-68832766D01*
X150078211Y-68798427D01*
X150021610Y-68781257D01*
X149865123Y-68697612D01*
X149865121Y-68697611D01*
X149829391Y-68668288D01*
X149727956Y-68585044D01*
X149644712Y-68483609D01*
X149615389Y-68447879D01*
X149605822Y-68429980D01*
X149531743Y-68291390D01*
X149514573Y-68234789D01*
X149480234Y-68121588D01*
X149462842Y-67945000D01*
X149480234Y-67768412D01*
X149531743Y-67598611D01*
X149531743Y-67598610D01*
X149615388Y-67442123D01*
X149615389Y-67442121D01*
X149644712Y-67406391D01*
X149727956Y-67304956D01*
X149829391Y-67221712D01*
X149865121Y-67192389D01*
X149883020Y-67182822D01*
X150021610Y-67108743D01*
X150078211Y-67091573D01*
X150191412Y-67057234D01*
X150279638Y-67048545D01*
X150323750Y-67044200D01*
X150412250Y-67044200D01*
X150456362Y-67048545D01*
X150456362Y-67048545D01*
G37*
G36*
X141108800Y-68845800D02*
X139307200Y-68845800D01*
X139307200Y-67044200D01*
X141108800Y-67044200D01*
X141108800Y-68845800D01*
X141108800Y-68845800D01*
G37*
G36*
X137756362Y-67048545D02*
X137844588Y-67057234D01*
X137957789Y-67091573D01*
X138014390Y-67108743D01*
X138152980Y-67182822D01*
X138170879Y-67192389D01*
X138206609Y-67221712D01*
X138308044Y-67304956D01*
X138391288Y-67406391D01*
X138420611Y-67442121D01*
X138420612Y-67442123D01*
X138504257Y-67598610D01*
X138504257Y-67598611D01*
X138555766Y-67768412D01*
X138573158Y-67945000D01*
X138555766Y-68121588D01*
X138521427Y-68234789D01*
X138504257Y-68291390D01*
X138430178Y-68429980D01*
X138420611Y-68447879D01*
X138391288Y-68483609D01*
X138308044Y-68585044D01*
X138206609Y-68668288D01*
X138170879Y-68697611D01*
X138170877Y-68697612D01*
X138014390Y-68781257D01*
X137957789Y-68798427D01*
X137844588Y-68832766D01*
X137756362Y-68841455D01*
X137712250Y-68845800D01*
X137623750Y-68845800D01*
X137579638Y-68841455D01*
X137491412Y-68832766D01*
X137378211Y-68798427D01*
X137321610Y-68781257D01*
X137165123Y-68697612D01*
X137165121Y-68697611D01*
X137129391Y-68668288D01*
X137027956Y-68585044D01*
X136944712Y-68483609D01*
X136915389Y-68447879D01*
X136905822Y-68429980D01*
X136831743Y-68291390D01*
X136814573Y-68234789D01*
X136780234Y-68121588D01*
X136762842Y-67945000D01*
X136780234Y-67768412D01*
X136831743Y-67598611D01*
X136831743Y-67598610D01*
X136915388Y-67442123D01*
X136915389Y-67442121D01*
X136944712Y-67406391D01*
X137027956Y-67304956D01*
X137129391Y-67221712D01*
X137165121Y-67192389D01*
X137183020Y-67182822D01*
X137321610Y-67108743D01*
X137378211Y-67091573D01*
X137491412Y-67057234D01*
X137579638Y-67048545D01*
X137623750Y-67044200D01*
X137712250Y-67044200D01*
X137756362Y-67048545D01*
X137756362Y-67048545D01*
G37*
G36*
X158888800Y-68845800D02*
X157087200Y-68845800D01*
X157087200Y-67044200D01*
X158888800Y-67044200D01*
X158888800Y-68845800D01*
X158888800Y-68845800D01*
G37*
G36*
X137756362Y-64508545D02*
X137844588Y-64517234D01*
X137957789Y-64551573D01*
X138014390Y-64568743D01*
X138152980Y-64642822D01*
X138170879Y-64652389D01*
X138206609Y-64681712D01*
X138308044Y-64764956D01*
X138391288Y-64866391D01*
X138420611Y-64902121D01*
X138420612Y-64902123D01*
X138504257Y-65058610D01*
X138504257Y-65058611D01*
X138555766Y-65228412D01*
X138573158Y-65405000D01*
X138555766Y-65581588D01*
X138521427Y-65694789D01*
X138504257Y-65751390D01*
X138430178Y-65889980D01*
X138420611Y-65907879D01*
X138391288Y-65943609D01*
X138308044Y-66045044D01*
X138206609Y-66128288D01*
X138170879Y-66157611D01*
X138170877Y-66157612D01*
X138014390Y-66241257D01*
X137957789Y-66258427D01*
X137844588Y-66292766D01*
X137756362Y-66301455D01*
X137712250Y-66305800D01*
X137623750Y-66305800D01*
X137579638Y-66301455D01*
X137491412Y-66292766D01*
X137378211Y-66258427D01*
X137321610Y-66241257D01*
X137165123Y-66157612D01*
X137165121Y-66157611D01*
X137129391Y-66128288D01*
X137027956Y-66045044D01*
X136944712Y-65943609D01*
X136915389Y-65907879D01*
X136905822Y-65889980D01*
X136831743Y-65751390D01*
X136814573Y-65694789D01*
X136780234Y-65581588D01*
X136762842Y-65405000D01*
X136780234Y-65228412D01*
X136831743Y-65058611D01*
X136831743Y-65058610D01*
X136915388Y-64902123D01*
X136915389Y-64902121D01*
X136944712Y-64866391D01*
X137027956Y-64764956D01*
X137129391Y-64681712D01*
X137165121Y-64652389D01*
X137183020Y-64642822D01*
X137321610Y-64568743D01*
X137378211Y-64551573D01*
X137491412Y-64517234D01*
X137579638Y-64508545D01*
X137623750Y-64504200D01*
X137712250Y-64504200D01*
X137756362Y-64508545D01*
X137756362Y-64508545D01*
G37*
G36*
X150456362Y-64508545D02*
X150544588Y-64517234D01*
X150657789Y-64551573D01*
X150714390Y-64568743D01*
X150852980Y-64642822D01*
X150870879Y-64652389D01*
X150906609Y-64681712D01*
X151008044Y-64764956D01*
X151091288Y-64866391D01*
X151120611Y-64902121D01*
X151120612Y-64902123D01*
X151204257Y-65058610D01*
X151204257Y-65058611D01*
X151255766Y-65228412D01*
X151273158Y-65405000D01*
X151255766Y-65581588D01*
X151221427Y-65694789D01*
X151204257Y-65751390D01*
X151130178Y-65889980D01*
X151120611Y-65907879D01*
X151091288Y-65943609D01*
X151008044Y-66045044D01*
X150906609Y-66128288D01*
X150870879Y-66157611D01*
X150870877Y-66157612D01*
X150714390Y-66241257D01*
X150657789Y-66258427D01*
X150544588Y-66292766D01*
X150456362Y-66301455D01*
X150412250Y-66305800D01*
X150323750Y-66305800D01*
X150279638Y-66301455D01*
X150191412Y-66292766D01*
X150078211Y-66258427D01*
X150021610Y-66241257D01*
X149865123Y-66157612D01*
X149865121Y-66157611D01*
X149829391Y-66128288D01*
X149727956Y-66045044D01*
X149644712Y-65943609D01*
X149615389Y-65907879D01*
X149605822Y-65889980D01*
X149531743Y-65751390D01*
X149514573Y-65694789D01*
X149480234Y-65581588D01*
X149462842Y-65405000D01*
X149480234Y-65228412D01*
X149531743Y-65058611D01*
X149531743Y-65058610D01*
X149615388Y-64902123D01*
X149615389Y-64902121D01*
X149644712Y-64866391D01*
X149727956Y-64764956D01*
X149829391Y-64681712D01*
X149865121Y-64652389D01*
X149883020Y-64642822D01*
X150021610Y-64568743D01*
X150078211Y-64551573D01*
X150191412Y-64517234D01*
X150279638Y-64508545D01*
X150323750Y-64504200D01*
X150412250Y-64504200D01*
X150456362Y-64508545D01*
X150456362Y-64508545D01*
G37*
G36*
X135216362Y-64508545D02*
X135304588Y-64517234D01*
X135417789Y-64551573D01*
X135474390Y-64568743D01*
X135612980Y-64642822D01*
X135630879Y-64652389D01*
X135666609Y-64681712D01*
X135768044Y-64764956D01*
X135851288Y-64866391D01*
X135880611Y-64902121D01*
X135880612Y-64902123D01*
X135964257Y-65058610D01*
X135964257Y-65058611D01*
X136015766Y-65228412D01*
X136033158Y-65405000D01*
X136015766Y-65581588D01*
X135981427Y-65694789D01*
X135964257Y-65751390D01*
X135890178Y-65889980D01*
X135880611Y-65907879D01*
X135851288Y-65943609D01*
X135768044Y-66045044D01*
X135666609Y-66128288D01*
X135630879Y-66157611D01*
X135630877Y-66157612D01*
X135474390Y-66241257D01*
X135417789Y-66258427D01*
X135304588Y-66292766D01*
X135216362Y-66301455D01*
X135172250Y-66305800D01*
X135083750Y-66305800D01*
X135039638Y-66301455D01*
X134951412Y-66292766D01*
X134838211Y-66258427D01*
X134781610Y-66241257D01*
X134625123Y-66157612D01*
X134625121Y-66157611D01*
X134589391Y-66128288D01*
X134487956Y-66045044D01*
X134404712Y-65943609D01*
X134375389Y-65907879D01*
X134365822Y-65889980D01*
X134291743Y-65751390D01*
X134274573Y-65694789D01*
X134240234Y-65581588D01*
X134222842Y-65405000D01*
X134240234Y-65228412D01*
X134291743Y-65058611D01*
X134291743Y-65058610D01*
X134375388Y-64902123D01*
X134375389Y-64902121D01*
X134404712Y-64866391D01*
X134487956Y-64764956D01*
X134589391Y-64681712D01*
X134625121Y-64652389D01*
X134643020Y-64642822D01*
X134781610Y-64568743D01*
X134838211Y-64551573D01*
X134951412Y-64517234D01*
X135039638Y-64508545D01*
X135083750Y-64504200D01*
X135172250Y-64504200D01*
X135216362Y-64508545D01*
X135216362Y-64508545D01*
G37*
G36*
X132676362Y-64508545D02*
X132764588Y-64517234D01*
X132877789Y-64551573D01*
X132934390Y-64568743D01*
X133072980Y-64642822D01*
X133090879Y-64652389D01*
X133126609Y-64681712D01*
X133228044Y-64764956D01*
X133311288Y-64866391D01*
X133340611Y-64902121D01*
X133340612Y-64902123D01*
X133424257Y-65058610D01*
X133424257Y-65058611D01*
X133475766Y-65228412D01*
X133493158Y-65405000D01*
X133475766Y-65581588D01*
X133441427Y-65694789D01*
X133424257Y-65751390D01*
X133350178Y-65889980D01*
X133340611Y-65907879D01*
X133311288Y-65943609D01*
X133228044Y-66045044D01*
X133126609Y-66128288D01*
X133090879Y-66157611D01*
X133090877Y-66157612D01*
X132934390Y-66241257D01*
X132877789Y-66258427D01*
X132764588Y-66292766D01*
X132676362Y-66301455D01*
X132632250Y-66305800D01*
X132543750Y-66305800D01*
X132499638Y-66301455D01*
X132411412Y-66292766D01*
X132298211Y-66258427D01*
X132241610Y-66241257D01*
X132085123Y-66157612D01*
X132085121Y-66157611D01*
X132049391Y-66128288D01*
X131947956Y-66045044D01*
X131864712Y-65943609D01*
X131835389Y-65907879D01*
X131825822Y-65889980D01*
X131751743Y-65751390D01*
X131734573Y-65694789D01*
X131700234Y-65581588D01*
X131682842Y-65405000D01*
X131700234Y-65228412D01*
X131751743Y-65058611D01*
X131751743Y-65058610D01*
X131835388Y-64902123D01*
X131835389Y-64902121D01*
X131864712Y-64866391D01*
X131947956Y-64764956D01*
X132049391Y-64681712D01*
X132085121Y-64652389D01*
X132103020Y-64642822D01*
X132241610Y-64568743D01*
X132298211Y-64551573D01*
X132411412Y-64517234D01*
X132499638Y-64508545D01*
X132543750Y-64504200D01*
X132632250Y-64504200D01*
X132676362Y-64508545D01*
X132676362Y-64508545D01*
G37*
G36*
X174128800Y-66305800D02*
X172327200Y-66305800D01*
X172327200Y-64504200D01*
X174128800Y-64504200D01*
X174128800Y-66305800D01*
X174128800Y-66305800D01*
G37*
G36*
X141108800Y-66305800D02*
X139307200Y-66305800D01*
X139307200Y-64504200D01*
X141108800Y-64504200D01*
X141108800Y-66305800D01*
X141108800Y-66305800D01*
G37*
G36*
X152996362Y-64508545D02*
X153084588Y-64517234D01*
X153197789Y-64551573D01*
X153254390Y-64568743D01*
X153392980Y-64642822D01*
X153410879Y-64652389D01*
X153446609Y-64681712D01*
X153548044Y-64764956D01*
X153631288Y-64866391D01*
X153660611Y-64902121D01*
X153660612Y-64902123D01*
X153744257Y-65058610D01*
X153744257Y-65058611D01*
X153795766Y-65228412D01*
X153813158Y-65405000D01*
X153795766Y-65581588D01*
X153761427Y-65694789D01*
X153744257Y-65751390D01*
X153670178Y-65889980D01*
X153660611Y-65907879D01*
X153631288Y-65943609D01*
X153548044Y-66045044D01*
X153446609Y-66128288D01*
X153410879Y-66157611D01*
X153410877Y-66157612D01*
X153254390Y-66241257D01*
X153197789Y-66258427D01*
X153084588Y-66292766D01*
X152996362Y-66301455D01*
X152952250Y-66305800D01*
X152863750Y-66305800D01*
X152819638Y-66301455D01*
X152731412Y-66292766D01*
X152618211Y-66258427D01*
X152561610Y-66241257D01*
X152405123Y-66157612D01*
X152405121Y-66157611D01*
X152369391Y-66128288D01*
X152267956Y-66045044D01*
X152184712Y-65943609D01*
X152155389Y-65907879D01*
X152145822Y-65889980D01*
X152071743Y-65751390D01*
X152054573Y-65694789D01*
X152020234Y-65581588D01*
X152002842Y-65405000D01*
X152020234Y-65228412D01*
X152071743Y-65058611D01*
X152071743Y-65058610D01*
X152155388Y-64902123D01*
X152155389Y-64902121D01*
X152184712Y-64866391D01*
X152267956Y-64764956D01*
X152369391Y-64681712D01*
X152405121Y-64652389D01*
X152423020Y-64642822D01*
X152561610Y-64568743D01*
X152618211Y-64551573D01*
X152731412Y-64517234D01*
X152819638Y-64508545D01*
X152863750Y-64504200D01*
X152952250Y-64504200D01*
X152996362Y-64508545D01*
X152996362Y-64508545D01*
G37*
G36*
X165696362Y-64508545D02*
X165784588Y-64517234D01*
X165897789Y-64551573D01*
X165954390Y-64568743D01*
X166092980Y-64642822D01*
X166110879Y-64652389D01*
X166146609Y-64681712D01*
X166248044Y-64764956D01*
X166331288Y-64866391D01*
X166360611Y-64902121D01*
X166360612Y-64902123D01*
X166444257Y-65058610D01*
X166444257Y-65058611D01*
X166495766Y-65228412D01*
X166513158Y-65405000D01*
X166495766Y-65581588D01*
X166461427Y-65694789D01*
X166444257Y-65751390D01*
X166370178Y-65889980D01*
X166360611Y-65907879D01*
X166331288Y-65943609D01*
X166248044Y-66045044D01*
X166146609Y-66128288D01*
X166110879Y-66157611D01*
X166110877Y-66157612D01*
X165954390Y-66241257D01*
X165897789Y-66258427D01*
X165784588Y-66292766D01*
X165696362Y-66301455D01*
X165652250Y-66305800D01*
X165563750Y-66305800D01*
X165519638Y-66301455D01*
X165431412Y-66292766D01*
X165318211Y-66258427D01*
X165261610Y-66241257D01*
X165105123Y-66157612D01*
X165105121Y-66157611D01*
X165069391Y-66128288D01*
X164967956Y-66045044D01*
X164884712Y-65943609D01*
X164855389Y-65907879D01*
X164845822Y-65889980D01*
X164771743Y-65751390D01*
X164754573Y-65694789D01*
X164720234Y-65581588D01*
X164702842Y-65405000D01*
X164720234Y-65228412D01*
X164771743Y-65058611D01*
X164771743Y-65058610D01*
X164855388Y-64902123D01*
X164855389Y-64902121D01*
X164884712Y-64866391D01*
X164967956Y-64764956D01*
X165069391Y-64681712D01*
X165105121Y-64652389D01*
X165123020Y-64642822D01*
X165261610Y-64568743D01*
X165318211Y-64551573D01*
X165431412Y-64517234D01*
X165519638Y-64508545D01*
X165563750Y-64504200D01*
X165652250Y-64504200D01*
X165696362Y-64508545D01*
X165696362Y-64508545D01*
G37*
G36*
X158888800Y-66305800D02*
X157087200Y-66305800D01*
X157087200Y-64504200D01*
X158888800Y-64504200D01*
X158888800Y-66305800D01*
X158888800Y-66305800D01*
G37*
G36*
X155536362Y-64508545D02*
X155624588Y-64517234D01*
X155737789Y-64551573D01*
X155794390Y-64568743D01*
X155932980Y-64642822D01*
X155950879Y-64652389D01*
X155986609Y-64681712D01*
X156088044Y-64764956D01*
X156171288Y-64866391D01*
X156200611Y-64902121D01*
X156200612Y-64902123D01*
X156284257Y-65058610D01*
X156284257Y-65058611D01*
X156335766Y-65228412D01*
X156353158Y-65405000D01*
X156335766Y-65581588D01*
X156301427Y-65694789D01*
X156284257Y-65751390D01*
X156210178Y-65889980D01*
X156200611Y-65907879D01*
X156171288Y-65943609D01*
X156088044Y-66045044D01*
X155986609Y-66128288D01*
X155950879Y-66157611D01*
X155950877Y-66157612D01*
X155794390Y-66241257D01*
X155737789Y-66258427D01*
X155624588Y-66292766D01*
X155536362Y-66301455D01*
X155492250Y-66305800D01*
X155403750Y-66305800D01*
X155359638Y-66301455D01*
X155271412Y-66292766D01*
X155158211Y-66258427D01*
X155101610Y-66241257D01*
X154945123Y-66157612D01*
X154945121Y-66157611D01*
X154909391Y-66128288D01*
X154807956Y-66045044D01*
X154724712Y-65943609D01*
X154695389Y-65907879D01*
X154685822Y-65889980D01*
X154611743Y-65751390D01*
X154594573Y-65694789D01*
X154560234Y-65581588D01*
X154542842Y-65405000D01*
X154560234Y-65228412D01*
X154611743Y-65058611D01*
X154611743Y-65058610D01*
X154695388Y-64902123D01*
X154695389Y-64902121D01*
X154724712Y-64866391D01*
X154807956Y-64764956D01*
X154909391Y-64681712D01*
X154945121Y-64652389D01*
X154963020Y-64642822D01*
X155101610Y-64568743D01*
X155158211Y-64551573D01*
X155271412Y-64517234D01*
X155359638Y-64508545D01*
X155403750Y-64504200D01*
X155492250Y-64504200D01*
X155536362Y-64508545D01*
X155536362Y-64508545D01*
G37*
G36*
X168236362Y-64508545D02*
X168324588Y-64517234D01*
X168437789Y-64551573D01*
X168494390Y-64568743D01*
X168632980Y-64642822D01*
X168650879Y-64652389D01*
X168686609Y-64681712D01*
X168788044Y-64764956D01*
X168871288Y-64866391D01*
X168900611Y-64902121D01*
X168900612Y-64902123D01*
X168984257Y-65058610D01*
X168984257Y-65058611D01*
X169035766Y-65228412D01*
X169053158Y-65405000D01*
X169035766Y-65581588D01*
X169001427Y-65694789D01*
X168984257Y-65751390D01*
X168910178Y-65889980D01*
X168900611Y-65907879D01*
X168871288Y-65943609D01*
X168788044Y-66045044D01*
X168686609Y-66128288D01*
X168650879Y-66157611D01*
X168650877Y-66157612D01*
X168494390Y-66241257D01*
X168437789Y-66258427D01*
X168324588Y-66292766D01*
X168236362Y-66301455D01*
X168192250Y-66305800D01*
X168103750Y-66305800D01*
X168059638Y-66301455D01*
X167971412Y-66292766D01*
X167858211Y-66258427D01*
X167801610Y-66241257D01*
X167645123Y-66157612D01*
X167645121Y-66157611D01*
X167609391Y-66128288D01*
X167507956Y-66045044D01*
X167424712Y-65943609D01*
X167395389Y-65907879D01*
X167385822Y-65889980D01*
X167311743Y-65751390D01*
X167294573Y-65694789D01*
X167260234Y-65581588D01*
X167242842Y-65405000D01*
X167260234Y-65228412D01*
X167311743Y-65058611D01*
X167311743Y-65058610D01*
X167395388Y-64902123D01*
X167395389Y-64902121D01*
X167424712Y-64866391D01*
X167507956Y-64764956D01*
X167609391Y-64681712D01*
X167645121Y-64652389D01*
X167663020Y-64642822D01*
X167801610Y-64568743D01*
X167858211Y-64551573D01*
X167971412Y-64517234D01*
X168059638Y-64508545D01*
X168103750Y-64504200D01*
X168192250Y-64504200D01*
X168236362Y-64508545D01*
X168236362Y-64508545D01*
G37*
G36*
X170776362Y-64508545D02*
X170864588Y-64517234D01*
X170977789Y-64551573D01*
X171034390Y-64568743D01*
X171172980Y-64642822D01*
X171190879Y-64652389D01*
X171226609Y-64681712D01*
X171328044Y-64764956D01*
X171411288Y-64866391D01*
X171440611Y-64902121D01*
X171440612Y-64902123D01*
X171524257Y-65058610D01*
X171524257Y-65058611D01*
X171575766Y-65228412D01*
X171593158Y-65405000D01*
X171575766Y-65581588D01*
X171541427Y-65694789D01*
X171524257Y-65751390D01*
X171450178Y-65889980D01*
X171440611Y-65907879D01*
X171411288Y-65943609D01*
X171328044Y-66045044D01*
X171226609Y-66128288D01*
X171190879Y-66157611D01*
X171190877Y-66157612D01*
X171034390Y-66241257D01*
X170977789Y-66258427D01*
X170864588Y-66292766D01*
X170776362Y-66301455D01*
X170732250Y-66305800D01*
X170643750Y-66305800D01*
X170599638Y-66301455D01*
X170511412Y-66292766D01*
X170398211Y-66258427D01*
X170341610Y-66241257D01*
X170185123Y-66157612D01*
X170185121Y-66157611D01*
X170149391Y-66128288D01*
X170047956Y-66045044D01*
X169964712Y-65943609D01*
X169935389Y-65907879D01*
X169925822Y-65889980D01*
X169851743Y-65751390D01*
X169834573Y-65694789D01*
X169800234Y-65581588D01*
X169782842Y-65405000D01*
X169800234Y-65228412D01*
X169851743Y-65058611D01*
X169851743Y-65058610D01*
X169935388Y-64902123D01*
X169935389Y-64902121D01*
X169964712Y-64866391D01*
X170047956Y-64764956D01*
X170149391Y-64681712D01*
X170185121Y-64652389D01*
X170203020Y-64642822D01*
X170341610Y-64568743D01*
X170398211Y-64551573D01*
X170511412Y-64517234D01*
X170599638Y-64508545D01*
X170643750Y-64504200D01*
X170732250Y-64504200D01*
X170776362Y-64508545D01*
X170776362Y-64508545D01*
G37*
G36*
X152996362Y-61968545D02*
X153084588Y-61977234D01*
X153197789Y-62011573D01*
X153254390Y-62028743D01*
X153392980Y-62102822D01*
X153410879Y-62112389D01*
X153446609Y-62141712D01*
X153548044Y-62224956D01*
X153631288Y-62326391D01*
X153660611Y-62362121D01*
X153660612Y-62362123D01*
X153744257Y-62518610D01*
X153744257Y-62518611D01*
X153795766Y-62688412D01*
X153813158Y-62865000D01*
X153795766Y-63041588D01*
X153761427Y-63154789D01*
X153744257Y-63211390D01*
X153670178Y-63349980D01*
X153660611Y-63367879D01*
X153631288Y-63403609D01*
X153548044Y-63505044D01*
X153446609Y-63588288D01*
X153410879Y-63617611D01*
X153410877Y-63617612D01*
X153254390Y-63701257D01*
X153197789Y-63718427D01*
X153084588Y-63752766D01*
X152996362Y-63761455D01*
X152952250Y-63765800D01*
X152863750Y-63765800D01*
X152819638Y-63761455D01*
X152731412Y-63752766D01*
X152618211Y-63718427D01*
X152561610Y-63701257D01*
X152405123Y-63617612D01*
X152405121Y-63617611D01*
X152369391Y-63588288D01*
X152267956Y-63505044D01*
X152184712Y-63403609D01*
X152155389Y-63367879D01*
X152145822Y-63349980D01*
X152071743Y-63211390D01*
X152054573Y-63154789D01*
X152020234Y-63041588D01*
X152002842Y-62865000D01*
X152020234Y-62688412D01*
X152071743Y-62518611D01*
X152071743Y-62518610D01*
X152155388Y-62362123D01*
X152155389Y-62362121D01*
X152184712Y-62326391D01*
X152267956Y-62224956D01*
X152369391Y-62141712D01*
X152405121Y-62112389D01*
X152423020Y-62102822D01*
X152561610Y-62028743D01*
X152618211Y-62011573D01*
X152731412Y-61977234D01*
X152819638Y-61968545D01*
X152863750Y-61964200D01*
X152952250Y-61964200D01*
X152996362Y-61968545D01*
X152996362Y-61968545D01*
G37*
G36*
X155536362Y-61968545D02*
X155624588Y-61977234D01*
X155737789Y-62011573D01*
X155794390Y-62028743D01*
X155932980Y-62102822D01*
X155950879Y-62112389D01*
X155986609Y-62141712D01*
X156088044Y-62224956D01*
X156171288Y-62326391D01*
X156200611Y-62362121D01*
X156200612Y-62362123D01*
X156284257Y-62518610D01*
X156284257Y-62518611D01*
X156335766Y-62688412D01*
X156353158Y-62865000D01*
X156335766Y-63041588D01*
X156301427Y-63154789D01*
X156284257Y-63211390D01*
X156210178Y-63349980D01*
X156200611Y-63367879D01*
X156171288Y-63403609D01*
X156088044Y-63505044D01*
X155986609Y-63588288D01*
X155950879Y-63617611D01*
X155950877Y-63617612D01*
X155794390Y-63701257D01*
X155737789Y-63718427D01*
X155624588Y-63752766D01*
X155536362Y-63761455D01*
X155492250Y-63765800D01*
X155403750Y-63765800D01*
X155359638Y-63761455D01*
X155271412Y-63752766D01*
X155158211Y-63718427D01*
X155101610Y-63701257D01*
X154945123Y-63617612D01*
X154945121Y-63617611D01*
X154909391Y-63588288D01*
X154807956Y-63505044D01*
X154724712Y-63403609D01*
X154695389Y-63367879D01*
X154685822Y-63349980D01*
X154611743Y-63211390D01*
X154594573Y-63154789D01*
X154560234Y-63041588D01*
X154542842Y-62865000D01*
X154560234Y-62688412D01*
X154611743Y-62518611D01*
X154611743Y-62518610D01*
X154695388Y-62362123D01*
X154695389Y-62362121D01*
X154724712Y-62326391D01*
X154807956Y-62224956D01*
X154909391Y-62141712D01*
X154945121Y-62112389D01*
X154963020Y-62102822D01*
X155101610Y-62028743D01*
X155158211Y-62011573D01*
X155271412Y-61977234D01*
X155359638Y-61968545D01*
X155403750Y-61964200D01*
X155492250Y-61964200D01*
X155536362Y-61968545D01*
X155536362Y-61968545D01*
G37*
G36*
X158888800Y-63765800D02*
X157087200Y-63765800D01*
X157087200Y-61964200D01*
X158888800Y-61964200D01*
X158888800Y-63765800D01*
X158888800Y-63765800D01*
G37*
G36*
X141108800Y-63765800D02*
X139307200Y-63765800D01*
X139307200Y-61964200D01*
X141108800Y-61964200D01*
X141108800Y-63765800D01*
X141108800Y-63765800D01*
G37*
G36*
X165696362Y-61968545D02*
X165784588Y-61977234D01*
X165897789Y-62011573D01*
X165954390Y-62028743D01*
X166092980Y-62102822D01*
X166110879Y-62112389D01*
X166146609Y-62141712D01*
X166248044Y-62224956D01*
X166331288Y-62326391D01*
X166360611Y-62362121D01*
X166360612Y-62362123D01*
X166444257Y-62518610D01*
X166444257Y-62518611D01*
X166495766Y-62688412D01*
X166513158Y-62865000D01*
X166495766Y-63041588D01*
X166461427Y-63154789D01*
X166444257Y-63211390D01*
X166370178Y-63349980D01*
X166360611Y-63367879D01*
X166331288Y-63403609D01*
X166248044Y-63505044D01*
X166146609Y-63588288D01*
X166110879Y-63617611D01*
X166110877Y-63617612D01*
X165954390Y-63701257D01*
X165897789Y-63718427D01*
X165784588Y-63752766D01*
X165696362Y-63761455D01*
X165652250Y-63765800D01*
X165563750Y-63765800D01*
X165519638Y-63761455D01*
X165431412Y-63752766D01*
X165318211Y-63718427D01*
X165261610Y-63701257D01*
X165105123Y-63617612D01*
X165105121Y-63617611D01*
X165069391Y-63588288D01*
X164967956Y-63505044D01*
X164884712Y-63403609D01*
X164855389Y-63367879D01*
X164845822Y-63349980D01*
X164771743Y-63211390D01*
X164754573Y-63154789D01*
X164720234Y-63041588D01*
X164702842Y-62865000D01*
X164720234Y-62688412D01*
X164771743Y-62518611D01*
X164771743Y-62518610D01*
X164855388Y-62362123D01*
X164855389Y-62362121D01*
X164884712Y-62326391D01*
X164967956Y-62224956D01*
X165069391Y-62141712D01*
X165105121Y-62112389D01*
X165123020Y-62102822D01*
X165261610Y-62028743D01*
X165318211Y-62011573D01*
X165431412Y-61977234D01*
X165519638Y-61968545D01*
X165563750Y-61964200D01*
X165652250Y-61964200D01*
X165696362Y-61968545D01*
X165696362Y-61968545D01*
G37*
G36*
X137756362Y-61968545D02*
X137844588Y-61977234D01*
X137957789Y-62011573D01*
X138014390Y-62028743D01*
X138152980Y-62102822D01*
X138170879Y-62112389D01*
X138206609Y-62141712D01*
X138308044Y-62224956D01*
X138391288Y-62326391D01*
X138420611Y-62362121D01*
X138420612Y-62362123D01*
X138504257Y-62518610D01*
X138504257Y-62518611D01*
X138555766Y-62688412D01*
X138573158Y-62865000D01*
X138555766Y-63041588D01*
X138521427Y-63154789D01*
X138504257Y-63211390D01*
X138430178Y-63349980D01*
X138420611Y-63367879D01*
X138391288Y-63403609D01*
X138308044Y-63505044D01*
X138206609Y-63588288D01*
X138170879Y-63617611D01*
X138170877Y-63617612D01*
X138014390Y-63701257D01*
X137957789Y-63718427D01*
X137844588Y-63752766D01*
X137756362Y-63761455D01*
X137712250Y-63765800D01*
X137623750Y-63765800D01*
X137579638Y-63761455D01*
X137491412Y-63752766D01*
X137378211Y-63718427D01*
X137321610Y-63701257D01*
X137165123Y-63617612D01*
X137165121Y-63617611D01*
X137129391Y-63588288D01*
X137027956Y-63505044D01*
X136944712Y-63403609D01*
X136915389Y-63367879D01*
X136905822Y-63349980D01*
X136831743Y-63211390D01*
X136814573Y-63154789D01*
X136780234Y-63041588D01*
X136762842Y-62865000D01*
X136780234Y-62688412D01*
X136831743Y-62518611D01*
X136831743Y-62518610D01*
X136915388Y-62362123D01*
X136915389Y-62362121D01*
X136944712Y-62326391D01*
X137027956Y-62224956D01*
X137129391Y-62141712D01*
X137165121Y-62112389D01*
X137183020Y-62102822D01*
X137321610Y-62028743D01*
X137378211Y-62011573D01*
X137491412Y-61977234D01*
X137579638Y-61968545D01*
X137623750Y-61964200D01*
X137712250Y-61964200D01*
X137756362Y-61968545D01*
X137756362Y-61968545D01*
G37*
G36*
X168236362Y-61968545D02*
X168324588Y-61977234D01*
X168437789Y-62011573D01*
X168494390Y-62028743D01*
X168632980Y-62102822D01*
X168650879Y-62112389D01*
X168686609Y-62141712D01*
X168788044Y-62224956D01*
X168871288Y-62326391D01*
X168900611Y-62362121D01*
X168900612Y-62362123D01*
X168984257Y-62518610D01*
X168984257Y-62518611D01*
X169035766Y-62688412D01*
X169053158Y-62865000D01*
X169035766Y-63041588D01*
X169001427Y-63154789D01*
X168984257Y-63211390D01*
X168910178Y-63349980D01*
X168900611Y-63367879D01*
X168871288Y-63403609D01*
X168788044Y-63505044D01*
X168686609Y-63588288D01*
X168650879Y-63617611D01*
X168650877Y-63617612D01*
X168494390Y-63701257D01*
X168437789Y-63718427D01*
X168324588Y-63752766D01*
X168236362Y-63761455D01*
X168192250Y-63765800D01*
X168103750Y-63765800D01*
X168059638Y-63761455D01*
X167971412Y-63752766D01*
X167858211Y-63718427D01*
X167801610Y-63701257D01*
X167645123Y-63617612D01*
X167645121Y-63617611D01*
X167609391Y-63588288D01*
X167507956Y-63505044D01*
X167424712Y-63403609D01*
X167395389Y-63367879D01*
X167385822Y-63349980D01*
X167311743Y-63211390D01*
X167294573Y-63154789D01*
X167260234Y-63041588D01*
X167242842Y-62865000D01*
X167260234Y-62688412D01*
X167311743Y-62518611D01*
X167311743Y-62518610D01*
X167395388Y-62362123D01*
X167395389Y-62362121D01*
X167424712Y-62326391D01*
X167507956Y-62224956D01*
X167609391Y-62141712D01*
X167645121Y-62112389D01*
X167663020Y-62102822D01*
X167801610Y-62028743D01*
X167858211Y-62011573D01*
X167971412Y-61977234D01*
X168059638Y-61968545D01*
X168103750Y-61964200D01*
X168192250Y-61964200D01*
X168236362Y-61968545D01*
X168236362Y-61968545D01*
G37*
G36*
X170776362Y-61968545D02*
X170864588Y-61977234D01*
X170977789Y-62011573D01*
X171034390Y-62028743D01*
X171172980Y-62102822D01*
X171190879Y-62112389D01*
X171226609Y-62141712D01*
X171328044Y-62224956D01*
X171411288Y-62326391D01*
X171440611Y-62362121D01*
X171440612Y-62362123D01*
X171524257Y-62518610D01*
X171524257Y-62518611D01*
X171575766Y-62688412D01*
X171593158Y-62865000D01*
X171575766Y-63041588D01*
X171541427Y-63154789D01*
X171524257Y-63211390D01*
X171450178Y-63349980D01*
X171440611Y-63367879D01*
X171411288Y-63403609D01*
X171328044Y-63505044D01*
X171226609Y-63588288D01*
X171190879Y-63617611D01*
X171190877Y-63617612D01*
X171034390Y-63701257D01*
X170977789Y-63718427D01*
X170864588Y-63752766D01*
X170776362Y-63761455D01*
X170732250Y-63765800D01*
X170643750Y-63765800D01*
X170599638Y-63761455D01*
X170511412Y-63752766D01*
X170398211Y-63718427D01*
X170341610Y-63701257D01*
X170185123Y-63617612D01*
X170185121Y-63617611D01*
X170149391Y-63588288D01*
X170047956Y-63505044D01*
X169964712Y-63403609D01*
X169935389Y-63367879D01*
X169925822Y-63349980D01*
X169851743Y-63211390D01*
X169834573Y-63154789D01*
X169800234Y-63041588D01*
X169782842Y-62865000D01*
X169800234Y-62688412D01*
X169851743Y-62518611D01*
X169851743Y-62518610D01*
X169935388Y-62362123D01*
X169935389Y-62362121D01*
X169964712Y-62326391D01*
X170047956Y-62224956D01*
X170149391Y-62141712D01*
X170185121Y-62112389D01*
X170203020Y-62102822D01*
X170341610Y-62028743D01*
X170398211Y-62011573D01*
X170511412Y-61977234D01*
X170599638Y-61968545D01*
X170643750Y-61964200D01*
X170732250Y-61964200D01*
X170776362Y-61968545D01*
X170776362Y-61968545D01*
G37*
G36*
X174128800Y-63765800D02*
X172327200Y-63765800D01*
X172327200Y-61964200D01*
X174128800Y-61964200D01*
X174128800Y-63765800D01*
X174128800Y-63765800D01*
G37*
G36*
X135216362Y-61968545D02*
X135304588Y-61977234D01*
X135417789Y-62011573D01*
X135474390Y-62028743D01*
X135612980Y-62102822D01*
X135630879Y-62112389D01*
X135666609Y-62141712D01*
X135768044Y-62224956D01*
X135851288Y-62326391D01*
X135880611Y-62362121D01*
X135880612Y-62362123D01*
X135964257Y-62518610D01*
X135964257Y-62518611D01*
X136015766Y-62688412D01*
X136033158Y-62865000D01*
X136015766Y-63041588D01*
X135981427Y-63154789D01*
X135964257Y-63211390D01*
X135890178Y-63349980D01*
X135880611Y-63367879D01*
X135851288Y-63403609D01*
X135768044Y-63505044D01*
X135666609Y-63588288D01*
X135630879Y-63617611D01*
X135630877Y-63617612D01*
X135474390Y-63701257D01*
X135417789Y-63718427D01*
X135304588Y-63752766D01*
X135216362Y-63761455D01*
X135172250Y-63765800D01*
X135083750Y-63765800D01*
X135039638Y-63761455D01*
X134951412Y-63752766D01*
X134838211Y-63718427D01*
X134781610Y-63701257D01*
X134625123Y-63617612D01*
X134625121Y-63617611D01*
X134589391Y-63588288D01*
X134487956Y-63505044D01*
X134404712Y-63403609D01*
X134375389Y-63367879D01*
X134365822Y-63349980D01*
X134291743Y-63211390D01*
X134274573Y-63154789D01*
X134240234Y-63041588D01*
X134222842Y-62865000D01*
X134240234Y-62688412D01*
X134291743Y-62518611D01*
X134291743Y-62518610D01*
X134375388Y-62362123D01*
X134375389Y-62362121D01*
X134404712Y-62326391D01*
X134487956Y-62224956D01*
X134589391Y-62141712D01*
X134625121Y-62112389D01*
X134643020Y-62102822D01*
X134781610Y-62028743D01*
X134838211Y-62011573D01*
X134951412Y-61977234D01*
X135039638Y-61968545D01*
X135083750Y-61964200D01*
X135172250Y-61964200D01*
X135216362Y-61968545D01*
X135216362Y-61968545D01*
G37*
G36*
X150456362Y-61968545D02*
X150544588Y-61977234D01*
X150657789Y-62011573D01*
X150714390Y-62028743D01*
X150852980Y-62102822D01*
X150870879Y-62112389D01*
X150906609Y-62141712D01*
X151008044Y-62224956D01*
X151091288Y-62326391D01*
X151120611Y-62362121D01*
X151120612Y-62362123D01*
X151204257Y-62518610D01*
X151204257Y-62518611D01*
X151255766Y-62688412D01*
X151273158Y-62865000D01*
X151255766Y-63041588D01*
X151221427Y-63154789D01*
X151204257Y-63211390D01*
X151130178Y-63349980D01*
X151120611Y-63367879D01*
X151091288Y-63403609D01*
X151008044Y-63505044D01*
X150906609Y-63588288D01*
X150870879Y-63617611D01*
X150870877Y-63617612D01*
X150714390Y-63701257D01*
X150657789Y-63718427D01*
X150544588Y-63752766D01*
X150456362Y-63761455D01*
X150412250Y-63765800D01*
X150323750Y-63765800D01*
X150279638Y-63761455D01*
X150191412Y-63752766D01*
X150078211Y-63718427D01*
X150021610Y-63701257D01*
X149865123Y-63617612D01*
X149865121Y-63617611D01*
X149829391Y-63588288D01*
X149727956Y-63505044D01*
X149644712Y-63403609D01*
X149615389Y-63367879D01*
X149605822Y-63349980D01*
X149531743Y-63211390D01*
X149514573Y-63154789D01*
X149480234Y-63041588D01*
X149462842Y-62865000D01*
X149480234Y-62688412D01*
X149531743Y-62518611D01*
X149531743Y-62518610D01*
X149615388Y-62362123D01*
X149615389Y-62362121D01*
X149644712Y-62326391D01*
X149727956Y-62224956D01*
X149829391Y-62141712D01*
X149865121Y-62112389D01*
X149883020Y-62102822D01*
X150021610Y-62028743D01*
X150078211Y-62011573D01*
X150191412Y-61977234D01*
X150279638Y-61968545D01*
X150323750Y-61964200D01*
X150412250Y-61964200D01*
X150456362Y-61968545D01*
X150456362Y-61968545D01*
G37*
G36*
X132676362Y-61968545D02*
X132764588Y-61977234D01*
X132877789Y-62011573D01*
X132934390Y-62028743D01*
X133072980Y-62102822D01*
X133090879Y-62112389D01*
X133126609Y-62141712D01*
X133228044Y-62224956D01*
X133311288Y-62326391D01*
X133340611Y-62362121D01*
X133340612Y-62362123D01*
X133424257Y-62518610D01*
X133424257Y-62518611D01*
X133475766Y-62688412D01*
X133493158Y-62865000D01*
X133475766Y-63041588D01*
X133441427Y-63154789D01*
X133424257Y-63211390D01*
X133350178Y-63349980D01*
X133340611Y-63367879D01*
X133311288Y-63403609D01*
X133228044Y-63505044D01*
X133126609Y-63588288D01*
X133090879Y-63617611D01*
X133090877Y-63617612D01*
X132934390Y-63701257D01*
X132877789Y-63718427D01*
X132764588Y-63752766D01*
X132676362Y-63761455D01*
X132632250Y-63765800D01*
X132543750Y-63765800D01*
X132499638Y-63761455D01*
X132411412Y-63752766D01*
X132298211Y-63718427D01*
X132241610Y-63701257D01*
X132085123Y-63617612D01*
X132085121Y-63617611D01*
X132049391Y-63588288D01*
X131947956Y-63505044D01*
X131864712Y-63403609D01*
X131835389Y-63367879D01*
X131825822Y-63349980D01*
X131751743Y-63211390D01*
X131734573Y-63154789D01*
X131700234Y-63041588D01*
X131682842Y-62865000D01*
X131700234Y-62688412D01*
X131751743Y-62518611D01*
X131751743Y-62518610D01*
X131835388Y-62362123D01*
X131835389Y-62362121D01*
X131864712Y-62326391D01*
X131947956Y-62224956D01*
X132049391Y-62141712D01*
X132085121Y-62112389D01*
X132103020Y-62102822D01*
X132241610Y-62028743D01*
X132298211Y-62011573D01*
X132411412Y-61977234D01*
X132499638Y-61968545D01*
X132543750Y-61964200D01*
X132632250Y-61964200D01*
X132676362Y-61968545D01*
X132676362Y-61968545D01*
G37*
M02*
