G04 #@! TF.GenerationSoftware,KiCad,Pcbnew,5.0.2+dfsg1-1*
G04 #@! TF.CreationDate,2019-07-14T00:59:29-07:00*
G04 #@! TF.ProjectId,WeightAndMotionSensorShield,57656967-6874-4416-9e64-4d6f74696f6e,v01*
G04 #@! TF.SameCoordinates,Original*
G04 #@! TF.FileFunction,Legend,Top*
G04 #@! TF.FilePolarity,Positive*
%FSLAX46Y46*%
G04 Gerber Fmt 4.6, Leading zero omitted, Abs format (unit mm)*
G04 Created by KiCad (PCBNEW 5.0.2+dfsg1-1) date Sun 14 Jul 2019 12:59:29 AM PDT*
%MOMM*%
%LPD*%
G01*
G04 APERTURE LIST*
%ADD10C,0.300000*%
%ADD11C,0.150000*%
%ADD12C,0.120000*%
%ADD13C,0.010000*%
G04 APERTURE END LIST*
D10*
X133030857Y-84898571D02*
X133387999Y-86398571D01*
X133673714Y-85327142D01*
X133959428Y-86398571D01*
X134316571Y-84898571D01*
X135459428Y-86327142D02*
X135316571Y-86398571D01*
X135030857Y-86398571D01*
X134888000Y-86327142D01*
X134816571Y-86184285D01*
X134816571Y-85612857D01*
X134888000Y-85470000D01*
X135030857Y-85398571D01*
X135316571Y-85398571D01*
X135459428Y-85470000D01*
X135530857Y-85612857D01*
X135530857Y-85755714D01*
X134816571Y-85898571D01*
X136173714Y-86398571D02*
X136173714Y-85398571D01*
X136173714Y-84898571D02*
X136102285Y-84970000D01*
X136173714Y-85041428D01*
X136245142Y-84970000D01*
X136173714Y-84898571D01*
X136173714Y-85041428D01*
X137530857Y-85398571D02*
X137530857Y-86612857D01*
X137459428Y-86755714D01*
X137388000Y-86827142D01*
X137245142Y-86898571D01*
X137030857Y-86898571D01*
X136888000Y-86827142D01*
X137530857Y-86327142D02*
X137388000Y-86398571D01*
X137102285Y-86398571D01*
X136959428Y-86327142D01*
X136888000Y-86255714D01*
X136816571Y-86112857D01*
X136816571Y-85684285D01*
X136888000Y-85541428D01*
X136959428Y-85470000D01*
X137102285Y-85398571D01*
X137388000Y-85398571D01*
X137530857Y-85470000D01*
X138245142Y-86398571D02*
X138245142Y-84898571D01*
X138888000Y-86398571D02*
X138888000Y-85612857D01*
X138816571Y-85470000D01*
X138673714Y-85398571D01*
X138459428Y-85398571D01*
X138316571Y-85470000D01*
X138245142Y-85541428D01*
X139388000Y-85398571D02*
X139959428Y-85398571D01*
X139602285Y-84898571D02*
X139602285Y-86184285D01*
X139673714Y-86327142D01*
X139816571Y-86398571D01*
X139959428Y-86398571D01*
X142245142Y-86398571D02*
X142245142Y-85612857D01*
X142173714Y-85470000D01*
X142030857Y-85398571D01*
X141745142Y-85398571D01*
X141602285Y-85470000D01*
X142245142Y-86327142D02*
X142102285Y-86398571D01*
X141745142Y-86398571D01*
X141602285Y-86327142D01*
X141530857Y-86184285D01*
X141530857Y-86041428D01*
X141602285Y-85898571D01*
X141745142Y-85827142D01*
X142102285Y-85827142D01*
X142245142Y-85755714D01*
X142959428Y-85398571D02*
X142959428Y-86398571D01*
X142959428Y-85541428D02*
X143030857Y-85470000D01*
X143173714Y-85398571D01*
X143388000Y-85398571D01*
X143530857Y-85470000D01*
X143602285Y-85612857D01*
X143602285Y-86398571D01*
X144959428Y-86398571D02*
X144959428Y-84898571D01*
X144959428Y-86327142D02*
X144816571Y-86398571D01*
X144530857Y-86398571D01*
X144388000Y-86327142D01*
X144316571Y-86255714D01*
X144245142Y-86112857D01*
X144245142Y-85684285D01*
X144316571Y-85541428D01*
X144388000Y-85470000D01*
X144530857Y-85398571D01*
X144816571Y-85398571D01*
X144959428Y-85470000D01*
X146816571Y-86398571D02*
X146816571Y-85398571D01*
X146816571Y-85541428D02*
X146888000Y-85470000D01*
X147030857Y-85398571D01*
X147245142Y-85398571D01*
X147388000Y-85470000D01*
X147459428Y-85612857D01*
X147459428Y-86398571D01*
X147459428Y-85612857D02*
X147530857Y-85470000D01*
X147673714Y-85398571D01*
X147888000Y-85398571D01*
X148030857Y-85470000D01*
X148102285Y-85612857D01*
X148102285Y-86398571D01*
X149030857Y-86398571D02*
X148888000Y-86327142D01*
X148816571Y-86255714D01*
X148745142Y-86112857D01*
X148745142Y-85684285D01*
X148816571Y-85541428D01*
X148888000Y-85470000D01*
X149030857Y-85398571D01*
X149245142Y-85398571D01*
X149388000Y-85470000D01*
X149459428Y-85541428D01*
X149530857Y-85684285D01*
X149530857Y-86112857D01*
X149459428Y-86255714D01*
X149388000Y-86327142D01*
X149245142Y-86398571D01*
X149030857Y-86398571D01*
X149959428Y-85398571D02*
X150530857Y-85398571D01*
X150173714Y-84898571D02*
X150173714Y-86184285D01*
X150245142Y-86327142D01*
X150388000Y-86398571D01*
X150530857Y-86398571D01*
X151030857Y-86398571D02*
X151030857Y-85398571D01*
X151030857Y-84898571D02*
X150959428Y-84970000D01*
X151030857Y-85041428D01*
X151102285Y-84970000D01*
X151030857Y-84898571D01*
X151030857Y-85041428D01*
X151959428Y-86398571D02*
X151816571Y-86327142D01*
X151745142Y-86255714D01*
X151673714Y-86112857D01*
X151673714Y-85684285D01*
X151745142Y-85541428D01*
X151816571Y-85470000D01*
X151959428Y-85398571D01*
X152173714Y-85398571D01*
X152316571Y-85470000D01*
X152388000Y-85541428D01*
X152459428Y-85684285D01*
X152459428Y-86112857D01*
X152388000Y-86255714D01*
X152316571Y-86327142D01*
X152173714Y-86398571D01*
X151959428Y-86398571D01*
X153102285Y-85398571D02*
X153102285Y-86398571D01*
X153102285Y-85541428D02*
X153173714Y-85470000D01*
X153316571Y-85398571D01*
X153530857Y-85398571D01*
X153673714Y-85470000D01*
X153745142Y-85612857D01*
X153745142Y-86398571D01*
X155530857Y-86327142D02*
X155673714Y-86398571D01*
X155959428Y-86398571D01*
X156102285Y-86327142D01*
X156173714Y-86184285D01*
X156173714Y-86112857D01*
X156102285Y-85970000D01*
X155959428Y-85898571D01*
X155745142Y-85898571D01*
X155602285Y-85827142D01*
X155530857Y-85684285D01*
X155530857Y-85612857D01*
X155602285Y-85470000D01*
X155745142Y-85398571D01*
X155959428Y-85398571D01*
X156102285Y-85470000D01*
X157388000Y-86327142D02*
X157245142Y-86398571D01*
X156959428Y-86398571D01*
X156816571Y-86327142D01*
X156745142Y-86184285D01*
X156745142Y-85612857D01*
X156816571Y-85470000D01*
X156959428Y-85398571D01*
X157245142Y-85398571D01*
X157388000Y-85470000D01*
X157459428Y-85612857D01*
X157459428Y-85755714D01*
X156745142Y-85898571D01*
X158102285Y-85398571D02*
X158102285Y-86398571D01*
X158102285Y-85541428D02*
X158173714Y-85470000D01*
X158316571Y-85398571D01*
X158530857Y-85398571D01*
X158673714Y-85470000D01*
X158745142Y-85612857D01*
X158745142Y-86398571D01*
X159388000Y-86327142D02*
X159530857Y-86398571D01*
X159816571Y-86398571D01*
X159959428Y-86327142D01*
X160030857Y-86184285D01*
X160030857Y-86112857D01*
X159959428Y-85970000D01*
X159816571Y-85898571D01*
X159602285Y-85898571D01*
X159459428Y-85827142D01*
X159388000Y-85684285D01*
X159388000Y-85612857D01*
X159459428Y-85470000D01*
X159602285Y-85398571D01*
X159816571Y-85398571D01*
X159959428Y-85470000D01*
X160888000Y-86398571D02*
X160745142Y-86327142D01*
X160673714Y-86255714D01*
X160602285Y-86112857D01*
X160602285Y-85684285D01*
X160673714Y-85541428D01*
X160745142Y-85470000D01*
X160888000Y-85398571D01*
X161102285Y-85398571D01*
X161245142Y-85470000D01*
X161316571Y-85541428D01*
X161388000Y-85684285D01*
X161388000Y-86112857D01*
X161316571Y-86255714D01*
X161245142Y-86327142D01*
X161102285Y-86398571D01*
X160888000Y-86398571D01*
X162030857Y-86398571D02*
X162030857Y-85398571D01*
X162030857Y-85684285D02*
X162102285Y-85541428D01*
X162173714Y-85470000D01*
X162316571Y-85398571D01*
X162459428Y-85398571D01*
X164030857Y-86327142D02*
X164173714Y-86398571D01*
X164459428Y-86398571D01*
X164602285Y-86327142D01*
X164673714Y-86184285D01*
X164673714Y-86112857D01*
X164602285Y-85970000D01*
X164459428Y-85898571D01*
X164245142Y-85898571D01*
X164102285Y-85827142D01*
X164030857Y-85684285D01*
X164030857Y-85612857D01*
X164102285Y-85470000D01*
X164245142Y-85398571D01*
X164459428Y-85398571D01*
X164602285Y-85470000D01*
X165316571Y-86398571D02*
X165316571Y-84898571D01*
X165959428Y-86398571D02*
X165959428Y-85612857D01*
X165888000Y-85470000D01*
X165745142Y-85398571D01*
X165530857Y-85398571D01*
X165388000Y-85470000D01*
X165316571Y-85541428D01*
X166673714Y-86398571D02*
X166673714Y-85398571D01*
X166673714Y-84898571D02*
X166602285Y-84970000D01*
X166673714Y-85041428D01*
X166745142Y-84970000D01*
X166673714Y-84898571D01*
X166673714Y-85041428D01*
X167959428Y-86327142D02*
X167816571Y-86398571D01*
X167530857Y-86398571D01*
X167388000Y-86327142D01*
X167316571Y-86184285D01*
X167316571Y-85612857D01*
X167388000Y-85470000D01*
X167530857Y-85398571D01*
X167816571Y-85398571D01*
X167959428Y-85470000D01*
X168030857Y-85612857D01*
X168030857Y-85755714D01*
X167316571Y-85898571D01*
X168888000Y-86398571D02*
X168745142Y-86327142D01*
X168673714Y-86184285D01*
X168673714Y-84898571D01*
X170102285Y-86398571D02*
X170102285Y-84898571D01*
X170102285Y-86327142D02*
X169959428Y-86398571D01*
X169673714Y-86398571D01*
X169530857Y-86327142D01*
X169459428Y-86255714D01*
X169388000Y-86112857D01*
X169388000Y-85684285D01*
X169459428Y-85541428D01*
X169530857Y-85470000D01*
X169673714Y-85398571D01*
X169959428Y-85398571D01*
X170102285Y-85470000D01*
X150566571Y-87948571D02*
X150923714Y-88948571D01*
X151280857Y-87948571D01*
X152638000Y-88948571D02*
X151780857Y-88948571D01*
X152209428Y-88948571D02*
X152209428Y-87448571D01*
X152066571Y-87662857D01*
X151923714Y-87805714D01*
X151780857Y-87877142D01*
D11*
X139390380Y-120999285D02*
X139390380Y-121570714D01*
X139390380Y-121285000D02*
X138390380Y-121285000D01*
X138533238Y-121380238D01*
X138628476Y-121475476D01*
X138676095Y-121570714D01*
G04 #@! TO.C,P1*
X140208000Y-125095000D02*
X157988000Y-125095000D01*
X157988000Y-125095000D02*
X157988000Y-122555000D01*
X157988000Y-122555000D02*
X140208000Y-122555000D01*
X137388000Y-125375000D02*
X138938000Y-125375000D01*
X140208000Y-125095000D02*
X140208000Y-122555000D01*
X138938000Y-122275000D02*
X137388000Y-122275000D01*
X137388000Y-122275000D02*
X137388000Y-125375000D01*
G04 #@! TO.C,P2*
X163068000Y-125095000D02*
X175768000Y-125095000D01*
X175768000Y-125095000D02*
X175768000Y-122555000D01*
X175768000Y-122555000D02*
X163068000Y-122555000D01*
X160248000Y-125375000D02*
X161798000Y-125375000D01*
X163068000Y-125095000D02*
X163068000Y-122555000D01*
X161798000Y-122275000D02*
X160248000Y-122275000D01*
X160248000Y-122275000D02*
X160248000Y-125375000D01*
G04 #@! TO.C,P3*
X131064000Y-76835000D02*
X153924000Y-76835000D01*
X153924000Y-76835000D02*
X153924000Y-74295000D01*
X153924000Y-74295000D02*
X131064000Y-74295000D01*
X128244000Y-77115000D02*
X129794000Y-77115000D01*
X131064000Y-76835000D02*
X131064000Y-74295000D01*
X129794000Y-74015000D02*
X128244000Y-74015000D01*
X128244000Y-74015000D02*
X128244000Y-77115000D01*
G04 #@! TO.C,P4*
X157988000Y-76835000D02*
X175768000Y-76835000D01*
X175768000Y-76835000D02*
X175768000Y-74295000D01*
X175768000Y-74295000D02*
X157988000Y-74295000D01*
X155168000Y-77115000D02*
X156718000Y-77115000D01*
X157988000Y-76835000D02*
X157988000Y-74295000D01*
X156718000Y-74015000D02*
X155168000Y-74015000D01*
X155168000Y-74015000D02*
X155168000Y-77115000D01*
G04 #@! TO.C,P5*
X127254000Y-123825000D02*
G75*
G03X127254000Y-123825000I-2286000J0D01*
G01*
G04 #@! TO.C,P6*
X179324000Y-118745000D02*
G75*
G03X179324000Y-118745000I-2286000J0D01*
G01*
G04 #@! TO.C,P7*
X128524000Y-75565000D02*
G75*
G03X128524000Y-75565000I-2286000J0D01*
G01*
G04 #@! TO.C,P8*
X179324000Y-90805000D02*
G75*
G03X179324000Y-90805000I-2286000J0D01*
G01*
D12*
G04 #@! TO.C,J1*
X112208000Y-81975000D02*
X114868000Y-81975000D01*
X112208000Y-76835000D02*
X112208000Y-81975000D01*
X114868000Y-76835000D02*
X114868000Y-81975000D01*
X112208000Y-76835000D02*
X114868000Y-76835000D01*
X112208000Y-75565000D02*
X112208000Y-74235000D01*
X112208000Y-74235000D02*
X113538000Y-74235000D01*
G04 #@! TO.C,J2*
X114868000Y-98365000D02*
X112208000Y-98365000D01*
X114868000Y-106045000D02*
X114868000Y-98365000D01*
X112208000Y-106045000D02*
X112208000Y-98365000D01*
X114868000Y-106045000D02*
X112208000Y-106045000D01*
X114868000Y-107315000D02*
X114868000Y-108645000D01*
X114868000Y-108645000D02*
X113538000Y-108645000D01*
D10*
G04 #@! TO.C,U1*
X166878000Y-95885000D02*
X166878000Y-116205000D01*
X133858000Y-95885000D02*
X133858000Y-116205000D01*
X133858000Y-95885000D02*
X166878000Y-95885000D01*
X133858000Y-116205000D02*
X166878000Y-116205000D01*
X161798000Y-100965000D02*
X161798000Y-111125000D01*
X164338000Y-100965000D02*
X164338000Y-111125000D01*
X136398000Y-98425000D02*
X136398000Y-113665000D01*
X138938000Y-98425000D02*
X138938000Y-113665000D01*
X161798000Y-100965000D02*
X164338000Y-100965000D01*
X161798000Y-111125000D02*
X164338000Y-111125000D01*
X136398000Y-98425000D02*
X138938000Y-98425000D01*
X136398000Y-113665000D02*
X138938000Y-113665000D01*
D13*
G04 #@! TO.C,G\002A\002A\002A*
G36*
X128965294Y-81918293D02*
X129064149Y-81930198D01*
X129109094Y-81953754D01*
X129116666Y-81978500D01*
X129098898Y-82013413D01*
X129035152Y-82033183D01*
X128909764Y-82041260D01*
X128828424Y-82042000D01*
X128618117Y-82053092D01*
X128482796Y-82088951D01*
X128415396Y-82153449D01*
X128408855Y-82250461D01*
X128413106Y-82269743D01*
X128467318Y-82368285D01*
X128577207Y-82430681D01*
X128752464Y-82460935D01*
X128886589Y-82465333D01*
X129026064Y-82471159D01*
X129097430Y-82491570D01*
X129116666Y-82528833D01*
X129099732Y-82562718D01*
X129038649Y-82582416D01*
X128918000Y-82591095D01*
X128807633Y-82592333D01*
X128610200Y-82600588D01*
X128484023Y-82628789D01*
X128416994Y-82682090D01*
X128397003Y-82765644D01*
X128397000Y-82767109D01*
X128423818Y-82867513D01*
X128509630Y-82932625D01*
X128662467Y-82966328D01*
X128823357Y-82973333D01*
X128983420Y-82977133D01*
X129074672Y-82990785D01*
X129112718Y-83017668D01*
X129116666Y-83036833D01*
X129102273Y-83067103D01*
X129049631Y-83086259D01*
X128944547Y-83096542D01*
X128772828Y-83100193D01*
X128714500Y-83100333D01*
X128522790Y-83098060D01*
X128401469Y-83089748D01*
X128336343Y-83073156D01*
X128313217Y-83046043D01*
X128312333Y-83036833D01*
X128336461Y-82980517D01*
X128357067Y-82973333D01*
X128369443Y-82944808D01*
X128335900Y-82879247D01*
X128275934Y-82745664D01*
X128297938Y-82624963D01*
X128359663Y-82545003D01*
X128411690Y-82473568D01*
X128408481Y-82428683D01*
X128408334Y-82428586D01*
X128351211Y-82362928D01*
X128296772Y-82262686D01*
X128270172Y-82174907D01*
X128270000Y-82169858D01*
X128297610Y-82110398D01*
X128364978Y-82028013D01*
X128373909Y-82018909D01*
X128437888Y-81964657D01*
X128510814Y-81933280D01*
X128617276Y-81918744D01*
X128781862Y-81915012D01*
X128797242Y-81915000D01*
X128965294Y-81918293D01*
X128965294Y-81918293D01*
G37*
X128965294Y-81918293D02*
X129064149Y-81930198D01*
X129109094Y-81953754D01*
X129116666Y-81978500D01*
X129098898Y-82013413D01*
X129035152Y-82033183D01*
X128909764Y-82041260D01*
X128828424Y-82042000D01*
X128618117Y-82053092D01*
X128482796Y-82088951D01*
X128415396Y-82153449D01*
X128408855Y-82250461D01*
X128413106Y-82269743D01*
X128467318Y-82368285D01*
X128577207Y-82430681D01*
X128752464Y-82460935D01*
X128886589Y-82465333D01*
X129026064Y-82471159D01*
X129097430Y-82491570D01*
X129116666Y-82528833D01*
X129099732Y-82562718D01*
X129038649Y-82582416D01*
X128918000Y-82591095D01*
X128807633Y-82592333D01*
X128610200Y-82600588D01*
X128484023Y-82628789D01*
X128416994Y-82682090D01*
X128397003Y-82765644D01*
X128397000Y-82767109D01*
X128423818Y-82867513D01*
X128509630Y-82932625D01*
X128662467Y-82966328D01*
X128823357Y-82973333D01*
X128983420Y-82977133D01*
X129074672Y-82990785D01*
X129112718Y-83017668D01*
X129116666Y-83036833D01*
X129102273Y-83067103D01*
X129049631Y-83086259D01*
X128944547Y-83096542D01*
X128772828Y-83100193D01*
X128714500Y-83100333D01*
X128522790Y-83098060D01*
X128401469Y-83089748D01*
X128336343Y-83073156D01*
X128313217Y-83046043D01*
X128312333Y-83036833D01*
X128336461Y-82980517D01*
X128357067Y-82973333D01*
X128369443Y-82944808D01*
X128335900Y-82879247D01*
X128275934Y-82745664D01*
X128297938Y-82624963D01*
X128359663Y-82545003D01*
X128411690Y-82473568D01*
X128408481Y-82428683D01*
X128408334Y-82428586D01*
X128351211Y-82362928D01*
X128296772Y-82262686D01*
X128270172Y-82174907D01*
X128270000Y-82169858D01*
X128297610Y-82110398D01*
X128364978Y-82028013D01*
X128373909Y-82018909D01*
X128437888Y-81964657D01*
X128510814Y-81933280D01*
X128617276Y-81918744D01*
X128781862Y-81915012D01*
X128797242Y-81915000D01*
X128965294Y-81918293D01*
G36*
X128865727Y-83361776D02*
X128955105Y-83393954D01*
X129033155Y-83465637D01*
X129049403Y-83484581D01*
X129138960Y-83627418D01*
X129151583Y-83762478D01*
X129109751Y-83875699D01*
X129026304Y-83989010D01*
X128912938Y-84050254D01*
X128746314Y-84070979D01*
X128714500Y-84071307D01*
X128577055Y-84061375D01*
X128468128Y-84036161D01*
X128435664Y-84019736D01*
X128317400Y-83885580D01*
X128280215Y-83744847D01*
X128402331Y-83744847D01*
X128453815Y-83842033D01*
X128556333Y-83915100D01*
X128700227Y-83946770D01*
X128714500Y-83947000D01*
X128842030Y-83925039D01*
X128937913Y-83881099D01*
X129010463Y-83794081D01*
X129032000Y-83714166D01*
X128995122Y-83605735D01*
X128899770Y-83527681D01*
X128768866Y-83487081D01*
X128625332Y-83491006D01*
X128492091Y-83546532D01*
X128491086Y-83547233D01*
X128411536Y-83640821D01*
X128402331Y-83744847D01*
X128280215Y-83744847D01*
X128277396Y-83734179D01*
X128316811Y-83580488D01*
X128393743Y-83478076D01*
X128488305Y-83399318D01*
X128588699Y-83362937D01*
X128728647Y-83354333D01*
X128865727Y-83361776D01*
X128865727Y-83361776D01*
G37*
X128865727Y-83361776D02*
X128955105Y-83393954D01*
X129033155Y-83465637D01*
X129049403Y-83484581D01*
X129138960Y-83627418D01*
X129151583Y-83762478D01*
X129109751Y-83875699D01*
X129026304Y-83989010D01*
X128912938Y-84050254D01*
X128746314Y-84070979D01*
X128714500Y-84071307D01*
X128577055Y-84061375D01*
X128468128Y-84036161D01*
X128435664Y-84019736D01*
X128317400Y-83885580D01*
X128280215Y-83744847D01*
X128402331Y-83744847D01*
X128453815Y-83842033D01*
X128556333Y-83915100D01*
X128700227Y-83946770D01*
X128714500Y-83947000D01*
X128842030Y-83925039D01*
X128937913Y-83881099D01*
X129010463Y-83794081D01*
X129032000Y-83714166D01*
X128995122Y-83605735D01*
X128899770Y-83527681D01*
X128768866Y-83487081D01*
X128625332Y-83491006D01*
X128492091Y-83546532D01*
X128491086Y-83547233D01*
X128411536Y-83640821D01*
X128402331Y-83744847D01*
X128280215Y-83744847D01*
X128277396Y-83734179D01*
X128316811Y-83580488D01*
X128393743Y-83478076D01*
X128488305Y-83399318D01*
X128588699Y-83362937D01*
X128728647Y-83354333D01*
X128865727Y-83361776D01*
G36*
X128406543Y-84321301D02*
X128411258Y-84433510D01*
X128409469Y-84448254D01*
X128404035Y-84565252D01*
X128438345Y-84642328D01*
X128503873Y-84702254D01*
X128652974Y-84778344D01*
X128796639Y-84783400D01*
X128918066Y-84727646D01*
X129000449Y-84621307D01*
X129026986Y-84474605D01*
X129014616Y-84391500D01*
X129008270Y-84309640D01*
X129050441Y-84285666D01*
X129106789Y-84322227D01*
X129138474Y-84414504D01*
X129142588Y-84536392D01*
X129116224Y-84661781D01*
X129097218Y-84705675D01*
X128986443Y-84834572D01*
X128828194Y-84906685D01*
X128642546Y-84916283D01*
X128494466Y-84877834D01*
X128387737Y-84794094D01*
X128312649Y-84658346D01*
X128283275Y-84501405D01*
X128289338Y-84428690D01*
X128327489Y-84315944D01*
X128372588Y-84281130D01*
X128406543Y-84321301D01*
X128406543Y-84321301D01*
G37*
X128406543Y-84321301D02*
X128411258Y-84433510D01*
X128409469Y-84448254D01*
X128404035Y-84565252D01*
X128438345Y-84642328D01*
X128503873Y-84702254D01*
X128652974Y-84778344D01*
X128796639Y-84783400D01*
X128918066Y-84727646D01*
X129000449Y-84621307D01*
X129026986Y-84474605D01*
X129014616Y-84391500D01*
X129008270Y-84309640D01*
X129050441Y-84285666D01*
X129106789Y-84322227D01*
X129138474Y-84414504D01*
X129142588Y-84536392D01*
X129116224Y-84661781D01*
X129097218Y-84705675D01*
X128986443Y-84834572D01*
X128828194Y-84906685D01*
X128642546Y-84916283D01*
X128494466Y-84877834D01*
X128387737Y-84794094D01*
X128312649Y-84658346D01*
X128283275Y-84501405D01*
X128289338Y-84428690D01*
X128327489Y-84315944D01*
X128372588Y-84281130D01*
X128406543Y-84321301D01*
G36*
X129102752Y-85204600D02*
X129116666Y-85259333D01*
X129086732Y-85330085D01*
X129032000Y-85344000D01*
X128961247Y-85314065D01*
X128947333Y-85259333D01*
X128977267Y-85188581D01*
X129032000Y-85174666D01*
X129102752Y-85204600D01*
X129102752Y-85204600D01*
G37*
X129102752Y-85204600D02*
X129116666Y-85259333D01*
X129086732Y-85330085D01*
X129032000Y-85344000D01*
X128961247Y-85314065D01*
X128947333Y-85259333D01*
X128977267Y-85188581D01*
X129032000Y-85174666D01*
X129102752Y-85204600D01*
G36*
X128906209Y-85642605D02*
X129027530Y-85650917D01*
X129092656Y-85667510D01*
X129115782Y-85694623D01*
X129116666Y-85703833D01*
X129092538Y-85760149D01*
X129071932Y-85767333D01*
X129059556Y-85795858D01*
X129093099Y-85861419D01*
X129152633Y-85992928D01*
X129131779Y-86113840D01*
X129055090Y-86213757D01*
X128991111Y-86268009D01*
X128918185Y-86299386D01*
X128811723Y-86313922D01*
X128647137Y-86317654D01*
X128631757Y-86317666D01*
X128463705Y-86314373D01*
X128364850Y-86302468D01*
X128319905Y-86278911D01*
X128312333Y-86254166D01*
X128330569Y-86218702D01*
X128395791Y-86198910D01*
X128523767Y-86191186D01*
X128590283Y-86190666D01*
X128801373Y-86180148D01*
X128939232Y-86146047D01*
X129012954Y-86084546D01*
X129032000Y-86005238D01*
X129004423Y-85890668D01*
X128916931Y-85815549D01*
X128762386Y-85775997D01*
X128594749Y-85767333D01*
X128438102Y-85763279D01*
X128350113Y-85748762D01*
X128315057Y-85720244D01*
X128312333Y-85703833D01*
X128326726Y-85673563D01*
X128379368Y-85654407D01*
X128484452Y-85644124D01*
X128656171Y-85640472D01*
X128714500Y-85640333D01*
X128906209Y-85642605D01*
X128906209Y-85642605D01*
G37*
X128906209Y-85642605D02*
X129027530Y-85650917D01*
X129092656Y-85667510D01*
X129115782Y-85694623D01*
X129116666Y-85703833D01*
X129092538Y-85760149D01*
X129071932Y-85767333D01*
X129059556Y-85795858D01*
X129093099Y-85861419D01*
X129152633Y-85992928D01*
X129131779Y-86113840D01*
X129055090Y-86213757D01*
X128991111Y-86268009D01*
X128918185Y-86299386D01*
X128811723Y-86313922D01*
X128647137Y-86317654D01*
X128631757Y-86317666D01*
X128463705Y-86314373D01*
X128364850Y-86302468D01*
X128319905Y-86278911D01*
X128312333Y-86254166D01*
X128330569Y-86218702D01*
X128395791Y-86198910D01*
X128523767Y-86191186D01*
X128590283Y-86190666D01*
X128801373Y-86180148D01*
X128939232Y-86146047D01*
X129012954Y-86084546D01*
X129032000Y-86005238D01*
X129004423Y-85890668D01*
X128916931Y-85815549D01*
X128762386Y-85775997D01*
X128594749Y-85767333D01*
X128438102Y-85763279D01*
X128350113Y-85748762D01*
X128315057Y-85720244D01*
X128312333Y-85703833D01*
X128326726Y-85673563D01*
X128379368Y-85654407D01*
X128484452Y-85644124D01*
X128656171Y-85640472D01*
X128714500Y-85640333D01*
X128906209Y-85642605D01*
G36*
X128901418Y-86572945D02*
X129019387Y-86578984D01*
X129084114Y-86593092D01*
X129111302Y-86618573D01*
X129116666Y-86656333D01*
X129110593Y-86695684D01*
X129081905Y-86720520D01*
X129014894Y-86734146D01*
X128893857Y-86739870D01*
X128714500Y-86741000D01*
X128527581Y-86739721D01*
X128409612Y-86733681D01*
X128344885Y-86719574D01*
X128317697Y-86694092D01*
X128312333Y-86656333D01*
X128318406Y-86616982D01*
X128347094Y-86592146D01*
X128414105Y-86578519D01*
X128535142Y-86572795D01*
X128714500Y-86571666D01*
X128901418Y-86572945D01*
X128901418Y-86572945D01*
G37*
X128901418Y-86572945D02*
X129019387Y-86578984D01*
X129084114Y-86593092D01*
X129111302Y-86618573D01*
X129116666Y-86656333D01*
X129110593Y-86695684D01*
X129081905Y-86720520D01*
X129014894Y-86734146D01*
X128893857Y-86739870D01*
X128714500Y-86741000D01*
X128527581Y-86739721D01*
X128409612Y-86733681D01*
X128344885Y-86719574D01*
X128317697Y-86694092D01*
X128312333Y-86656333D01*
X128318406Y-86616982D01*
X128347094Y-86592146D01*
X128414105Y-86578519D01*
X128535142Y-86572795D01*
X128714500Y-86571666D01*
X128901418Y-86572945D01*
G36*
X128129085Y-86601600D02*
X128143000Y-86656333D01*
X128112513Y-86726392D01*
X128045278Y-86739171D01*
X128001888Y-86712777D01*
X127972751Y-86640959D01*
X128009727Y-86583806D01*
X128058333Y-86571666D01*
X128129085Y-86601600D01*
X128129085Y-86601600D01*
G37*
X128129085Y-86601600D02*
X128143000Y-86656333D01*
X128112513Y-86726392D01*
X128045278Y-86739171D01*
X128001888Y-86712777D01*
X127972751Y-86640959D01*
X128009727Y-86583806D01*
X128058333Y-86571666D01*
X128129085Y-86601600D01*
G36*
X128933877Y-86960191D02*
X129051726Y-87011415D01*
X129124607Y-87123671D01*
X129145809Y-87282459D01*
X129132132Y-87388541D01*
X129091158Y-87522452D01*
X129048928Y-87581165D01*
X129016388Y-87564479D01*
X129004482Y-87472193D01*
X129010495Y-87390782D01*
X129016742Y-87222534D01*
X128989423Y-87118304D01*
X128931450Y-87084304D01*
X128876242Y-87104319D01*
X128815789Y-87175058D01*
X128767998Y-87285221D01*
X128765388Y-87294819D01*
X128713489Y-87441819D01*
X128644133Y-87518482D01*
X128542040Y-87539109D01*
X128506733Y-87536911D01*
X128383964Y-87487275D01*
X128305449Y-87377004D01*
X128280126Y-87222409D01*
X128289049Y-87139565D01*
X128324171Y-87026861D01*
X128364805Y-86992658D01*
X128400237Y-87032362D01*
X128419752Y-87141377D01*
X128420826Y-87196083D01*
X128424410Y-87320282D01*
X128445640Y-87383151D01*
X128493791Y-87407615D01*
X128507314Y-87409894D01*
X128567051Y-87403210D01*
X128609683Y-87349907D01*
X128649983Y-87231465D01*
X128650174Y-87230782D01*
X128707271Y-87072832D01*
X128777024Y-86986147D01*
X128873471Y-86957337D01*
X128933877Y-86960191D01*
X128933877Y-86960191D01*
G37*
X128933877Y-86960191D02*
X129051726Y-87011415D01*
X129124607Y-87123671D01*
X129145809Y-87282459D01*
X129132132Y-87388541D01*
X129091158Y-87522452D01*
X129048928Y-87581165D01*
X129016388Y-87564479D01*
X129004482Y-87472193D01*
X129010495Y-87390782D01*
X129016742Y-87222534D01*
X128989423Y-87118304D01*
X128931450Y-87084304D01*
X128876242Y-87104319D01*
X128815789Y-87175058D01*
X128767998Y-87285221D01*
X128765388Y-87294819D01*
X128713489Y-87441819D01*
X128644133Y-87518482D01*
X128542040Y-87539109D01*
X128506733Y-87536911D01*
X128383964Y-87487275D01*
X128305449Y-87377004D01*
X128280126Y-87222409D01*
X128289049Y-87139565D01*
X128324171Y-87026861D01*
X128364805Y-86992658D01*
X128400237Y-87032362D01*
X128419752Y-87141377D01*
X128420826Y-87196083D01*
X128424410Y-87320282D01*
X128445640Y-87383151D01*
X128493791Y-87407615D01*
X128507314Y-87409894D01*
X128567051Y-87403210D01*
X128609683Y-87349907D01*
X128649983Y-87231465D01*
X128650174Y-87230782D01*
X128707271Y-87072832D01*
X128777024Y-86986147D01*
X128873471Y-86957337D01*
X128933877Y-86960191D01*
G36*
X128754432Y-87737326D02*
X128773936Y-87815780D01*
X128778000Y-87926333D01*
X128771202Y-88059442D01*
X128747665Y-88124455D01*
X128714500Y-88138000D01*
X128674567Y-88115340D01*
X128655063Y-88036886D01*
X128651000Y-87926333D01*
X128657797Y-87793224D01*
X128681334Y-87728211D01*
X128714500Y-87714666D01*
X128754432Y-87737326D01*
X128754432Y-87737326D01*
G37*
X128754432Y-87737326D02*
X128773936Y-87815780D01*
X128778000Y-87926333D01*
X128771202Y-88059442D01*
X128747665Y-88124455D01*
X128714500Y-88138000D01*
X128674567Y-88115340D01*
X128655063Y-88036886D01*
X128651000Y-87926333D01*
X128657797Y-87793224D01*
X128681334Y-87728211D01*
X128714500Y-87714666D01*
X128754432Y-87737326D01*
G36*
X129005750Y-88356704D02*
X129092990Y-88382938D01*
X129116666Y-88413166D01*
X129093291Y-88469494D01*
X129073357Y-88476666D01*
X129062576Y-88506254D01*
X129096297Y-88577747D01*
X129098265Y-88580779D01*
X129148296Y-88716378D01*
X129132197Y-88843877D01*
X129065065Y-88947839D01*
X128961999Y-89012825D01*
X128838096Y-89023393D01*
X128717059Y-88970606D01*
X128654965Y-88875810D01*
X128619692Y-88703273D01*
X128618915Y-88695439D01*
X128591972Y-88546964D01*
X128571537Y-88516800D01*
X128701526Y-88516800D01*
X128707119Y-88601334D01*
X128715963Y-88656583D01*
X128760923Y-88808514D01*
X128829059Y-88890078D01*
X128913214Y-88896076D01*
X128981200Y-88849200D01*
X129029112Y-88751011D01*
X129013851Y-88640761D01*
X128948345Y-88543493D01*
X128845524Y-88484252D01*
X128788884Y-88476666D01*
X128725685Y-88482881D01*
X128701526Y-88516800D01*
X128571537Y-88516800D01*
X128547099Y-88480729D01*
X128483515Y-88496065D01*
X128438843Y-88540756D01*
X128405034Y-88643795D01*
X128412151Y-88798170D01*
X128416614Y-88924322D01*
X128393304Y-88977648D01*
X128353510Y-88954452D01*
X128308523Y-88851036D01*
X128303501Y-88833741D01*
X128288756Y-88649477D01*
X128342760Y-88482785D01*
X128385692Y-88423750D01*
X128458025Y-88385015D01*
X128579055Y-88358612D01*
X128725924Y-88344872D01*
X128875775Y-88344126D01*
X129005750Y-88356704D01*
X129005750Y-88356704D01*
G37*
X129005750Y-88356704D02*
X129092990Y-88382938D01*
X129116666Y-88413166D01*
X129093291Y-88469494D01*
X129073357Y-88476666D01*
X129062576Y-88506254D01*
X129096297Y-88577747D01*
X129098265Y-88580779D01*
X129148296Y-88716378D01*
X129132197Y-88843877D01*
X129065065Y-88947839D01*
X128961999Y-89012825D01*
X128838096Y-89023393D01*
X128717059Y-88970606D01*
X128654965Y-88875810D01*
X128619692Y-88703273D01*
X128618915Y-88695439D01*
X128591972Y-88546964D01*
X128571537Y-88516800D01*
X128701526Y-88516800D01*
X128707119Y-88601334D01*
X128715963Y-88656583D01*
X128760923Y-88808514D01*
X128829059Y-88890078D01*
X128913214Y-88896076D01*
X128981200Y-88849200D01*
X129029112Y-88751011D01*
X129013851Y-88640761D01*
X128948345Y-88543493D01*
X128845524Y-88484252D01*
X128788884Y-88476666D01*
X128725685Y-88482881D01*
X128701526Y-88516800D01*
X128571537Y-88516800D01*
X128547099Y-88480729D01*
X128483515Y-88496065D01*
X128438843Y-88540756D01*
X128405034Y-88643795D01*
X128412151Y-88798170D01*
X128416614Y-88924322D01*
X128393304Y-88977648D01*
X128353510Y-88954452D01*
X128308523Y-88851036D01*
X128303501Y-88833741D01*
X128288756Y-88649477D01*
X128342760Y-88482785D01*
X128385692Y-88423750D01*
X128458025Y-88385015D01*
X128579055Y-88358612D01*
X128725924Y-88344872D01*
X128875775Y-88344126D01*
X129005750Y-88356704D01*
G36*
X128997719Y-89242980D02*
X129082660Y-89258380D01*
X129114897Y-89288554D01*
X129116666Y-89302166D01*
X129097817Y-89338324D01*
X129030689Y-89358128D01*
X128899406Y-89365372D01*
X128850919Y-89365666D01*
X128634936Y-89383797D01*
X128485324Y-89436537D01*
X128407411Y-89521408D01*
X128397000Y-89576709D01*
X128422361Y-89679403D01*
X128504309Y-89746019D01*
X128651644Y-89780940D01*
X128823357Y-89789000D01*
X128978129Y-89791330D01*
X129066471Y-89801820D01*
X129106571Y-89825720D01*
X129116615Y-89868280D01*
X129116666Y-89873666D01*
X129110593Y-89913017D01*
X129081905Y-89937853D01*
X129014894Y-89951480D01*
X128893857Y-89957204D01*
X128714500Y-89958333D01*
X128527581Y-89957054D01*
X128409612Y-89951015D01*
X128344885Y-89936907D01*
X128317697Y-89911426D01*
X128312333Y-89873666D01*
X128329245Y-89804863D01*
X128352697Y-89789000D01*
X128361610Y-89757729D01*
X128330792Y-89680999D01*
X128322717Y-89666430D01*
X128277942Y-89563100D01*
X128286191Y-89474148D01*
X128302999Y-89432747D01*
X128372677Y-89337551D01*
X128486801Y-89276771D01*
X128658851Y-89245574D01*
X128844255Y-89238666D01*
X128997719Y-89242980D01*
X128997719Y-89242980D01*
G37*
X128997719Y-89242980D02*
X129082660Y-89258380D01*
X129114897Y-89288554D01*
X129116666Y-89302166D01*
X129097817Y-89338324D01*
X129030689Y-89358128D01*
X128899406Y-89365372D01*
X128850919Y-89365666D01*
X128634936Y-89383797D01*
X128485324Y-89436537D01*
X128407411Y-89521408D01*
X128397000Y-89576709D01*
X128422361Y-89679403D01*
X128504309Y-89746019D01*
X128651644Y-89780940D01*
X128823357Y-89789000D01*
X128978129Y-89791330D01*
X129066471Y-89801820D01*
X129106571Y-89825720D01*
X129116615Y-89868280D01*
X129116666Y-89873666D01*
X129110593Y-89913017D01*
X129081905Y-89937853D01*
X129014894Y-89951480D01*
X128893857Y-89957204D01*
X128714500Y-89958333D01*
X128527581Y-89957054D01*
X128409612Y-89951015D01*
X128344885Y-89936907D01*
X128317697Y-89911426D01*
X128312333Y-89873666D01*
X128329245Y-89804863D01*
X128352697Y-89789000D01*
X128361610Y-89757729D01*
X128330792Y-89680999D01*
X128322717Y-89666430D01*
X128277942Y-89563100D01*
X128286191Y-89474148D01*
X128302999Y-89432747D01*
X128372677Y-89337551D01*
X128486801Y-89276771D01*
X128658851Y-89245574D01*
X128844255Y-89238666D01*
X128997719Y-89242980D01*
G36*
X128906209Y-90214605D02*
X129027530Y-90222917D01*
X129092656Y-90239510D01*
X129115782Y-90266623D01*
X129116666Y-90275833D01*
X129102273Y-90306103D01*
X129049631Y-90325259D01*
X128944547Y-90335542D01*
X128772828Y-90339193D01*
X128714500Y-90339333D01*
X128522790Y-90337060D01*
X128401469Y-90328748D01*
X128336343Y-90312156D01*
X128313217Y-90285043D01*
X128312333Y-90275833D01*
X128326726Y-90245563D01*
X128379368Y-90226407D01*
X128484452Y-90216124D01*
X128656171Y-90212472D01*
X128714500Y-90212333D01*
X128906209Y-90214605D01*
X128906209Y-90214605D01*
G37*
X128906209Y-90214605D02*
X129027530Y-90222917D01*
X129092656Y-90239510D01*
X129115782Y-90266623D01*
X129116666Y-90275833D01*
X129102273Y-90306103D01*
X129049631Y-90325259D01*
X128944547Y-90335542D01*
X128772828Y-90339193D01*
X128714500Y-90339333D01*
X128522790Y-90337060D01*
X128401469Y-90328748D01*
X128336343Y-90312156D01*
X128313217Y-90285043D01*
X128312333Y-90275833D01*
X128326726Y-90245563D01*
X128379368Y-90226407D01*
X128484452Y-90216124D01*
X128656171Y-90212472D01*
X128714500Y-90212333D01*
X128906209Y-90214605D01*
G36*
X128127285Y-90238803D02*
X128143000Y-90275833D01*
X128107706Y-90327547D01*
X128058333Y-90339333D01*
X127989381Y-90312863D01*
X127973666Y-90275833D01*
X128008959Y-90224119D01*
X128058333Y-90212333D01*
X128127285Y-90238803D01*
X128127285Y-90238803D01*
G37*
X128127285Y-90238803D02*
X128143000Y-90275833D01*
X128107706Y-90327547D01*
X128058333Y-90339333D01*
X127989381Y-90312863D01*
X127973666Y-90275833D01*
X128008959Y-90224119D01*
X128058333Y-90212333D01*
X128127285Y-90238803D01*
G36*
X128384390Y-90587786D02*
X128396996Y-90676419D01*
X128397000Y-90678000D01*
X128397000Y-90805000D01*
X128689969Y-90805000D01*
X128843985Y-90803537D01*
X128933703Y-90793776D01*
X128979491Y-90767654D01*
X129001716Y-90717108D01*
X129010833Y-90678000D01*
X129047236Y-90577001D01*
X129085193Y-90557843D01*
X129111685Y-90618963D01*
X129116666Y-90690700D01*
X129105191Y-90803258D01*
X129061061Y-90875011D01*
X128969723Y-90914511D01*
X128816622Y-90930310D01*
X128706033Y-90932000D01*
X128541126Y-90935479D01*
X128445262Y-90948030D01*
X128403022Y-90972821D01*
X128397000Y-90995500D01*
X128374141Y-91051835D01*
X128354666Y-91059000D01*
X128317109Y-91024711D01*
X128312333Y-90995500D01*
X128274469Y-90945086D01*
X128185333Y-90932000D01*
X128084507Y-90913067D01*
X128058333Y-90868500D01*
X128096197Y-90818086D01*
X128185333Y-90805000D01*
X128275287Y-90794510D01*
X128308442Y-90745030D01*
X128312333Y-90678000D01*
X128324595Y-90588829D01*
X128354139Y-90551009D01*
X128354666Y-90551000D01*
X128384390Y-90587786D01*
X128384390Y-90587786D01*
G37*
X128384390Y-90587786D02*
X128396996Y-90676419D01*
X128397000Y-90678000D01*
X128397000Y-90805000D01*
X128689969Y-90805000D01*
X128843985Y-90803537D01*
X128933703Y-90793776D01*
X128979491Y-90767654D01*
X129001716Y-90717108D01*
X129010833Y-90678000D01*
X129047236Y-90577001D01*
X129085193Y-90557843D01*
X129111685Y-90618963D01*
X129116666Y-90690700D01*
X129105191Y-90803258D01*
X129061061Y-90875011D01*
X128969723Y-90914511D01*
X128816622Y-90930310D01*
X128706033Y-90932000D01*
X128541126Y-90935479D01*
X128445262Y-90948030D01*
X128403022Y-90972821D01*
X128397000Y-90995500D01*
X128374141Y-91051835D01*
X128354666Y-91059000D01*
X128317109Y-91024711D01*
X128312333Y-90995500D01*
X128274469Y-90945086D01*
X128185333Y-90932000D01*
X128084507Y-90913067D01*
X128058333Y-90868500D01*
X128096197Y-90818086D01*
X128185333Y-90805000D01*
X128275287Y-90794510D01*
X128308442Y-90745030D01*
X128312333Y-90678000D01*
X128324595Y-90588829D01*
X128354139Y-90551009D01*
X128354666Y-90551000D01*
X128384390Y-90587786D01*
G36*
X129016356Y-91203950D02*
X129095540Y-91293063D01*
X129140686Y-91431089D01*
X129137235Y-91612756D01*
X129136366Y-91618017D01*
X129102868Y-91740124D01*
X129063826Y-91783402D01*
X129028796Y-91752333D01*
X129007332Y-91651396D01*
X129005008Y-91556416D01*
X129004620Y-91425393D01*
X128989038Y-91356522D01*
X128949964Y-91327570D01*
X128917079Y-91320835D01*
X128842466Y-91330920D01*
X128801236Y-91402102D01*
X128794721Y-91426668D01*
X128731563Y-91618943D01*
X128650772Y-91733873D01*
X128547543Y-91777802D01*
X128528096Y-91778666D01*
X128423230Y-91759931D01*
X128360101Y-91721715D01*
X128301816Y-91598221D01*
X128283627Y-91441460D01*
X128308205Y-91302416D01*
X128358252Y-91206719D01*
X128398201Y-91190677D01*
X128419606Y-91249294D01*
X128415534Y-91365916D01*
X128414889Y-91524683D01*
X128450315Y-91620855D01*
X128508110Y-91649990D01*
X128574575Y-91607648D01*
X128636009Y-91489388D01*
X128650443Y-91442066D01*
X128720179Y-91282808D01*
X128814116Y-91193551D01*
X128917695Y-91169022D01*
X129016356Y-91203950D01*
X129016356Y-91203950D01*
G37*
X129016356Y-91203950D02*
X129095540Y-91293063D01*
X129140686Y-91431089D01*
X129137235Y-91612756D01*
X129136366Y-91618017D01*
X129102868Y-91740124D01*
X129063826Y-91783402D01*
X129028796Y-91752333D01*
X129007332Y-91651396D01*
X129005008Y-91556416D01*
X129004620Y-91425393D01*
X128989038Y-91356522D01*
X128949964Y-91327570D01*
X128917079Y-91320835D01*
X128842466Y-91330920D01*
X128801236Y-91402102D01*
X128794721Y-91426668D01*
X128731563Y-91618943D01*
X128650772Y-91733873D01*
X128547543Y-91777802D01*
X128528096Y-91778666D01*
X128423230Y-91759931D01*
X128360101Y-91721715D01*
X128301816Y-91598221D01*
X128283627Y-91441460D01*
X128308205Y-91302416D01*
X128358252Y-91206719D01*
X128398201Y-91190677D01*
X128419606Y-91249294D01*
X128415534Y-91365916D01*
X128414889Y-91524683D01*
X128450315Y-91620855D01*
X128508110Y-91649990D01*
X128574575Y-91607648D01*
X128636009Y-91489388D01*
X128650443Y-91442066D01*
X128720179Y-91282808D01*
X128814116Y-91193551D01*
X128917695Y-91169022D01*
X129016356Y-91203950D01*
G36*
X128906209Y-92034939D02*
X129027530Y-92043251D01*
X129092656Y-92059843D01*
X129115782Y-92086956D01*
X129116666Y-92096166D01*
X129102273Y-92126436D01*
X129049631Y-92145592D01*
X128944547Y-92155875D01*
X128772828Y-92159527D01*
X128714500Y-92159666D01*
X128522790Y-92157394D01*
X128401469Y-92149082D01*
X128336343Y-92132489D01*
X128313217Y-92105376D01*
X128312333Y-92096166D01*
X128326726Y-92065896D01*
X128379368Y-92046740D01*
X128484452Y-92036457D01*
X128656171Y-92032806D01*
X128714500Y-92032666D01*
X128906209Y-92034939D01*
X128906209Y-92034939D01*
G37*
X128906209Y-92034939D02*
X129027530Y-92043251D01*
X129092656Y-92059843D01*
X129115782Y-92086956D01*
X129116666Y-92096166D01*
X129102273Y-92126436D01*
X129049631Y-92145592D01*
X128944547Y-92155875D01*
X128772828Y-92159527D01*
X128714500Y-92159666D01*
X128522790Y-92157394D01*
X128401469Y-92149082D01*
X128336343Y-92132489D01*
X128313217Y-92105376D01*
X128312333Y-92096166D01*
X128326726Y-92065896D01*
X128379368Y-92046740D01*
X128484452Y-92036457D01*
X128656171Y-92032806D01*
X128714500Y-92032666D01*
X128906209Y-92034939D01*
G36*
X128127285Y-92059136D02*
X128143000Y-92096166D01*
X128107706Y-92147880D01*
X128058333Y-92159666D01*
X127989381Y-92133196D01*
X127973666Y-92096166D01*
X128008959Y-92044452D01*
X128058333Y-92032666D01*
X128127285Y-92059136D01*
X128127285Y-92059136D01*
G37*
X128127285Y-92059136D02*
X128143000Y-92096166D01*
X128107706Y-92147880D01*
X128058333Y-92159666D01*
X127989381Y-92133196D01*
X127973666Y-92096166D01*
X128008959Y-92044452D01*
X128058333Y-92032666D01*
X128127285Y-92059136D01*
G36*
X128384790Y-92323092D02*
X128397000Y-92385938D01*
X128424253Y-92501064D01*
X128510895Y-92576549D01*
X128664246Y-92616403D01*
X128834250Y-92625333D01*
X128985526Y-92627841D01*
X129070690Y-92639062D01*
X129108238Y-92664540D01*
X129116666Y-92709821D01*
X129116666Y-92710000D01*
X129110593Y-92749351D01*
X129081905Y-92774186D01*
X129014894Y-92787813D01*
X128893857Y-92793537D01*
X128714500Y-92794666D01*
X128527581Y-92793388D01*
X128409612Y-92787348D01*
X128344885Y-92773241D01*
X128317697Y-92747759D01*
X128312333Y-92710000D01*
X128331054Y-92641226D01*
X128357067Y-92625333D01*
X128369443Y-92596808D01*
X128335900Y-92531247D01*
X128282278Y-92423699D01*
X128275232Y-92335473D01*
X128314985Y-92289093D01*
X128333500Y-92286666D01*
X128384790Y-92323092D01*
X128384790Y-92323092D01*
G37*
X128384790Y-92323092D02*
X128397000Y-92385938D01*
X128424253Y-92501064D01*
X128510895Y-92576549D01*
X128664246Y-92616403D01*
X128834250Y-92625333D01*
X128985526Y-92627841D01*
X129070690Y-92639062D01*
X129108238Y-92664540D01*
X129116666Y-92709821D01*
X129116666Y-92710000D01*
X129110593Y-92749351D01*
X129081905Y-92774186D01*
X129014894Y-92787813D01*
X128893857Y-92793537D01*
X128714500Y-92794666D01*
X128527581Y-92793388D01*
X128409612Y-92787348D01*
X128344885Y-92773241D01*
X128317697Y-92747759D01*
X128312333Y-92710000D01*
X128331054Y-92641226D01*
X128357067Y-92625333D01*
X128369443Y-92596808D01*
X128335900Y-92531247D01*
X128282278Y-92423699D01*
X128275232Y-92335473D01*
X128314985Y-92289093D01*
X128333500Y-92286666D01*
X128384790Y-92323092D01*
G36*
X128874082Y-93045639D02*
X129004783Y-93058829D01*
X129092638Y-93083988D01*
X129116666Y-93112166D01*
X129098430Y-93147630D01*
X129033208Y-93167423D01*
X128905232Y-93175146D01*
X128838716Y-93175666D01*
X128628759Y-93185899D01*
X128491619Y-93219363D01*
X128417624Y-93280212D01*
X128397000Y-93365255D01*
X128433465Y-93480013D01*
X128543499Y-93556146D01*
X128728054Y-93594145D01*
X128850919Y-93599000D01*
X129002237Y-93603503D01*
X129085118Y-93619544D01*
X129115434Y-93650914D01*
X129116666Y-93662500D01*
X129104610Y-93688517D01*
X129060225Y-93706500D01*
X128971190Y-93717816D01*
X128825182Y-93723837D01*
X128609877Y-93725929D01*
X128545166Y-93726000D01*
X128311008Y-93724660D01*
X128149165Y-93719728D01*
X128047314Y-93709836D01*
X127993132Y-93693612D01*
X127974297Y-93669690D01*
X127973666Y-93662500D01*
X127996636Y-93622293D01*
X128075970Y-93602838D01*
X128182088Y-93599000D01*
X128390510Y-93599000D01*
X128327306Y-93472303D01*
X128287525Y-93315997D01*
X128330958Y-93174744D01*
X128381630Y-93112417D01*
X128454310Y-93077807D01*
X128575906Y-93055136D01*
X128723476Y-93044411D01*
X128874082Y-93045639D01*
X128874082Y-93045639D01*
G37*
X128874082Y-93045639D02*
X129004783Y-93058829D01*
X129092638Y-93083988D01*
X129116666Y-93112166D01*
X129098430Y-93147630D01*
X129033208Y-93167423D01*
X128905232Y-93175146D01*
X128838716Y-93175666D01*
X128628759Y-93185899D01*
X128491619Y-93219363D01*
X128417624Y-93280212D01*
X128397000Y-93365255D01*
X128433465Y-93480013D01*
X128543499Y-93556146D01*
X128728054Y-93594145D01*
X128850919Y-93599000D01*
X129002237Y-93603503D01*
X129085118Y-93619544D01*
X129115434Y-93650914D01*
X129116666Y-93662500D01*
X129104610Y-93688517D01*
X129060225Y-93706500D01*
X128971190Y-93717816D01*
X128825182Y-93723837D01*
X128609877Y-93725929D01*
X128545166Y-93726000D01*
X128311008Y-93724660D01*
X128149165Y-93719728D01*
X128047314Y-93709836D01*
X127993132Y-93693612D01*
X127974297Y-93669690D01*
X127973666Y-93662500D01*
X127996636Y-93622293D01*
X128075970Y-93602838D01*
X128182088Y-93599000D01*
X128390510Y-93599000D01*
X128327306Y-93472303D01*
X128287525Y-93315997D01*
X128330958Y-93174744D01*
X128381630Y-93112417D01*
X128454310Y-93077807D01*
X128575906Y-93055136D01*
X128723476Y-93044411D01*
X128874082Y-93045639D01*
G36*
X129097208Y-94003061D02*
X129137724Y-94106550D01*
X129138447Y-94109796D01*
X129140189Y-94284443D01*
X129074687Y-94431726D01*
X128957649Y-94541224D01*
X128804787Y-94602514D01*
X128631808Y-94605175D01*
X128474513Y-94550250D01*
X128371844Y-94452266D01*
X128304131Y-94306961D01*
X128284957Y-94148942D01*
X128293879Y-94090095D01*
X128334526Y-93995908D01*
X128378240Y-93977312D01*
X128408773Y-94027464D01*
X128409952Y-94138984D01*
X128422691Y-94294466D01*
X128503354Y-94403289D01*
X128644695Y-94457755D01*
X128714500Y-94462600D01*
X128877484Y-94431356D01*
X128982608Y-94342759D01*
X129022627Y-94204510D01*
X129019047Y-94138984D01*
X129020319Y-94023568D01*
X129052223Y-93976830D01*
X129097208Y-94003061D01*
X129097208Y-94003061D01*
G37*
X129097208Y-94003061D02*
X129137724Y-94106550D01*
X129138447Y-94109796D01*
X129140189Y-94284443D01*
X129074687Y-94431726D01*
X128957649Y-94541224D01*
X128804787Y-94602514D01*
X128631808Y-94605175D01*
X128474513Y-94550250D01*
X128371844Y-94452266D01*
X128304131Y-94306961D01*
X128284957Y-94148942D01*
X128293879Y-94090095D01*
X128334526Y-93995908D01*
X128378240Y-93977312D01*
X128408773Y-94027464D01*
X128409952Y-94138984D01*
X128422691Y-94294466D01*
X128503354Y-94403289D01*
X128644695Y-94457755D01*
X128714500Y-94462600D01*
X128877484Y-94431356D01*
X128982608Y-94342759D01*
X129022627Y-94204510D01*
X129019047Y-94138984D01*
X129020319Y-94023568D01*
X129052223Y-93976830D01*
X129097208Y-94003061D01*
G36*
X122449166Y-81937870D02*
X123022107Y-81963740D01*
X123550972Y-82036619D01*
X124029343Y-82154524D01*
X124450803Y-82315469D01*
X124808936Y-82517470D01*
X125095000Y-82756144D01*
X125239489Y-82895314D01*
X125394495Y-83029695D01*
X125526466Y-83130199D01*
X125526496Y-83130219D01*
X125654624Y-83231946D01*
X125757522Y-83352166D01*
X125837641Y-83500508D01*
X125897435Y-83686600D01*
X125939356Y-83920072D01*
X125965857Y-84210552D01*
X125979390Y-84567672D01*
X125982531Y-84920666D01*
X125977446Y-85422936D01*
X125960413Y-85859880D01*
X125928768Y-86250328D01*
X125879845Y-86613109D01*
X125810981Y-86967055D01*
X125719510Y-87330994D01*
X125602769Y-87723758D01*
X125572366Y-87819209D01*
X125382063Y-88410585D01*
X125434106Y-89004542D01*
X125453395Y-89289620D01*
X125466644Y-89617220D01*
X125472585Y-89945336D01*
X125470490Y-90212333D01*
X125463773Y-90452847D01*
X125455682Y-90626810D01*
X125442896Y-90752312D01*
X125422097Y-90847447D01*
X125389963Y-90930307D01*
X125343175Y-91018983D01*
X125312706Y-91072094D01*
X125244477Y-91199355D01*
X125202251Y-91296545D01*
X125195167Y-91342611D01*
X125238237Y-91331160D01*
X125328882Y-91278090D01*
X125448415Y-91194490D01*
X125462235Y-91184126D01*
X125614753Y-91078102D01*
X125740658Y-91017581D01*
X125873197Y-90988187D01*
X125928605Y-90982485D01*
X126066623Y-90976340D01*
X126151527Y-90992265D01*
X126213705Y-91038334D01*
X126236818Y-91064375D01*
X126310378Y-91171430D01*
X126413244Y-91350643D01*
X126542328Y-91595948D01*
X126694544Y-91901281D01*
X126866806Y-92260574D01*
X127056024Y-92667761D01*
X127085027Y-92731166D01*
X127263256Y-93122792D01*
X127408108Y-93444118D01*
X127522216Y-93701469D01*
X127608215Y-93901171D01*
X127668736Y-94049552D01*
X127706414Y-94152936D01*
X127723881Y-94217651D01*
X127723772Y-94250023D01*
X127719444Y-94255303D01*
X127668356Y-94271466D01*
X127548583Y-94302708D01*
X127374056Y-94345598D01*
X127158709Y-94396703D01*
X126944381Y-94446230D01*
X126205170Y-94615000D01*
X123078335Y-94611943D01*
X119951500Y-94608887D01*
X119210666Y-94446012D01*
X118963273Y-94390605D01*
X118737736Y-94338200D01*
X118549960Y-94292640D01*
X118415851Y-94257768D01*
X118356646Y-94239677D01*
X118243459Y-94196218D01*
X118390914Y-93725397D01*
X118437233Y-93581329D01*
X118503325Y-93380978D01*
X118584590Y-93137822D01*
X118676427Y-92865339D01*
X118774237Y-92577007D01*
X118873418Y-92286305D01*
X118969371Y-92006711D01*
X119057496Y-91751703D01*
X119133192Y-91534759D01*
X119167088Y-91439191D01*
X120353666Y-91439191D01*
X120353666Y-91639467D01*
X121610465Y-92425982D01*
X122867264Y-93212496D01*
X123018048Y-93096264D01*
X123092641Y-93038401D01*
X123222929Y-92936947D01*
X123397924Y-92800476D01*
X123606633Y-92637562D01*
X123838066Y-92456780D01*
X124026083Y-92309826D01*
X124883333Y-91639619D01*
X124883333Y-90984509D01*
X124634263Y-90966493D01*
X124401585Y-90922986D01*
X124155395Y-90833074D01*
X123925661Y-90710813D01*
X123742351Y-90570262D01*
X123703931Y-90530120D01*
X123565439Y-90308846D01*
X123495388Y-90040509D01*
X123486569Y-89892341D01*
X123487987Y-89874688D01*
X124511099Y-89874688D01*
X124521012Y-89984540D01*
X124546228Y-90154864D01*
X124570095Y-90289282D01*
X124603549Y-90451044D01*
X124632830Y-90561463D01*
X124654367Y-90608743D01*
X124663132Y-90596722D01*
X124662118Y-90509056D01*
X124645141Y-90365419D01*
X124615590Y-90192263D01*
X124603904Y-90134335D01*
X124562893Y-89955132D01*
X124533069Y-89855268D01*
X124515462Y-89830025D01*
X124511099Y-89874688D01*
X123487987Y-89874688D01*
X123497076Y-89761570D01*
X123538519Y-89660831D01*
X123625158Y-89571591D01*
X123771250Y-89475318D01*
X123835871Y-89438322D01*
X123986052Y-89342269D01*
X124087848Y-89266692D01*
X124505016Y-89266692D01*
X124512598Y-89364776D01*
X124535622Y-89519123D01*
X124569109Y-89703830D01*
X124608085Y-89892992D01*
X124647571Y-90060706D01*
X124678257Y-90168380D01*
X124715716Y-90264904D01*
X124737632Y-90286290D01*
X124744119Y-90240606D01*
X124735296Y-90135920D01*
X124711279Y-89980300D01*
X124672717Y-89784303D01*
X124631325Y-89598500D01*
X125056328Y-89598500D01*
X125060756Y-89709130D01*
X125075955Y-89857647D01*
X125098711Y-90024835D01*
X125125810Y-90191472D01*
X125154037Y-90338341D01*
X125180177Y-90446224D01*
X125201017Y-90495900D01*
X125206439Y-90496004D01*
X125208280Y-90449094D01*
X125198899Y-90336327D01*
X125180083Y-90175507D01*
X125158354Y-90016727D01*
X125122443Y-89776306D01*
X125095619Y-89615073D01*
X125076697Y-89528174D01*
X125064494Y-89510757D01*
X125057826Y-89557967D01*
X125056328Y-89598500D01*
X124631325Y-89598500D01*
X124630529Y-89594927D01*
X124590552Y-89428856D01*
X124584969Y-89408000D01*
X125010333Y-89408000D01*
X125025822Y-89442845D01*
X125038555Y-89436222D01*
X125043622Y-89385982D01*
X125038555Y-89379777D01*
X125013388Y-89385588D01*
X125010333Y-89408000D01*
X124584969Y-89408000D01*
X124558389Y-89308724D01*
X124544576Y-89266607D01*
X124507700Y-89175166D01*
X124505016Y-89266692D01*
X124087848Y-89266692D01*
X124163292Y-89210680D01*
X124352328Y-89057036D01*
X124537897Y-88894816D01*
X124704735Y-88737500D01*
X124837580Y-88598568D01*
X124921168Y-88491501D01*
X124933904Y-88468571D01*
X124966285Y-88375810D01*
X125008692Y-88219836D01*
X125056627Y-88020850D01*
X125105597Y-87799052D01*
X125151104Y-87574642D01*
X125188653Y-87367820D01*
X125210044Y-87227833D01*
X125216924Y-87158483D01*
X125206216Y-87154084D01*
X125170990Y-87219630D01*
X125144435Y-87275081D01*
X125007009Y-87472277D01*
X124801856Y-87639249D01*
X124617831Y-87734523D01*
X124465678Y-87773994D01*
X124264516Y-87794710D01*
X124048036Y-87796052D01*
X123849931Y-87777399D01*
X123736067Y-87750732D01*
X123488497Y-87625958D01*
X123266594Y-87436582D01*
X123088631Y-87202343D01*
X122972880Y-86942981D01*
X122966088Y-86918894D01*
X122917591Y-86795201D01*
X123069936Y-86795201D01*
X123123860Y-87019676D01*
X123164885Y-87112823D01*
X123330665Y-87363979D01*
X123538583Y-87545219D01*
X123794078Y-87659663D01*
X124102587Y-87710432D01*
X124211799Y-87713736D01*
X124385215Y-87710846D01*
X124505493Y-87695540D01*
X124604050Y-87659678D01*
X124712306Y-87595121D01*
X124739322Y-87577083D01*
X124923819Y-87425119D01*
X125042620Y-87252791D01*
X125108383Y-87037650D01*
X125111496Y-87012638D01*
X125225342Y-87012638D01*
X125233125Y-87067545D01*
X125247576Y-87068201D01*
X125257682Y-87011542D01*
X125250918Y-86987062D01*
X125232121Y-86971027D01*
X125225342Y-87012638D01*
X125111496Y-87012638D01*
X125126779Y-86889886D01*
X125134509Y-86727579D01*
X125121308Y-86612092D01*
X125080260Y-86506744D01*
X125041233Y-86436289D01*
X124887346Y-86252589D01*
X124783218Y-86183611D01*
X125052666Y-86183611D01*
X125086376Y-86251084D01*
X125143060Y-86275333D01*
X125160277Y-86244021D01*
X125152642Y-86211833D01*
X125111888Y-86159018D01*
X125067693Y-86151429D01*
X125052666Y-86183611D01*
X124783218Y-86183611D01*
X124674665Y-86111702D01*
X124423574Y-86026444D01*
X124376160Y-86018039D01*
X124138527Y-86005173D01*
X123886759Y-86031011D01*
X123640657Y-86089507D01*
X123420023Y-86174617D01*
X123244658Y-86280297D01*
X123136750Y-86396380D01*
X123073894Y-86578813D01*
X123069936Y-86795201D01*
X122917591Y-86795201D01*
X122896173Y-86740576D01*
X122802176Y-86620892D01*
X122694178Y-86572165D01*
X122682000Y-86571666D01*
X122581618Y-86608054D01*
X122490160Y-86697225D01*
X122434367Y-86809192D01*
X122428000Y-86856502D01*
X122392011Y-87023432D01*
X122294437Y-87207299D01*
X122150863Y-87390213D01*
X121976876Y-87554284D01*
X121788063Y-87681624D01*
X121660193Y-87737762D01*
X121449027Y-87783478D01*
X121210084Y-87797022D01*
X120972063Y-87780029D01*
X120763666Y-87734134D01*
X120640754Y-87679700D01*
X120541682Y-87622129D01*
X120474985Y-87590049D01*
X120465086Y-87587666D01*
X120454478Y-87627189D01*
X120445859Y-87734531D01*
X120440171Y-87892851D01*
X120438333Y-88066990D01*
X120438333Y-88546314D01*
X120787583Y-88883577D01*
X121021894Y-89104985D01*
X121213791Y-89273669D01*
X121377252Y-89400061D01*
X121526254Y-89494592D01*
X121674773Y-89567693D01*
X121739954Y-89594353D01*
X121983500Y-89689130D01*
X121983500Y-89968284D01*
X121964865Y-90187797D01*
X121902229Y-90367800D01*
X121785490Y-90522035D01*
X121604549Y-90664244D01*
X121376308Y-90794416D01*
X121199935Y-90881760D01*
X121067281Y-90935265D01*
X120948534Y-90963057D01*
X120813879Y-90973266D01*
X120716387Y-90974333D01*
X120406583Y-90974333D01*
X120380125Y-91106624D01*
X120363612Y-91233271D01*
X120354374Y-91389679D01*
X120353666Y-91439191D01*
X119167088Y-91439191D01*
X119191858Y-91369358D01*
X119228895Y-91268979D01*
X119231955Y-91261224D01*
X119257834Y-91217302D01*
X119302198Y-91211932D01*
X119391494Y-91244145D01*
X119415841Y-91254485D01*
X119527067Y-91301967D01*
X119607319Y-91335998D01*
X119617650Y-91340327D01*
X119652273Y-91315309D01*
X119679487Y-91217539D01*
X119686768Y-91165058D01*
X119707500Y-91023674D01*
X119735076Y-90951905D01*
X119778837Y-90934734D01*
X119822674Y-90946608D01*
X119865858Y-90994018D01*
X119885652Y-91102675D01*
X119888000Y-91185999D01*
X119897399Y-91331287D01*
X119928203Y-91408050D01*
X119953325Y-91425391D01*
X120021303Y-91436439D01*
X120039712Y-91429399D01*
X120040661Y-91381894D01*
X120028175Y-91266846D01*
X120004855Y-91099844D01*
X119973304Y-90896478D01*
X119936127Y-90672337D01*
X119895925Y-90443011D01*
X119855303Y-90224090D01*
X119816863Y-90031163D01*
X119783207Y-89879820D01*
X119776409Y-89852500D01*
X119767725Y-89824105D01*
X120613545Y-89824105D01*
X120621091Y-89933728D01*
X120637382Y-89976231D01*
X120655380Y-89969886D01*
X120678424Y-89913105D01*
X120681538Y-89800572D01*
X120664918Y-89619771D01*
X120661369Y-89591002D01*
X120659613Y-89577063D01*
X120738042Y-89577063D01*
X120740866Y-89721748D01*
X120747656Y-89897300D01*
X120757545Y-90085870D01*
X120769666Y-90269609D01*
X120783149Y-90430670D01*
X120797129Y-90551203D01*
X120802874Y-90585121D01*
X120824287Y-90674663D01*
X120840277Y-90711726D01*
X120841574Y-90711219D01*
X120842888Y-90667024D01*
X120839027Y-90553604D01*
X120830697Y-90386199D01*
X120818604Y-90180047D01*
X120812645Y-90086684D01*
X120796816Y-89867765D01*
X120780355Y-89680252D01*
X120764857Y-89539750D01*
X120751916Y-89461858D01*
X120747767Y-89451684D01*
X120740053Y-89481092D01*
X120738042Y-89577063D01*
X120659613Y-89577063D01*
X120619645Y-89259833D01*
X120613655Y-89638716D01*
X120613545Y-89824105D01*
X119767725Y-89824105D01*
X119680860Y-89540105D01*
X119574369Y-89304442D01*
X119458538Y-89148843D01*
X119423662Y-89119343D01*
X119322487Y-89006057D01*
X119242537Y-88844143D01*
X119236893Y-88827570D01*
X119194428Y-88687791D01*
X119159302Y-88545460D01*
X119130857Y-88391149D01*
X119122864Y-88328500D01*
X119898227Y-88328500D01*
X119900409Y-88534148D01*
X119907547Y-88712508D01*
X119918240Y-88854979D01*
X119931090Y-88952958D01*
X119944698Y-88997845D01*
X119957663Y-88981038D01*
X119968587Y-88893936D01*
X119973983Y-88794166D01*
X119983740Y-88540166D01*
X120019656Y-88878833D01*
X120041957Y-89079069D01*
X120066333Y-89282532D01*
X120087622Y-89446182D01*
X120088202Y-89450333D01*
X120120833Y-89683166D01*
X120134893Y-89365666D01*
X120135804Y-89179233D01*
X120126411Y-88947267D01*
X120108578Y-88708023D01*
X120097779Y-88603666D01*
X120073247Y-88410193D01*
X120047742Y-88241557D01*
X120024824Y-88119803D01*
X120012318Y-88074500D01*
X119978033Y-87989833D01*
X119969342Y-88074500D01*
X119958119Y-88091335D01*
X119939744Y-88036346D01*
X119930333Y-87989833D01*
X119916965Y-87947448D01*
X119907161Y-87989552D01*
X119900917Y-88116179D01*
X119898231Y-88327363D01*
X119898227Y-88328500D01*
X119122864Y-88328500D01*
X119108436Y-88215431D01*
X119091381Y-88008878D01*
X119079037Y-87762060D01*
X119070746Y-87465551D01*
X119065850Y-87109922D01*
X119065557Y-87052158D01*
X120269000Y-87052158D01*
X120300798Y-87178488D01*
X120383981Y-87326997D01*
X120500233Y-87471799D01*
X120631238Y-87587008D01*
X120661164Y-87606380D01*
X120783344Y-87668506D01*
X120908623Y-87701606D01*
X121071921Y-87713596D01*
X121137112Y-87714266D01*
X121311778Y-87708450D01*
X121473745Y-87692886D01*
X121577928Y-87673309D01*
X121811371Y-87567449D01*
X122013951Y-87401738D01*
X122174196Y-87193138D01*
X122280634Y-86958614D01*
X122321794Y-86715127D01*
X122312929Y-86586442D01*
X122267259Y-86457591D01*
X122186044Y-86331384D01*
X122172165Y-86315702D01*
X122054979Y-86190255D01*
X121871073Y-86268966D01*
X121750589Y-86316483D01*
X121577291Y-86379771D01*
X121379008Y-86448817D01*
X121263833Y-86487454D01*
X120902302Y-86616781D01*
X120621101Y-86739342D01*
X120421216Y-86854577D01*
X120303637Y-86961924D01*
X120269000Y-87052158D01*
X119065557Y-87052158D01*
X119063718Y-86690397D01*
X119739174Y-86690397D01*
X119782476Y-86694465D01*
X119906346Y-86684108D01*
X120111684Y-86658305D01*
X120279861Y-86634166D01*
X120776820Y-86543381D01*
X121229383Y-86422396D01*
X121675432Y-86260975D01*
X121703927Y-86249323D01*
X121947980Y-86134739D01*
X122179698Y-86134739D01*
X122197802Y-86165211D01*
X122261991Y-86229510D01*
X122285532Y-86250657D01*
X122371256Y-86312834D01*
X122467744Y-86345598D01*
X122606198Y-86357691D01*
X122671050Y-86358662D01*
X122828360Y-86354100D01*
X122939432Y-86330325D01*
X123042407Y-86275138D01*
X123128868Y-86212220D01*
X123293704Y-86101917D01*
X123468163Y-86021083D01*
X123668556Y-85965935D01*
X123911191Y-85932689D01*
X124212377Y-85917562D01*
X124407551Y-85915595D01*
X124650835Y-85914124D01*
X124820142Y-85909112D01*
X124926120Y-85899526D01*
X124979422Y-85884332D01*
X124990698Y-85862497D01*
X124989634Y-85859120D01*
X124969483Y-85784421D01*
X124968000Y-85767912D01*
X124933952Y-85730641D01*
X124845162Y-85667942D01*
X124734542Y-85601326D01*
X124556995Y-85482408D01*
X124346348Y-85311540D01*
X124119956Y-85104768D01*
X123895171Y-84878134D01*
X123689348Y-84647682D01*
X123645282Y-84594306D01*
X123424713Y-84322449D01*
X123368916Y-84626793D01*
X123323626Y-84817791D01*
X123261523Y-85010652D01*
X123204924Y-85144652D01*
X123042839Y-85394983D01*
X122812899Y-85650022D01*
X122529785Y-85895592D01*
X122208176Y-86117517D01*
X122179698Y-86134739D01*
X121947980Y-86134739D01*
X122152974Y-86038494D01*
X122525099Y-85805580D01*
X122826288Y-85545665D01*
X123062526Y-85253834D01*
X123193195Y-85026424D01*
X123254234Y-84896919D01*
X123291894Y-84792158D01*
X123310755Y-84685273D01*
X123315394Y-84549397D01*
X123310392Y-84357661D01*
X123309824Y-84342106D01*
X123297711Y-84124375D01*
X123276139Y-83961148D01*
X123239083Y-83822334D01*
X123180520Y-83677840D01*
X123173970Y-83663488D01*
X123098952Y-83516641D01*
X123022406Y-83392926D01*
X122966378Y-83324821D01*
X122925365Y-83288994D01*
X122903154Y-83275757D01*
X122902639Y-83296441D01*
X122926715Y-83362373D01*
X122978275Y-83484884D01*
X123049617Y-83650666D01*
X123108528Y-83800079D01*
X123144272Y-83933020D01*
X123162340Y-84080791D01*
X123168221Y-84274694D01*
X123168426Y-84328000D01*
X123165389Y-84532216D01*
X123152353Y-84680927D01*
X123124161Y-84803157D01*
X123075658Y-84927928D01*
X123053094Y-84977219D01*
X122888637Y-85272097D01*
X122689815Y-85512804D01*
X122432357Y-85728346D01*
X122413131Y-85742093D01*
X121992589Y-85998841D01*
X121507757Y-86221526D01*
X120974271Y-86404011D01*
X120407770Y-86540159D01*
X120353666Y-86550302D01*
X120083686Y-86601857D01*
X119890677Y-86643071D01*
X119775540Y-86672925D01*
X119739174Y-86690397D01*
X119063718Y-86690397D01*
X119063694Y-86685745D01*
X119063636Y-86597153D01*
X119600139Y-86597153D01*
X119630418Y-86604356D01*
X119742185Y-86594339D01*
X119935843Y-86566683D01*
X120165242Y-86528978D01*
X120594026Y-86438993D01*
X121029721Y-86317337D01*
X121442454Y-86173428D01*
X121802353Y-86016682D01*
X121822909Y-86006423D01*
X122222697Y-85768266D01*
X122548696Y-85494366D01*
X122799434Y-85186588D01*
X122973437Y-84846796D01*
X123069235Y-84476857D01*
X123076924Y-84417509D01*
X123089166Y-84277147D01*
X123086304Y-84218319D01*
X123070549Y-84239679D01*
X123044113Y-84339885D01*
X123021374Y-84451266D01*
X122921409Y-84791111D01*
X122754800Y-85100828D01*
X122519244Y-85382061D01*
X122212436Y-85636454D01*
X121832073Y-85865655D01*
X121375852Y-86071306D01*
X120841467Y-86255053D01*
X120285795Y-86404497D01*
X119994175Y-86476402D01*
X119782422Y-86532758D01*
X119650942Y-86573148D01*
X119600139Y-86597153D01*
X119063636Y-86597153D01*
X119063465Y-86338833D01*
X119064037Y-85914782D01*
X119065446Y-85566699D01*
X119068048Y-85285882D01*
X119072200Y-85063635D01*
X119078257Y-84891257D01*
X119086576Y-84760050D01*
X119097513Y-84661315D01*
X119111422Y-84586354D01*
X119128662Y-84526467D01*
X119138767Y-84499140D01*
X119264684Y-84239133D01*
X119417831Y-84006972D01*
X123024008Y-84006972D01*
X123031792Y-84061879D01*
X123046243Y-84062534D01*
X123056348Y-84005876D01*
X123049585Y-83981395D01*
X123030787Y-83965360D01*
X123024008Y-84006972D01*
X119417831Y-84006972D01*
X119445326Y-83965292D01*
X119688729Y-83665979D01*
X119797785Y-83544840D01*
X119960917Y-83361828D01*
X120133712Y-83158433D01*
X120288289Y-82967797D01*
X120344961Y-82894364D01*
X120542373Y-82658792D01*
X120754333Y-82450885D01*
X120962622Y-82286894D01*
X121136833Y-82188133D01*
X121394504Y-82084768D01*
X121620462Y-82013328D01*
X121842339Y-81968544D01*
X122087767Y-81945146D01*
X122384377Y-81937865D01*
X122449166Y-81937870D01*
X122449166Y-81937870D01*
G37*
X122449166Y-81937870D02*
X123022107Y-81963740D01*
X123550972Y-82036619D01*
X124029343Y-82154524D01*
X124450803Y-82315469D01*
X124808936Y-82517470D01*
X125095000Y-82756144D01*
X125239489Y-82895314D01*
X125394495Y-83029695D01*
X125526466Y-83130199D01*
X125526496Y-83130219D01*
X125654624Y-83231946D01*
X125757522Y-83352166D01*
X125837641Y-83500508D01*
X125897435Y-83686600D01*
X125939356Y-83920072D01*
X125965857Y-84210552D01*
X125979390Y-84567672D01*
X125982531Y-84920666D01*
X125977446Y-85422936D01*
X125960413Y-85859880D01*
X125928768Y-86250328D01*
X125879845Y-86613109D01*
X125810981Y-86967055D01*
X125719510Y-87330994D01*
X125602769Y-87723758D01*
X125572366Y-87819209D01*
X125382063Y-88410585D01*
X125434106Y-89004542D01*
X125453395Y-89289620D01*
X125466644Y-89617220D01*
X125472585Y-89945336D01*
X125470490Y-90212333D01*
X125463773Y-90452847D01*
X125455682Y-90626810D01*
X125442896Y-90752312D01*
X125422097Y-90847447D01*
X125389963Y-90930307D01*
X125343175Y-91018983D01*
X125312706Y-91072094D01*
X125244477Y-91199355D01*
X125202251Y-91296545D01*
X125195167Y-91342611D01*
X125238237Y-91331160D01*
X125328882Y-91278090D01*
X125448415Y-91194490D01*
X125462235Y-91184126D01*
X125614753Y-91078102D01*
X125740658Y-91017581D01*
X125873197Y-90988187D01*
X125928605Y-90982485D01*
X126066623Y-90976340D01*
X126151527Y-90992265D01*
X126213705Y-91038334D01*
X126236818Y-91064375D01*
X126310378Y-91171430D01*
X126413244Y-91350643D01*
X126542328Y-91595948D01*
X126694544Y-91901281D01*
X126866806Y-92260574D01*
X127056024Y-92667761D01*
X127085027Y-92731166D01*
X127263256Y-93122792D01*
X127408108Y-93444118D01*
X127522216Y-93701469D01*
X127608215Y-93901171D01*
X127668736Y-94049552D01*
X127706414Y-94152936D01*
X127723881Y-94217651D01*
X127723772Y-94250023D01*
X127719444Y-94255303D01*
X127668356Y-94271466D01*
X127548583Y-94302708D01*
X127374056Y-94345598D01*
X127158709Y-94396703D01*
X126944381Y-94446230D01*
X126205170Y-94615000D01*
X123078335Y-94611943D01*
X119951500Y-94608887D01*
X119210666Y-94446012D01*
X118963273Y-94390605D01*
X118737736Y-94338200D01*
X118549960Y-94292640D01*
X118415851Y-94257768D01*
X118356646Y-94239677D01*
X118243459Y-94196218D01*
X118390914Y-93725397D01*
X118437233Y-93581329D01*
X118503325Y-93380978D01*
X118584590Y-93137822D01*
X118676427Y-92865339D01*
X118774237Y-92577007D01*
X118873418Y-92286305D01*
X118969371Y-92006711D01*
X119057496Y-91751703D01*
X119133192Y-91534759D01*
X119167088Y-91439191D01*
X120353666Y-91439191D01*
X120353666Y-91639467D01*
X121610465Y-92425982D01*
X122867264Y-93212496D01*
X123018048Y-93096264D01*
X123092641Y-93038401D01*
X123222929Y-92936947D01*
X123397924Y-92800476D01*
X123606633Y-92637562D01*
X123838066Y-92456780D01*
X124026083Y-92309826D01*
X124883333Y-91639619D01*
X124883333Y-90984509D01*
X124634263Y-90966493D01*
X124401585Y-90922986D01*
X124155395Y-90833074D01*
X123925661Y-90710813D01*
X123742351Y-90570262D01*
X123703931Y-90530120D01*
X123565439Y-90308846D01*
X123495388Y-90040509D01*
X123486569Y-89892341D01*
X123487987Y-89874688D01*
X124511099Y-89874688D01*
X124521012Y-89984540D01*
X124546228Y-90154864D01*
X124570095Y-90289282D01*
X124603549Y-90451044D01*
X124632830Y-90561463D01*
X124654367Y-90608743D01*
X124663132Y-90596722D01*
X124662118Y-90509056D01*
X124645141Y-90365419D01*
X124615590Y-90192263D01*
X124603904Y-90134335D01*
X124562893Y-89955132D01*
X124533069Y-89855268D01*
X124515462Y-89830025D01*
X124511099Y-89874688D01*
X123487987Y-89874688D01*
X123497076Y-89761570D01*
X123538519Y-89660831D01*
X123625158Y-89571591D01*
X123771250Y-89475318D01*
X123835871Y-89438322D01*
X123986052Y-89342269D01*
X124087848Y-89266692D01*
X124505016Y-89266692D01*
X124512598Y-89364776D01*
X124535622Y-89519123D01*
X124569109Y-89703830D01*
X124608085Y-89892992D01*
X124647571Y-90060706D01*
X124678257Y-90168380D01*
X124715716Y-90264904D01*
X124737632Y-90286290D01*
X124744119Y-90240606D01*
X124735296Y-90135920D01*
X124711279Y-89980300D01*
X124672717Y-89784303D01*
X124631325Y-89598500D01*
X125056328Y-89598500D01*
X125060756Y-89709130D01*
X125075955Y-89857647D01*
X125098711Y-90024835D01*
X125125810Y-90191472D01*
X125154037Y-90338341D01*
X125180177Y-90446224D01*
X125201017Y-90495900D01*
X125206439Y-90496004D01*
X125208280Y-90449094D01*
X125198899Y-90336327D01*
X125180083Y-90175507D01*
X125158354Y-90016727D01*
X125122443Y-89776306D01*
X125095619Y-89615073D01*
X125076697Y-89528174D01*
X125064494Y-89510757D01*
X125057826Y-89557967D01*
X125056328Y-89598500D01*
X124631325Y-89598500D01*
X124630529Y-89594927D01*
X124590552Y-89428856D01*
X124584969Y-89408000D01*
X125010333Y-89408000D01*
X125025822Y-89442845D01*
X125038555Y-89436222D01*
X125043622Y-89385982D01*
X125038555Y-89379777D01*
X125013388Y-89385588D01*
X125010333Y-89408000D01*
X124584969Y-89408000D01*
X124558389Y-89308724D01*
X124544576Y-89266607D01*
X124507700Y-89175166D01*
X124505016Y-89266692D01*
X124087848Y-89266692D01*
X124163292Y-89210680D01*
X124352328Y-89057036D01*
X124537897Y-88894816D01*
X124704735Y-88737500D01*
X124837580Y-88598568D01*
X124921168Y-88491501D01*
X124933904Y-88468571D01*
X124966285Y-88375810D01*
X125008692Y-88219836D01*
X125056627Y-88020850D01*
X125105597Y-87799052D01*
X125151104Y-87574642D01*
X125188653Y-87367820D01*
X125210044Y-87227833D01*
X125216924Y-87158483D01*
X125206216Y-87154084D01*
X125170990Y-87219630D01*
X125144435Y-87275081D01*
X125007009Y-87472277D01*
X124801856Y-87639249D01*
X124617831Y-87734523D01*
X124465678Y-87773994D01*
X124264516Y-87794710D01*
X124048036Y-87796052D01*
X123849931Y-87777399D01*
X123736067Y-87750732D01*
X123488497Y-87625958D01*
X123266594Y-87436582D01*
X123088631Y-87202343D01*
X122972880Y-86942981D01*
X122966088Y-86918894D01*
X122917591Y-86795201D01*
X123069936Y-86795201D01*
X123123860Y-87019676D01*
X123164885Y-87112823D01*
X123330665Y-87363979D01*
X123538583Y-87545219D01*
X123794078Y-87659663D01*
X124102587Y-87710432D01*
X124211799Y-87713736D01*
X124385215Y-87710846D01*
X124505493Y-87695540D01*
X124604050Y-87659678D01*
X124712306Y-87595121D01*
X124739322Y-87577083D01*
X124923819Y-87425119D01*
X125042620Y-87252791D01*
X125108383Y-87037650D01*
X125111496Y-87012638D01*
X125225342Y-87012638D01*
X125233125Y-87067545D01*
X125247576Y-87068201D01*
X125257682Y-87011542D01*
X125250918Y-86987062D01*
X125232121Y-86971027D01*
X125225342Y-87012638D01*
X125111496Y-87012638D01*
X125126779Y-86889886D01*
X125134509Y-86727579D01*
X125121308Y-86612092D01*
X125080260Y-86506744D01*
X125041233Y-86436289D01*
X124887346Y-86252589D01*
X124783218Y-86183611D01*
X125052666Y-86183611D01*
X125086376Y-86251084D01*
X125143060Y-86275333D01*
X125160277Y-86244021D01*
X125152642Y-86211833D01*
X125111888Y-86159018D01*
X125067693Y-86151429D01*
X125052666Y-86183611D01*
X124783218Y-86183611D01*
X124674665Y-86111702D01*
X124423574Y-86026444D01*
X124376160Y-86018039D01*
X124138527Y-86005173D01*
X123886759Y-86031011D01*
X123640657Y-86089507D01*
X123420023Y-86174617D01*
X123244658Y-86280297D01*
X123136750Y-86396380D01*
X123073894Y-86578813D01*
X123069936Y-86795201D01*
X122917591Y-86795201D01*
X122896173Y-86740576D01*
X122802176Y-86620892D01*
X122694178Y-86572165D01*
X122682000Y-86571666D01*
X122581618Y-86608054D01*
X122490160Y-86697225D01*
X122434367Y-86809192D01*
X122428000Y-86856502D01*
X122392011Y-87023432D01*
X122294437Y-87207299D01*
X122150863Y-87390213D01*
X121976876Y-87554284D01*
X121788063Y-87681624D01*
X121660193Y-87737762D01*
X121449027Y-87783478D01*
X121210084Y-87797022D01*
X120972063Y-87780029D01*
X120763666Y-87734134D01*
X120640754Y-87679700D01*
X120541682Y-87622129D01*
X120474985Y-87590049D01*
X120465086Y-87587666D01*
X120454478Y-87627189D01*
X120445859Y-87734531D01*
X120440171Y-87892851D01*
X120438333Y-88066990D01*
X120438333Y-88546314D01*
X120787583Y-88883577D01*
X121021894Y-89104985D01*
X121213791Y-89273669D01*
X121377252Y-89400061D01*
X121526254Y-89494592D01*
X121674773Y-89567693D01*
X121739954Y-89594353D01*
X121983500Y-89689130D01*
X121983500Y-89968284D01*
X121964865Y-90187797D01*
X121902229Y-90367800D01*
X121785490Y-90522035D01*
X121604549Y-90664244D01*
X121376308Y-90794416D01*
X121199935Y-90881760D01*
X121067281Y-90935265D01*
X120948534Y-90963057D01*
X120813879Y-90973266D01*
X120716387Y-90974333D01*
X120406583Y-90974333D01*
X120380125Y-91106624D01*
X120363612Y-91233271D01*
X120354374Y-91389679D01*
X120353666Y-91439191D01*
X119167088Y-91439191D01*
X119191858Y-91369358D01*
X119228895Y-91268979D01*
X119231955Y-91261224D01*
X119257834Y-91217302D01*
X119302198Y-91211932D01*
X119391494Y-91244145D01*
X119415841Y-91254485D01*
X119527067Y-91301967D01*
X119607319Y-91335998D01*
X119617650Y-91340327D01*
X119652273Y-91315309D01*
X119679487Y-91217539D01*
X119686768Y-91165058D01*
X119707500Y-91023674D01*
X119735076Y-90951905D01*
X119778837Y-90934734D01*
X119822674Y-90946608D01*
X119865858Y-90994018D01*
X119885652Y-91102675D01*
X119888000Y-91185999D01*
X119897399Y-91331287D01*
X119928203Y-91408050D01*
X119953325Y-91425391D01*
X120021303Y-91436439D01*
X120039712Y-91429399D01*
X120040661Y-91381894D01*
X120028175Y-91266846D01*
X120004855Y-91099844D01*
X119973304Y-90896478D01*
X119936127Y-90672337D01*
X119895925Y-90443011D01*
X119855303Y-90224090D01*
X119816863Y-90031163D01*
X119783207Y-89879820D01*
X119776409Y-89852500D01*
X119767725Y-89824105D01*
X120613545Y-89824105D01*
X120621091Y-89933728D01*
X120637382Y-89976231D01*
X120655380Y-89969886D01*
X120678424Y-89913105D01*
X120681538Y-89800572D01*
X120664918Y-89619771D01*
X120661369Y-89591002D01*
X120659613Y-89577063D01*
X120738042Y-89577063D01*
X120740866Y-89721748D01*
X120747656Y-89897300D01*
X120757545Y-90085870D01*
X120769666Y-90269609D01*
X120783149Y-90430670D01*
X120797129Y-90551203D01*
X120802874Y-90585121D01*
X120824287Y-90674663D01*
X120840277Y-90711726D01*
X120841574Y-90711219D01*
X120842888Y-90667024D01*
X120839027Y-90553604D01*
X120830697Y-90386199D01*
X120818604Y-90180047D01*
X120812645Y-90086684D01*
X120796816Y-89867765D01*
X120780355Y-89680252D01*
X120764857Y-89539750D01*
X120751916Y-89461858D01*
X120747767Y-89451684D01*
X120740053Y-89481092D01*
X120738042Y-89577063D01*
X120659613Y-89577063D01*
X120619645Y-89259833D01*
X120613655Y-89638716D01*
X120613545Y-89824105D01*
X119767725Y-89824105D01*
X119680860Y-89540105D01*
X119574369Y-89304442D01*
X119458538Y-89148843D01*
X119423662Y-89119343D01*
X119322487Y-89006057D01*
X119242537Y-88844143D01*
X119236893Y-88827570D01*
X119194428Y-88687791D01*
X119159302Y-88545460D01*
X119130857Y-88391149D01*
X119122864Y-88328500D01*
X119898227Y-88328500D01*
X119900409Y-88534148D01*
X119907547Y-88712508D01*
X119918240Y-88854979D01*
X119931090Y-88952958D01*
X119944698Y-88997845D01*
X119957663Y-88981038D01*
X119968587Y-88893936D01*
X119973983Y-88794166D01*
X119983740Y-88540166D01*
X120019656Y-88878833D01*
X120041957Y-89079069D01*
X120066333Y-89282532D01*
X120087622Y-89446182D01*
X120088202Y-89450333D01*
X120120833Y-89683166D01*
X120134893Y-89365666D01*
X120135804Y-89179233D01*
X120126411Y-88947267D01*
X120108578Y-88708023D01*
X120097779Y-88603666D01*
X120073247Y-88410193D01*
X120047742Y-88241557D01*
X120024824Y-88119803D01*
X120012318Y-88074500D01*
X119978033Y-87989833D01*
X119969342Y-88074500D01*
X119958119Y-88091335D01*
X119939744Y-88036346D01*
X119930333Y-87989833D01*
X119916965Y-87947448D01*
X119907161Y-87989552D01*
X119900917Y-88116179D01*
X119898231Y-88327363D01*
X119898227Y-88328500D01*
X119122864Y-88328500D01*
X119108436Y-88215431D01*
X119091381Y-88008878D01*
X119079037Y-87762060D01*
X119070746Y-87465551D01*
X119065850Y-87109922D01*
X119065557Y-87052158D01*
X120269000Y-87052158D01*
X120300798Y-87178488D01*
X120383981Y-87326997D01*
X120500233Y-87471799D01*
X120631238Y-87587008D01*
X120661164Y-87606380D01*
X120783344Y-87668506D01*
X120908623Y-87701606D01*
X121071921Y-87713596D01*
X121137112Y-87714266D01*
X121311778Y-87708450D01*
X121473745Y-87692886D01*
X121577928Y-87673309D01*
X121811371Y-87567449D01*
X122013951Y-87401738D01*
X122174196Y-87193138D01*
X122280634Y-86958614D01*
X122321794Y-86715127D01*
X122312929Y-86586442D01*
X122267259Y-86457591D01*
X122186044Y-86331384D01*
X122172165Y-86315702D01*
X122054979Y-86190255D01*
X121871073Y-86268966D01*
X121750589Y-86316483D01*
X121577291Y-86379771D01*
X121379008Y-86448817D01*
X121263833Y-86487454D01*
X120902302Y-86616781D01*
X120621101Y-86739342D01*
X120421216Y-86854577D01*
X120303637Y-86961924D01*
X120269000Y-87052158D01*
X119065557Y-87052158D01*
X119063718Y-86690397D01*
X119739174Y-86690397D01*
X119782476Y-86694465D01*
X119906346Y-86684108D01*
X120111684Y-86658305D01*
X120279861Y-86634166D01*
X120776820Y-86543381D01*
X121229383Y-86422396D01*
X121675432Y-86260975D01*
X121703927Y-86249323D01*
X121947980Y-86134739D01*
X122179698Y-86134739D01*
X122197802Y-86165211D01*
X122261991Y-86229510D01*
X122285532Y-86250657D01*
X122371256Y-86312834D01*
X122467744Y-86345598D01*
X122606198Y-86357691D01*
X122671050Y-86358662D01*
X122828360Y-86354100D01*
X122939432Y-86330325D01*
X123042407Y-86275138D01*
X123128868Y-86212220D01*
X123293704Y-86101917D01*
X123468163Y-86021083D01*
X123668556Y-85965935D01*
X123911191Y-85932689D01*
X124212377Y-85917562D01*
X124407551Y-85915595D01*
X124650835Y-85914124D01*
X124820142Y-85909112D01*
X124926120Y-85899526D01*
X124979422Y-85884332D01*
X124990698Y-85862497D01*
X124989634Y-85859120D01*
X124969483Y-85784421D01*
X124968000Y-85767912D01*
X124933952Y-85730641D01*
X124845162Y-85667942D01*
X124734542Y-85601326D01*
X124556995Y-85482408D01*
X124346348Y-85311540D01*
X124119956Y-85104768D01*
X123895171Y-84878134D01*
X123689348Y-84647682D01*
X123645282Y-84594306D01*
X123424713Y-84322449D01*
X123368916Y-84626793D01*
X123323626Y-84817791D01*
X123261523Y-85010652D01*
X123204924Y-85144652D01*
X123042839Y-85394983D01*
X122812899Y-85650022D01*
X122529785Y-85895592D01*
X122208176Y-86117517D01*
X122179698Y-86134739D01*
X121947980Y-86134739D01*
X122152974Y-86038494D01*
X122525099Y-85805580D01*
X122826288Y-85545665D01*
X123062526Y-85253834D01*
X123193195Y-85026424D01*
X123254234Y-84896919D01*
X123291894Y-84792158D01*
X123310755Y-84685273D01*
X123315394Y-84549397D01*
X123310392Y-84357661D01*
X123309824Y-84342106D01*
X123297711Y-84124375D01*
X123276139Y-83961148D01*
X123239083Y-83822334D01*
X123180520Y-83677840D01*
X123173970Y-83663488D01*
X123098952Y-83516641D01*
X123022406Y-83392926D01*
X122966378Y-83324821D01*
X122925365Y-83288994D01*
X122903154Y-83275757D01*
X122902639Y-83296441D01*
X122926715Y-83362373D01*
X122978275Y-83484884D01*
X123049617Y-83650666D01*
X123108528Y-83800079D01*
X123144272Y-83933020D01*
X123162340Y-84080791D01*
X123168221Y-84274694D01*
X123168426Y-84328000D01*
X123165389Y-84532216D01*
X123152353Y-84680927D01*
X123124161Y-84803157D01*
X123075658Y-84927928D01*
X123053094Y-84977219D01*
X122888637Y-85272097D01*
X122689815Y-85512804D01*
X122432357Y-85728346D01*
X122413131Y-85742093D01*
X121992589Y-85998841D01*
X121507757Y-86221526D01*
X120974271Y-86404011D01*
X120407770Y-86540159D01*
X120353666Y-86550302D01*
X120083686Y-86601857D01*
X119890677Y-86643071D01*
X119775540Y-86672925D01*
X119739174Y-86690397D01*
X119063718Y-86690397D01*
X119063694Y-86685745D01*
X119063636Y-86597153D01*
X119600139Y-86597153D01*
X119630418Y-86604356D01*
X119742185Y-86594339D01*
X119935843Y-86566683D01*
X120165242Y-86528978D01*
X120594026Y-86438993D01*
X121029721Y-86317337D01*
X121442454Y-86173428D01*
X121802353Y-86016682D01*
X121822909Y-86006423D01*
X122222697Y-85768266D01*
X122548696Y-85494366D01*
X122799434Y-85186588D01*
X122973437Y-84846796D01*
X123069235Y-84476857D01*
X123076924Y-84417509D01*
X123089166Y-84277147D01*
X123086304Y-84218319D01*
X123070549Y-84239679D01*
X123044113Y-84339885D01*
X123021374Y-84451266D01*
X122921409Y-84791111D01*
X122754800Y-85100828D01*
X122519244Y-85382061D01*
X122212436Y-85636454D01*
X121832073Y-85865655D01*
X121375852Y-86071306D01*
X120841467Y-86255053D01*
X120285795Y-86404497D01*
X119994175Y-86476402D01*
X119782422Y-86532758D01*
X119650942Y-86573148D01*
X119600139Y-86597153D01*
X119063636Y-86597153D01*
X119063465Y-86338833D01*
X119064037Y-85914782D01*
X119065446Y-85566699D01*
X119068048Y-85285882D01*
X119072200Y-85063635D01*
X119078257Y-84891257D01*
X119086576Y-84760050D01*
X119097513Y-84661315D01*
X119111422Y-84586354D01*
X119128662Y-84526467D01*
X119138767Y-84499140D01*
X119264684Y-84239133D01*
X119417831Y-84006972D01*
X123024008Y-84006972D01*
X123031792Y-84061879D01*
X123046243Y-84062534D01*
X123056348Y-84005876D01*
X123049585Y-83981395D01*
X123030787Y-83965360D01*
X123024008Y-84006972D01*
X119417831Y-84006972D01*
X119445326Y-83965292D01*
X119688729Y-83665979D01*
X119797785Y-83544840D01*
X119960917Y-83361828D01*
X120133712Y-83158433D01*
X120288289Y-82967797D01*
X120344961Y-82894364D01*
X120542373Y-82658792D01*
X120754333Y-82450885D01*
X120962622Y-82286894D01*
X121136833Y-82188133D01*
X121394504Y-82084768D01*
X121620462Y-82013328D01*
X121842339Y-81968544D01*
X122087767Y-81945146D01*
X122384377Y-81937865D01*
X122449166Y-81937870D01*
G04 #@! TO.C,P1*
D11*
X147089904Y-121737380D02*
X147089904Y-120737380D01*
X147470857Y-120737380D01*
X147566095Y-120785000D01*
X147613714Y-120832619D01*
X147661333Y-120927857D01*
X147661333Y-121070714D01*
X147613714Y-121165952D01*
X147566095Y-121213571D01*
X147470857Y-121261190D01*
X147089904Y-121261190D01*
X148613714Y-121737380D02*
X148042285Y-121737380D01*
X148328000Y-121737380D02*
X148328000Y-120737380D01*
X148232761Y-120880238D01*
X148137523Y-120975476D01*
X148042285Y-121023095D01*
G04 #@! TO.C,P2*
X167663904Y-121737380D02*
X167663904Y-120737380D01*
X168044857Y-120737380D01*
X168140095Y-120785000D01*
X168187714Y-120832619D01*
X168235333Y-120927857D01*
X168235333Y-121070714D01*
X168187714Y-121165952D01*
X168140095Y-121213571D01*
X168044857Y-121261190D01*
X167663904Y-121261190D01*
X168616285Y-120832619D02*
X168663904Y-120785000D01*
X168759142Y-120737380D01*
X168997238Y-120737380D01*
X169092476Y-120785000D01*
X169140095Y-120832619D01*
X169187714Y-120927857D01*
X169187714Y-121023095D01*
X169140095Y-121165952D01*
X168568666Y-121737380D01*
X169187714Y-121737380D01*
G04 #@! TO.C,P3*
X140485904Y-78811380D02*
X140485904Y-77811380D01*
X140866857Y-77811380D01*
X140962095Y-77859000D01*
X141009714Y-77906619D01*
X141057333Y-78001857D01*
X141057333Y-78144714D01*
X141009714Y-78239952D01*
X140962095Y-78287571D01*
X140866857Y-78335190D01*
X140485904Y-78335190D01*
X141390666Y-77811380D02*
X142009714Y-77811380D01*
X141676380Y-78192333D01*
X141819238Y-78192333D01*
X141914476Y-78239952D01*
X141962095Y-78287571D01*
X142009714Y-78382809D01*
X142009714Y-78620904D01*
X141962095Y-78716142D01*
X141914476Y-78763761D01*
X141819238Y-78811380D01*
X141533523Y-78811380D01*
X141438285Y-78763761D01*
X141390666Y-78716142D01*
G04 #@! TO.C,P4*
X164869904Y-78811380D02*
X164869904Y-77811380D01*
X165250857Y-77811380D01*
X165346095Y-77859000D01*
X165393714Y-77906619D01*
X165441333Y-78001857D01*
X165441333Y-78144714D01*
X165393714Y-78239952D01*
X165346095Y-78287571D01*
X165250857Y-78335190D01*
X164869904Y-78335190D01*
X166298476Y-78144714D02*
X166298476Y-78811380D01*
X166060380Y-77763761D02*
X165822285Y-78478047D01*
X166441333Y-78478047D01*
G04 #@! TO.C,J1*
X115744666Y-73747380D02*
X115744666Y-74461666D01*
X115697047Y-74604523D01*
X115601809Y-74699761D01*
X115458952Y-74747380D01*
X115363714Y-74747380D01*
X116744666Y-74747380D02*
X116173238Y-74747380D01*
X116458952Y-74747380D02*
X116458952Y-73747380D01*
X116363714Y-73890238D01*
X116268476Y-73985476D01*
X116173238Y-74033095D01*
G04 #@! TO.C,J2*
X110664666Y-108037380D02*
X110664666Y-108751666D01*
X110617047Y-108894523D01*
X110521809Y-108989761D01*
X110378952Y-109037380D01*
X110283714Y-109037380D01*
X111093238Y-108132619D02*
X111140857Y-108085000D01*
X111236095Y-108037380D01*
X111474190Y-108037380D01*
X111569428Y-108085000D01*
X111617047Y-108132619D01*
X111664666Y-108227857D01*
X111664666Y-108323095D01*
X111617047Y-108465952D01*
X111045619Y-109037380D01*
X111664666Y-109037380D01*
G04 #@! TO.C,U1*
X149606095Y-94067380D02*
X149606095Y-94876904D01*
X149653714Y-94972142D01*
X149701333Y-95019761D01*
X149796571Y-95067380D01*
X149987047Y-95067380D01*
X150082285Y-95019761D01*
X150129904Y-94972142D01*
X150177523Y-94876904D01*
X150177523Y-94067380D01*
X151177523Y-95067380D02*
X150606095Y-95067380D01*
X150891809Y-95067380D02*
X150891809Y-94067380D01*
X150796571Y-94210238D01*
X150701333Y-94305476D01*
X150606095Y-94353095D01*
X168656095Y-101735000D02*
X168560857Y-101687380D01*
X168418000Y-101687380D01*
X168275142Y-101735000D01*
X168179904Y-101830238D01*
X168132285Y-101925476D01*
X168084666Y-102115952D01*
X168084666Y-102258809D01*
X168132285Y-102449285D01*
X168179904Y-102544523D01*
X168275142Y-102639761D01*
X168418000Y-102687380D01*
X168513238Y-102687380D01*
X168656095Y-102639761D01*
X168703714Y-102592142D01*
X168703714Y-102258809D01*
X168513238Y-102258809D01*
X169132285Y-102687380D02*
X169132285Y-101687380D01*
X169703714Y-102687380D01*
X169703714Y-101687380D01*
X170179904Y-102687380D02*
X170179904Y-101687380D01*
X170418000Y-101687380D01*
X170560857Y-101735000D01*
X170656095Y-101830238D01*
X170703714Y-101925476D01*
X170751333Y-102115952D01*
X170751333Y-102258809D01*
X170703714Y-102449285D01*
X170656095Y-102544523D01*
X170560857Y-102639761D01*
X170418000Y-102687380D01*
X170179904Y-102687380D01*
X168775142Y-105227380D02*
X168775142Y-104227380D01*
X169013238Y-104227380D01*
X169156095Y-104275000D01*
X169251333Y-104370238D01*
X169298952Y-104465476D01*
X169346571Y-104655952D01*
X169346571Y-104798809D01*
X169298952Y-104989285D01*
X169251333Y-105084523D01*
X169156095Y-105179761D01*
X169013238Y-105227380D01*
X168775142Y-105227380D01*
X169632285Y-104227380D02*
X170203714Y-104227380D01*
X169918000Y-105227380D02*
X169918000Y-104227380D01*
X168132285Y-107719761D02*
X168275142Y-107767380D01*
X168513238Y-107767380D01*
X168608476Y-107719761D01*
X168656095Y-107672142D01*
X168703714Y-107576904D01*
X168703714Y-107481666D01*
X168656095Y-107386428D01*
X168608476Y-107338809D01*
X168513238Y-107291190D01*
X168322761Y-107243571D01*
X168227523Y-107195952D01*
X168179904Y-107148333D01*
X168132285Y-107053095D01*
X168132285Y-106957857D01*
X168179904Y-106862619D01*
X168227523Y-106815000D01*
X168322761Y-106767380D01*
X168560857Y-106767380D01*
X168703714Y-106815000D01*
X169703714Y-107672142D02*
X169656095Y-107719761D01*
X169513238Y-107767380D01*
X169418000Y-107767380D01*
X169275142Y-107719761D01*
X169179904Y-107624523D01*
X169132285Y-107529285D01*
X169084666Y-107338809D01*
X169084666Y-107195952D01*
X169132285Y-107005476D01*
X169179904Y-106910238D01*
X169275142Y-106815000D01*
X169418000Y-106767380D01*
X169513238Y-106767380D01*
X169656095Y-106815000D01*
X169703714Y-106862619D01*
X170132285Y-107767380D02*
X170132285Y-106767380D01*
X170703714Y-107767380D02*
X170275142Y-107195952D01*
X170703714Y-106767380D02*
X170132285Y-107338809D01*
X168084666Y-109307380D02*
X168418000Y-110307380D01*
X168751333Y-109307380D01*
X169656095Y-110212142D02*
X169608476Y-110259761D01*
X169465619Y-110307380D01*
X169370380Y-110307380D01*
X169227523Y-110259761D01*
X169132285Y-110164523D01*
X169084666Y-110069285D01*
X169037047Y-109878809D01*
X169037047Y-109735952D01*
X169084666Y-109545476D01*
X169132285Y-109450238D01*
X169227523Y-109355000D01*
X169370380Y-109307380D01*
X169465619Y-109307380D01*
X169608476Y-109355000D01*
X169656095Y-109402619D01*
X170656095Y-110212142D02*
X170608476Y-110259761D01*
X170465619Y-110307380D01*
X170370380Y-110307380D01*
X170227523Y-110259761D01*
X170132285Y-110164523D01*
X170084666Y-110069285D01*
X170037047Y-109878809D01*
X170037047Y-109735952D01*
X170084666Y-109545476D01*
X170132285Y-109450238D01*
X170227523Y-109355000D01*
X170370380Y-109307380D01*
X170465619Y-109307380D01*
X170608476Y-109355000D01*
X170656095Y-109402619D01*
X130770380Y-109783571D02*
X130913238Y-109831190D01*
X130960857Y-109878809D01*
X131008476Y-109974047D01*
X131008476Y-110116904D01*
X130960857Y-110212142D01*
X130913238Y-110259761D01*
X130818000Y-110307380D01*
X130437047Y-110307380D01*
X130437047Y-109307380D01*
X130770380Y-109307380D01*
X130865619Y-109355000D01*
X130913238Y-109402619D01*
X130960857Y-109497857D01*
X130960857Y-109593095D01*
X130913238Y-109688333D01*
X130865619Y-109735952D01*
X130770380Y-109783571D01*
X130437047Y-109783571D01*
X131437047Y-109926428D02*
X132198952Y-109926428D01*
X130484666Y-102163571D02*
X130818000Y-102163571D01*
X130960857Y-102687380D02*
X130484666Y-102687380D01*
X130484666Y-101687380D01*
X130960857Y-101687380D01*
X131389428Y-102306428D02*
X132151333Y-102306428D01*
X130460857Y-104941666D02*
X130937047Y-104941666D01*
X130365619Y-105227380D02*
X130698952Y-104227380D01*
X131032285Y-105227380D01*
X131365619Y-104846428D02*
X132127523Y-104846428D01*
X130460857Y-107481666D02*
X130937047Y-107481666D01*
X130365619Y-107767380D02*
X130698952Y-106767380D01*
X131032285Y-107767380D01*
X131365619Y-107386428D02*
X132127523Y-107386428D01*
X131746571Y-107767380D02*
X131746571Y-107005476D01*
X130484666Y-99623571D02*
X130818000Y-99623571D01*
X130960857Y-100147380D02*
X130484666Y-100147380D01*
X130484666Y-99147380D01*
X130960857Y-99147380D01*
X131389428Y-99766428D02*
X132151333Y-99766428D01*
X131770380Y-100147380D02*
X131770380Y-99385476D01*
X130770380Y-112323571D02*
X130913238Y-112371190D01*
X130960857Y-112418809D01*
X131008476Y-112514047D01*
X131008476Y-112656904D01*
X130960857Y-112752142D01*
X130913238Y-112799761D01*
X130818000Y-112847380D01*
X130437047Y-112847380D01*
X130437047Y-111847380D01*
X130770380Y-111847380D01*
X130865619Y-111895000D01*
X130913238Y-111942619D01*
X130960857Y-112037857D01*
X130960857Y-112133095D01*
X130913238Y-112228333D01*
X130865619Y-112275952D01*
X130770380Y-112323571D01*
X130437047Y-112323571D01*
X131437047Y-112466428D02*
X132198952Y-112466428D01*
X131818000Y-112847380D02*
X131818000Y-112085476D01*
G04 #@! TD*
M02*
