G04 #@! TF.GenerationSoftware,KiCad,Pcbnew,5.0.2+dfsg1-1*
G04 #@! TF.CreationDate,2019-07-24T00:12:58-07:00*
G04 #@! TF.ProjectId,WeightAndMotionSensorShield,57656967-6874-4416-9e64-4d6f74696f6e,v01*
G04 #@! TF.SameCoordinates,Original*
G04 #@! TF.FileFunction,Soldermask,Top*
G04 #@! TF.FilePolarity,Negative*
%FSLAX46Y46*%
G04 Gerber Fmt 4.6, Leading zero omitted, Abs format (unit mm)*
G04 Created by KiCad (PCBNEW 5.0.2+dfsg1-1) date Wed 24 Jul 2019 12:12:58 AM PDT*
%MOMM*%
%LPD*%
G01*
G04 APERTURE LIST*
%ADD10C,0.100000*%
G04 APERTURE END LIST*
D10*
G36*
X125575528Y-121822240D02*
X125575531Y-121822241D01*
X125575530Y-121822241D01*
X125954576Y-121979246D01*
X125954577Y-121979247D01*
X126295711Y-122207185D01*
X126585815Y-122497289D01*
X126585817Y-122497292D01*
X126813754Y-122838424D01*
X126890163Y-123022893D01*
X126970760Y-123217472D01*
X127050800Y-123619861D01*
X127050800Y-124030139D01*
X126970760Y-124432528D01*
X126970759Y-124432530D01*
X126813754Y-124811576D01*
X126768990Y-124878570D01*
X126585815Y-125152711D01*
X126295711Y-125442815D01*
X126295708Y-125442817D01*
X125954576Y-125670754D01*
X125661400Y-125792191D01*
X125575528Y-125827760D01*
X125173139Y-125907800D01*
X124762861Y-125907800D01*
X124360472Y-125827760D01*
X124274600Y-125792191D01*
X123981424Y-125670754D01*
X123640292Y-125442817D01*
X123640289Y-125442815D01*
X123350185Y-125152711D01*
X123167010Y-124878570D01*
X123122246Y-124811576D01*
X122965241Y-124432530D01*
X122965240Y-124432528D01*
X122885200Y-124030139D01*
X122885200Y-123619861D01*
X122965240Y-123217472D01*
X123045837Y-123022893D01*
X123122246Y-122838424D01*
X123350183Y-122497292D01*
X123350185Y-122497289D01*
X123640289Y-122207185D01*
X123981423Y-121979247D01*
X123981424Y-121979246D01*
X124360470Y-121822241D01*
X124360469Y-121822241D01*
X124360472Y-121822240D01*
X124762861Y-121742200D01*
X125173139Y-121742200D01*
X125575528Y-121822240D01*
X125575528Y-121822240D01*
G37*
G36*
X169597249Y-122771430D02*
X169597252Y-122771431D01*
X169597253Y-122771431D01*
X169769618Y-122823717D01*
X169769620Y-122823718D01*
X169928473Y-122908627D01*
X170067707Y-123022893D01*
X170181973Y-123162127D01*
X170181974Y-123162129D01*
X170266883Y-123320981D01*
X170268788Y-123327261D01*
X170319170Y-123493349D01*
X170332400Y-123627679D01*
X170332400Y-124022320D01*
X170319170Y-124156650D01*
X170319169Y-124156653D01*
X170266883Y-124329019D01*
X170211556Y-124432528D01*
X170181973Y-124487873D01*
X170067707Y-124627107D01*
X169928473Y-124741373D01*
X169928471Y-124741374D01*
X169769619Y-124826283D01*
X169629339Y-124868836D01*
X169597251Y-124878570D01*
X169418000Y-124896224D01*
X169238751Y-124878570D01*
X169238748Y-124878569D01*
X169238747Y-124878569D01*
X169066382Y-124826283D01*
X168907530Y-124741374D01*
X168907528Y-124741373D01*
X168768296Y-124627109D01*
X168654025Y-124487870D01*
X168569118Y-124329021D01*
X168567213Y-124322740D01*
X168516831Y-124156654D01*
X168516831Y-124156653D01*
X168516830Y-124156651D01*
X168503600Y-124022321D01*
X168503600Y-123627680D01*
X168516830Y-123493350D01*
X168526564Y-123461262D01*
X168569117Y-123320982D01*
X168569119Y-123320979D01*
X168654027Y-123162127D01*
X168768293Y-123022893D01*
X168907527Y-122908627D01*
X169066379Y-122823718D01*
X169066381Y-122823717D01*
X169238746Y-122771431D01*
X169238749Y-122771430D01*
X169418000Y-122753776D01*
X169597249Y-122771430D01*
X169597249Y-122771430D01*
G37*
G36*
X149277249Y-122771430D02*
X149277252Y-122771431D01*
X149277253Y-122771431D01*
X149449618Y-122823717D01*
X149449620Y-122823718D01*
X149608473Y-122908627D01*
X149747707Y-123022893D01*
X149861973Y-123162127D01*
X149861974Y-123162129D01*
X149946883Y-123320981D01*
X149948788Y-123327261D01*
X149999170Y-123493349D01*
X150012400Y-123627679D01*
X150012400Y-124022320D01*
X149999170Y-124156650D01*
X149999169Y-124156653D01*
X149946883Y-124329019D01*
X149891556Y-124432528D01*
X149861973Y-124487873D01*
X149747707Y-124627107D01*
X149608473Y-124741373D01*
X149608471Y-124741374D01*
X149449619Y-124826283D01*
X149309339Y-124868836D01*
X149277251Y-124878570D01*
X149098000Y-124896224D01*
X148918751Y-124878570D01*
X148918748Y-124878569D01*
X148918747Y-124878569D01*
X148746382Y-124826283D01*
X148587530Y-124741374D01*
X148587528Y-124741373D01*
X148448296Y-124627109D01*
X148334025Y-124487870D01*
X148249118Y-124329021D01*
X148247213Y-124322740D01*
X148196831Y-124156654D01*
X148196831Y-124156653D01*
X148196830Y-124156651D01*
X148183600Y-124022321D01*
X148183600Y-123627680D01*
X148196830Y-123493350D01*
X148206564Y-123461262D01*
X148249117Y-123320982D01*
X148249119Y-123320979D01*
X148334027Y-123162127D01*
X148448293Y-123022893D01*
X148587527Y-122908627D01*
X148746379Y-122823718D01*
X148746381Y-122823717D01*
X148918746Y-122771431D01*
X148918749Y-122771430D01*
X149098000Y-122753776D01*
X149277249Y-122771430D01*
X149277249Y-122771430D01*
G37*
G36*
X151817249Y-122771430D02*
X151817252Y-122771431D01*
X151817253Y-122771431D01*
X151989618Y-122823717D01*
X151989620Y-122823718D01*
X152148473Y-122908627D01*
X152287707Y-123022893D01*
X152401973Y-123162127D01*
X152401974Y-123162129D01*
X152486883Y-123320981D01*
X152488788Y-123327261D01*
X152539170Y-123493349D01*
X152552400Y-123627679D01*
X152552400Y-124022320D01*
X152539170Y-124156650D01*
X152539169Y-124156653D01*
X152486883Y-124329019D01*
X152431556Y-124432528D01*
X152401973Y-124487873D01*
X152287707Y-124627107D01*
X152148473Y-124741373D01*
X152148471Y-124741374D01*
X151989619Y-124826283D01*
X151849339Y-124868836D01*
X151817251Y-124878570D01*
X151638000Y-124896224D01*
X151458751Y-124878570D01*
X151458748Y-124878569D01*
X151458747Y-124878569D01*
X151286382Y-124826283D01*
X151127530Y-124741374D01*
X151127528Y-124741373D01*
X150988296Y-124627109D01*
X150874025Y-124487870D01*
X150789118Y-124329021D01*
X150787213Y-124322740D01*
X150736831Y-124156654D01*
X150736831Y-124156653D01*
X150736830Y-124156651D01*
X150723600Y-124022321D01*
X150723600Y-123627680D01*
X150736830Y-123493350D01*
X150746564Y-123461262D01*
X150789117Y-123320982D01*
X150789119Y-123320979D01*
X150874027Y-123162127D01*
X150988293Y-123022893D01*
X151127527Y-122908627D01*
X151286379Y-122823718D01*
X151286381Y-122823717D01*
X151458746Y-122771431D01*
X151458749Y-122771430D01*
X151638000Y-122753776D01*
X151817249Y-122771430D01*
X151817249Y-122771430D01*
G37*
G36*
X154357249Y-122771430D02*
X154357252Y-122771431D01*
X154357253Y-122771431D01*
X154529618Y-122823717D01*
X154529620Y-122823718D01*
X154688473Y-122908627D01*
X154827707Y-123022893D01*
X154941973Y-123162127D01*
X154941974Y-123162129D01*
X155026883Y-123320981D01*
X155028788Y-123327261D01*
X155079170Y-123493349D01*
X155092400Y-123627679D01*
X155092400Y-124022320D01*
X155079170Y-124156650D01*
X155079169Y-124156653D01*
X155026883Y-124329019D01*
X154971556Y-124432528D01*
X154941973Y-124487873D01*
X154827707Y-124627107D01*
X154688473Y-124741373D01*
X154688471Y-124741374D01*
X154529619Y-124826283D01*
X154389339Y-124868836D01*
X154357251Y-124878570D01*
X154178000Y-124896224D01*
X153998751Y-124878570D01*
X153998748Y-124878569D01*
X153998747Y-124878569D01*
X153826382Y-124826283D01*
X153667530Y-124741374D01*
X153667528Y-124741373D01*
X153528296Y-124627109D01*
X153414025Y-124487870D01*
X153329118Y-124329021D01*
X153327213Y-124322740D01*
X153276831Y-124156654D01*
X153276831Y-124156653D01*
X153276830Y-124156651D01*
X153263600Y-124022321D01*
X153263600Y-123627680D01*
X153276830Y-123493350D01*
X153286564Y-123461262D01*
X153329117Y-123320982D01*
X153329119Y-123320979D01*
X153414027Y-123162127D01*
X153528293Y-123022893D01*
X153667527Y-122908627D01*
X153826379Y-122823718D01*
X153826381Y-122823717D01*
X153998746Y-122771431D01*
X153998749Y-122771430D01*
X154178000Y-122753776D01*
X154357249Y-122771430D01*
X154357249Y-122771430D01*
G37*
G36*
X156897249Y-122771430D02*
X156897252Y-122771431D01*
X156897253Y-122771431D01*
X157069618Y-122823717D01*
X157069620Y-122823718D01*
X157228473Y-122908627D01*
X157367707Y-123022893D01*
X157481973Y-123162127D01*
X157481974Y-123162129D01*
X157566883Y-123320981D01*
X157568788Y-123327261D01*
X157619170Y-123493349D01*
X157632400Y-123627679D01*
X157632400Y-124022320D01*
X157619170Y-124156650D01*
X157619169Y-124156653D01*
X157566883Y-124329019D01*
X157511556Y-124432528D01*
X157481973Y-124487873D01*
X157367707Y-124627107D01*
X157228473Y-124741373D01*
X157228471Y-124741374D01*
X157069619Y-124826283D01*
X156929339Y-124868836D01*
X156897251Y-124878570D01*
X156718000Y-124896224D01*
X156538751Y-124878570D01*
X156538748Y-124878569D01*
X156538747Y-124878569D01*
X156366382Y-124826283D01*
X156207530Y-124741374D01*
X156207528Y-124741373D01*
X156068296Y-124627109D01*
X155954025Y-124487870D01*
X155869118Y-124329021D01*
X155867213Y-124322740D01*
X155816831Y-124156654D01*
X155816831Y-124156653D01*
X155816830Y-124156651D01*
X155803600Y-124022321D01*
X155803600Y-123627680D01*
X155816830Y-123493350D01*
X155826564Y-123461262D01*
X155869117Y-123320982D01*
X155869119Y-123320979D01*
X155954027Y-123162127D01*
X156068293Y-123022893D01*
X156207527Y-122908627D01*
X156366379Y-122823718D01*
X156366381Y-122823717D01*
X156538746Y-122771431D01*
X156538749Y-122771430D01*
X156718000Y-122753776D01*
X156897249Y-122771430D01*
X156897249Y-122771430D01*
G37*
G36*
X161977249Y-122771430D02*
X161977252Y-122771431D01*
X161977253Y-122771431D01*
X162149618Y-122823717D01*
X162149620Y-122823718D01*
X162308473Y-122908627D01*
X162447707Y-123022893D01*
X162561973Y-123162127D01*
X162561974Y-123162129D01*
X162646883Y-123320981D01*
X162648788Y-123327261D01*
X162699170Y-123493349D01*
X162712400Y-123627679D01*
X162712400Y-124022320D01*
X162699170Y-124156650D01*
X162699169Y-124156653D01*
X162646883Y-124329019D01*
X162591556Y-124432528D01*
X162561973Y-124487873D01*
X162447707Y-124627107D01*
X162308473Y-124741373D01*
X162308471Y-124741374D01*
X162149619Y-124826283D01*
X162009339Y-124868836D01*
X161977251Y-124878570D01*
X161798000Y-124896224D01*
X161618751Y-124878570D01*
X161618748Y-124878569D01*
X161618747Y-124878569D01*
X161446382Y-124826283D01*
X161287530Y-124741374D01*
X161287528Y-124741373D01*
X161148296Y-124627109D01*
X161034025Y-124487870D01*
X160949118Y-124329021D01*
X160947213Y-124322740D01*
X160896831Y-124156654D01*
X160896831Y-124156653D01*
X160896830Y-124156651D01*
X160883600Y-124022321D01*
X160883600Y-123627680D01*
X160896830Y-123493350D01*
X160906564Y-123461262D01*
X160949117Y-123320982D01*
X160949119Y-123320979D01*
X161034027Y-123162127D01*
X161148293Y-123022893D01*
X161287527Y-122908627D01*
X161446379Y-122823718D01*
X161446381Y-122823717D01*
X161618746Y-122771431D01*
X161618749Y-122771430D01*
X161798000Y-122753776D01*
X161977249Y-122771430D01*
X161977249Y-122771430D01*
G37*
G36*
X164517249Y-122771430D02*
X164517252Y-122771431D01*
X164517253Y-122771431D01*
X164689618Y-122823717D01*
X164689620Y-122823718D01*
X164848473Y-122908627D01*
X164987707Y-123022893D01*
X165101973Y-123162127D01*
X165101974Y-123162129D01*
X165186883Y-123320981D01*
X165188788Y-123327261D01*
X165239170Y-123493349D01*
X165252400Y-123627679D01*
X165252400Y-124022320D01*
X165239170Y-124156650D01*
X165239169Y-124156653D01*
X165186883Y-124329019D01*
X165131556Y-124432528D01*
X165101973Y-124487873D01*
X164987707Y-124627107D01*
X164848473Y-124741373D01*
X164848471Y-124741374D01*
X164689619Y-124826283D01*
X164549339Y-124868836D01*
X164517251Y-124878570D01*
X164338000Y-124896224D01*
X164158751Y-124878570D01*
X164158748Y-124878569D01*
X164158747Y-124878569D01*
X163986382Y-124826283D01*
X163827530Y-124741374D01*
X163827528Y-124741373D01*
X163688296Y-124627109D01*
X163574025Y-124487870D01*
X163489118Y-124329021D01*
X163487213Y-124322740D01*
X163436831Y-124156654D01*
X163436831Y-124156653D01*
X163436830Y-124156651D01*
X163423600Y-124022321D01*
X163423600Y-123627680D01*
X163436830Y-123493350D01*
X163446564Y-123461262D01*
X163489117Y-123320982D01*
X163489119Y-123320979D01*
X163574027Y-123162127D01*
X163688293Y-123022893D01*
X163827527Y-122908627D01*
X163986379Y-122823718D01*
X163986381Y-122823717D01*
X164158746Y-122771431D01*
X164158749Y-122771430D01*
X164338000Y-122753776D01*
X164517249Y-122771430D01*
X164517249Y-122771430D01*
G37*
G36*
X172137249Y-122771430D02*
X172137252Y-122771431D01*
X172137253Y-122771431D01*
X172309618Y-122823717D01*
X172309620Y-122823718D01*
X172468473Y-122908627D01*
X172607707Y-123022893D01*
X172721973Y-123162127D01*
X172721974Y-123162129D01*
X172806883Y-123320981D01*
X172808788Y-123327261D01*
X172859170Y-123493349D01*
X172872400Y-123627679D01*
X172872400Y-124022320D01*
X172859170Y-124156650D01*
X172859169Y-124156653D01*
X172806883Y-124329019D01*
X172751556Y-124432528D01*
X172721973Y-124487873D01*
X172607707Y-124627107D01*
X172468473Y-124741373D01*
X172468471Y-124741374D01*
X172309619Y-124826283D01*
X172169339Y-124868836D01*
X172137251Y-124878570D01*
X171958000Y-124896224D01*
X171778751Y-124878570D01*
X171778748Y-124878569D01*
X171778747Y-124878569D01*
X171606382Y-124826283D01*
X171447530Y-124741374D01*
X171447528Y-124741373D01*
X171308296Y-124627109D01*
X171194025Y-124487870D01*
X171109118Y-124329021D01*
X171107213Y-124322740D01*
X171056831Y-124156654D01*
X171056831Y-124156653D01*
X171056830Y-124156651D01*
X171043600Y-124022321D01*
X171043600Y-123627680D01*
X171056830Y-123493350D01*
X171066564Y-123461262D01*
X171109117Y-123320982D01*
X171109119Y-123320979D01*
X171194027Y-123162127D01*
X171308293Y-123022893D01*
X171447527Y-122908627D01*
X171606379Y-122823718D01*
X171606381Y-122823717D01*
X171778746Y-122771431D01*
X171778749Y-122771430D01*
X171958000Y-122753776D01*
X172137249Y-122771430D01*
X172137249Y-122771430D01*
G37*
G36*
X174677249Y-122771430D02*
X174677252Y-122771431D01*
X174677253Y-122771431D01*
X174849618Y-122823717D01*
X174849620Y-122823718D01*
X175008473Y-122908627D01*
X175147707Y-123022893D01*
X175261973Y-123162127D01*
X175261974Y-123162129D01*
X175346883Y-123320981D01*
X175348788Y-123327261D01*
X175399170Y-123493349D01*
X175412400Y-123627679D01*
X175412400Y-124022320D01*
X175399170Y-124156650D01*
X175399169Y-124156653D01*
X175346883Y-124329019D01*
X175291556Y-124432528D01*
X175261973Y-124487873D01*
X175147707Y-124627107D01*
X175008473Y-124741373D01*
X175008471Y-124741374D01*
X174849619Y-124826283D01*
X174709339Y-124868836D01*
X174677251Y-124878570D01*
X174498000Y-124896224D01*
X174318751Y-124878570D01*
X174318748Y-124878569D01*
X174318747Y-124878569D01*
X174146382Y-124826283D01*
X173987530Y-124741374D01*
X173987528Y-124741373D01*
X173848296Y-124627109D01*
X173734025Y-124487870D01*
X173649118Y-124329021D01*
X173647213Y-124322740D01*
X173596831Y-124156654D01*
X173596831Y-124156653D01*
X173596830Y-124156651D01*
X173583600Y-124022321D01*
X173583600Y-123627680D01*
X173596830Y-123493350D01*
X173606564Y-123461262D01*
X173649117Y-123320982D01*
X173649119Y-123320979D01*
X173734027Y-123162127D01*
X173848293Y-123022893D01*
X173987527Y-122908627D01*
X174146379Y-122823718D01*
X174146381Y-122823717D01*
X174318746Y-122771431D01*
X174318749Y-122771430D01*
X174498000Y-122753776D01*
X174677249Y-122771430D01*
X174677249Y-122771430D01*
G37*
G36*
X146737249Y-122771430D02*
X146737252Y-122771431D01*
X146737253Y-122771431D01*
X146909618Y-122823717D01*
X146909620Y-122823718D01*
X147068473Y-122908627D01*
X147207707Y-123022893D01*
X147321973Y-123162127D01*
X147321974Y-123162129D01*
X147406883Y-123320981D01*
X147408788Y-123327261D01*
X147459170Y-123493349D01*
X147472400Y-123627679D01*
X147472400Y-124022320D01*
X147459170Y-124156650D01*
X147459169Y-124156653D01*
X147406883Y-124329019D01*
X147351556Y-124432528D01*
X147321973Y-124487873D01*
X147207707Y-124627107D01*
X147068473Y-124741373D01*
X147068471Y-124741374D01*
X146909619Y-124826283D01*
X146769339Y-124868836D01*
X146737251Y-124878570D01*
X146558000Y-124896224D01*
X146378751Y-124878570D01*
X146378748Y-124878569D01*
X146378747Y-124878569D01*
X146206382Y-124826283D01*
X146047530Y-124741374D01*
X146047528Y-124741373D01*
X145908296Y-124627109D01*
X145794025Y-124487870D01*
X145709118Y-124329021D01*
X145707213Y-124322740D01*
X145656831Y-124156654D01*
X145656831Y-124156653D01*
X145656830Y-124156651D01*
X145643600Y-124022321D01*
X145643600Y-123627680D01*
X145656830Y-123493350D01*
X145666564Y-123461262D01*
X145709117Y-123320982D01*
X145709119Y-123320979D01*
X145794027Y-123162127D01*
X145908293Y-123022893D01*
X146047527Y-122908627D01*
X146206379Y-122823718D01*
X146206381Y-122823717D01*
X146378746Y-122771431D01*
X146378749Y-122771430D01*
X146558000Y-122753776D01*
X146737249Y-122771430D01*
X146737249Y-122771430D01*
G37*
G36*
X144197249Y-122771430D02*
X144197252Y-122771431D01*
X144197253Y-122771431D01*
X144369618Y-122823717D01*
X144369620Y-122823718D01*
X144528473Y-122908627D01*
X144667707Y-123022893D01*
X144781973Y-123162127D01*
X144781974Y-123162129D01*
X144866883Y-123320981D01*
X144868788Y-123327261D01*
X144919170Y-123493349D01*
X144932400Y-123627679D01*
X144932400Y-124022320D01*
X144919170Y-124156650D01*
X144919169Y-124156653D01*
X144866883Y-124329019D01*
X144811556Y-124432528D01*
X144781973Y-124487873D01*
X144667707Y-124627107D01*
X144528473Y-124741373D01*
X144528471Y-124741374D01*
X144369619Y-124826283D01*
X144229339Y-124868836D01*
X144197251Y-124878570D01*
X144018000Y-124896224D01*
X143838751Y-124878570D01*
X143838748Y-124878569D01*
X143838747Y-124878569D01*
X143666382Y-124826283D01*
X143507530Y-124741374D01*
X143507528Y-124741373D01*
X143368296Y-124627109D01*
X143254025Y-124487870D01*
X143169118Y-124329021D01*
X143167213Y-124322740D01*
X143116831Y-124156654D01*
X143116831Y-124156653D01*
X143116830Y-124156651D01*
X143103600Y-124022321D01*
X143103600Y-123627680D01*
X143116830Y-123493350D01*
X143126564Y-123461262D01*
X143169117Y-123320982D01*
X143169119Y-123320979D01*
X143254027Y-123162127D01*
X143368293Y-123022893D01*
X143507527Y-122908627D01*
X143666379Y-122823718D01*
X143666381Y-122823717D01*
X143838746Y-122771431D01*
X143838749Y-122771430D01*
X144018000Y-122753776D01*
X144197249Y-122771430D01*
X144197249Y-122771430D01*
G37*
G36*
X141657249Y-122771430D02*
X141657252Y-122771431D01*
X141657253Y-122771431D01*
X141829618Y-122823717D01*
X141829620Y-122823718D01*
X141988473Y-122908627D01*
X142127707Y-123022893D01*
X142241973Y-123162127D01*
X142241974Y-123162129D01*
X142326883Y-123320981D01*
X142328788Y-123327261D01*
X142379170Y-123493349D01*
X142392400Y-123627679D01*
X142392400Y-124022320D01*
X142379170Y-124156650D01*
X142379169Y-124156653D01*
X142326883Y-124329019D01*
X142271556Y-124432528D01*
X142241973Y-124487873D01*
X142127707Y-124627107D01*
X141988473Y-124741373D01*
X141988471Y-124741374D01*
X141829619Y-124826283D01*
X141689339Y-124868836D01*
X141657251Y-124878570D01*
X141478000Y-124896224D01*
X141298751Y-124878570D01*
X141298748Y-124878569D01*
X141298747Y-124878569D01*
X141126382Y-124826283D01*
X140967530Y-124741374D01*
X140967528Y-124741373D01*
X140828296Y-124627109D01*
X140714025Y-124487870D01*
X140629118Y-124329021D01*
X140627213Y-124322740D01*
X140576831Y-124156654D01*
X140576831Y-124156653D01*
X140576830Y-124156651D01*
X140563600Y-124022321D01*
X140563600Y-123627680D01*
X140576830Y-123493350D01*
X140586564Y-123461262D01*
X140629117Y-123320982D01*
X140629119Y-123320979D01*
X140714027Y-123162127D01*
X140828293Y-123022893D01*
X140967527Y-122908627D01*
X141126379Y-122823718D01*
X141126381Y-122823717D01*
X141298746Y-122771431D01*
X141298749Y-122771430D01*
X141478000Y-122753776D01*
X141657249Y-122771430D01*
X141657249Y-122771430D01*
G37*
G36*
X139117249Y-122771430D02*
X139117252Y-122771431D01*
X139117253Y-122771431D01*
X139289618Y-122823717D01*
X139289620Y-122823718D01*
X139448473Y-122908627D01*
X139587707Y-123022893D01*
X139701973Y-123162127D01*
X139701974Y-123162129D01*
X139786883Y-123320981D01*
X139788788Y-123327261D01*
X139839170Y-123493349D01*
X139852400Y-123627679D01*
X139852400Y-124022320D01*
X139839170Y-124156650D01*
X139839169Y-124156653D01*
X139786883Y-124329019D01*
X139731556Y-124432528D01*
X139701973Y-124487873D01*
X139587707Y-124627107D01*
X139448473Y-124741373D01*
X139448471Y-124741374D01*
X139289619Y-124826283D01*
X139149339Y-124868836D01*
X139117251Y-124878570D01*
X138938000Y-124896224D01*
X138758751Y-124878570D01*
X138758748Y-124878569D01*
X138758747Y-124878569D01*
X138586382Y-124826283D01*
X138427530Y-124741374D01*
X138427528Y-124741373D01*
X138288296Y-124627109D01*
X138174025Y-124487870D01*
X138089118Y-124329021D01*
X138087213Y-124322740D01*
X138036831Y-124156654D01*
X138036831Y-124156653D01*
X138036830Y-124156651D01*
X138023600Y-124022321D01*
X138023600Y-123627680D01*
X138036830Y-123493350D01*
X138046564Y-123461262D01*
X138089117Y-123320982D01*
X138089119Y-123320979D01*
X138174027Y-123162127D01*
X138288293Y-123022893D01*
X138427527Y-122908627D01*
X138586379Y-122823718D01*
X138586381Y-122823717D01*
X138758746Y-122771431D01*
X138758749Y-122771430D01*
X138938000Y-122753776D01*
X139117249Y-122771430D01*
X139117249Y-122771430D01*
G37*
G36*
X167057249Y-122771430D02*
X167057252Y-122771431D01*
X167057253Y-122771431D01*
X167229618Y-122823717D01*
X167229620Y-122823718D01*
X167388473Y-122908627D01*
X167527707Y-123022893D01*
X167641973Y-123162127D01*
X167641974Y-123162129D01*
X167726883Y-123320981D01*
X167728788Y-123327261D01*
X167779170Y-123493349D01*
X167792400Y-123627679D01*
X167792400Y-124022320D01*
X167779170Y-124156650D01*
X167779169Y-124156653D01*
X167726883Y-124329019D01*
X167671556Y-124432528D01*
X167641973Y-124487873D01*
X167527707Y-124627107D01*
X167388473Y-124741373D01*
X167388471Y-124741374D01*
X167229619Y-124826283D01*
X167089339Y-124868836D01*
X167057251Y-124878570D01*
X166878000Y-124896224D01*
X166698751Y-124878570D01*
X166698748Y-124878569D01*
X166698747Y-124878569D01*
X166526382Y-124826283D01*
X166367530Y-124741374D01*
X166367528Y-124741373D01*
X166228296Y-124627109D01*
X166114025Y-124487870D01*
X166029118Y-124329021D01*
X166027213Y-124322740D01*
X165976831Y-124156654D01*
X165976831Y-124156653D01*
X165976830Y-124156651D01*
X165963600Y-124022321D01*
X165963600Y-123627680D01*
X165976830Y-123493350D01*
X165986564Y-123461262D01*
X166029117Y-123320982D01*
X166029119Y-123320979D01*
X166114027Y-123162127D01*
X166228293Y-123022893D01*
X166367527Y-122908627D01*
X166526379Y-122823718D01*
X166526381Y-122823717D01*
X166698746Y-122771431D01*
X166698749Y-122771430D01*
X166878000Y-122753776D01*
X167057249Y-122771430D01*
X167057249Y-122771430D01*
G37*
G36*
X135434507Y-122814582D02*
X135625740Y-122893793D01*
X135796687Y-123008016D01*
X135797849Y-123008793D01*
X135944207Y-123155151D01*
X135944209Y-123155154D01*
X136059207Y-123327260D01*
X136138418Y-123518493D01*
X136178800Y-123721505D01*
X136178800Y-123928495D01*
X136138418Y-124131507D01*
X136059207Y-124322740D01*
X135985847Y-124432530D01*
X135944207Y-124494849D01*
X135797849Y-124641207D01*
X135797846Y-124641209D01*
X135625740Y-124756207D01*
X135434507Y-124835418D01*
X135231495Y-124875800D01*
X135024505Y-124875800D01*
X134821493Y-124835418D01*
X134630260Y-124756207D01*
X134458154Y-124641209D01*
X134458151Y-124641207D01*
X134311793Y-124494849D01*
X134270153Y-124432530D01*
X134196793Y-124322740D01*
X134117582Y-124131507D01*
X134077200Y-123928495D01*
X134077200Y-123721505D01*
X134117582Y-123518493D01*
X134196793Y-123327260D01*
X134311791Y-123155154D01*
X134311793Y-123155151D01*
X134458151Y-123008793D01*
X134459313Y-123008016D01*
X134630260Y-122893793D01*
X134821493Y-122814582D01*
X135024505Y-122774200D01*
X135231495Y-122774200D01*
X135434507Y-122814582D01*
X135434507Y-122814582D01*
G37*
G36*
X128934507Y-122814582D02*
X129125740Y-122893793D01*
X129296687Y-123008016D01*
X129297849Y-123008793D01*
X129444207Y-123155151D01*
X129444209Y-123155154D01*
X129559207Y-123327260D01*
X129638418Y-123518493D01*
X129678800Y-123721505D01*
X129678800Y-123928495D01*
X129638418Y-124131507D01*
X129559207Y-124322740D01*
X129485847Y-124432530D01*
X129444207Y-124494849D01*
X129297849Y-124641207D01*
X129297846Y-124641209D01*
X129125740Y-124756207D01*
X128934507Y-124835418D01*
X128731495Y-124875800D01*
X128524505Y-124875800D01*
X128321493Y-124835418D01*
X128130260Y-124756207D01*
X127958154Y-124641209D01*
X127958151Y-124641207D01*
X127811793Y-124494849D01*
X127770153Y-124432530D01*
X127696793Y-124322740D01*
X127617582Y-124131507D01*
X127577200Y-123928495D01*
X127577200Y-123721505D01*
X127617582Y-123518493D01*
X127696793Y-123327260D01*
X127811791Y-123155154D01*
X127811793Y-123155151D01*
X127958151Y-123008793D01*
X127959313Y-123008016D01*
X128130260Y-122893793D01*
X128321493Y-122814582D01*
X128524505Y-122774200D01*
X128731495Y-122774200D01*
X128934507Y-122814582D01*
X128934507Y-122814582D01*
G37*
G36*
X177645528Y-116742240D02*
X177645531Y-116742241D01*
X177645530Y-116742241D01*
X178024576Y-116899246D01*
X178024577Y-116899247D01*
X178365711Y-117127185D01*
X178655815Y-117417289D01*
X178655817Y-117417292D01*
X178883754Y-117758424D01*
X178914504Y-117832662D01*
X179040760Y-118137472D01*
X179120800Y-118539861D01*
X179120800Y-118950139D01*
X179040760Y-119352528D01*
X179040759Y-119352530D01*
X178883754Y-119731576D01*
X178883753Y-119731577D01*
X178655815Y-120072711D01*
X178365711Y-120362815D01*
X178365708Y-120362817D01*
X178024576Y-120590754D01*
X177731400Y-120712191D01*
X177645528Y-120747760D01*
X177243139Y-120827800D01*
X176832861Y-120827800D01*
X176430472Y-120747760D01*
X176344600Y-120712191D01*
X176051424Y-120590754D01*
X175710292Y-120362817D01*
X175710289Y-120362815D01*
X175420185Y-120072711D01*
X175192247Y-119731577D01*
X175192246Y-119731576D01*
X175035241Y-119352530D01*
X175035240Y-119352528D01*
X174955200Y-118950139D01*
X174955200Y-118539861D01*
X175035240Y-118137472D01*
X175161496Y-117832662D01*
X175192246Y-117758424D01*
X175420183Y-117417292D01*
X175420185Y-117417289D01*
X175710289Y-117127185D01*
X176051423Y-116899247D01*
X176051424Y-116899246D01*
X176430470Y-116742241D01*
X176430469Y-116742241D01*
X176430472Y-116742240D01*
X176832861Y-116662200D01*
X177243139Y-116662200D01*
X177645528Y-116742240D01*
X177645528Y-116742240D01*
G37*
G36*
X128934507Y-118314582D02*
X129125740Y-118393793D01*
X129296687Y-118508016D01*
X129297849Y-118508793D01*
X129444207Y-118655151D01*
X129444209Y-118655154D01*
X129559207Y-118827260D01*
X129638418Y-119018493D01*
X129678800Y-119221505D01*
X129678800Y-119428495D01*
X129638418Y-119631507D01*
X129559207Y-119822740D01*
X129444984Y-119993687D01*
X129444207Y-119994849D01*
X129297849Y-120141207D01*
X129297846Y-120141209D01*
X129125740Y-120256207D01*
X128934507Y-120335418D01*
X128731495Y-120375800D01*
X128524505Y-120375800D01*
X128321493Y-120335418D01*
X128130260Y-120256207D01*
X127958154Y-120141209D01*
X127958151Y-120141207D01*
X127811793Y-119994849D01*
X127811016Y-119993687D01*
X127696793Y-119822740D01*
X127617582Y-119631507D01*
X127577200Y-119428495D01*
X127577200Y-119221505D01*
X127617582Y-119018493D01*
X127696793Y-118827260D01*
X127811791Y-118655154D01*
X127811793Y-118655151D01*
X127958151Y-118508793D01*
X127959313Y-118508016D01*
X128130260Y-118393793D01*
X128321493Y-118314582D01*
X128524505Y-118274200D01*
X128731495Y-118274200D01*
X128934507Y-118314582D01*
X128934507Y-118314582D01*
G37*
G36*
X135434507Y-118314582D02*
X135625740Y-118393793D01*
X135796687Y-118508016D01*
X135797849Y-118508793D01*
X135944207Y-118655151D01*
X135944209Y-118655154D01*
X136059207Y-118827260D01*
X136138418Y-119018493D01*
X136178800Y-119221505D01*
X136178800Y-119428495D01*
X136138418Y-119631507D01*
X136059207Y-119822740D01*
X135944984Y-119993687D01*
X135944207Y-119994849D01*
X135797849Y-120141207D01*
X135797846Y-120141209D01*
X135625740Y-120256207D01*
X135434507Y-120335418D01*
X135231495Y-120375800D01*
X135024505Y-120375800D01*
X134821493Y-120335418D01*
X134630260Y-120256207D01*
X134458154Y-120141209D01*
X134458151Y-120141207D01*
X134311793Y-119994849D01*
X134311016Y-119993687D01*
X134196793Y-119822740D01*
X134117582Y-119631507D01*
X134077200Y-119428495D01*
X134077200Y-119221505D01*
X134117582Y-119018493D01*
X134196793Y-118827260D01*
X134311791Y-118655154D01*
X134311793Y-118655151D01*
X134458151Y-118508793D01*
X134459313Y-118508016D01*
X134630260Y-118393793D01*
X134821493Y-118314582D01*
X135024505Y-118274200D01*
X135231495Y-118274200D01*
X135434507Y-118314582D01*
X135434507Y-118314582D01*
G37*
G36*
X125245338Y-117195738D02*
X125418373Y-117267412D01*
X125574100Y-117371465D01*
X125706535Y-117503900D01*
X125810588Y-117659627D01*
X125882262Y-117832662D01*
X125918800Y-118016354D01*
X125918800Y-118203646D01*
X125882262Y-118387338D01*
X125810588Y-118560373D01*
X125706535Y-118716100D01*
X125574100Y-118848535D01*
X125418373Y-118952588D01*
X125245338Y-119024262D01*
X125061646Y-119060800D01*
X124874354Y-119060800D01*
X124690662Y-119024262D01*
X124517627Y-118952588D01*
X124361900Y-118848535D01*
X124229465Y-118716100D01*
X124125412Y-118560373D01*
X124053738Y-118387338D01*
X124017200Y-118203646D01*
X124017200Y-118016354D01*
X124053738Y-117832662D01*
X124125412Y-117659627D01*
X124229465Y-117503900D01*
X124361900Y-117371465D01*
X124517627Y-117267412D01*
X124690662Y-117195738D01*
X124874354Y-117159200D01*
X125061646Y-117159200D01*
X125245338Y-117195738D01*
X125245338Y-117195738D01*
G37*
G36*
X123378800Y-119060800D02*
X121477200Y-119060800D01*
X121477200Y-117159200D01*
X123378800Y-117159200D01*
X123378800Y-119060800D01*
X123378800Y-119060800D01*
G37*
G36*
X132836169Y-112846895D02*
X132991005Y-112911031D01*
X133130354Y-113004140D01*
X133248860Y-113122646D01*
X133341969Y-113261995D01*
X133406105Y-113416831D01*
X133438800Y-113581203D01*
X133438800Y-113748797D01*
X133406105Y-113913169D01*
X133341969Y-114068005D01*
X133248860Y-114207354D01*
X133130354Y-114325860D01*
X132991005Y-114418969D01*
X132836169Y-114483105D01*
X132671797Y-114515800D01*
X132504203Y-114515800D01*
X132339831Y-114483105D01*
X132184995Y-114418969D01*
X132045646Y-114325860D01*
X131927140Y-114207354D01*
X131834031Y-114068005D01*
X131769895Y-113913169D01*
X131737200Y-113748797D01*
X131737200Y-113581203D01*
X131769895Y-113416831D01*
X131834031Y-113261995D01*
X131927140Y-113122646D01*
X132045646Y-113004140D01*
X132184995Y-112911031D01*
X132339831Y-112846895D01*
X132504203Y-112814200D01*
X132671797Y-112814200D01*
X132836169Y-112846895D01*
X132836169Y-112846895D01*
G37*
G36*
X122594787Y-112826510D02*
X122755160Y-112875160D01*
X122755162Y-112875161D01*
X122902966Y-112954163D01*
X123032517Y-113060483D01*
X123138837Y-113190034D01*
X123217839Y-113337838D01*
X123217840Y-113337840D01*
X123266490Y-113498213D01*
X123282916Y-113665000D01*
X123266490Y-113831787D01*
X123217840Y-113992160D01*
X123217839Y-113992162D01*
X123138837Y-114139966D01*
X123032517Y-114269517D01*
X122902966Y-114375837D01*
X122755162Y-114454839D01*
X122755160Y-114454840D01*
X122594787Y-114503490D01*
X122469794Y-114515800D01*
X122386206Y-114515800D01*
X122261213Y-114503490D01*
X122100840Y-114454840D01*
X122100838Y-114454839D01*
X121953034Y-114375837D01*
X121823483Y-114269517D01*
X121717163Y-114139966D01*
X121638161Y-113992162D01*
X121638160Y-113992160D01*
X121589510Y-113831787D01*
X121573084Y-113665000D01*
X121589510Y-113498213D01*
X121638160Y-113337840D01*
X121638161Y-113337838D01*
X121717163Y-113190034D01*
X121823483Y-113060483D01*
X121953034Y-112954163D01*
X122100838Y-112875161D01*
X122100840Y-112875160D01*
X122261213Y-112826510D01*
X122386206Y-112814200D01*
X122469794Y-112814200D01*
X122594787Y-112826510D01*
X122594787Y-112826510D01*
G37*
G36*
X137905085Y-111613435D02*
X138053004Y-111674705D01*
X138186133Y-111763659D01*
X138299341Y-111876867D01*
X138388295Y-112009996D01*
X138449565Y-112157915D01*
X138480800Y-112314945D01*
X138480800Y-112475055D01*
X138449565Y-112632085D01*
X138388295Y-112780004D01*
X138299341Y-112913133D01*
X138186133Y-113026341D01*
X138053004Y-113115295D01*
X137905085Y-113176565D01*
X137748055Y-113207800D01*
X137587945Y-113207800D01*
X137430915Y-113176565D01*
X137282996Y-113115295D01*
X137149867Y-113026341D01*
X137036659Y-112913133D01*
X136947705Y-112780004D01*
X136886435Y-112632085D01*
X136855200Y-112475055D01*
X136855200Y-112314945D01*
X136886435Y-112157915D01*
X136947705Y-112009996D01*
X137036659Y-111876867D01*
X137149867Y-111763659D01*
X137282996Y-111674705D01*
X137430915Y-111613435D01*
X137587945Y-111582200D01*
X137748055Y-111582200D01*
X137905085Y-111613435D01*
X137905085Y-111613435D01*
G37*
G36*
X137905085Y-109073435D02*
X138053004Y-109134705D01*
X138186133Y-109223659D01*
X138299341Y-109336867D01*
X138388295Y-109469996D01*
X138449565Y-109617915D01*
X138480800Y-109774945D01*
X138480800Y-109935055D01*
X138449565Y-110092085D01*
X138388295Y-110240004D01*
X138299341Y-110373133D01*
X138186133Y-110486341D01*
X138053004Y-110575295D01*
X137905085Y-110636565D01*
X137748055Y-110667800D01*
X137587945Y-110667800D01*
X137430915Y-110636565D01*
X137282996Y-110575295D01*
X137149867Y-110486341D01*
X137036659Y-110373133D01*
X136947705Y-110240004D01*
X136886435Y-110092085D01*
X136855200Y-109935055D01*
X136855200Y-109774945D01*
X136886435Y-109617915D01*
X136947705Y-109469996D01*
X137036659Y-109336867D01*
X137149867Y-109223659D01*
X137282996Y-109134705D01*
X137430915Y-109073435D01*
X137587945Y-109042200D01*
X137748055Y-109042200D01*
X137905085Y-109073435D01*
X137905085Y-109073435D01*
G37*
G36*
X163305085Y-109073435D02*
X163453004Y-109134705D01*
X163586133Y-109223659D01*
X163699341Y-109336867D01*
X163788295Y-109469996D01*
X163849565Y-109617915D01*
X163880800Y-109774945D01*
X163880800Y-109935055D01*
X163849565Y-110092085D01*
X163788295Y-110240004D01*
X163699341Y-110373133D01*
X163586133Y-110486341D01*
X163453004Y-110575295D01*
X163305085Y-110636565D01*
X163148055Y-110667800D01*
X162987945Y-110667800D01*
X162830915Y-110636565D01*
X162682996Y-110575295D01*
X162549867Y-110486341D01*
X162436659Y-110373133D01*
X162347705Y-110240004D01*
X162286435Y-110092085D01*
X162255200Y-109935055D01*
X162255200Y-109774945D01*
X162286435Y-109617915D01*
X162347705Y-109469996D01*
X162436659Y-109336867D01*
X162549867Y-109223659D01*
X162682996Y-109134705D01*
X162830915Y-109073435D01*
X162987945Y-109042200D01*
X163148055Y-109042200D01*
X163305085Y-109073435D01*
X163305085Y-109073435D01*
G37*
G36*
X116166362Y-106418545D02*
X116254588Y-106427234D01*
X116367789Y-106461573D01*
X116424390Y-106478743D01*
X116468274Y-106502200D01*
X116580879Y-106562389D01*
X116616609Y-106591712D01*
X116718044Y-106674956D01*
X116801288Y-106776391D01*
X116830611Y-106812121D01*
X116830612Y-106812123D01*
X116914257Y-106968610D01*
X116914257Y-106968611D01*
X116965766Y-107138412D01*
X116983158Y-107315000D01*
X116965766Y-107491588D01*
X116947414Y-107552085D01*
X116914257Y-107661390D01*
X116840178Y-107799980D01*
X116830611Y-107817879D01*
X116818092Y-107833133D01*
X116718044Y-107955044D01*
X116620257Y-108035294D01*
X116580879Y-108067611D01*
X116580877Y-108067612D01*
X116424390Y-108151257D01*
X116367789Y-108168427D01*
X116254588Y-108202766D01*
X116166362Y-108211455D01*
X116122250Y-108215800D01*
X116033750Y-108215800D01*
X115989638Y-108211455D01*
X115901412Y-108202766D01*
X115788211Y-108168427D01*
X115731610Y-108151257D01*
X115575123Y-108067612D01*
X115575121Y-108067611D01*
X115535743Y-108035294D01*
X115437956Y-107955044D01*
X115337908Y-107833133D01*
X115325389Y-107817879D01*
X115315822Y-107799980D01*
X115241743Y-107661390D01*
X115208586Y-107552085D01*
X115190234Y-107491588D01*
X115172842Y-107315000D01*
X115190234Y-107138412D01*
X115241743Y-106968611D01*
X115241743Y-106968610D01*
X115325388Y-106812123D01*
X115325389Y-106812121D01*
X115354712Y-106776391D01*
X115437956Y-106674956D01*
X115539391Y-106591712D01*
X115575121Y-106562389D01*
X115687726Y-106502200D01*
X115731610Y-106478743D01*
X115788211Y-106461573D01*
X115901412Y-106427234D01*
X115989638Y-106418545D01*
X116033750Y-106414200D01*
X116122250Y-106414200D01*
X116166362Y-106418545D01*
X116166362Y-106418545D01*
G37*
G36*
X163305085Y-106533435D02*
X163453004Y-106594705D01*
X163586133Y-106683659D01*
X163699341Y-106796867D01*
X163788295Y-106929996D01*
X163849565Y-107077915D01*
X163880800Y-107234945D01*
X163880800Y-107395055D01*
X163849565Y-107552085D01*
X163788295Y-107700004D01*
X163699341Y-107833133D01*
X163586133Y-107946341D01*
X163453004Y-108035295D01*
X163305085Y-108096565D01*
X163148055Y-108127800D01*
X162987945Y-108127800D01*
X162830915Y-108096565D01*
X162682996Y-108035295D01*
X162549867Y-107946341D01*
X162436659Y-107833133D01*
X162347705Y-107700004D01*
X162286435Y-107552085D01*
X162255200Y-107395055D01*
X162255200Y-107234945D01*
X162286435Y-107077915D01*
X162347705Y-106929996D01*
X162436659Y-106796867D01*
X162549867Y-106683659D01*
X162682996Y-106594705D01*
X162830915Y-106533435D01*
X162987945Y-106502200D01*
X163148055Y-106502200D01*
X163305085Y-106533435D01*
X163305085Y-106533435D01*
G37*
G36*
X137905085Y-106533435D02*
X138053004Y-106594705D01*
X138186133Y-106683659D01*
X138299341Y-106796867D01*
X138388295Y-106929996D01*
X138449565Y-107077915D01*
X138480800Y-107234945D01*
X138480800Y-107395055D01*
X138449565Y-107552085D01*
X138388295Y-107700004D01*
X138299341Y-107833133D01*
X138186133Y-107946341D01*
X138053004Y-108035295D01*
X137905085Y-108096565D01*
X137748055Y-108127800D01*
X137587945Y-108127800D01*
X137430915Y-108096565D01*
X137282996Y-108035295D01*
X137149867Y-107946341D01*
X137036659Y-107833133D01*
X136947705Y-107700004D01*
X136886435Y-107552085D01*
X136855200Y-107395055D01*
X136855200Y-107234945D01*
X136886435Y-107077915D01*
X136947705Y-106929996D01*
X137036659Y-106796867D01*
X137149867Y-106683659D01*
X137282996Y-106594705D01*
X137430915Y-106533435D01*
X137587945Y-106502200D01*
X137748055Y-106502200D01*
X137905085Y-106533435D01*
X137905085Y-106533435D01*
G37*
G36*
X116166362Y-103878545D02*
X116254588Y-103887234D01*
X116367789Y-103921573D01*
X116424390Y-103938743D01*
X116468274Y-103962200D01*
X116580879Y-104022389D01*
X116616609Y-104051712D01*
X116718044Y-104134956D01*
X116801288Y-104236391D01*
X116830611Y-104272121D01*
X116830612Y-104272123D01*
X116914257Y-104428610D01*
X116914257Y-104428611D01*
X116965766Y-104598412D01*
X116983158Y-104775000D01*
X116965766Y-104951588D01*
X116947414Y-105012085D01*
X116914257Y-105121390D01*
X116840178Y-105259980D01*
X116830611Y-105277879D01*
X116818092Y-105293133D01*
X116718044Y-105415044D01*
X116620257Y-105495294D01*
X116580879Y-105527611D01*
X116580877Y-105527612D01*
X116424390Y-105611257D01*
X116367789Y-105628427D01*
X116254588Y-105662766D01*
X116166362Y-105671455D01*
X116122250Y-105675800D01*
X116033750Y-105675800D01*
X115989638Y-105671455D01*
X115901412Y-105662766D01*
X115788211Y-105628427D01*
X115731610Y-105611257D01*
X115575123Y-105527612D01*
X115575121Y-105527611D01*
X115535743Y-105495294D01*
X115437956Y-105415044D01*
X115337908Y-105293133D01*
X115325389Y-105277879D01*
X115315822Y-105259980D01*
X115241743Y-105121390D01*
X115208586Y-105012085D01*
X115190234Y-104951588D01*
X115172842Y-104775000D01*
X115190234Y-104598412D01*
X115241743Y-104428611D01*
X115241743Y-104428610D01*
X115325388Y-104272123D01*
X115325389Y-104272121D01*
X115354712Y-104236391D01*
X115437956Y-104134956D01*
X115539391Y-104051712D01*
X115575121Y-104022389D01*
X115687726Y-103962200D01*
X115731610Y-103938743D01*
X115788211Y-103921573D01*
X115901412Y-103887234D01*
X115989638Y-103878545D01*
X116033750Y-103874200D01*
X116122250Y-103874200D01*
X116166362Y-103878545D01*
X116166362Y-103878545D01*
G37*
G36*
X163305085Y-103993435D02*
X163453004Y-104054705D01*
X163586133Y-104143659D01*
X163699341Y-104256867D01*
X163788295Y-104389996D01*
X163849565Y-104537915D01*
X163880800Y-104694945D01*
X163880800Y-104855055D01*
X163849565Y-105012085D01*
X163788295Y-105160004D01*
X163699341Y-105293133D01*
X163586133Y-105406341D01*
X163453004Y-105495295D01*
X163305085Y-105556565D01*
X163148055Y-105587800D01*
X162987945Y-105587800D01*
X162830915Y-105556565D01*
X162682996Y-105495295D01*
X162549867Y-105406341D01*
X162436659Y-105293133D01*
X162347705Y-105160004D01*
X162286435Y-105012085D01*
X162255200Y-104855055D01*
X162255200Y-104694945D01*
X162286435Y-104537915D01*
X162347705Y-104389996D01*
X162436659Y-104256867D01*
X162549867Y-104143659D01*
X162682996Y-104054705D01*
X162830915Y-103993435D01*
X162987945Y-103962200D01*
X163148055Y-103962200D01*
X163305085Y-103993435D01*
X163305085Y-103993435D01*
G37*
G36*
X137905085Y-103993435D02*
X138053004Y-104054705D01*
X138186133Y-104143659D01*
X138299341Y-104256867D01*
X138388295Y-104389996D01*
X138449565Y-104537915D01*
X138480800Y-104694945D01*
X138480800Y-104855055D01*
X138449565Y-105012085D01*
X138388295Y-105160004D01*
X138299341Y-105293133D01*
X138186133Y-105406341D01*
X138053004Y-105495295D01*
X137905085Y-105556565D01*
X137748055Y-105587800D01*
X137587945Y-105587800D01*
X137430915Y-105556565D01*
X137282996Y-105495295D01*
X137149867Y-105406341D01*
X137036659Y-105293133D01*
X136947705Y-105160004D01*
X136886435Y-105012085D01*
X136855200Y-104855055D01*
X136855200Y-104694945D01*
X136886435Y-104537915D01*
X136947705Y-104389996D01*
X137036659Y-104256867D01*
X137149867Y-104143659D01*
X137282996Y-104054705D01*
X137430915Y-103993435D01*
X137587945Y-103962200D01*
X137748055Y-103962200D01*
X137905085Y-103993435D01*
X137905085Y-103993435D01*
G37*
G36*
X116166362Y-101338545D02*
X116254588Y-101347234D01*
X116367789Y-101381573D01*
X116424390Y-101398743D01*
X116468274Y-101422200D01*
X116580879Y-101482389D01*
X116616609Y-101511712D01*
X116718044Y-101594956D01*
X116801288Y-101696391D01*
X116830611Y-101732121D01*
X116830612Y-101732123D01*
X116914257Y-101888610D01*
X116914257Y-101888611D01*
X116965766Y-102058412D01*
X116983158Y-102235000D01*
X116965766Y-102411588D01*
X116947414Y-102472085D01*
X116914257Y-102581390D01*
X116840178Y-102719980D01*
X116830611Y-102737879D01*
X116818092Y-102753133D01*
X116718044Y-102875044D01*
X116620257Y-102955294D01*
X116580879Y-102987611D01*
X116580877Y-102987612D01*
X116424390Y-103071257D01*
X116367789Y-103088427D01*
X116254588Y-103122766D01*
X116166362Y-103131455D01*
X116122250Y-103135800D01*
X116033750Y-103135800D01*
X115989638Y-103131455D01*
X115901412Y-103122766D01*
X115788211Y-103088427D01*
X115731610Y-103071257D01*
X115575123Y-102987612D01*
X115575121Y-102987611D01*
X115535743Y-102955294D01*
X115437956Y-102875044D01*
X115337908Y-102753133D01*
X115325389Y-102737879D01*
X115315822Y-102719980D01*
X115241743Y-102581390D01*
X115208586Y-102472085D01*
X115190234Y-102411588D01*
X115172842Y-102235000D01*
X115190234Y-102058412D01*
X115241743Y-101888611D01*
X115241743Y-101888610D01*
X115325388Y-101732123D01*
X115325389Y-101732121D01*
X115354712Y-101696391D01*
X115437956Y-101594956D01*
X115539391Y-101511712D01*
X115575121Y-101482389D01*
X115687726Y-101422200D01*
X115731610Y-101398743D01*
X115788211Y-101381573D01*
X115901412Y-101347234D01*
X115989638Y-101338545D01*
X116033750Y-101334200D01*
X116122250Y-101334200D01*
X116166362Y-101338545D01*
X116166362Y-101338545D01*
G37*
G36*
X137905085Y-101453435D02*
X138053004Y-101514705D01*
X138186133Y-101603659D01*
X138299341Y-101716867D01*
X138388295Y-101849996D01*
X138449565Y-101997915D01*
X138480800Y-102154945D01*
X138480800Y-102315055D01*
X138449565Y-102472085D01*
X138388295Y-102620004D01*
X138299341Y-102753133D01*
X138186133Y-102866341D01*
X138053004Y-102955295D01*
X137905085Y-103016565D01*
X137748055Y-103047800D01*
X137587945Y-103047800D01*
X137430915Y-103016565D01*
X137282996Y-102955295D01*
X137149867Y-102866341D01*
X137036659Y-102753133D01*
X136947705Y-102620004D01*
X136886435Y-102472085D01*
X136855200Y-102315055D01*
X136855200Y-102154945D01*
X136886435Y-101997915D01*
X136947705Y-101849996D01*
X137036659Y-101716867D01*
X137149867Y-101603659D01*
X137282996Y-101514705D01*
X137430915Y-101453435D01*
X137587945Y-101422200D01*
X137748055Y-101422200D01*
X137905085Y-101453435D01*
X137905085Y-101453435D01*
G37*
G36*
X163305085Y-101453435D02*
X163453004Y-101514705D01*
X163586133Y-101603659D01*
X163699341Y-101716867D01*
X163788295Y-101849996D01*
X163849565Y-101997915D01*
X163880800Y-102154945D01*
X163880800Y-102315055D01*
X163849565Y-102472085D01*
X163788295Y-102620004D01*
X163699341Y-102753133D01*
X163586133Y-102866341D01*
X163453004Y-102955295D01*
X163305085Y-103016565D01*
X163148055Y-103047800D01*
X162987945Y-103047800D01*
X162830915Y-103016565D01*
X162682996Y-102955295D01*
X162549867Y-102866341D01*
X162436659Y-102753133D01*
X162347705Y-102620004D01*
X162286435Y-102472085D01*
X162255200Y-102315055D01*
X162255200Y-102154945D01*
X162286435Y-101997915D01*
X162347705Y-101849996D01*
X162436659Y-101716867D01*
X162549867Y-101603659D01*
X162682996Y-101514705D01*
X162830915Y-101453435D01*
X162987945Y-101422200D01*
X163148055Y-101422200D01*
X163305085Y-101453435D01*
X163305085Y-101453435D01*
G37*
G36*
X116210229Y-98802854D02*
X116340754Y-98828817D01*
X116504689Y-98896721D01*
X116652227Y-98995303D01*
X116777697Y-99120773D01*
X116876279Y-99268311D01*
X116944183Y-99432246D01*
X116978800Y-99606279D01*
X116978800Y-99783721D01*
X116944183Y-99957754D01*
X116876279Y-100121689D01*
X116777697Y-100269227D01*
X116652227Y-100394697D01*
X116504689Y-100493279D01*
X116340754Y-100561183D01*
X116210229Y-100587146D01*
X116166722Y-100595800D01*
X115989278Y-100595800D01*
X115945771Y-100587146D01*
X115815246Y-100561183D01*
X115651311Y-100493279D01*
X115503773Y-100394697D01*
X115378303Y-100269227D01*
X115279721Y-100121689D01*
X115211817Y-99957754D01*
X115177200Y-99783721D01*
X115177200Y-99606279D01*
X115211817Y-99432246D01*
X115279721Y-99268311D01*
X115378303Y-99120773D01*
X115503773Y-98995303D01*
X115651311Y-98896721D01*
X115815246Y-98828817D01*
X115945771Y-98802854D01*
X115989278Y-98794200D01*
X116166722Y-98794200D01*
X116210229Y-98802854D01*
X116210229Y-98802854D01*
G37*
G36*
X137905085Y-98913435D02*
X138053004Y-98974705D01*
X138186133Y-99063659D01*
X138299341Y-99176867D01*
X138388295Y-99309996D01*
X138449565Y-99457915D01*
X138480800Y-99614945D01*
X138480800Y-99775055D01*
X138449565Y-99932085D01*
X138388295Y-100080004D01*
X138299341Y-100213133D01*
X138186133Y-100326341D01*
X138053004Y-100415295D01*
X137905085Y-100476565D01*
X137748055Y-100507800D01*
X137587945Y-100507800D01*
X137430915Y-100476565D01*
X137282996Y-100415295D01*
X137149867Y-100326341D01*
X137036659Y-100213133D01*
X136947705Y-100080004D01*
X136886435Y-99932085D01*
X136855200Y-99775055D01*
X136855200Y-99614945D01*
X136886435Y-99457915D01*
X136947705Y-99309996D01*
X137036659Y-99176867D01*
X137149867Y-99063659D01*
X137282996Y-98974705D01*
X137430915Y-98913435D01*
X137587945Y-98882200D01*
X137748055Y-98882200D01*
X137905085Y-98913435D01*
X137905085Y-98913435D01*
G37*
G36*
X177645528Y-88802240D02*
X177645531Y-88802241D01*
X177645530Y-88802241D01*
X178024576Y-88959246D01*
X178024577Y-88959247D01*
X178365711Y-89187185D01*
X178655815Y-89477289D01*
X178655817Y-89477292D01*
X178883754Y-89818424D01*
X178980664Y-90052388D01*
X179040760Y-90197472D01*
X179120800Y-90599861D01*
X179120800Y-91010139D01*
X179040760Y-91412528D01*
X179040759Y-91412530D01*
X178883754Y-91791576D01*
X178883753Y-91791577D01*
X178655815Y-92132711D01*
X178365711Y-92422815D01*
X178365708Y-92422817D01*
X178024576Y-92650754D01*
X177731400Y-92772191D01*
X177645528Y-92807760D01*
X177243139Y-92887800D01*
X176832861Y-92887800D01*
X176430472Y-92807760D01*
X176344600Y-92772191D01*
X176051424Y-92650754D01*
X175710292Y-92422817D01*
X175710289Y-92422815D01*
X175420185Y-92132711D01*
X175192247Y-91791577D01*
X175192246Y-91791576D01*
X175035241Y-91412530D01*
X175035240Y-91412528D01*
X174955200Y-91010139D01*
X174955200Y-90599861D01*
X175035240Y-90197472D01*
X175095336Y-90052388D01*
X175192246Y-89818424D01*
X175420183Y-89477292D01*
X175420185Y-89477289D01*
X175710289Y-89187185D01*
X176051423Y-88959247D01*
X176051424Y-88959246D01*
X176430470Y-88802241D01*
X176430469Y-88802241D01*
X176430472Y-88802240D01*
X176832861Y-88722200D01*
X177243139Y-88722200D01*
X177645528Y-88802240D01*
X177645528Y-88802240D01*
G37*
G36*
X147458800Y-91705800D02*
X145657200Y-91705800D01*
X145657200Y-89904200D01*
X147458800Y-89904200D01*
X147458800Y-91705800D01*
X147458800Y-91705800D01*
G37*
G36*
X151726362Y-89908545D02*
X151814588Y-89917234D01*
X151927789Y-89951573D01*
X151984390Y-89968743D01*
X152122980Y-90042822D01*
X152140879Y-90052389D01*
X152176609Y-90081712D01*
X152278044Y-90164956D01*
X152361288Y-90266391D01*
X152390611Y-90302121D01*
X152390612Y-90302123D01*
X152474257Y-90458610D01*
X152474257Y-90458611D01*
X152525766Y-90628412D01*
X152543158Y-90805000D01*
X152525766Y-90981588D01*
X152517105Y-91010138D01*
X152474257Y-91151390D01*
X152400178Y-91289980D01*
X152390611Y-91307879D01*
X152361288Y-91343609D01*
X152278044Y-91445044D01*
X152176609Y-91528288D01*
X152140879Y-91557611D01*
X152140877Y-91557612D01*
X151984390Y-91641257D01*
X151927789Y-91658427D01*
X151814588Y-91692766D01*
X151726362Y-91701455D01*
X151682250Y-91705800D01*
X151593750Y-91705800D01*
X151549638Y-91701455D01*
X151461412Y-91692766D01*
X151348211Y-91658427D01*
X151291610Y-91641257D01*
X151135123Y-91557612D01*
X151135121Y-91557611D01*
X151099391Y-91528288D01*
X150997956Y-91445044D01*
X150914712Y-91343609D01*
X150885389Y-91307879D01*
X150875822Y-91289980D01*
X150801743Y-91151390D01*
X150758895Y-91010138D01*
X150750234Y-90981588D01*
X150732842Y-90805000D01*
X150750234Y-90628412D01*
X150801743Y-90458611D01*
X150801743Y-90458610D01*
X150885388Y-90302123D01*
X150885389Y-90302121D01*
X150914712Y-90266391D01*
X150997956Y-90164956D01*
X151099391Y-90081712D01*
X151135121Y-90052389D01*
X151153020Y-90042822D01*
X151291610Y-89968743D01*
X151348211Y-89951573D01*
X151461412Y-89917234D01*
X151549638Y-89908545D01*
X151593750Y-89904200D01*
X151682250Y-89904200D01*
X151726362Y-89908545D01*
X151726362Y-89908545D01*
G37*
G36*
X149186362Y-89908545D02*
X149274588Y-89917234D01*
X149387789Y-89951573D01*
X149444390Y-89968743D01*
X149582980Y-90042822D01*
X149600879Y-90052389D01*
X149636609Y-90081712D01*
X149738044Y-90164956D01*
X149821288Y-90266391D01*
X149850611Y-90302121D01*
X149850612Y-90302123D01*
X149934257Y-90458610D01*
X149934257Y-90458611D01*
X149985766Y-90628412D01*
X150003158Y-90805000D01*
X149985766Y-90981588D01*
X149977105Y-91010138D01*
X149934257Y-91151390D01*
X149860178Y-91289980D01*
X149850611Y-91307879D01*
X149821288Y-91343609D01*
X149738044Y-91445044D01*
X149636609Y-91528288D01*
X149600879Y-91557611D01*
X149600877Y-91557612D01*
X149444390Y-91641257D01*
X149387789Y-91658427D01*
X149274588Y-91692766D01*
X149186362Y-91701455D01*
X149142250Y-91705800D01*
X149053750Y-91705800D01*
X149009638Y-91701455D01*
X148921412Y-91692766D01*
X148808211Y-91658427D01*
X148751610Y-91641257D01*
X148595123Y-91557612D01*
X148595121Y-91557611D01*
X148559391Y-91528288D01*
X148457956Y-91445044D01*
X148374712Y-91343609D01*
X148345389Y-91307879D01*
X148335822Y-91289980D01*
X148261743Y-91151390D01*
X148218895Y-91010138D01*
X148210234Y-90981588D01*
X148192842Y-90805000D01*
X148210234Y-90628412D01*
X148261743Y-90458611D01*
X148261743Y-90458610D01*
X148345388Y-90302123D01*
X148345389Y-90302121D01*
X148374712Y-90266391D01*
X148457956Y-90164956D01*
X148559391Y-90081712D01*
X148595121Y-90052389D01*
X148613020Y-90042822D01*
X148751610Y-89968743D01*
X148808211Y-89951573D01*
X148921412Y-89917234D01*
X149009638Y-89908545D01*
X149053750Y-89904200D01*
X149142250Y-89904200D01*
X149186362Y-89908545D01*
X149186362Y-89908545D01*
G37*
G36*
X116166362Y-79748545D02*
X116254588Y-79757234D01*
X116367789Y-79791573D01*
X116424390Y-79808743D01*
X116562980Y-79882822D01*
X116580879Y-79892389D01*
X116616609Y-79921712D01*
X116718044Y-80004956D01*
X116801288Y-80106391D01*
X116830611Y-80142121D01*
X116830612Y-80142123D01*
X116914257Y-80298610D01*
X116914257Y-80298611D01*
X116965766Y-80468412D01*
X116983158Y-80645000D01*
X116965766Y-80821588D01*
X116931427Y-80934789D01*
X116914257Y-80991390D01*
X116840178Y-81129980D01*
X116830611Y-81147879D01*
X116801288Y-81183609D01*
X116718044Y-81285044D01*
X116616609Y-81368288D01*
X116580879Y-81397611D01*
X116580877Y-81397612D01*
X116424390Y-81481257D01*
X116367789Y-81498427D01*
X116254588Y-81532766D01*
X116166362Y-81541455D01*
X116122250Y-81545800D01*
X116033750Y-81545800D01*
X115989638Y-81541455D01*
X115901412Y-81532766D01*
X115788211Y-81498427D01*
X115731610Y-81481257D01*
X115575123Y-81397612D01*
X115575121Y-81397611D01*
X115539391Y-81368288D01*
X115437956Y-81285044D01*
X115354712Y-81183609D01*
X115325389Y-81147879D01*
X115315822Y-81129980D01*
X115241743Y-80991390D01*
X115224573Y-80934789D01*
X115190234Y-80821588D01*
X115172842Y-80645000D01*
X115190234Y-80468412D01*
X115241743Y-80298611D01*
X115241743Y-80298610D01*
X115325388Y-80142123D01*
X115325389Y-80142121D01*
X115354712Y-80106391D01*
X115437956Y-80004956D01*
X115539391Y-79921712D01*
X115575121Y-79892389D01*
X115593020Y-79882822D01*
X115731610Y-79808743D01*
X115788211Y-79791573D01*
X115901412Y-79757234D01*
X115989638Y-79748545D01*
X116033750Y-79744200D01*
X116122250Y-79744200D01*
X116166362Y-79748545D01*
X116166362Y-79748545D01*
G37*
G36*
X116166362Y-77208545D02*
X116254588Y-77217234D01*
X116367789Y-77251573D01*
X116424390Y-77268743D01*
X116562980Y-77342822D01*
X116580879Y-77352389D01*
X116616609Y-77381712D01*
X116718044Y-77464956D01*
X116801288Y-77566391D01*
X116830611Y-77602121D01*
X116830612Y-77602123D01*
X116914257Y-77758610D01*
X116914257Y-77758611D01*
X116965766Y-77928412D01*
X116983158Y-78105000D01*
X116965766Y-78281588D01*
X116931427Y-78394789D01*
X116914257Y-78451390D01*
X116840178Y-78589980D01*
X116830611Y-78607879D01*
X116801288Y-78643609D01*
X116718044Y-78745044D01*
X116616609Y-78828288D01*
X116580879Y-78857611D01*
X116580877Y-78857612D01*
X116424390Y-78941257D01*
X116367789Y-78958427D01*
X116254588Y-78992766D01*
X116166362Y-79001455D01*
X116122250Y-79005800D01*
X116033750Y-79005800D01*
X115989638Y-79001455D01*
X115901412Y-78992766D01*
X115788211Y-78958427D01*
X115731610Y-78941257D01*
X115575123Y-78857612D01*
X115575121Y-78857611D01*
X115539391Y-78828288D01*
X115437956Y-78745044D01*
X115354712Y-78643609D01*
X115325389Y-78607879D01*
X115315822Y-78589980D01*
X115241743Y-78451390D01*
X115224573Y-78394789D01*
X115190234Y-78281588D01*
X115172842Y-78105000D01*
X115190234Y-77928412D01*
X115241743Y-77758611D01*
X115241743Y-77758610D01*
X115325388Y-77602123D01*
X115325389Y-77602121D01*
X115354712Y-77566391D01*
X115437956Y-77464956D01*
X115539391Y-77381712D01*
X115575121Y-77352389D01*
X115593020Y-77342822D01*
X115731610Y-77268743D01*
X115788211Y-77251573D01*
X115901412Y-77217234D01*
X115989638Y-77208545D01*
X116033750Y-77204200D01*
X116122250Y-77204200D01*
X116166362Y-77208545D01*
X116166362Y-77208545D01*
G37*
G36*
X126845528Y-73562240D02*
X126845531Y-73562241D01*
X126845530Y-73562241D01*
X127224576Y-73719246D01*
X127224577Y-73719247D01*
X127565711Y-73947185D01*
X127855815Y-74237289D01*
X127855817Y-74237292D01*
X128083754Y-74578424D01*
X128119283Y-74664200D01*
X128240760Y-74957472D01*
X128320800Y-75359861D01*
X128320800Y-75770139D01*
X128240760Y-76172528D01*
X128240759Y-76172530D01*
X128083754Y-76551576D01*
X128038990Y-76618570D01*
X127855815Y-76892711D01*
X127565711Y-77182815D01*
X127565708Y-77182817D01*
X127224576Y-77410754D01*
X126931400Y-77532191D01*
X126845528Y-77567760D01*
X126443139Y-77647800D01*
X126032861Y-77647800D01*
X125630472Y-77567760D01*
X125544600Y-77532191D01*
X125251424Y-77410754D01*
X124910292Y-77182817D01*
X124910289Y-77182815D01*
X124620185Y-76892711D01*
X124437010Y-76618570D01*
X124392246Y-76551576D01*
X124235241Y-76172530D01*
X124235240Y-76172528D01*
X124155200Y-75770139D01*
X124155200Y-75359861D01*
X124235240Y-74957472D01*
X124356717Y-74664200D01*
X124392246Y-74578424D01*
X124620183Y-74237292D01*
X124620185Y-74237289D01*
X124910289Y-73947185D01*
X125251423Y-73719247D01*
X125251424Y-73719246D01*
X125630470Y-73562241D01*
X125630469Y-73562241D01*
X125630472Y-73562240D01*
X126032861Y-73482200D01*
X126443139Y-73482200D01*
X126845528Y-73562240D01*
X126845528Y-73562240D01*
G37*
G36*
X159437249Y-74511430D02*
X159437252Y-74511431D01*
X159437253Y-74511431D01*
X159609618Y-74563717D01*
X159609620Y-74563718D01*
X159768473Y-74648627D01*
X159907707Y-74762893D01*
X160021973Y-74902127D01*
X160106882Y-75060979D01*
X160159170Y-75233349D01*
X160172400Y-75367679D01*
X160172400Y-75762320D01*
X160159170Y-75896650D01*
X160159169Y-75896653D01*
X160106883Y-76069019D01*
X160051556Y-76172528D01*
X160021973Y-76227873D01*
X159907707Y-76367107D01*
X159768473Y-76481373D01*
X159768471Y-76481374D01*
X159609619Y-76566283D01*
X159469339Y-76608836D01*
X159437251Y-76618570D01*
X159258000Y-76636224D01*
X159078751Y-76618570D01*
X159078748Y-76618569D01*
X159078747Y-76618569D01*
X158906382Y-76566283D01*
X158747530Y-76481374D01*
X158747528Y-76481373D01*
X158608296Y-76367109D01*
X158494025Y-76227870D01*
X158409118Y-76069021D01*
X158356830Y-75896651D01*
X158343600Y-75762321D01*
X158343600Y-75367680D01*
X158356830Y-75233350D01*
X158409118Y-75060980D01*
X158494027Y-74902127D01*
X158608293Y-74762893D01*
X158747527Y-74648627D01*
X158906379Y-74563718D01*
X158906381Y-74563717D01*
X159078746Y-74511431D01*
X159078749Y-74511430D01*
X159258000Y-74493776D01*
X159437249Y-74511430D01*
X159437249Y-74511430D01*
G37*
G36*
X132513249Y-74511430D02*
X132513252Y-74511431D01*
X132513253Y-74511431D01*
X132685618Y-74563717D01*
X132685620Y-74563718D01*
X132844473Y-74648627D01*
X132983707Y-74762893D01*
X133097973Y-74902127D01*
X133182882Y-75060979D01*
X133235170Y-75233349D01*
X133248400Y-75367679D01*
X133248400Y-75762320D01*
X133235170Y-75896650D01*
X133235169Y-75896653D01*
X133182883Y-76069019D01*
X133127556Y-76172528D01*
X133097973Y-76227873D01*
X132983707Y-76367107D01*
X132844473Y-76481373D01*
X132844471Y-76481374D01*
X132685619Y-76566283D01*
X132545339Y-76608836D01*
X132513251Y-76618570D01*
X132334000Y-76636224D01*
X132154751Y-76618570D01*
X132154748Y-76618569D01*
X132154747Y-76618569D01*
X131982382Y-76566283D01*
X131823530Y-76481374D01*
X131823528Y-76481373D01*
X131684296Y-76367109D01*
X131570025Y-76227870D01*
X131485118Y-76069021D01*
X131432830Y-75896651D01*
X131419600Y-75762321D01*
X131419600Y-75367680D01*
X131432830Y-75233350D01*
X131485118Y-75060980D01*
X131570027Y-74902127D01*
X131684293Y-74762893D01*
X131823527Y-74648627D01*
X131982379Y-74563718D01*
X131982381Y-74563717D01*
X132154746Y-74511431D01*
X132154749Y-74511430D01*
X132334000Y-74493776D01*
X132513249Y-74511430D01*
X132513249Y-74511430D01*
G37*
G36*
X135053249Y-74511430D02*
X135053252Y-74511431D01*
X135053253Y-74511431D01*
X135225618Y-74563717D01*
X135225620Y-74563718D01*
X135384473Y-74648627D01*
X135523707Y-74762893D01*
X135637973Y-74902127D01*
X135722882Y-75060979D01*
X135775170Y-75233349D01*
X135788400Y-75367679D01*
X135788400Y-75762320D01*
X135775170Y-75896650D01*
X135775169Y-75896653D01*
X135722883Y-76069019D01*
X135667556Y-76172528D01*
X135637973Y-76227873D01*
X135523707Y-76367107D01*
X135384473Y-76481373D01*
X135384471Y-76481374D01*
X135225619Y-76566283D01*
X135085339Y-76608836D01*
X135053251Y-76618570D01*
X134874000Y-76636224D01*
X134694751Y-76618570D01*
X134694748Y-76618569D01*
X134694747Y-76618569D01*
X134522382Y-76566283D01*
X134363530Y-76481374D01*
X134363528Y-76481373D01*
X134224296Y-76367109D01*
X134110025Y-76227870D01*
X134025118Y-76069021D01*
X133972830Y-75896651D01*
X133959600Y-75762321D01*
X133959600Y-75367680D01*
X133972830Y-75233350D01*
X134025118Y-75060980D01*
X134110027Y-74902127D01*
X134224293Y-74762893D01*
X134363527Y-74648627D01*
X134522379Y-74563718D01*
X134522381Y-74563717D01*
X134694746Y-74511431D01*
X134694749Y-74511430D01*
X134874000Y-74493776D01*
X135053249Y-74511430D01*
X135053249Y-74511430D01*
G37*
G36*
X137593249Y-74511430D02*
X137593252Y-74511431D01*
X137593253Y-74511431D01*
X137765618Y-74563717D01*
X137765620Y-74563718D01*
X137924473Y-74648627D01*
X138063707Y-74762893D01*
X138177973Y-74902127D01*
X138262882Y-75060979D01*
X138315170Y-75233349D01*
X138328400Y-75367679D01*
X138328400Y-75762320D01*
X138315170Y-75896650D01*
X138315169Y-75896653D01*
X138262883Y-76069019D01*
X138207556Y-76172528D01*
X138177973Y-76227873D01*
X138063707Y-76367107D01*
X137924473Y-76481373D01*
X137924471Y-76481374D01*
X137765619Y-76566283D01*
X137625339Y-76608836D01*
X137593251Y-76618570D01*
X137414000Y-76636224D01*
X137234751Y-76618570D01*
X137234748Y-76618569D01*
X137234747Y-76618569D01*
X137062382Y-76566283D01*
X136903530Y-76481374D01*
X136903528Y-76481373D01*
X136764296Y-76367109D01*
X136650025Y-76227870D01*
X136565118Y-76069021D01*
X136512830Y-75896651D01*
X136499600Y-75762321D01*
X136499600Y-75367680D01*
X136512830Y-75233350D01*
X136565118Y-75060980D01*
X136650027Y-74902127D01*
X136764293Y-74762893D01*
X136903527Y-74648627D01*
X137062379Y-74563718D01*
X137062381Y-74563717D01*
X137234746Y-74511431D01*
X137234749Y-74511430D01*
X137414000Y-74493776D01*
X137593249Y-74511430D01*
X137593249Y-74511430D01*
G37*
G36*
X140133249Y-74511430D02*
X140133252Y-74511431D01*
X140133253Y-74511431D01*
X140305618Y-74563717D01*
X140305620Y-74563718D01*
X140464473Y-74648627D01*
X140603707Y-74762893D01*
X140717973Y-74902127D01*
X140802882Y-75060979D01*
X140855170Y-75233349D01*
X140868400Y-75367679D01*
X140868400Y-75762320D01*
X140855170Y-75896650D01*
X140855169Y-75896653D01*
X140802883Y-76069019D01*
X140747556Y-76172528D01*
X140717973Y-76227873D01*
X140603707Y-76367107D01*
X140464473Y-76481373D01*
X140464471Y-76481374D01*
X140305619Y-76566283D01*
X140165339Y-76608836D01*
X140133251Y-76618570D01*
X139954000Y-76636224D01*
X139774751Y-76618570D01*
X139774748Y-76618569D01*
X139774747Y-76618569D01*
X139602382Y-76566283D01*
X139443530Y-76481374D01*
X139443528Y-76481373D01*
X139304296Y-76367109D01*
X139190025Y-76227870D01*
X139105118Y-76069021D01*
X139052830Y-75896651D01*
X139039600Y-75762321D01*
X139039600Y-75367680D01*
X139052830Y-75233350D01*
X139105118Y-75060980D01*
X139190027Y-74902127D01*
X139304293Y-74762893D01*
X139443527Y-74648627D01*
X139602379Y-74563718D01*
X139602381Y-74563717D01*
X139774746Y-74511431D01*
X139774749Y-74511430D01*
X139954000Y-74493776D01*
X140133249Y-74511430D01*
X140133249Y-74511430D01*
G37*
G36*
X142673249Y-74511430D02*
X142673252Y-74511431D01*
X142673253Y-74511431D01*
X142845618Y-74563717D01*
X142845620Y-74563718D01*
X143004473Y-74648627D01*
X143143707Y-74762893D01*
X143257973Y-74902127D01*
X143342882Y-75060979D01*
X143395170Y-75233349D01*
X143408400Y-75367679D01*
X143408400Y-75762320D01*
X143395170Y-75896650D01*
X143395169Y-75896653D01*
X143342883Y-76069019D01*
X143287556Y-76172528D01*
X143257973Y-76227873D01*
X143143707Y-76367107D01*
X143004473Y-76481373D01*
X143004471Y-76481374D01*
X142845619Y-76566283D01*
X142705339Y-76608836D01*
X142673251Y-76618570D01*
X142494000Y-76636224D01*
X142314751Y-76618570D01*
X142314748Y-76618569D01*
X142314747Y-76618569D01*
X142142382Y-76566283D01*
X141983530Y-76481374D01*
X141983528Y-76481373D01*
X141844296Y-76367109D01*
X141730025Y-76227870D01*
X141645118Y-76069021D01*
X141592830Y-75896651D01*
X141579600Y-75762321D01*
X141579600Y-75367680D01*
X141592830Y-75233350D01*
X141645118Y-75060980D01*
X141730027Y-74902127D01*
X141844293Y-74762893D01*
X141983527Y-74648627D01*
X142142379Y-74563718D01*
X142142381Y-74563717D01*
X142314746Y-74511431D01*
X142314749Y-74511430D01*
X142494000Y-74493776D01*
X142673249Y-74511430D01*
X142673249Y-74511430D01*
G37*
G36*
X145213249Y-74511430D02*
X145213252Y-74511431D01*
X145213253Y-74511431D01*
X145385618Y-74563717D01*
X145385620Y-74563718D01*
X145544473Y-74648627D01*
X145683707Y-74762893D01*
X145797973Y-74902127D01*
X145882882Y-75060979D01*
X145935170Y-75233349D01*
X145948400Y-75367679D01*
X145948400Y-75762320D01*
X145935170Y-75896650D01*
X145935169Y-75896653D01*
X145882883Y-76069019D01*
X145827556Y-76172528D01*
X145797973Y-76227873D01*
X145683707Y-76367107D01*
X145544473Y-76481373D01*
X145544471Y-76481374D01*
X145385619Y-76566283D01*
X145245339Y-76608836D01*
X145213251Y-76618570D01*
X145034000Y-76636224D01*
X144854751Y-76618570D01*
X144854748Y-76618569D01*
X144854747Y-76618569D01*
X144682382Y-76566283D01*
X144523530Y-76481374D01*
X144523528Y-76481373D01*
X144384296Y-76367109D01*
X144270025Y-76227870D01*
X144185118Y-76069021D01*
X144132830Y-75896651D01*
X144119600Y-75762321D01*
X144119600Y-75367680D01*
X144132830Y-75233350D01*
X144185118Y-75060980D01*
X144270027Y-74902127D01*
X144384293Y-74762893D01*
X144523527Y-74648627D01*
X144682379Y-74563718D01*
X144682381Y-74563717D01*
X144854746Y-74511431D01*
X144854749Y-74511430D01*
X145034000Y-74493776D01*
X145213249Y-74511430D01*
X145213249Y-74511430D01*
G37*
G36*
X147753249Y-74511430D02*
X147753252Y-74511431D01*
X147753253Y-74511431D01*
X147925618Y-74563717D01*
X147925620Y-74563718D01*
X148084473Y-74648627D01*
X148223707Y-74762893D01*
X148337973Y-74902127D01*
X148422882Y-75060979D01*
X148475170Y-75233349D01*
X148488400Y-75367679D01*
X148488400Y-75762320D01*
X148475170Y-75896650D01*
X148475169Y-75896653D01*
X148422883Y-76069019D01*
X148367556Y-76172528D01*
X148337973Y-76227873D01*
X148223707Y-76367107D01*
X148084473Y-76481373D01*
X148084471Y-76481374D01*
X147925619Y-76566283D01*
X147785339Y-76608836D01*
X147753251Y-76618570D01*
X147574000Y-76636224D01*
X147394751Y-76618570D01*
X147394748Y-76618569D01*
X147394747Y-76618569D01*
X147222382Y-76566283D01*
X147063530Y-76481374D01*
X147063528Y-76481373D01*
X146924296Y-76367109D01*
X146810025Y-76227870D01*
X146725118Y-76069021D01*
X146672830Y-75896651D01*
X146659600Y-75762321D01*
X146659600Y-75367680D01*
X146672830Y-75233350D01*
X146725118Y-75060980D01*
X146810027Y-74902127D01*
X146924293Y-74762893D01*
X147063527Y-74648627D01*
X147222379Y-74563718D01*
X147222381Y-74563717D01*
X147394746Y-74511431D01*
X147394749Y-74511430D01*
X147574000Y-74493776D01*
X147753249Y-74511430D01*
X147753249Y-74511430D01*
G37*
G36*
X150293249Y-74511430D02*
X150293252Y-74511431D01*
X150293253Y-74511431D01*
X150465618Y-74563717D01*
X150465620Y-74563718D01*
X150624473Y-74648627D01*
X150763707Y-74762893D01*
X150877973Y-74902127D01*
X150962882Y-75060979D01*
X151015170Y-75233349D01*
X151028400Y-75367679D01*
X151028400Y-75762320D01*
X151015170Y-75896650D01*
X151015169Y-75896653D01*
X150962883Y-76069019D01*
X150907556Y-76172528D01*
X150877973Y-76227873D01*
X150763707Y-76367107D01*
X150624473Y-76481373D01*
X150624471Y-76481374D01*
X150465619Y-76566283D01*
X150325339Y-76608836D01*
X150293251Y-76618570D01*
X150114000Y-76636224D01*
X149934751Y-76618570D01*
X149934748Y-76618569D01*
X149934747Y-76618569D01*
X149762382Y-76566283D01*
X149603530Y-76481374D01*
X149603528Y-76481373D01*
X149464296Y-76367109D01*
X149350025Y-76227870D01*
X149265118Y-76069021D01*
X149212830Y-75896651D01*
X149199600Y-75762321D01*
X149199600Y-75367680D01*
X149212830Y-75233350D01*
X149265118Y-75060980D01*
X149350027Y-74902127D01*
X149464293Y-74762893D01*
X149603527Y-74648627D01*
X149762379Y-74563718D01*
X149762381Y-74563717D01*
X149934746Y-74511431D01*
X149934749Y-74511430D01*
X150114000Y-74493776D01*
X150293249Y-74511430D01*
X150293249Y-74511430D01*
G37*
G36*
X129973249Y-74511430D02*
X129973252Y-74511431D01*
X129973253Y-74511431D01*
X130145618Y-74563717D01*
X130145620Y-74563718D01*
X130304473Y-74648627D01*
X130443707Y-74762893D01*
X130557973Y-74902127D01*
X130642882Y-75060979D01*
X130695170Y-75233349D01*
X130708400Y-75367679D01*
X130708400Y-75762320D01*
X130695170Y-75896650D01*
X130695169Y-75896653D01*
X130642883Y-76069019D01*
X130587556Y-76172528D01*
X130557973Y-76227873D01*
X130443707Y-76367107D01*
X130304473Y-76481373D01*
X130304471Y-76481374D01*
X130145619Y-76566283D01*
X130005339Y-76608836D01*
X129973251Y-76618570D01*
X129794000Y-76636224D01*
X129614751Y-76618570D01*
X129614748Y-76618569D01*
X129614747Y-76618569D01*
X129442382Y-76566283D01*
X129283530Y-76481374D01*
X129283528Y-76481373D01*
X129144296Y-76367109D01*
X129030025Y-76227870D01*
X128945118Y-76069021D01*
X128892830Y-75896651D01*
X128879600Y-75762321D01*
X128879600Y-75367680D01*
X128892830Y-75233350D01*
X128945118Y-75060980D01*
X129030027Y-74902127D01*
X129144293Y-74762893D01*
X129283527Y-74648627D01*
X129442379Y-74563718D01*
X129442381Y-74563717D01*
X129614746Y-74511431D01*
X129614749Y-74511430D01*
X129794000Y-74493776D01*
X129973249Y-74511430D01*
X129973249Y-74511430D01*
G37*
G36*
X156897249Y-74511430D02*
X156897252Y-74511431D01*
X156897253Y-74511431D01*
X157069618Y-74563717D01*
X157069620Y-74563718D01*
X157228473Y-74648627D01*
X157367707Y-74762893D01*
X157481973Y-74902127D01*
X157566882Y-75060979D01*
X157619170Y-75233349D01*
X157632400Y-75367679D01*
X157632400Y-75762320D01*
X157619170Y-75896650D01*
X157619169Y-75896653D01*
X157566883Y-76069019D01*
X157511556Y-76172528D01*
X157481973Y-76227873D01*
X157367707Y-76367107D01*
X157228473Y-76481373D01*
X157228471Y-76481374D01*
X157069619Y-76566283D01*
X156929339Y-76608836D01*
X156897251Y-76618570D01*
X156718000Y-76636224D01*
X156538751Y-76618570D01*
X156538748Y-76618569D01*
X156538747Y-76618569D01*
X156366382Y-76566283D01*
X156207530Y-76481374D01*
X156207528Y-76481373D01*
X156068296Y-76367109D01*
X155954025Y-76227870D01*
X155869118Y-76069021D01*
X155816830Y-75896651D01*
X155803600Y-75762321D01*
X155803600Y-75367680D01*
X155816830Y-75233350D01*
X155869118Y-75060980D01*
X155954027Y-74902127D01*
X156068293Y-74762893D01*
X156207527Y-74648627D01*
X156366379Y-74563718D01*
X156366381Y-74563717D01*
X156538746Y-74511431D01*
X156538749Y-74511430D01*
X156718000Y-74493776D01*
X156897249Y-74511430D01*
X156897249Y-74511430D01*
G37*
G36*
X161977249Y-74511430D02*
X161977252Y-74511431D01*
X161977253Y-74511431D01*
X162149618Y-74563717D01*
X162149620Y-74563718D01*
X162308473Y-74648627D01*
X162447707Y-74762893D01*
X162561973Y-74902127D01*
X162646882Y-75060979D01*
X162699170Y-75233349D01*
X162712400Y-75367679D01*
X162712400Y-75762320D01*
X162699170Y-75896650D01*
X162699169Y-75896653D01*
X162646883Y-76069019D01*
X162591556Y-76172528D01*
X162561973Y-76227873D01*
X162447707Y-76367107D01*
X162308473Y-76481373D01*
X162308471Y-76481374D01*
X162149619Y-76566283D01*
X162009339Y-76608836D01*
X161977251Y-76618570D01*
X161798000Y-76636224D01*
X161618751Y-76618570D01*
X161618748Y-76618569D01*
X161618747Y-76618569D01*
X161446382Y-76566283D01*
X161287530Y-76481374D01*
X161287528Y-76481373D01*
X161148296Y-76367109D01*
X161034025Y-76227870D01*
X160949118Y-76069021D01*
X160896830Y-75896651D01*
X160883600Y-75762321D01*
X160883600Y-75367680D01*
X160896830Y-75233350D01*
X160949118Y-75060980D01*
X161034027Y-74902127D01*
X161148293Y-74762893D01*
X161287527Y-74648627D01*
X161446379Y-74563718D01*
X161446381Y-74563717D01*
X161618746Y-74511431D01*
X161618749Y-74511430D01*
X161798000Y-74493776D01*
X161977249Y-74511430D01*
X161977249Y-74511430D01*
G37*
G36*
X164517249Y-74511430D02*
X164517252Y-74511431D01*
X164517253Y-74511431D01*
X164689618Y-74563717D01*
X164689620Y-74563718D01*
X164848473Y-74648627D01*
X164987707Y-74762893D01*
X165101973Y-74902127D01*
X165186882Y-75060979D01*
X165239170Y-75233349D01*
X165252400Y-75367679D01*
X165252400Y-75762320D01*
X165239170Y-75896650D01*
X165239169Y-75896653D01*
X165186883Y-76069019D01*
X165131556Y-76172528D01*
X165101973Y-76227873D01*
X164987707Y-76367107D01*
X164848473Y-76481373D01*
X164848471Y-76481374D01*
X164689619Y-76566283D01*
X164549339Y-76608836D01*
X164517251Y-76618570D01*
X164338000Y-76636224D01*
X164158751Y-76618570D01*
X164158748Y-76618569D01*
X164158747Y-76618569D01*
X163986382Y-76566283D01*
X163827530Y-76481374D01*
X163827528Y-76481373D01*
X163688296Y-76367109D01*
X163574025Y-76227870D01*
X163489118Y-76069021D01*
X163436830Y-75896651D01*
X163423600Y-75762321D01*
X163423600Y-75367680D01*
X163436830Y-75233350D01*
X163489118Y-75060980D01*
X163574027Y-74902127D01*
X163688293Y-74762893D01*
X163827527Y-74648627D01*
X163986379Y-74563718D01*
X163986381Y-74563717D01*
X164158746Y-74511431D01*
X164158749Y-74511430D01*
X164338000Y-74493776D01*
X164517249Y-74511430D01*
X164517249Y-74511430D01*
G37*
G36*
X167057249Y-74511430D02*
X167057252Y-74511431D01*
X167057253Y-74511431D01*
X167229618Y-74563717D01*
X167229620Y-74563718D01*
X167388473Y-74648627D01*
X167527707Y-74762893D01*
X167641973Y-74902127D01*
X167726882Y-75060979D01*
X167779170Y-75233349D01*
X167792400Y-75367679D01*
X167792400Y-75762320D01*
X167779170Y-75896650D01*
X167779169Y-75896653D01*
X167726883Y-76069019D01*
X167671556Y-76172528D01*
X167641973Y-76227873D01*
X167527707Y-76367107D01*
X167388473Y-76481373D01*
X167388471Y-76481374D01*
X167229619Y-76566283D01*
X167089339Y-76608836D01*
X167057251Y-76618570D01*
X166878000Y-76636224D01*
X166698751Y-76618570D01*
X166698748Y-76618569D01*
X166698747Y-76618569D01*
X166526382Y-76566283D01*
X166367530Y-76481374D01*
X166367528Y-76481373D01*
X166228296Y-76367109D01*
X166114025Y-76227870D01*
X166029118Y-76069021D01*
X165976830Y-75896651D01*
X165963600Y-75762321D01*
X165963600Y-75367680D01*
X165976830Y-75233350D01*
X166029118Y-75060980D01*
X166114027Y-74902127D01*
X166228293Y-74762893D01*
X166367527Y-74648627D01*
X166526379Y-74563718D01*
X166526381Y-74563717D01*
X166698746Y-74511431D01*
X166698749Y-74511430D01*
X166878000Y-74493776D01*
X167057249Y-74511430D01*
X167057249Y-74511430D01*
G37*
G36*
X169597249Y-74511430D02*
X169597252Y-74511431D01*
X169597253Y-74511431D01*
X169769618Y-74563717D01*
X169769620Y-74563718D01*
X169928473Y-74648627D01*
X170067707Y-74762893D01*
X170181973Y-74902127D01*
X170266882Y-75060979D01*
X170319170Y-75233349D01*
X170332400Y-75367679D01*
X170332400Y-75762320D01*
X170319170Y-75896650D01*
X170319169Y-75896653D01*
X170266883Y-76069019D01*
X170211556Y-76172528D01*
X170181973Y-76227873D01*
X170067707Y-76367107D01*
X169928473Y-76481373D01*
X169928471Y-76481374D01*
X169769619Y-76566283D01*
X169629339Y-76608836D01*
X169597251Y-76618570D01*
X169418000Y-76636224D01*
X169238751Y-76618570D01*
X169238748Y-76618569D01*
X169238747Y-76618569D01*
X169066382Y-76566283D01*
X168907530Y-76481374D01*
X168907528Y-76481373D01*
X168768296Y-76367109D01*
X168654025Y-76227870D01*
X168569118Y-76069021D01*
X168516830Y-75896651D01*
X168503600Y-75762321D01*
X168503600Y-75367680D01*
X168516830Y-75233350D01*
X168569118Y-75060980D01*
X168654027Y-74902127D01*
X168768293Y-74762893D01*
X168907527Y-74648627D01*
X169066379Y-74563718D01*
X169066381Y-74563717D01*
X169238746Y-74511431D01*
X169238749Y-74511430D01*
X169418000Y-74493776D01*
X169597249Y-74511430D01*
X169597249Y-74511430D01*
G37*
G36*
X174677249Y-74511430D02*
X174677252Y-74511431D01*
X174677253Y-74511431D01*
X174849618Y-74563717D01*
X174849620Y-74563718D01*
X175008473Y-74648627D01*
X175147707Y-74762893D01*
X175261973Y-74902127D01*
X175346882Y-75060979D01*
X175399170Y-75233349D01*
X175412400Y-75367679D01*
X175412400Y-75762320D01*
X175399170Y-75896650D01*
X175399169Y-75896653D01*
X175346883Y-76069019D01*
X175291556Y-76172528D01*
X175261973Y-76227873D01*
X175147707Y-76367107D01*
X175008473Y-76481373D01*
X175008471Y-76481374D01*
X174849619Y-76566283D01*
X174709339Y-76608836D01*
X174677251Y-76618570D01*
X174498000Y-76636224D01*
X174318751Y-76618570D01*
X174318748Y-76618569D01*
X174318747Y-76618569D01*
X174146382Y-76566283D01*
X173987530Y-76481374D01*
X173987528Y-76481373D01*
X173848296Y-76367109D01*
X173734025Y-76227870D01*
X173649118Y-76069021D01*
X173596830Y-75896651D01*
X173583600Y-75762321D01*
X173583600Y-75367680D01*
X173596830Y-75233350D01*
X173649118Y-75060980D01*
X173734027Y-74902127D01*
X173848293Y-74762893D01*
X173987527Y-74648627D01*
X174146379Y-74563718D01*
X174146381Y-74563717D01*
X174318746Y-74511431D01*
X174318749Y-74511430D01*
X174498000Y-74493776D01*
X174677249Y-74511430D01*
X174677249Y-74511430D01*
G37*
G36*
X152833249Y-74511430D02*
X152833252Y-74511431D01*
X152833253Y-74511431D01*
X153005618Y-74563717D01*
X153005620Y-74563718D01*
X153164473Y-74648627D01*
X153303707Y-74762893D01*
X153417973Y-74902127D01*
X153502882Y-75060979D01*
X153555170Y-75233349D01*
X153568400Y-75367679D01*
X153568400Y-75762320D01*
X153555170Y-75896650D01*
X153555169Y-75896653D01*
X153502883Y-76069019D01*
X153447556Y-76172528D01*
X153417973Y-76227873D01*
X153303707Y-76367107D01*
X153164473Y-76481373D01*
X153164471Y-76481374D01*
X153005619Y-76566283D01*
X152865339Y-76608836D01*
X152833251Y-76618570D01*
X152654000Y-76636224D01*
X152474751Y-76618570D01*
X152474748Y-76618569D01*
X152474747Y-76618569D01*
X152302382Y-76566283D01*
X152143530Y-76481374D01*
X152143528Y-76481373D01*
X152004296Y-76367109D01*
X151890025Y-76227870D01*
X151805118Y-76069021D01*
X151752830Y-75896651D01*
X151739600Y-75762321D01*
X151739600Y-75367680D01*
X151752830Y-75233350D01*
X151805118Y-75060980D01*
X151890027Y-74902127D01*
X152004293Y-74762893D01*
X152143527Y-74648627D01*
X152302379Y-74563718D01*
X152302381Y-74563717D01*
X152474746Y-74511431D01*
X152474749Y-74511430D01*
X152654000Y-74493776D01*
X152833249Y-74511430D01*
X152833249Y-74511430D01*
G37*
G36*
X172137249Y-74511430D02*
X172137252Y-74511431D01*
X172137253Y-74511431D01*
X172309618Y-74563717D01*
X172309620Y-74563718D01*
X172468473Y-74648627D01*
X172607707Y-74762893D01*
X172721973Y-74902127D01*
X172806882Y-75060979D01*
X172859170Y-75233349D01*
X172872400Y-75367679D01*
X172872400Y-75762320D01*
X172859170Y-75896650D01*
X172859169Y-75896653D01*
X172806883Y-76069019D01*
X172751556Y-76172528D01*
X172721973Y-76227873D01*
X172607707Y-76367107D01*
X172468473Y-76481373D01*
X172468471Y-76481374D01*
X172309619Y-76566283D01*
X172169339Y-76608836D01*
X172137251Y-76618570D01*
X171958000Y-76636224D01*
X171778751Y-76618570D01*
X171778748Y-76618569D01*
X171778747Y-76618569D01*
X171606382Y-76566283D01*
X171447530Y-76481374D01*
X171447528Y-76481373D01*
X171308296Y-76367109D01*
X171194025Y-76227870D01*
X171109118Y-76069021D01*
X171056830Y-75896651D01*
X171043600Y-75762321D01*
X171043600Y-75367680D01*
X171056830Y-75233350D01*
X171109118Y-75060980D01*
X171194027Y-74902127D01*
X171308293Y-74762893D01*
X171447527Y-74648627D01*
X171606379Y-74563718D01*
X171606381Y-74563717D01*
X171778746Y-74511431D01*
X171778749Y-74511430D01*
X171958000Y-74493776D01*
X172137249Y-74511430D01*
X172137249Y-74511430D01*
G37*
G36*
X116978800Y-76465800D02*
X115177200Y-76465800D01*
X115177200Y-74664200D01*
X116978800Y-74664200D01*
X116978800Y-76465800D01*
X116978800Y-76465800D01*
G37*
G36*
X168236362Y-69588545D02*
X168324588Y-69597234D01*
X168410258Y-69623222D01*
X168494390Y-69648743D01*
X168631074Y-69721803D01*
X168650879Y-69732389D01*
X168686609Y-69761712D01*
X168788044Y-69844956D01*
X168871288Y-69946391D01*
X168900611Y-69982121D01*
X168900612Y-69982123D01*
X168984257Y-70138610D01*
X168984257Y-70138611D01*
X169035766Y-70308412D01*
X169053158Y-70485000D01*
X169035766Y-70661588D01*
X169001427Y-70774789D01*
X168984257Y-70831390D01*
X168941336Y-70911689D01*
X168900611Y-70987879D01*
X168871288Y-71023609D01*
X168788044Y-71125044D01*
X168715355Y-71184697D01*
X168650879Y-71237611D01*
X168650877Y-71237612D01*
X168494390Y-71321257D01*
X168437789Y-71338427D01*
X168324588Y-71372766D01*
X168236362Y-71381455D01*
X168192250Y-71385800D01*
X168103750Y-71385800D01*
X168059638Y-71381455D01*
X167971412Y-71372766D01*
X167858211Y-71338427D01*
X167801610Y-71321257D01*
X167645123Y-71237612D01*
X167645121Y-71237611D01*
X167580645Y-71184697D01*
X167507956Y-71125044D01*
X167424712Y-71023609D01*
X167395389Y-70987879D01*
X167354664Y-70911689D01*
X167311743Y-70831390D01*
X167294573Y-70774789D01*
X167260234Y-70661588D01*
X167242842Y-70485000D01*
X167260234Y-70308412D01*
X167311743Y-70138611D01*
X167311743Y-70138610D01*
X167395388Y-69982123D01*
X167395389Y-69982121D01*
X167424712Y-69946391D01*
X167507956Y-69844956D01*
X167609391Y-69761712D01*
X167645121Y-69732389D01*
X167664926Y-69721803D01*
X167801610Y-69648743D01*
X167885742Y-69623222D01*
X167971412Y-69597234D01*
X168059638Y-69588545D01*
X168103750Y-69584200D01*
X168192250Y-69584200D01*
X168236362Y-69588545D01*
X168236362Y-69588545D01*
G37*
G36*
X174128800Y-71385800D02*
X172327200Y-71385800D01*
X172327200Y-69584200D01*
X174128800Y-69584200D01*
X174128800Y-71385800D01*
X174128800Y-71385800D01*
G37*
G36*
X170776362Y-69588545D02*
X170864588Y-69597234D01*
X170950258Y-69623222D01*
X171034390Y-69648743D01*
X171171074Y-69721803D01*
X171190879Y-69732389D01*
X171226609Y-69761712D01*
X171328044Y-69844956D01*
X171411288Y-69946391D01*
X171440611Y-69982121D01*
X171440612Y-69982123D01*
X171524257Y-70138610D01*
X171524257Y-70138611D01*
X171575766Y-70308412D01*
X171593158Y-70485000D01*
X171575766Y-70661588D01*
X171541427Y-70774789D01*
X171524257Y-70831390D01*
X171481336Y-70911689D01*
X171440611Y-70987879D01*
X171411288Y-71023609D01*
X171328044Y-71125044D01*
X171255355Y-71184697D01*
X171190879Y-71237611D01*
X171190877Y-71237612D01*
X171034390Y-71321257D01*
X170977789Y-71338427D01*
X170864588Y-71372766D01*
X170776362Y-71381455D01*
X170732250Y-71385800D01*
X170643750Y-71385800D01*
X170599638Y-71381455D01*
X170511412Y-71372766D01*
X170398211Y-71338427D01*
X170341610Y-71321257D01*
X170185123Y-71237612D01*
X170185121Y-71237611D01*
X170120645Y-71184697D01*
X170047956Y-71125044D01*
X169964712Y-71023609D01*
X169935389Y-70987879D01*
X169894664Y-70911689D01*
X169851743Y-70831390D01*
X169834573Y-70774789D01*
X169800234Y-70661588D01*
X169782842Y-70485000D01*
X169800234Y-70308412D01*
X169851743Y-70138611D01*
X169851743Y-70138610D01*
X169935388Y-69982123D01*
X169935389Y-69982121D01*
X169964712Y-69946391D01*
X170047956Y-69844956D01*
X170149391Y-69761712D01*
X170185121Y-69732389D01*
X170204926Y-69721803D01*
X170341610Y-69648743D01*
X170425742Y-69623222D01*
X170511412Y-69597234D01*
X170599638Y-69588545D01*
X170643750Y-69584200D01*
X170732250Y-69584200D01*
X170776362Y-69588545D01*
X170776362Y-69588545D01*
G37*
G36*
X165740229Y-69592854D02*
X165870754Y-69618817D01*
X166034689Y-69686721D01*
X166182227Y-69785303D01*
X166307697Y-69910773D01*
X166406279Y-70058311D01*
X166474183Y-70222246D01*
X166508800Y-70396279D01*
X166508800Y-70573721D01*
X166474183Y-70747754D01*
X166406279Y-70911689D01*
X166307697Y-71059227D01*
X166182227Y-71184697D01*
X166034689Y-71283279D01*
X165870754Y-71351183D01*
X165740229Y-71377146D01*
X165696722Y-71385800D01*
X165519278Y-71385800D01*
X165475771Y-71377146D01*
X165345246Y-71351183D01*
X165181311Y-71283279D01*
X165033773Y-71184697D01*
X164908303Y-71059227D01*
X164809721Y-70911689D01*
X164741817Y-70747754D01*
X164707200Y-70573721D01*
X164707200Y-70396279D01*
X164741817Y-70222246D01*
X164809721Y-70058311D01*
X164908303Y-69910773D01*
X165033773Y-69785303D01*
X165181311Y-69686721D01*
X165345246Y-69618817D01*
X165475771Y-69592854D01*
X165519278Y-69584200D01*
X165696722Y-69584200D01*
X165740229Y-69592854D01*
X165740229Y-69592854D01*
G37*
G36*
X150500229Y-69592854D02*
X150630754Y-69618817D01*
X150794689Y-69686721D01*
X150942227Y-69785303D01*
X151067697Y-69910773D01*
X151166279Y-70058311D01*
X151234183Y-70222246D01*
X151268800Y-70396279D01*
X151268800Y-70573721D01*
X151234183Y-70747754D01*
X151166279Y-70911689D01*
X151067697Y-71059227D01*
X150942227Y-71184697D01*
X150794689Y-71283279D01*
X150630754Y-71351183D01*
X150500229Y-71377146D01*
X150456722Y-71385800D01*
X150279278Y-71385800D01*
X150235771Y-71377146D01*
X150105246Y-71351183D01*
X149941311Y-71283279D01*
X149793773Y-71184697D01*
X149668303Y-71059227D01*
X149569721Y-70911689D01*
X149501817Y-70747754D01*
X149467200Y-70573721D01*
X149467200Y-70396279D01*
X149501817Y-70222246D01*
X149569721Y-70058311D01*
X149668303Y-69910773D01*
X149793773Y-69785303D01*
X149941311Y-69686721D01*
X150105246Y-69618817D01*
X150235771Y-69592854D01*
X150279278Y-69584200D01*
X150456722Y-69584200D01*
X150500229Y-69592854D01*
X150500229Y-69592854D01*
G37*
G36*
X152996362Y-69588545D02*
X153084588Y-69597234D01*
X153170258Y-69623222D01*
X153254390Y-69648743D01*
X153391074Y-69721803D01*
X153410879Y-69732389D01*
X153446609Y-69761712D01*
X153548044Y-69844956D01*
X153631288Y-69946391D01*
X153660611Y-69982121D01*
X153660612Y-69982123D01*
X153744257Y-70138610D01*
X153744257Y-70138611D01*
X153795766Y-70308412D01*
X153813158Y-70485000D01*
X153795766Y-70661588D01*
X153761427Y-70774789D01*
X153744257Y-70831390D01*
X153701336Y-70911689D01*
X153660611Y-70987879D01*
X153631288Y-71023609D01*
X153548044Y-71125044D01*
X153475355Y-71184697D01*
X153410879Y-71237611D01*
X153410877Y-71237612D01*
X153254390Y-71321257D01*
X153197789Y-71338427D01*
X153084588Y-71372766D01*
X152996362Y-71381455D01*
X152952250Y-71385800D01*
X152863750Y-71385800D01*
X152819638Y-71381455D01*
X152731412Y-71372766D01*
X152618211Y-71338427D01*
X152561610Y-71321257D01*
X152405123Y-71237612D01*
X152405121Y-71237611D01*
X152340645Y-71184697D01*
X152267956Y-71125044D01*
X152184712Y-71023609D01*
X152155389Y-70987879D01*
X152114664Y-70911689D01*
X152071743Y-70831390D01*
X152054573Y-70774789D01*
X152020234Y-70661588D01*
X152002842Y-70485000D01*
X152020234Y-70308412D01*
X152071743Y-70138611D01*
X152071743Y-70138610D01*
X152155388Y-69982123D01*
X152155389Y-69982121D01*
X152184712Y-69946391D01*
X152267956Y-69844956D01*
X152369391Y-69761712D01*
X152405121Y-69732389D01*
X152424926Y-69721803D01*
X152561610Y-69648743D01*
X152645742Y-69623222D01*
X152731412Y-69597234D01*
X152819638Y-69588545D01*
X152863750Y-69584200D01*
X152952250Y-69584200D01*
X152996362Y-69588545D01*
X152996362Y-69588545D01*
G37*
G36*
X137756362Y-69588545D02*
X137844588Y-69597234D01*
X137930258Y-69623222D01*
X138014390Y-69648743D01*
X138151074Y-69721803D01*
X138170879Y-69732389D01*
X138206609Y-69761712D01*
X138308044Y-69844956D01*
X138391288Y-69946391D01*
X138420611Y-69982121D01*
X138420612Y-69982123D01*
X138504257Y-70138610D01*
X138504257Y-70138611D01*
X138555766Y-70308412D01*
X138573158Y-70485000D01*
X138555766Y-70661588D01*
X138521427Y-70774789D01*
X138504257Y-70831390D01*
X138461336Y-70911689D01*
X138420611Y-70987879D01*
X138391288Y-71023609D01*
X138308044Y-71125044D01*
X138235355Y-71184697D01*
X138170879Y-71237611D01*
X138170877Y-71237612D01*
X138014390Y-71321257D01*
X137957789Y-71338427D01*
X137844588Y-71372766D01*
X137756362Y-71381455D01*
X137712250Y-71385800D01*
X137623750Y-71385800D01*
X137579638Y-71381455D01*
X137491412Y-71372766D01*
X137378211Y-71338427D01*
X137321610Y-71321257D01*
X137165123Y-71237612D01*
X137165121Y-71237611D01*
X137100645Y-71184697D01*
X137027956Y-71125044D01*
X136944712Y-71023609D01*
X136915389Y-70987879D01*
X136874664Y-70911689D01*
X136831743Y-70831390D01*
X136814573Y-70774789D01*
X136780234Y-70661588D01*
X136762842Y-70485000D01*
X136780234Y-70308412D01*
X136831743Y-70138611D01*
X136831743Y-70138610D01*
X136915388Y-69982123D01*
X136915389Y-69982121D01*
X136944712Y-69946391D01*
X137027956Y-69844956D01*
X137129391Y-69761712D01*
X137165121Y-69732389D01*
X137184926Y-69721803D01*
X137321610Y-69648743D01*
X137405742Y-69623222D01*
X137491412Y-69597234D01*
X137579638Y-69588545D01*
X137623750Y-69584200D01*
X137712250Y-69584200D01*
X137756362Y-69588545D01*
X137756362Y-69588545D01*
G37*
G36*
X135216362Y-69588545D02*
X135304588Y-69597234D01*
X135390258Y-69623222D01*
X135474390Y-69648743D01*
X135611074Y-69721803D01*
X135630879Y-69732389D01*
X135666609Y-69761712D01*
X135768044Y-69844956D01*
X135851288Y-69946391D01*
X135880611Y-69982121D01*
X135880612Y-69982123D01*
X135964257Y-70138610D01*
X135964257Y-70138611D01*
X136015766Y-70308412D01*
X136033158Y-70485000D01*
X136015766Y-70661588D01*
X135981427Y-70774789D01*
X135964257Y-70831390D01*
X135921336Y-70911689D01*
X135880611Y-70987879D01*
X135851288Y-71023609D01*
X135768044Y-71125044D01*
X135695355Y-71184697D01*
X135630879Y-71237611D01*
X135630877Y-71237612D01*
X135474390Y-71321257D01*
X135417789Y-71338427D01*
X135304588Y-71372766D01*
X135216362Y-71381455D01*
X135172250Y-71385800D01*
X135083750Y-71385800D01*
X135039638Y-71381455D01*
X134951412Y-71372766D01*
X134838211Y-71338427D01*
X134781610Y-71321257D01*
X134625123Y-71237612D01*
X134625121Y-71237611D01*
X134560645Y-71184697D01*
X134487956Y-71125044D01*
X134404712Y-71023609D01*
X134375389Y-70987879D01*
X134334664Y-70911689D01*
X134291743Y-70831390D01*
X134274573Y-70774789D01*
X134240234Y-70661588D01*
X134222842Y-70485000D01*
X134240234Y-70308412D01*
X134291743Y-70138611D01*
X134291743Y-70138610D01*
X134375388Y-69982123D01*
X134375389Y-69982121D01*
X134404712Y-69946391D01*
X134487956Y-69844956D01*
X134589391Y-69761712D01*
X134625121Y-69732389D01*
X134644926Y-69721803D01*
X134781610Y-69648743D01*
X134865742Y-69623222D01*
X134951412Y-69597234D01*
X135039638Y-69588545D01*
X135083750Y-69584200D01*
X135172250Y-69584200D01*
X135216362Y-69588545D01*
X135216362Y-69588545D01*
G37*
G36*
X132720229Y-69592854D02*
X132850754Y-69618817D01*
X133014689Y-69686721D01*
X133162227Y-69785303D01*
X133287697Y-69910773D01*
X133386279Y-70058311D01*
X133454183Y-70222246D01*
X133488800Y-70396279D01*
X133488800Y-70573721D01*
X133454183Y-70747754D01*
X133386279Y-70911689D01*
X133287697Y-71059227D01*
X133162227Y-71184697D01*
X133014689Y-71283279D01*
X132850754Y-71351183D01*
X132720229Y-71377146D01*
X132676722Y-71385800D01*
X132499278Y-71385800D01*
X132455771Y-71377146D01*
X132325246Y-71351183D01*
X132161311Y-71283279D01*
X132013773Y-71184697D01*
X131888303Y-71059227D01*
X131789721Y-70911689D01*
X131721817Y-70747754D01*
X131687200Y-70573721D01*
X131687200Y-70396279D01*
X131721817Y-70222246D01*
X131789721Y-70058311D01*
X131888303Y-69910773D01*
X132013773Y-69785303D01*
X132161311Y-69686721D01*
X132325246Y-69618817D01*
X132455771Y-69592854D01*
X132499278Y-69584200D01*
X132676722Y-69584200D01*
X132720229Y-69592854D01*
X132720229Y-69592854D01*
G37*
G36*
X158888800Y-71385800D02*
X157087200Y-71385800D01*
X157087200Y-69584200D01*
X158888800Y-69584200D01*
X158888800Y-71385800D01*
X158888800Y-71385800D01*
G37*
G36*
X141108800Y-71385800D02*
X139307200Y-71385800D01*
X139307200Y-69584200D01*
X141108800Y-69584200D01*
X141108800Y-71385800D01*
X141108800Y-71385800D01*
G37*
G36*
X155536362Y-69588545D02*
X155624588Y-69597234D01*
X155710258Y-69623222D01*
X155794390Y-69648743D01*
X155931074Y-69721803D01*
X155950879Y-69732389D01*
X155986609Y-69761712D01*
X156088044Y-69844956D01*
X156171288Y-69946391D01*
X156200611Y-69982121D01*
X156200612Y-69982123D01*
X156284257Y-70138610D01*
X156284257Y-70138611D01*
X156335766Y-70308412D01*
X156353158Y-70485000D01*
X156335766Y-70661588D01*
X156301427Y-70774789D01*
X156284257Y-70831390D01*
X156241336Y-70911689D01*
X156200611Y-70987879D01*
X156171288Y-71023609D01*
X156088044Y-71125044D01*
X156015355Y-71184697D01*
X155950879Y-71237611D01*
X155950877Y-71237612D01*
X155794390Y-71321257D01*
X155737789Y-71338427D01*
X155624588Y-71372766D01*
X155536362Y-71381455D01*
X155492250Y-71385800D01*
X155403750Y-71385800D01*
X155359638Y-71381455D01*
X155271412Y-71372766D01*
X155158211Y-71338427D01*
X155101610Y-71321257D01*
X154945123Y-71237612D01*
X154945121Y-71237611D01*
X154880645Y-71184697D01*
X154807956Y-71125044D01*
X154724712Y-71023609D01*
X154695389Y-70987879D01*
X154654664Y-70911689D01*
X154611743Y-70831390D01*
X154594573Y-70774789D01*
X154560234Y-70661588D01*
X154542842Y-70485000D01*
X154560234Y-70308412D01*
X154611743Y-70138611D01*
X154611743Y-70138610D01*
X154695388Y-69982123D01*
X154695389Y-69982121D01*
X154724712Y-69946391D01*
X154807956Y-69844956D01*
X154909391Y-69761712D01*
X154945121Y-69732389D01*
X154964926Y-69721803D01*
X155101610Y-69648743D01*
X155185742Y-69623222D01*
X155271412Y-69597234D01*
X155359638Y-69588545D01*
X155403750Y-69584200D01*
X155492250Y-69584200D01*
X155536362Y-69588545D01*
X155536362Y-69588545D01*
G37*
G36*
X115194229Y-69529354D02*
X115324754Y-69555317D01*
X115488689Y-69623221D01*
X115636227Y-69721803D01*
X115761697Y-69847273D01*
X115860279Y-69994811D01*
X115928183Y-70158746D01*
X115962800Y-70332779D01*
X115962800Y-70510221D01*
X115928183Y-70684254D01*
X115860279Y-70848189D01*
X115761697Y-70995727D01*
X115636227Y-71121197D01*
X115488689Y-71219779D01*
X115324754Y-71287683D01*
X115194229Y-71313646D01*
X115150722Y-71322300D01*
X114973278Y-71322300D01*
X114929771Y-71313646D01*
X114799246Y-71287683D01*
X114635311Y-71219779D01*
X114487773Y-71121197D01*
X114362303Y-70995727D01*
X114263721Y-70848189D01*
X114195817Y-70684254D01*
X114161200Y-70510221D01*
X114161200Y-70332779D01*
X114195817Y-70158746D01*
X114263721Y-69994811D01*
X114362303Y-69847273D01*
X114487773Y-69721803D01*
X114635311Y-69623221D01*
X114799246Y-69555317D01*
X114929771Y-69529354D01*
X114973278Y-69520700D01*
X115150722Y-69520700D01*
X115194229Y-69529354D01*
X115194229Y-69529354D01*
G37*
G36*
X123836800Y-69392800D02*
X122035200Y-69392800D01*
X122035200Y-68529200D01*
X123836800Y-68529200D01*
X123836800Y-69392800D01*
X123836800Y-69392800D01*
G37*
G36*
X120949648Y-68535448D02*
X121003911Y-68551909D01*
X121031043Y-68560139D01*
X121056047Y-68573504D01*
X121106056Y-68600234D01*
X121171806Y-68654194D01*
X121225766Y-68719944D01*
X121252129Y-68769266D01*
X121265861Y-68794957D01*
X121265861Y-68794958D01*
X121290552Y-68876352D01*
X121298889Y-68961000D01*
X121290552Y-69045648D01*
X121274091Y-69099911D01*
X121265861Y-69127043D01*
X121252496Y-69152047D01*
X121225766Y-69202056D01*
X121171806Y-69267806D01*
X121106056Y-69321766D01*
X121056047Y-69348496D01*
X121031043Y-69361861D01*
X121003911Y-69370091D01*
X120949648Y-69386552D01*
X120886210Y-69392800D01*
X119905790Y-69392800D01*
X119842352Y-69386552D01*
X119788089Y-69370091D01*
X119760957Y-69361861D01*
X119735953Y-69348496D01*
X119685944Y-69321766D01*
X119620194Y-69267806D01*
X119566234Y-69202056D01*
X119539504Y-69152047D01*
X119526139Y-69127043D01*
X119517909Y-69099911D01*
X119501448Y-69045648D01*
X119493111Y-68961000D01*
X119501448Y-68876352D01*
X119526139Y-68794958D01*
X119526139Y-68794957D01*
X119539871Y-68769266D01*
X119566234Y-68719944D01*
X119620194Y-68654194D01*
X119685944Y-68600234D01*
X119735953Y-68573504D01*
X119760957Y-68560139D01*
X119788089Y-68551909D01*
X119842352Y-68535448D01*
X119905790Y-68529200D01*
X120886210Y-68529200D01*
X120949648Y-68535448D01*
X120949648Y-68535448D01*
G37*
G36*
X118409648Y-68535448D02*
X118463911Y-68551909D01*
X118491043Y-68560139D01*
X118516047Y-68573504D01*
X118566056Y-68600234D01*
X118631806Y-68654194D01*
X118685766Y-68719944D01*
X118712129Y-68769266D01*
X118725861Y-68794957D01*
X118725861Y-68794958D01*
X118750552Y-68876352D01*
X118758889Y-68961000D01*
X118750552Y-69045648D01*
X118734091Y-69099911D01*
X118725861Y-69127043D01*
X118712496Y-69152047D01*
X118685766Y-69202056D01*
X118631806Y-69267806D01*
X118566056Y-69321766D01*
X118516047Y-69348496D01*
X118491043Y-69361861D01*
X118463911Y-69370091D01*
X118409648Y-69386552D01*
X118346210Y-69392800D01*
X117365790Y-69392800D01*
X117302352Y-69386552D01*
X117248089Y-69370091D01*
X117220957Y-69361861D01*
X117195953Y-69348496D01*
X117145944Y-69321766D01*
X117080194Y-69267806D01*
X117026234Y-69202056D01*
X116999504Y-69152047D01*
X116986139Y-69127043D01*
X116977909Y-69099911D01*
X116961448Y-69045648D01*
X116953111Y-68961000D01*
X116961448Y-68876352D01*
X116986139Y-68794958D01*
X116986139Y-68794957D01*
X116999871Y-68769266D01*
X117026234Y-68719944D01*
X117080194Y-68654194D01*
X117145944Y-68600234D01*
X117195953Y-68573504D01*
X117220957Y-68560139D01*
X117248089Y-68551909D01*
X117302352Y-68535448D01*
X117365790Y-68529200D01*
X118346210Y-68529200D01*
X118409648Y-68535448D01*
X118409648Y-68535448D01*
G37*
G36*
X132676362Y-67048545D02*
X132764588Y-67057234D01*
X132877789Y-67091573D01*
X132934390Y-67108743D01*
X133072980Y-67182822D01*
X133090879Y-67192389D01*
X133095213Y-67195946D01*
X133228044Y-67304956D01*
X133311288Y-67406391D01*
X133340611Y-67442121D01*
X133340612Y-67442123D01*
X133424257Y-67598610D01*
X133441427Y-67655211D01*
X133475766Y-67768412D01*
X133493158Y-67945000D01*
X133475766Y-68121588D01*
X133443520Y-68227889D01*
X133424257Y-68291390D01*
X133374554Y-68384377D01*
X133340611Y-68447879D01*
X133311288Y-68483609D01*
X133228044Y-68585044D01*
X133143783Y-68654194D01*
X133090879Y-68697611D01*
X133090877Y-68697612D01*
X132934390Y-68781257D01*
X132889227Y-68794957D01*
X132764588Y-68832766D01*
X132676362Y-68841455D01*
X132632250Y-68845800D01*
X132543750Y-68845800D01*
X132499638Y-68841455D01*
X132411412Y-68832766D01*
X132286773Y-68794957D01*
X132241610Y-68781257D01*
X132085123Y-68697612D01*
X132085121Y-68697611D01*
X132032217Y-68654194D01*
X131947956Y-68585044D01*
X131864712Y-68483609D01*
X131835389Y-68447879D01*
X131801446Y-68384377D01*
X131751743Y-68291390D01*
X131732480Y-68227889D01*
X131700234Y-68121588D01*
X131682842Y-67945000D01*
X131700234Y-67768412D01*
X131734573Y-67655211D01*
X131751743Y-67598610D01*
X131835388Y-67442123D01*
X131835389Y-67442121D01*
X131864712Y-67406391D01*
X131947956Y-67304956D01*
X132080787Y-67195946D01*
X132085121Y-67192389D01*
X132103020Y-67182822D01*
X132241610Y-67108743D01*
X132298211Y-67091573D01*
X132411412Y-67057234D01*
X132499638Y-67048545D01*
X132543750Y-67044200D01*
X132632250Y-67044200D01*
X132676362Y-67048545D01*
X132676362Y-67048545D01*
G37*
G36*
X174128800Y-68845800D02*
X172327200Y-68845800D01*
X172327200Y-67044200D01*
X174128800Y-67044200D01*
X174128800Y-68845800D01*
X174128800Y-68845800D01*
G37*
G36*
X150456362Y-67048545D02*
X150544588Y-67057234D01*
X150657789Y-67091573D01*
X150714390Y-67108743D01*
X150852980Y-67182822D01*
X150870879Y-67192389D01*
X150875213Y-67195946D01*
X151008044Y-67304956D01*
X151091288Y-67406391D01*
X151120611Y-67442121D01*
X151120612Y-67442123D01*
X151204257Y-67598610D01*
X151221427Y-67655211D01*
X151255766Y-67768412D01*
X151273158Y-67945000D01*
X151255766Y-68121588D01*
X151223520Y-68227889D01*
X151204257Y-68291390D01*
X151154554Y-68384377D01*
X151120611Y-68447879D01*
X151091288Y-68483609D01*
X151008044Y-68585044D01*
X150923783Y-68654194D01*
X150870879Y-68697611D01*
X150870877Y-68697612D01*
X150714390Y-68781257D01*
X150669227Y-68794957D01*
X150544588Y-68832766D01*
X150456362Y-68841455D01*
X150412250Y-68845800D01*
X150323750Y-68845800D01*
X150279638Y-68841455D01*
X150191412Y-68832766D01*
X150066773Y-68794957D01*
X150021610Y-68781257D01*
X149865123Y-68697612D01*
X149865121Y-68697611D01*
X149812217Y-68654194D01*
X149727956Y-68585044D01*
X149644712Y-68483609D01*
X149615389Y-68447879D01*
X149581446Y-68384377D01*
X149531743Y-68291390D01*
X149512480Y-68227889D01*
X149480234Y-68121588D01*
X149462842Y-67945000D01*
X149480234Y-67768412D01*
X149514573Y-67655211D01*
X149531743Y-67598610D01*
X149615388Y-67442123D01*
X149615389Y-67442121D01*
X149644712Y-67406391D01*
X149727956Y-67304956D01*
X149860787Y-67195946D01*
X149865121Y-67192389D01*
X149883020Y-67182822D01*
X150021610Y-67108743D01*
X150078211Y-67091573D01*
X150191412Y-67057234D01*
X150279638Y-67048545D01*
X150323750Y-67044200D01*
X150412250Y-67044200D01*
X150456362Y-67048545D01*
X150456362Y-67048545D01*
G37*
G36*
X152996362Y-67048545D02*
X153084588Y-67057234D01*
X153197789Y-67091573D01*
X153254390Y-67108743D01*
X153392980Y-67182822D01*
X153410879Y-67192389D01*
X153415213Y-67195946D01*
X153548044Y-67304956D01*
X153631288Y-67406391D01*
X153660611Y-67442121D01*
X153660612Y-67442123D01*
X153744257Y-67598610D01*
X153761427Y-67655211D01*
X153795766Y-67768412D01*
X153813158Y-67945000D01*
X153795766Y-68121588D01*
X153763520Y-68227889D01*
X153744257Y-68291390D01*
X153694554Y-68384377D01*
X153660611Y-68447879D01*
X153631288Y-68483609D01*
X153548044Y-68585044D01*
X153463783Y-68654194D01*
X153410879Y-68697611D01*
X153410877Y-68697612D01*
X153254390Y-68781257D01*
X153209227Y-68794957D01*
X153084588Y-68832766D01*
X152996362Y-68841455D01*
X152952250Y-68845800D01*
X152863750Y-68845800D01*
X152819638Y-68841455D01*
X152731412Y-68832766D01*
X152606773Y-68794957D01*
X152561610Y-68781257D01*
X152405123Y-68697612D01*
X152405121Y-68697611D01*
X152352217Y-68654194D01*
X152267956Y-68585044D01*
X152184712Y-68483609D01*
X152155389Y-68447879D01*
X152121446Y-68384377D01*
X152071743Y-68291390D01*
X152052480Y-68227889D01*
X152020234Y-68121588D01*
X152002842Y-67945000D01*
X152020234Y-67768412D01*
X152054573Y-67655211D01*
X152071743Y-67598610D01*
X152155388Y-67442123D01*
X152155389Y-67442121D01*
X152184712Y-67406391D01*
X152267956Y-67304956D01*
X152400787Y-67195946D01*
X152405121Y-67192389D01*
X152423020Y-67182822D01*
X152561610Y-67108743D01*
X152618211Y-67091573D01*
X152731412Y-67057234D01*
X152819638Y-67048545D01*
X152863750Y-67044200D01*
X152952250Y-67044200D01*
X152996362Y-67048545D01*
X152996362Y-67048545D01*
G37*
G36*
X170776362Y-67048545D02*
X170864588Y-67057234D01*
X170977789Y-67091573D01*
X171034390Y-67108743D01*
X171172980Y-67182822D01*
X171190879Y-67192389D01*
X171195213Y-67195946D01*
X171328044Y-67304956D01*
X171411288Y-67406391D01*
X171440611Y-67442121D01*
X171440612Y-67442123D01*
X171524257Y-67598610D01*
X171541427Y-67655211D01*
X171575766Y-67768412D01*
X171593158Y-67945000D01*
X171575766Y-68121588D01*
X171543520Y-68227889D01*
X171524257Y-68291390D01*
X171474554Y-68384377D01*
X171440611Y-68447879D01*
X171411288Y-68483609D01*
X171328044Y-68585044D01*
X171243783Y-68654194D01*
X171190879Y-68697611D01*
X171190877Y-68697612D01*
X171034390Y-68781257D01*
X170989227Y-68794957D01*
X170864588Y-68832766D01*
X170776362Y-68841455D01*
X170732250Y-68845800D01*
X170643750Y-68845800D01*
X170599638Y-68841455D01*
X170511412Y-68832766D01*
X170386773Y-68794957D01*
X170341610Y-68781257D01*
X170185123Y-68697612D01*
X170185121Y-68697611D01*
X170132217Y-68654194D01*
X170047956Y-68585044D01*
X169964712Y-68483609D01*
X169935389Y-68447879D01*
X169901446Y-68384377D01*
X169851743Y-68291390D01*
X169832480Y-68227889D01*
X169800234Y-68121588D01*
X169782842Y-67945000D01*
X169800234Y-67768412D01*
X169834573Y-67655211D01*
X169851743Y-67598610D01*
X169935388Y-67442123D01*
X169935389Y-67442121D01*
X169964712Y-67406391D01*
X170047956Y-67304956D01*
X170180787Y-67195946D01*
X170185121Y-67192389D01*
X170203020Y-67182822D01*
X170341610Y-67108743D01*
X170398211Y-67091573D01*
X170511412Y-67057234D01*
X170599638Y-67048545D01*
X170643750Y-67044200D01*
X170732250Y-67044200D01*
X170776362Y-67048545D01*
X170776362Y-67048545D01*
G37*
G36*
X137756362Y-67048545D02*
X137844588Y-67057234D01*
X137957789Y-67091573D01*
X138014390Y-67108743D01*
X138152980Y-67182822D01*
X138170879Y-67192389D01*
X138175213Y-67195946D01*
X138308044Y-67304956D01*
X138391288Y-67406391D01*
X138420611Y-67442121D01*
X138420612Y-67442123D01*
X138504257Y-67598610D01*
X138521427Y-67655211D01*
X138555766Y-67768412D01*
X138573158Y-67945000D01*
X138555766Y-68121588D01*
X138523520Y-68227889D01*
X138504257Y-68291390D01*
X138454554Y-68384377D01*
X138420611Y-68447879D01*
X138391288Y-68483609D01*
X138308044Y-68585044D01*
X138223783Y-68654194D01*
X138170879Y-68697611D01*
X138170877Y-68697612D01*
X138014390Y-68781257D01*
X137969227Y-68794957D01*
X137844588Y-68832766D01*
X137756362Y-68841455D01*
X137712250Y-68845800D01*
X137623750Y-68845800D01*
X137579638Y-68841455D01*
X137491412Y-68832766D01*
X137366773Y-68794957D01*
X137321610Y-68781257D01*
X137165123Y-68697612D01*
X137165121Y-68697611D01*
X137112217Y-68654194D01*
X137027956Y-68585044D01*
X136944712Y-68483609D01*
X136915389Y-68447879D01*
X136881446Y-68384377D01*
X136831743Y-68291390D01*
X136812480Y-68227889D01*
X136780234Y-68121588D01*
X136762842Y-67945000D01*
X136780234Y-67768412D01*
X136814573Y-67655211D01*
X136831743Y-67598610D01*
X136915388Y-67442123D01*
X136915389Y-67442121D01*
X136944712Y-67406391D01*
X137027956Y-67304956D01*
X137160787Y-67195946D01*
X137165121Y-67192389D01*
X137183020Y-67182822D01*
X137321610Y-67108743D01*
X137378211Y-67091573D01*
X137491412Y-67057234D01*
X137579638Y-67048545D01*
X137623750Y-67044200D01*
X137712250Y-67044200D01*
X137756362Y-67048545D01*
X137756362Y-67048545D01*
G37*
G36*
X141108800Y-68845800D02*
X139307200Y-68845800D01*
X139307200Y-67044200D01*
X141108800Y-67044200D01*
X141108800Y-68845800D01*
X141108800Y-68845800D01*
G37*
G36*
X155536362Y-67048545D02*
X155624588Y-67057234D01*
X155737789Y-67091573D01*
X155794390Y-67108743D01*
X155932980Y-67182822D01*
X155950879Y-67192389D01*
X155955213Y-67195946D01*
X156088044Y-67304956D01*
X156171288Y-67406391D01*
X156200611Y-67442121D01*
X156200612Y-67442123D01*
X156284257Y-67598610D01*
X156301427Y-67655211D01*
X156335766Y-67768412D01*
X156353158Y-67945000D01*
X156335766Y-68121588D01*
X156303520Y-68227889D01*
X156284257Y-68291390D01*
X156234554Y-68384377D01*
X156200611Y-68447879D01*
X156171288Y-68483609D01*
X156088044Y-68585044D01*
X156003783Y-68654194D01*
X155950879Y-68697611D01*
X155950877Y-68697612D01*
X155794390Y-68781257D01*
X155749227Y-68794957D01*
X155624588Y-68832766D01*
X155536362Y-68841455D01*
X155492250Y-68845800D01*
X155403750Y-68845800D01*
X155359638Y-68841455D01*
X155271412Y-68832766D01*
X155146773Y-68794957D01*
X155101610Y-68781257D01*
X154945123Y-68697612D01*
X154945121Y-68697611D01*
X154892217Y-68654194D01*
X154807956Y-68585044D01*
X154724712Y-68483609D01*
X154695389Y-68447879D01*
X154661446Y-68384377D01*
X154611743Y-68291390D01*
X154592480Y-68227889D01*
X154560234Y-68121588D01*
X154542842Y-67945000D01*
X154560234Y-67768412D01*
X154594573Y-67655211D01*
X154611743Y-67598610D01*
X154695388Y-67442123D01*
X154695389Y-67442121D01*
X154724712Y-67406391D01*
X154807956Y-67304956D01*
X154940787Y-67195946D01*
X154945121Y-67192389D01*
X154963020Y-67182822D01*
X155101610Y-67108743D01*
X155158211Y-67091573D01*
X155271412Y-67057234D01*
X155359638Y-67048545D01*
X155403750Y-67044200D01*
X155492250Y-67044200D01*
X155536362Y-67048545D01*
X155536362Y-67048545D01*
G37*
G36*
X168236362Y-67048545D02*
X168324588Y-67057234D01*
X168437789Y-67091573D01*
X168494390Y-67108743D01*
X168632980Y-67182822D01*
X168650879Y-67192389D01*
X168655213Y-67195946D01*
X168788044Y-67304956D01*
X168871288Y-67406391D01*
X168900611Y-67442121D01*
X168900612Y-67442123D01*
X168984257Y-67598610D01*
X169001427Y-67655211D01*
X169035766Y-67768412D01*
X169053158Y-67945000D01*
X169035766Y-68121588D01*
X169003520Y-68227889D01*
X168984257Y-68291390D01*
X168934554Y-68384377D01*
X168900611Y-68447879D01*
X168871288Y-68483609D01*
X168788044Y-68585044D01*
X168703783Y-68654194D01*
X168650879Y-68697611D01*
X168650877Y-68697612D01*
X168494390Y-68781257D01*
X168449227Y-68794957D01*
X168324588Y-68832766D01*
X168236362Y-68841455D01*
X168192250Y-68845800D01*
X168103750Y-68845800D01*
X168059638Y-68841455D01*
X167971412Y-68832766D01*
X167846773Y-68794957D01*
X167801610Y-68781257D01*
X167645123Y-68697612D01*
X167645121Y-68697611D01*
X167592217Y-68654194D01*
X167507956Y-68585044D01*
X167424712Y-68483609D01*
X167395389Y-68447879D01*
X167361446Y-68384377D01*
X167311743Y-68291390D01*
X167292480Y-68227889D01*
X167260234Y-68121588D01*
X167242842Y-67945000D01*
X167260234Y-67768412D01*
X167294573Y-67655211D01*
X167311743Y-67598610D01*
X167395388Y-67442123D01*
X167395389Y-67442121D01*
X167424712Y-67406391D01*
X167507956Y-67304956D01*
X167640787Y-67195946D01*
X167645121Y-67192389D01*
X167663020Y-67182822D01*
X167801610Y-67108743D01*
X167858211Y-67091573D01*
X167971412Y-67057234D01*
X168059638Y-67048545D01*
X168103750Y-67044200D01*
X168192250Y-67044200D01*
X168236362Y-67048545D01*
X168236362Y-67048545D01*
G37*
G36*
X165696362Y-67048545D02*
X165784588Y-67057234D01*
X165897789Y-67091573D01*
X165954390Y-67108743D01*
X166092980Y-67182822D01*
X166110879Y-67192389D01*
X166115213Y-67195946D01*
X166248044Y-67304956D01*
X166331288Y-67406391D01*
X166360611Y-67442121D01*
X166360612Y-67442123D01*
X166444257Y-67598610D01*
X166461427Y-67655211D01*
X166495766Y-67768412D01*
X166513158Y-67945000D01*
X166495766Y-68121588D01*
X166463520Y-68227889D01*
X166444257Y-68291390D01*
X166394554Y-68384377D01*
X166360611Y-68447879D01*
X166331288Y-68483609D01*
X166248044Y-68585044D01*
X166163783Y-68654194D01*
X166110879Y-68697611D01*
X166110877Y-68697612D01*
X165954390Y-68781257D01*
X165909227Y-68794957D01*
X165784588Y-68832766D01*
X165696362Y-68841455D01*
X165652250Y-68845800D01*
X165563750Y-68845800D01*
X165519638Y-68841455D01*
X165431412Y-68832766D01*
X165306773Y-68794957D01*
X165261610Y-68781257D01*
X165105123Y-68697612D01*
X165105121Y-68697611D01*
X165052217Y-68654194D01*
X164967956Y-68585044D01*
X164884712Y-68483609D01*
X164855389Y-68447879D01*
X164821446Y-68384377D01*
X164771743Y-68291390D01*
X164752480Y-68227889D01*
X164720234Y-68121588D01*
X164702842Y-67945000D01*
X164720234Y-67768412D01*
X164754573Y-67655211D01*
X164771743Y-67598610D01*
X164855388Y-67442123D01*
X164855389Y-67442121D01*
X164884712Y-67406391D01*
X164967956Y-67304956D01*
X165100787Y-67195946D01*
X165105121Y-67192389D01*
X165123020Y-67182822D01*
X165261610Y-67108743D01*
X165318211Y-67091573D01*
X165431412Y-67057234D01*
X165519638Y-67048545D01*
X165563750Y-67044200D01*
X165652250Y-67044200D01*
X165696362Y-67048545D01*
X165696362Y-67048545D01*
G37*
G36*
X158888800Y-68845800D02*
X157087200Y-68845800D01*
X157087200Y-67044200D01*
X158888800Y-67044200D01*
X158888800Y-68845800D01*
X158888800Y-68845800D01*
G37*
G36*
X135216362Y-67048545D02*
X135304588Y-67057234D01*
X135417789Y-67091573D01*
X135474390Y-67108743D01*
X135612980Y-67182822D01*
X135630879Y-67192389D01*
X135635213Y-67195946D01*
X135768044Y-67304956D01*
X135851288Y-67406391D01*
X135880611Y-67442121D01*
X135880612Y-67442123D01*
X135964257Y-67598610D01*
X135981427Y-67655211D01*
X136015766Y-67768412D01*
X136033158Y-67945000D01*
X136015766Y-68121588D01*
X135983520Y-68227889D01*
X135964257Y-68291390D01*
X135914554Y-68384377D01*
X135880611Y-68447879D01*
X135851288Y-68483609D01*
X135768044Y-68585044D01*
X135683783Y-68654194D01*
X135630879Y-68697611D01*
X135630877Y-68697612D01*
X135474390Y-68781257D01*
X135429227Y-68794957D01*
X135304588Y-68832766D01*
X135216362Y-68841455D01*
X135172250Y-68845800D01*
X135083750Y-68845800D01*
X135039638Y-68841455D01*
X134951412Y-68832766D01*
X134826773Y-68794957D01*
X134781610Y-68781257D01*
X134625123Y-68697612D01*
X134625121Y-68697611D01*
X134572217Y-68654194D01*
X134487956Y-68585044D01*
X134404712Y-68483609D01*
X134375389Y-68447879D01*
X134341446Y-68384377D01*
X134291743Y-68291390D01*
X134272480Y-68227889D01*
X134240234Y-68121588D01*
X134222842Y-67945000D01*
X134240234Y-67768412D01*
X134274573Y-67655211D01*
X134291743Y-67598610D01*
X134375388Y-67442123D01*
X134375389Y-67442121D01*
X134404712Y-67406391D01*
X134487956Y-67304956D01*
X134620787Y-67195946D01*
X134625121Y-67192389D01*
X134643020Y-67182822D01*
X134781610Y-67108743D01*
X134838211Y-67091573D01*
X134951412Y-67057234D01*
X135039638Y-67048545D01*
X135083750Y-67044200D01*
X135172250Y-67044200D01*
X135216362Y-67048545D01*
X135216362Y-67048545D01*
G37*
G36*
X115150362Y-66985045D02*
X115238588Y-66993734D01*
X115351789Y-67028073D01*
X115408390Y-67045243D01*
X115466369Y-67076234D01*
X115564879Y-67128889D01*
X115600609Y-67158212D01*
X115702044Y-67241456D01*
X115785288Y-67342891D01*
X115814611Y-67378621D01*
X115814612Y-67378623D01*
X115898257Y-67535110D01*
X115898257Y-67535111D01*
X115949766Y-67704912D01*
X115967158Y-67881500D01*
X115949766Y-68058088D01*
X115930504Y-68121586D01*
X115898257Y-68227890D01*
X115864315Y-68291390D01*
X115814611Y-68384379D01*
X115785288Y-68420109D01*
X115702044Y-68521544D01*
X115606158Y-68600234D01*
X115564879Y-68634111D01*
X115564877Y-68634112D01*
X115408390Y-68717757D01*
X115351789Y-68734927D01*
X115238588Y-68769266D01*
X115150362Y-68777955D01*
X115106250Y-68782300D01*
X115017750Y-68782300D01*
X114973638Y-68777955D01*
X114885412Y-68769266D01*
X114772211Y-68734927D01*
X114715610Y-68717757D01*
X114559123Y-68634112D01*
X114559121Y-68634111D01*
X114517842Y-68600234D01*
X114421956Y-68521544D01*
X114338712Y-68420109D01*
X114309389Y-68384379D01*
X114259685Y-68291390D01*
X114225743Y-68227890D01*
X114193496Y-68121586D01*
X114174234Y-68058088D01*
X114156842Y-67881500D01*
X114174234Y-67704912D01*
X114225743Y-67535111D01*
X114225743Y-67535110D01*
X114309388Y-67378623D01*
X114309389Y-67378621D01*
X114338712Y-67342891D01*
X114421956Y-67241456D01*
X114523391Y-67158212D01*
X114559121Y-67128889D01*
X114657631Y-67076234D01*
X114715610Y-67045243D01*
X114772211Y-67028073D01*
X114885412Y-66993734D01*
X114973638Y-66985045D01*
X115017750Y-66980700D01*
X115106250Y-66980700D01*
X115150362Y-66985045D01*
X115150362Y-66985045D01*
G37*
G36*
X120949648Y-67011448D02*
X121003911Y-67027909D01*
X121031043Y-67036139D01*
X121048075Y-67045243D01*
X121106056Y-67076234D01*
X121171806Y-67130194D01*
X121225766Y-67195944D01*
X121250092Y-67241456D01*
X121265861Y-67270957D01*
X121265861Y-67270958D01*
X121290552Y-67352352D01*
X121298889Y-67437000D01*
X121290552Y-67521648D01*
X121286468Y-67535110D01*
X121265861Y-67603043D01*
X121252496Y-67628047D01*
X121225766Y-67678056D01*
X121171806Y-67743806D01*
X121106056Y-67797766D01*
X121056047Y-67824496D01*
X121031043Y-67837861D01*
X121003911Y-67846091D01*
X120949648Y-67862552D01*
X120886210Y-67868800D01*
X119905790Y-67868800D01*
X119842352Y-67862552D01*
X119788089Y-67846091D01*
X119760957Y-67837861D01*
X119735953Y-67824496D01*
X119685944Y-67797766D01*
X119620194Y-67743806D01*
X119566234Y-67678056D01*
X119539504Y-67628047D01*
X119526139Y-67603043D01*
X119505532Y-67535110D01*
X119501448Y-67521648D01*
X119493111Y-67437000D01*
X119501448Y-67352352D01*
X119526139Y-67270958D01*
X119526139Y-67270957D01*
X119541908Y-67241456D01*
X119566234Y-67195944D01*
X119620194Y-67130194D01*
X119685944Y-67076234D01*
X119743925Y-67045243D01*
X119760957Y-67036139D01*
X119788089Y-67027909D01*
X119842352Y-67011448D01*
X119905790Y-67005200D01*
X120886210Y-67005200D01*
X120949648Y-67011448D01*
X120949648Y-67011448D01*
G37*
G36*
X123836800Y-67868800D02*
X122035200Y-67868800D01*
X122035200Y-67005200D01*
X123836800Y-67005200D01*
X123836800Y-67868800D01*
X123836800Y-67868800D01*
G37*
G36*
X118409648Y-67011448D02*
X118463911Y-67027909D01*
X118491043Y-67036139D01*
X118508075Y-67045243D01*
X118566056Y-67076234D01*
X118631806Y-67130194D01*
X118685766Y-67195944D01*
X118710092Y-67241456D01*
X118725861Y-67270957D01*
X118725861Y-67270958D01*
X118750552Y-67352352D01*
X118758889Y-67437000D01*
X118750552Y-67521648D01*
X118746468Y-67535110D01*
X118725861Y-67603043D01*
X118712496Y-67628047D01*
X118685766Y-67678056D01*
X118631806Y-67743806D01*
X118566056Y-67797766D01*
X118516047Y-67824496D01*
X118491043Y-67837861D01*
X118463911Y-67846091D01*
X118409648Y-67862552D01*
X118346210Y-67868800D01*
X117365790Y-67868800D01*
X117302352Y-67862552D01*
X117248089Y-67846091D01*
X117220957Y-67837861D01*
X117195953Y-67824496D01*
X117145944Y-67797766D01*
X117080194Y-67743806D01*
X117026234Y-67678056D01*
X116999504Y-67628047D01*
X116986139Y-67603043D01*
X116965532Y-67535110D01*
X116961448Y-67521648D01*
X116953111Y-67437000D01*
X116961448Y-67352352D01*
X116986139Y-67270958D01*
X116986139Y-67270957D01*
X117001908Y-67241456D01*
X117026234Y-67195944D01*
X117080194Y-67130194D01*
X117145944Y-67076234D01*
X117203925Y-67045243D01*
X117220957Y-67036139D01*
X117248089Y-67027909D01*
X117302352Y-67011448D01*
X117365790Y-67005200D01*
X118346210Y-67005200D01*
X118409648Y-67011448D01*
X118409648Y-67011448D01*
G37*
G36*
X118409648Y-65487448D02*
X118463911Y-65503909D01*
X118491043Y-65512139D01*
X118516047Y-65525504D01*
X118566056Y-65552234D01*
X118631806Y-65606194D01*
X118685766Y-65671944D01*
X118712496Y-65721953D01*
X118725861Y-65746957D01*
X118734091Y-65774089D01*
X118750552Y-65828352D01*
X118758889Y-65913000D01*
X118750552Y-65997648D01*
X118736175Y-66045043D01*
X118725861Y-66079043D01*
X118717807Y-66094111D01*
X118685766Y-66154056D01*
X118631806Y-66219806D01*
X118566056Y-66273766D01*
X118516047Y-66300496D01*
X118491043Y-66313861D01*
X118463911Y-66322091D01*
X118409648Y-66338552D01*
X118346210Y-66344800D01*
X117365790Y-66344800D01*
X117302352Y-66338552D01*
X117248089Y-66322091D01*
X117220957Y-66313861D01*
X117195953Y-66300496D01*
X117145944Y-66273766D01*
X117080194Y-66219806D01*
X117026234Y-66154056D01*
X116994193Y-66094111D01*
X116986139Y-66079043D01*
X116975825Y-66045043D01*
X116961448Y-65997648D01*
X116953111Y-65913000D01*
X116961448Y-65828352D01*
X116977909Y-65774089D01*
X116986139Y-65746957D01*
X116999504Y-65721953D01*
X117026234Y-65671944D01*
X117080194Y-65606194D01*
X117145944Y-65552234D01*
X117195953Y-65525504D01*
X117220957Y-65512139D01*
X117248089Y-65503909D01*
X117302352Y-65487448D01*
X117365790Y-65481200D01*
X118346210Y-65481200D01*
X118409648Y-65487448D01*
X118409648Y-65487448D01*
G37*
G36*
X120949648Y-65487448D02*
X121003911Y-65503909D01*
X121031043Y-65512139D01*
X121056047Y-65525504D01*
X121106056Y-65552234D01*
X121171806Y-65606194D01*
X121225766Y-65671944D01*
X121252496Y-65721953D01*
X121265861Y-65746957D01*
X121274091Y-65774089D01*
X121290552Y-65828352D01*
X121298889Y-65913000D01*
X121290552Y-65997648D01*
X121276175Y-66045043D01*
X121265861Y-66079043D01*
X121257807Y-66094111D01*
X121225766Y-66154056D01*
X121171806Y-66219806D01*
X121106056Y-66273766D01*
X121056047Y-66300496D01*
X121031043Y-66313861D01*
X121003911Y-66322091D01*
X120949648Y-66338552D01*
X120886210Y-66344800D01*
X119905790Y-66344800D01*
X119842352Y-66338552D01*
X119788089Y-66322091D01*
X119760957Y-66313861D01*
X119735953Y-66300496D01*
X119685944Y-66273766D01*
X119620194Y-66219806D01*
X119566234Y-66154056D01*
X119534193Y-66094111D01*
X119526139Y-66079043D01*
X119515825Y-66045043D01*
X119501448Y-65997648D01*
X119493111Y-65913000D01*
X119501448Y-65828352D01*
X119517909Y-65774089D01*
X119526139Y-65746957D01*
X119539504Y-65721953D01*
X119566234Y-65671944D01*
X119620194Y-65606194D01*
X119685944Y-65552234D01*
X119735953Y-65525504D01*
X119760957Y-65512139D01*
X119788089Y-65503909D01*
X119842352Y-65487448D01*
X119905790Y-65481200D01*
X120886210Y-65481200D01*
X120949648Y-65487448D01*
X120949648Y-65487448D01*
G37*
G36*
X123836800Y-66344800D02*
X122035200Y-66344800D01*
X122035200Y-65481200D01*
X123836800Y-65481200D01*
X123836800Y-66344800D01*
X123836800Y-66344800D01*
G37*
G36*
X137756362Y-64508545D02*
X137844588Y-64517234D01*
X137957789Y-64551573D01*
X138014390Y-64568743D01*
X138129097Y-64630056D01*
X138170879Y-64652389D01*
X138206609Y-64681712D01*
X138308044Y-64764956D01*
X138391288Y-64866391D01*
X138420611Y-64902121D01*
X138420612Y-64902123D01*
X138504257Y-65058610D01*
X138504257Y-65058611D01*
X138555766Y-65228412D01*
X138573158Y-65405000D01*
X138555766Y-65581588D01*
X138528356Y-65671946D01*
X138504257Y-65751390D01*
X138463119Y-65828352D01*
X138420611Y-65907879D01*
X138416408Y-65913000D01*
X138308044Y-66045044D01*
X138206609Y-66128288D01*
X138170879Y-66157611D01*
X138170877Y-66157612D01*
X138014390Y-66241257D01*
X137957789Y-66258427D01*
X137844588Y-66292766D01*
X137756362Y-66301455D01*
X137712250Y-66305800D01*
X137623750Y-66305800D01*
X137579638Y-66301455D01*
X137491412Y-66292766D01*
X137378211Y-66258427D01*
X137321610Y-66241257D01*
X137165123Y-66157612D01*
X137165121Y-66157611D01*
X137129391Y-66128288D01*
X137027956Y-66045044D01*
X136919592Y-65913000D01*
X136915389Y-65907879D01*
X136872881Y-65828352D01*
X136831743Y-65751390D01*
X136807644Y-65671946D01*
X136780234Y-65581588D01*
X136762842Y-65405000D01*
X136780234Y-65228412D01*
X136831743Y-65058611D01*
X136831743Y-65058610D01*
X136915388Y-64902123D01*
X136915389Y-64902121D01*
X136944712Y-64866391D01*
X137027956Y-64764956D01*
X137129391Y-64681712D01*
X137165121Y-64652389D01*
X137206903Y-64630056D01*
X137321610Y-64568743D01*
X137378211Y-64551573D01*
X137491412Y-64517234D01*
X137579638Y-64508545D01*
X137623750Y-64504200D01*
X137712250Y-64504200D01*
X137756362Y-64508545D01*
X137756362Y-64508545D01*
G37*
G36*
X152996362Y-64508545D02*
X153084588Y-64517234D01*
X153197789Y-64551573D01*
X153254390Y-64568743D01*
X153369097Y-64630056D01*
X153410879Y-64652389D01*
X153446609Y-64681712D01*
X153548044Y-64764956D01*
X153631288Y-64866391D01*
X153660611Y-64902121D01*
X153660612Y-64902123D01*
X153744257Y-65058610D01*
X153744257Y-65058611D01*
X153795766Y-65228412D01*
X153813158Y-65405000D01*
X153795766Y-65581588D01*
X153768356Y-65671946D01*
X153744257Y-65751390D01*
X153703119Y-65828352D01*
X153660611Y-65907879D01*
X153656408Y-65913000D01*
X153548044Y-66045044D01*
X153446609Y-66128288D01*
X153410879Y-66157611D01*
X153410877Y-66157612D01*
X153254390Y-66241257D01*
X153197789Y-66258427D01*
X153084588Y-66292766D01*
X152996362Y-66301455D01*
X152952250Y-66305800D01*
X152863750Y-66305800D01*
X152819638Y-66301455D01*
X152731412Y-66292766D01*
X152618211Y-66258427D01*
X152561610Y-66241257D01*
X152405123Y-66157612D01*
X152405121Y-66157611D01*
X152369391Y-66128288D01*
X152267956Y-66045044D01*
X152159592Y-65913000D01*
X152155389Y-65907879D01*
X152112881Y-65828352D01*
X152071743Y-65751390D01*
X152047644Y-65671946D01*
X152020234Y-65581588D01*
X152002842Y-65405000D01*
X152020234Y-65228412D01*
X152071743Y-65058611D01*
X152071743Y-65058610D01*
X152155388Y-64902123D01*
X152155389Y-64902121D01*
X152184712Y-64866391D01*
X152267956Y-64764956D01*
X152369391Y-64681712D01*
X152405121Y-64652389D01*
X152446903Y-64630056D01*
X152561610Y-64568743D01*
X152618211Y-64551573D01*
X152731412Y-64517234D01*
X152819638Y-64508545D01*
X152863750Y-64504200D01*
X152952250Y-64504200D01*
X152996362Y-64508545D01*
X152996362Y-64508545D01*
G37*
G36*
X135216362Y-64508545D02*
X135304588Y-64517234D01*
X135417789Y-64551573D01*
X135474390Y-64568743D01*
X135589097Y-64630056D01*
X135630879Y-64652389D01*
X135666609Y-64681712D01*
X135768044Y-64764956D01*
X135851288Y-64866391D01*
X135880611Y-64902121D01*
X135880612Y-64902123D01*
X135964257Y-65058610D01*
X135964257Y-65058611D01*
X136015766Y-65228412D01*
X136033158Y-65405000D01*
X136015766Y-65581588D01*
X135988356Y-65671946D01*
X135964257Y-65751390D01*
X135923119Y-65828352D01*
X135880611Y-65907879D01*
X135876408Y-65913000D01*
X135768044Y-66045044D01*
X135666609Y-66128288D01*
X135630879Y-66157611D01*
X135630877Y-66157612D01*
X135474390Y-66241257D01*
X135417789Y-66258427D01*
X135304588Y-66292766D01*
X135216362Y-66301455D01*
X135172250Y-66305800D01*
X135083750Y-66305800D01*
X135039638Y-66301455D01*
X134951412Y-66292766D01*
X134838211Y-66258427D01*
X134781610Y-66241257D01*
X134625123Y-66157612D01*
X134625121Y-66157611D01*
X134589391Y-66128288D01*
X134487956Y-66045044D01*
X134379592Y-65913000D01*
X134375389Y-65907879D01*
X134332881Y-65828352D01*
X134291743Y-65751390D01*
X134267644Y-65671946D01*
X134240234Y-65581588D01*
X134222842Y-65405000D01*
X134240234Y-65228412D01*
X134291743Y-65058611D01*
X134291743Y-65058610D01*
X134375388Y-64902123D01*
X134375389Y-64902121D01*
X134404712Y-64866391D01*
X134487956Y-64764956D01*
X134589391Y-64681712D01*
X134625121Y-64652389D01*
X134666903Y-64630056D01*
X134781610Y-64568743D01*
X134838211Y-64551573D01*
X134951412Y-64517234D01*
X135039638Y-64508545D01*
X135083750Y-64504200D01*
X135172250Y-64504200D01*
X135216362Y-64508545D01*
X135216362Y-64508545D01*
G37*
G36*
X141108800Y-66305800D02*
X139307200Y-66305800D01*
X139307200Y-64504200D01*
X141108800Y-64504200D01*
X141108800Y-66305800D01*
X141108800Y-66305800D01*
G37*
G36*
X132676362Y-64508545D02*
X132764588Y-64517234D01*
X132877789Y-64551573D01*
X132934390Y-64568743D01*
X133049097Y-64630056D01*
X133090879Y-64652389D01*
X133126609Y-64681712D01*
X133228044Y-64764956D01*
X133311288Y-64866391D01*
X133340611Y-64902121D01*
X133340612Y-64902123D01*
X133424257Y-65058610D01*
X133424257Y-65058611D01*
X133475766Y-65228412D01*
X133493158Y-65405000D01*
X133475766Y-65581588D01*
X133448356Y-65671946D01*
X133424257Y-65751390D01*
X133383119Y-65828352D01*
X133340611Y-65907879D01*
X133336408Y-65913000D01*
X133228044Y-66045044D01*
X133126609Y-66128288D01*
X133090879Y-66157611D01*
X133090877Y-66157612D01*
X132934390Y-66241257D01*
X132877789Y-66258427D01*
X132764588Y-66292766D01*
X132676362Y-66301455D01*
X132632250Y-66305800D01*
X132543750Y-66305800D01*
X132499638Y-66301455D01*
X132411412Y-66292766D01*
X132298211Y-66258427D01*
X132241610Y-66241257D01*
X132085123Y-66157612D01*
X132085121Y-66157611D01*
X132049391Y-66128288D01*
X131947956Y-66045044D01*
X131839592Y-65913000D01*
X131835389Y-65907879D01*
X131792881Y-65828352D01*
X131751743Y-65751390D01*
X131727644Y-65671946D01*
X131700234Y-65581588D01*
X131682842Y-65405000D01*
X131700234Y-65228412D01*
X131751743Y-65058611D01*
X131751743Y-65058610D01*
X131835388Y-64902123D01*
X131835389Y-64902121D01*
X131864712Y-64866391D01*
X131947956Y-64764956D01*
X132049391Y-64681712D01*
X132085121Y-64652389D01*
X132126903Y-64630056D01*
X132241610Y-64568743D01*
X132298211Y-64551573D01*
X132411412Y-64517234D01*
X132499638Y-64508545D01*
X132543750Y-64504200D01*
X132632250Y-64504200D01*
X132676362Y-64508545D01*
X132676362Y-64508545D01*
G37*
G36*
X155536362Y-64508545D02*
X155624588Y-64517234D01*
X155737789Y-64551573D01*
X155794390Y-64568743D01*
X155909097Y-64630056D01*
X155950879Y-64652389D01*
X155986609Y-64681712D01*
X156088044Y-64764956D01*
X156171288Y-64866391D01*
X156200611Y-64902121D01*
X156200612Y-64902123D01*
X156284257Y-65058610D01*
X156284257Y-65058611D01*
X156335766Y-65228412D01*
X156353158Y-65405000D01*
X156335766Y-65581588D01*
X156308356Y-65671946D01*
X156284257Y-65751390D01*
X156243119Y-65828352D01*
X156200611Y-65907879D01*
X156196408Y-65913000D01*
X156088044Y-66045044D01*
X155986609Y-66128288D01*
X155950879Y-66157611D01*
X155950877Y-66157612D01*
X155794390Y-66241257D01*
X155737789Y-66258427D01*
X155624588Y-66292766D01*
X155536362Y-66301455D01*
X155492250Y-66305800D01*
X155403750Y-66305800D01*
X155359638Y-66301455D01*
X155271412Y-66292766D01*
X155158211Y-66258427D01*
X155101610Y-66241257D01*
X154945123Y-66157612D01*
X154945121Y-66157611D01*
X154909391Y-66128288D01*
X154807956Y-66045044D01*
X154699592Y-65913000D01*
X154695389Y-65907879D01*
X154652881Y-65828352D01*
X154611743Y-65751390D01*
X154587644Y-65671946D01*
X154560234Y-65581588D01*
X154542842Y-65405000D01*
X154560234Y-65228412D01*
X154611743Y-65058611D01*
X154611743Y-65058610D01*
X154695388Y-64902123D01*
X154695389Y-64902121D01*
X154724712Y-64866391D01*
X154807956Y-64764956D01*
X154909391Y-64681712D01*
X154945121Y-64652389D01*
X154986903Y-64630056D01*
X155101610Y-64568743D01*
X155158211Y-64551573D01*
X155271412Y-64517234D01*
X155359638Y-64508545D01*
X155403750Y-64504200D01*
X155492250Y-64504200D01*
X155536362Y-64508545D01*
X155536362Y-64508545D01*
G37*
G36*
X168236362Y-64508545D02*
X168324588Y-64517234D01*
X168437789Y-64551573D01*
X168494390Y-64568743D01*
X168609097Y-64630056D01*
X168650879Y-64652389D01*
X168686609Y-64681712D01*
X168788044Y-64764956D01*
X168871288Y-64866391D01*
X168900611Y-64902121D01*
X168900612Y-64902123D01*
X168984257Y-65058610D01*
X168984257Y-65058611D01*
X169035766Y-65228412D01*
X169053158Y-65405000D01*
X169035766Y-65581588D01*
X169008356Y-65671946D01*
X168984257Y-65751390D01*
X168943119Y-65828352D01*
X168900611Y-65907879D01*
X168896408Y-65913000D01*
X168788044Y-66045044D01*
X168686609Y-66128288D01*
X168650879Y-66157611D01*
X168650877Y-66157612D01*
X168494390Y-66241257D01*
X168437789Y-66258427D01*
X168324588Y-66292766D01*
X168236362Y-66301455D01*
X168192250Y-66305800D01*
X168103750Y-66305800D01*
X168059638Y-66301455D01*
X167971412Y-66292766D01*
X167858211Y-66258427D01*
X167801610Y-66241257D01*
X167645123Y-66157612D01*
X167645121Y-66157611D01*
X167609391Y-66128288D01*
X167507956Y-66045044D01*
X167399592Y-65913000D01*
X167395389Y-65907879D01*
X167352881Y-65828352D01*
X167311743Y-65751390D01*
X167287644Y-65671946D01*
X167260234Y-65581588D01*
X167242842Y-65405000D01*
X167260234Y-65228412D01*
X167311743Y-65058611D01*
X167311743Y-65058610D01*
X167395388Y-64902123D01*
X167395389Y-64902121D01*
X167424712Y-64866391D01*
X167507956Y-64764956D01*
X167609391Y-64681712D01*
X167645121Y-64652389D01*
X167686903Y-64630056D01*
X167801610Y-64568743D01*
X167858211Y-64551573D01*
X167971412Y-64517234D01*
X168059638Y-64508545D01*
X168103750Y-64504200D01*
X168192250Y-64504200D01*
X168236362Y-64508545D01*
X168236362Y-64508545D01*
G37*
G36*
X165696362Y-64508545D02*
X165784588Y-64517234D01*
X165897789Y-64551573D01*
X165954390Y-64568743D01*
X166069097Y-64630056D01*
X166110879Y-64652389D01*
X166146609Y-64681712D01*
X166248044Y-64764956D01*
X166331288Y-64866391D01*
X166360611Y-64902121D01*
X166360612Y-64902123D01*
X166444257Y-65058610D01*
X166444257Y-65058611D01*
X166495766Y-65228412D01*
X166513158Y-65405000D01*
X166495766Y-65581588D01*
X166468356Y-65671946D01*
X166444257Y-65751390D01*
X166403119Y-65828352D01*
X166360611Y-65907879D01*
X166356408Y-65913000D01*
X166248044Y-66045044D01*
X166146609Y-66128288D01*
X166110879Y-66157611D01*
X166110877Y-66157612D01*
X165954390Y-66241257D01*
X165897789Y-66258427D01*
X165784588Y-66292766D01*
X165696362Y-66301455D01*
X165652250Y-66305800D01*
X165563750Y-66305800D01*
X165519638Y-66301455D01*
X165431412Y-66292766D01*
X165318211Y-66258427D01*
X165261610Y-66241257D01*
X165105123Y-66157612D01*
X165105121Y-66157611D01*
X165069391Y-66128288D01*
X164967956Y-66045044D01*
X164859592Y-65913000D01*
X164855389Y-65907879D01*
X164812881Y-65828352D01*
X164771743Y-65751390D01*
X164747644Y-65671946D01*
X164720234Y-65581588D01*
X164702842Y-65405000D01*
X164720234Y-65228412D01*
X164771743Y-65058611D01*
X164771743Y-65058610D01*
X164855388Y-64902123D01*
X164855389Y-64902121D01*
X164884712Y-64866391D01*
X164967956Y-64764956D01*
X165069391Y-64681712D01*
X165105121Y-64652389D01*
X165146903Y-64630056D01*
X165261610Y-64568743D01*
X165318211Y-64551573D01*
X165431412Y-64517234D01*
X165519638Y-64508545D01*
X165563750Y-64504200D01*
X165652250Y-64504200D01*
X165696362Y-64508545D01*
X165696362Y-64508545D01*
G37*
G36*
X158888800Y-66305800D02*
X157087200Y-66305800D01*
X157087200Y-64504200D01*
X158888800Y-64504200D01*
X158888800Y-66305800D01*
X158888800Y-66305800D01*
G37*
G36*
X174128800Y-66305800D02*
X172327200Y-66305800D01*
X172327200Y-64504200D01*
X174128800Y-64504200D01*
X174128800Y-66305800D01*
X174128800Y-66305800D01*
G37*
G36*
X150456362Y-64508545D02*
X150544588Y-64517234D01*
X150657789Y-64551573D01*
X150714390Y-64568743D01*
X150829097Y-64630056D01*
X150870879Y-64652389D01*
X150906609Y-64681712D01*
X151008044Y-64764956D01*
X151091288Y-64866391D01*
X151120611Y-64902121D01*
X151120612Y-64902123D01*
X151204257Y-65058610D01*
X151204257Y-65058611D01*
X151255766Y-65228412D01*
X151273158Y-65405000D01*
X151255766Y-65581588D01*
X151228356Y-65671946D01*
X151204257Y-65751390D01*
X151163119Y-65828352D01*
X151120611Y-65907879D01*
X151116408Y-65913000D01*
X151008044Y-66045044D01*
X150906609Y-66128288D01*
X150870879Y-66157611D01*
X150870877Y-66157612D01*
X150714390Y-66241257D01*
X150657789Y-66258427D01*
X150544588Y-66292766D01*
X150456362Y-66301455D01*
X150412250Y-66305800D01*
X150323750Y-66305800D01*
X150279638Y-66301455D01*
X150191412Y-66292766D01*
X150078211Y-66258427D01*
X150021610Y-66241257D01*
X149865123Y-66157612D01*
X149865121Y-66157611D01*
X149829391Y-66128288D01*
X149727956Y-66045044D01*
X149619592Y-65913000D01*
X149615389Y-65907879D01*
X149572881Y-65828352D01*
X149531743Y-65751390D01*
X149507644Y-65671946D01*
X149480234Y-65581588D01*
X149462842Y-65405000D01*
X149480234Y-65228412D01*
X149531743Y-65058611D01*
X149531743Y-65058610D01*
X149615388Y-64902123D01*
X149615389Y-64902121D01*
X149644712Y-64866391D01*
X149727956Y-64764956D01*
X149829391Y-64681712D01*
X149865121Y-64652389D01*
X149906903Y-64630056D01*
X150021610Y-64568743D01*
X150078211Y-64551573D01*
X150191412Y-64517234D01*
X150279638Y-64508545D01*
X150323750Y-64504200D01*
X150412250Y-64504200D01*
X150456362Y-64508545D01*
X150456362Y-64508545D01*
G37*
G36*
X170776362Y-64508545D02*
X170864588Y-64517234D01*
X170977789Y-64551573D01*
X171034390Y-64568743D01*
X171149097Y-64630056D01*
X171190879Y-64652389D01*
X171226609Y-64681712D01*
X171328044Y-64764956D01*
X171411288Y-64866391D01*
X171440611Y-64902121D01*
X171440612Y-64902123D01*
X171524257Y-65058610D01*
X171524257Y-65058611D01*
X171575766Y-65228412D01*
X171593158Y-65405000D01*
X171575766Y-65581588D01*
X171548356Y-65671946D01*
X171524257Y-65751390D01*
X171483119Y-65828352D01*
X171440611Y-65907879D01*
X171436408Y-65913000D01*
X171328044Y-66045044D01*
X171226609Y-66128288D01*
X171190879Y-66157611D01*
X171190877Y-66157612D01*
X171034390Y-66241257D01*
X170977789Y-66258427D01*
X170864588Y-66292766D01*
X170776362Y-66301455D01*
X170732250Y-66305800D01*
X170643750Y-66305800D01*
X170599638Y-66301455D01*
X170511412Y-66292766D01*
X170398211Y-66258427D01*
X170341610Y-66241257D01*
X170185123Y-66157612D01*
X170185121Y-66157611D01*
X170149391Y-66128288D01*
X170047956Y-66045044D01*
X169939592Y-65913000D01*
X169935389Y-65907879D01*
X169892881Y-65828352D01*
X169851743Y-65751390D01*
X169827644Y-65671946D01*
X169800234Y-65581588D01*
X169782842Y-65405000D01*
X169800234Y-65228412D01*
X169851743Y-65058611D01*
X169851743Y-65058610D01*
X169935388Y-64902123D01*
X169935389Y-64902121D01*
X169964712Y-64866391D01*
X170047956Y-64764956D01*
X170149391Y-64681712D01*
X170185121Y-64652389D01*
X170226903Y-64630056D01*
X170341610Y-64568743D01*
X170398211Y-64551573D01*
X170511412Y-64517234D01*
X170599638Y-64508545D01*
X170643750Y-64504200D01*
X170732250Y-64504200D01*
X170776362Y-64508545D01*
X170776362Y-64508545D01*
G37*
G36*
X115150362Y-64445045D02*
X115238588Y-64453734D01*
X115351789Y-64488073D01*
X115408390Y-64505243D01*
X115501556Y-64555042D01*
X115564879Y-64588889D01*
X115600609Y-64618212D01*
X115702044Y-64701456D01*
X115774595Y-64789861D01*
X115814611Y-64838621D01*
X115814612Y-64838623D01*
X115898257Y-64995110D01*
X115898257Y-64995111D01*
X115949766Y-65164912D01*
X115967158Y-65341500D01*
X115949766Y-65518088D01*
X115930504Y-65581586D01*
X115898257Y-65687890D01*
X115864315Y-65751390D01*
X115814611Y-65844379D01*
X115785288Y-65880109D01*
X115702044Y-65981544D01*
X115600609Y-66064788D01*
X115564879Y-66094111D01*
X115564877Y-66094112D01*
X115408390Y-66177757D01*
X115351789Y-66194927D01*
X115238588Y-66229266D01*
X115150362Y-66237955D01*
X115106250Y-66242300D01*
X115017750Y-66242300D01*
X114973638Y-66237955D01*
X114885412Y-66229266D01*
X114772211Y-66194927D01*
X114715610Y-66177757D01*
X114559123Y-66094112D01*
X114559121Y-66094111D01*
X114523391Y-66064788D01*
X114421956Y-65981544D01*
X114338712Y-65880109D01*
X114309389Y-65844379D01*
X114259685Y-65751390D01*
X114225743Y-65687890D01*
X114193496Y-65581586D01*
X114174234Y-65518088D01*
X114156842Y-65341500D01*
X114174234Y-65164912D01*
X114225743Y-64995111D01*
X114225743Y-64995110D01*
X114309388Y-64838623D01*
X114309389Y-64838621D01*
X114349405Y-64789861D01*
X114421956Y-64701456D01*
X114523391Y-64618212D01*
X114559121Y-64588889D01*
X114622444Y-64555042D01*
X114715610Y-64505243D01*
X114772211Y-64488073D01*
X114885412Y-64453734D01*
X114973638Y-64445045D01*
X115017750Y-64440700D01*
X115106250Y-64440700D01*
X115150362Y-64445045D01*
X115150362Y-64445045D01*
G37*
G36*
X120949648Y-63963448D02*
X121003911Y-63979909D01*
X121031043Y-63988139D01*
X121056047Y-64001504D01*
X121106056Y-64028234D01*
X121171806Y-64082194D01*
X121225766Y-64147944D01*
X121252496Y-64197953D01*
X121265861Y-64222957D01*
X121265861Y-64222958D01*
X121290552Y-64304352D01*
X121298889Y-64389000D01*
X121290552Y-64473648D01*
X121277330Y-64517234D01*
X121265861Y-64555043D01*
X121258538Y-64568743D01*
X121225766Y-64630056D01*
X121171806Y-64695806D01*
X121106056Y-64749766D01*
X121056047Y-64776496D01*
X121031043Y-64789861D01*
X121003911Y-64798091D01*
X120949648Y-64814552D01*
X120886210Y-64820800D01*
X119905790Y-64820800D01*
X119842352Y-64814552D01*
X119788089Y-64798091D01*
X119760957Y-64789861D01*
X119735953Y-64776496D01*
X119685944Y-64749766D01*
X119620194Y-64695806D01*
X119566234Y-64630056D01*
X119533462Y-64568743D01*
X119526139Y-64555043D01*
X119514670Y-64517234D01*
X119501448Y-64473648D01*
X119493111Y-64389000D01*
X119501448Y-64304352D01*
X119526139Y-64222958D01*
X119526139Y-64222957D01*
X119539504Y-64197953D01*
X119566234Y-64147944D01*
X119620194Y-64082194D01*
X119685944Y-64028234D01*
X119735953Y-64001504D01*
X119760957Y-63988139D01*
X119788089Y-63979909D01*
X119842352Y-63963448D01*
X119905790Y-63957200D01*
X120886210Y-63957200D01*
X120949648Y-63963448D01*
X120949648Y-63963448D01*
G37*
G36*
X118409648Y-63963448D02*
X118463911Y-63979909D01*
X118491043Y-63988139D01*
X118516047Y-64001504D01*
X118566056Y-64028234D01*
X118631806Y-64082194D01*
X118685766Y-64147944D01*
X118712496Y-64197953D01*
X118725861Y-64222957D01*
X118725861Y-64222958D01*
X118750552Y-64304352D01*
X118758889Y-64389000D01*
X118750552Y-64473648D01*
X118737330Y-64517234D01*
X118725861Y-64555043D01*
X118718538Y-64568743D01*
X118685766Y-64630056D01*
X118631806Y-64695806D01*
X118566056Y-64749766D01*
X118516047Y-64776496D01*
X118491043Y-64789861D01*
X118463911Y-64798091D01*
X118409648Y-64814552D01*
X118346210Y-64820800D01*
X117365790Y-64820800D01*
X117302352Y-64814552D01*
X117248089Y-64798091D01*
X117220957Y-64789861D01*
X117195953Y-64776496D01*
X117145944Y-64749766D01*
X117080194Y-64695806D01*
X117026234Y-64630056D01*
X116993462Y-64568743D01*
X116986139Y-64555043D01*
X116974670Y-64517234D01*
X116961448Y-64473648D01*
X116953111Y-64389000D01*
X116961448Y-64304352D01*
X116986139Y-64222958D01*
X116986139Y-64222957D01*
X116999504Y-64197953D01*
X117026234Y-64147944D01*
X117080194Y-64082194D01*
X117145944Y-64028234D01*
X117195953Y-64001504D01*
X117220957Y-63988139D01*
X117248089Y-63979909D01*
X117302352Y-63963448D01*
X117365790Y-63957200D01*
X118346210Y-63957200D01*
X118409648Y-63963448D01*
X118409648Y-63963448D01*
G37*
G36*
X123836800Y-64820800D02*
X122035200Y-64820800D01*
X122035200Y-63957200D01*
X123836800Y-63957200D01*
X123836800Y-64820800D01*
X123836800Y-64820800D01*
G37*
G36*
X141108800Y-63765800D02*
X139307200Y-63765800D01*
X139307200Y-61964200D01*
X141108800Y-61964200D01*
X141108800Y-63765800D01*
X141108800Y-63765800D01*
G37*
G36*
X132676362Y-61968545D02*
X132764588Y-61977234D01*
X132877789Y-62011573D01*
X132934390Y-62028743D01*
X133072980Y-62102822D01*
X133090879Y-62112389D01*
X133126609Y-62141712D01*
X133228044Y-62224956D01*
X133311288Y-62326391D01*
X133340611Y-62362121D01*
X133340612Y-62362123D01*
X133424257Y-62518610D01*
X133424257Y-62518611D01*
X133475766Y-62688412D01*
X133493158Y-62865000D01*
X133475766Y-63041588D01*
X133443520Y-63147889D01*
X133424257Y-63211390D01*
X133374554Y-63304377D01*
X133340611Y-63367879D01*
X133311288Y-63403609D01*
X133228044Y-63505044D01*
X133126609Y-63588288D01*
X133090879Y-63617611D01*
X133090877Y-63617612D01*
X132934390Y-63701257D01*
X132877789Y-63718427D01*
X132764588Y-63752766D01*
X132676362Y-63761455D01*
X132632250Y-63765800D01*
X132543750Y-63765800D01*
X132499638Y-63761455D01*
X132411412Y-63752766D01*
X132298211Y-63718427D01*
X132241610Y-63701257D01*
X132085123Y-63617612D01*
X132085121Y-63617611D01*
X132049391Y-63588288D01*
X131947956Y-63505044D01*
X131864712Y-63403609D01*
X131835389Y-63367879D01*
X131801446Y-63304377D01*
X131751743Y-63211390D01*
X131732480Y-63147889D01*
X131700234Y-63041588D01*
X131682842Y-62865000D01*
X131700234Y-62688412D01*
X131751743Y-62518611D01*
X131751743Y-62518610D01*
X131835388Y-62362123D01*
X131835389Y-62362121D01*
X131864712Y-62326391D01*
X131947956Y-62224956D01*
X132049391Y-62141712D01*
X132085121Y-62112389D01*
X132103020Y-62102822D01*
X132241610Y-62028743D01*
X132298211Y-62011573D01*
X132411412Y-61977234D01*
X132499638Y-61968545D01*
X132543750Y-61964200D01*
X132632250Y-61964200D01*
X132676362Y-61968545D01*
X132676362Y-61968545D01*
G37*
G36*
X137756362Y-61968545D02*
X137844588Y-61977234D01*
X137957789Y-62011573D01*
X138014390Y-62028743D01*
X138152980Y-62102822D01*
X138170879Y-62112389D01*
X138206609Y-62141712D01*
X138308044Y-62224956D01*
X138391288Y-62326391D01*
X138420611Y-62362121D01*
X138420612Y-62362123D01*
X138504257Y-62518610D01*
X138504257Y-62518611D01*
X138555766Y-62688412D01*
X138573158Y-62865000D01*
X138555766Y-63041588D01*
X138523520Y-63147889D01*
X138504257Y-63211390D01*
X138454554Y-63304377D01*
X138420611Y-63367879D01*
X138391288Y-63403609D01*
X138308044Y-63505044D01*
X138206609Y-63588288D01*
X138170879Y-63617611D01*
X138170877Y-63617612D01*
X138014390Y-63701257D01*
X137957789Y-63718427D01*
X137844588Y-63752766D01*
X137756362Y-63761455D01*
X137712250Y-63765800D01*
X137623750Y-63765800D01*
X137579638Y-63761455D01*
X137491412Y-63752766D01*
X137378211Y-63718427D01*
X137321610Y-63701257D01*
X137165123Y-63617612D01*
X137165121Y-63617611D01*
X137129391Y-63588288D01*
X137027956Y-63505044D01*
X136944712Y-63403609D01*
X136915389Y-63367879D01*
X136881446Y-63304377D01*
X136831743Y-63211390D01*
X136812480Y-63147889D01*
X136780234Y-63041588D01*
X136762842Y-62865000D01*
X136780234Y-62688412D01*
X136831743Y-62518611D01*
X136831743Y-62518610D01*
X136915388Y-62362123D01*
X136915389Y-62362121D01*
X136944712Y-62326391D01*
X137027956Y-62224956D01*
X137129391Y-62141712D01*
X137165121Y-62112389D01*
X137183020Y-62102822D01*
X137321610Y-62028743D01*
X137378211Y-62011573D01*
X137491412Y-61977234D01*
X137579638Y-61968545D01*
X137623750Y-61964200D01*
X137712250Y-61964200D01*
X137756362Y-61968545D01*
X137756362Y-61968545D01*
G37*
G36*
X150456362Y-61968545D02*
X150544588Y-61977234D01*
X150657789Y-62011573D01*
X150714390Y-62028743D01*
X150852980Y-62102822D01*
X150870879Y-62112389D01*
X150906609Y-62141712D01*
X151008044Y-62224956D01*
X151091288Y-62326391D01*
X151120611Y-62362121D01*
X151120612Y-62362123D01*
X151204257Y-62518610D01*
X151204257Y-62518611D01*
X151255766Y-62688412D01*
X151273158Y-62865000D01*
X151255766Y-63041588D01*
X151223520Y-63147889D01*
X151204257Y-63211390D01*
X151154554Y-63304377D01*
X151120611Y-63367879D01*
X151091288Y-63403609D01*
X151008044Y-63505044D01*
X150906609Y-63588288D01*
X150870879Y-63617611D01*
X150870877Y-63617612D01*
X150714390Y-63701257D01*
X150657789Y-63718427D01*
X150544588Y-63752766D01*
X150456362Y-63761455D01*
X150412250Y-63765800D01*
X150323750Y-63765800D01*
X150279638Y-63761455D01*
X150191412Y-63752766D01*
X150078211Y-63718427D01*
X150021610Y-63701257D01*
X149865123Y-63617612D01*
X149865121Y-63617611D01*
X149829391Y-63588288D01*
X149727956Y-63505044D01*
X149644712Y-63403609D01*
X149615389Y-63367879D01*
X149581446Y-63304377D01*
X149531743Y-63211390D01*
X149512480Y-63147889D01*
X149480234Y-63041588D01*
X149462842Y-62865000D01*
X149480234Y-62688412D01*
X149531743Y-62518611D01*
X149531743Y-62518610D01*
X149615388Y-62362123D01*
X149615389Y-62362121D01*
X149644712Y-62326391D01*
X149727956Y-62224956D01*
X149829391Y-62141712D01*
X149865121Y-62112389D01*
X149883020Y-62102822D01*
X150021610Y-62028743D01*
X150078211Y-62011573D01*
X150191412Y-61977234D01*
X150279638Y-61968545D01*
X150323750Y-61964200D01*
X150412250Y-61964200D01*
X150456362Y-61968545D01*
X150456362Y-61968545D01*
G37*
G36*
X152996362Y-61968545D02*
X153084588Y-61977234D01*
X153197789Y-62011573D01*
X153254390Y-62028743D01*
X153392980Y-62102822D01*
X153410879Y-62112389D01*
X153446609Y-62141712D01*
X153548044Y-62224956D01*
X153631288Y-62326391D01*
X153660611Y-62362121D01*
X153660612Y-62362123D01*
X153744257Y-62518610D01*
X153744257Y-62518611D01*
X153795766Y-62688412D01*
X153813158Y-62865000D01*
X153795766Y-63041588D01*
X153763520Y-63147889D01*
X153744257Y-63211390D01*
X153694554Y-63304377D01*
X153660611Y-63367879D01*
X153631288Y-63403609D01*
X153548044Y-63505044D01*
X153446609Y-63588288D01*
X153410879Y-63617611D01*
X153410877Y-63617612D01*
X153254390Y-63701257D01*
X153197789Y-63718427D01*
X153084588Y-63752766D01*
X152996362Y-63761455D01*
X152952250Y-63765800D01*
X152863750Y-63765800D01*
X152819638Y-63761455D01*
X152731412Y-63752766D01*
X152618211Y-63718427D01*
X152561610Y-63701257D01*
X152405123Y-63617612D01*
X152405121Y-63617611D01*
X152369391Y-63588288D01*
X152267956Y-63505044D01*
X152184712Y-63403609D01*
X152155389Y-63367879D01*
X152121446Y-63304377D01*
X152071743Y-63211390D01*
X152052480Y-63147889D01*
X152020234Y-63041588D01*
X152002842Y-62865000D01*
X152020234Y-62688412D01*
X152071743Y-62518611D01*
X152071743Y-62518610D01*
X152155388Y-62362123D01*
X152155389Y-62362121D01*
X152184712Y-62326391D01*
X152267956Y-62224956D01*
X152369391Y-62141712D01*
X152405121Y-62112389D01*
X152423020Y-62102822D01*
X152561610Y-62028743D01*
X152618211Y-62011573D01*
X152731412Y-61977234D01*
X152819638Y-61968545D01*
X152863750Y-61964200D01*
X152952250Y-61964200D01*
X152996362Y-61968545D01*
X152996362Y-61968545D01*
G37*
G36*
X155536362Y-61968545D02*
X155624588Y-61977234D01*
X155737789Y-62011573D01*
X155794390Y-62028743D01*
X155932980Y-62102822D01*
X155950879Y-62112389D01*
X155986609Y-62141712D01*
X156088044Y-62224956D01*
X156171288Y-62326391D01*
X156200611Y-62362121D01*
X156200612Y-62362123D01*
X156284257Y-62518610D01*
X156284257Y-62518611D01*
X156335766Y-62688412D01*
X156353158Y-62865000D01*
X156335766Y-63041588D01*
X156303520Y-63147889D01*
X156284257Y-63211390D01*
X156234554Y-63304377D01*
X156200611Y-63367879D01*
X156171288Y-63403609D01*
X156088044Y-63505044D01*
X155986609Y-63588288D01*
X155950879Y-63617611D01*
X155950877Y-63617612D01*
X155794390Y-63701257D01*
X155737789Y-63718427D01*
X155624588Y-63752766D01*
X155536362Y-63761455D01*
X155492250Y-63765800D01*
X155403750Y-63765800D01*
X155359638Y-63761455D01*
X155271412Y-63752766D01*
X155158211Y-63718427D01*
X155101610Y-63701257D01*
X154945123Y-63617612D01*
X154945121Y-63617611D01*
X154909391Y-63588288D01*
X154807956Y-63505044D01*
X154724712Y-63403609D01*
X154695389Y-63367879D01*
X154661446Y-63304377D01*
X154611743Y-63211390D01*
X154592480Y-63147889D01*
X154560234Y-63041588D01*
X154542842Y-62865000D01*
X154560234Y-62688412D01*
X154611743Y-62518611D01*
X154611743Y-62518610D01*
X154695388Y-62362123D01*
X154695389Y-62362121D01*
X154724712Y-62326391D01*
X154807956Y-62224956D01*
X154909391Y-62141712D01*
X154945121Y-62112389D01*
X154963020Y-62102822D01*
X155101610Y-62028743D01*
X155158211Y-62011573D01*
X155271412Y-61977234D01*
X155359638Y-61968545D01*
X155403750Y-61964200D01*
X155492250Y-61964200D01*
X155536362Y-61968545D01*
X155536362Y-61968545D01*
G37*
G36*
X135216362Y-61968545D02*
X135304588Y-61977234D01*
X135417789Y-62011573D01*
X135474390Y-62028743D01*
X135612980Y-62102822D01*
X135630879Y-62112389D01*
X135666609Y-62141712D01*
X135768044Y-62224956D01*
X135851288Y-62326391D01*
X135880611Y-62362121D01*
X135880612Y-62362123D01*
X135964257Y-62518610D01*
X135964257Y-62518611D01*
X136015766Y-62688412D01*
X136033158Y-62865000D01*
X136015766Y-63041588D01*
X135983520Y-63147889D01*
X135964257Y-63211390D01*
X135914554Y-63304377D01*
X135880611Y-63367879D01*
X135851288Y-63403609D01*
X135768044Y-63505044D01*
X135666609Y-63588288D01*
X135630879Y-63617611D01*
X135630877Y-63617612D01*
X135474390Y-63701257D01*
X135417789Y-63718427D01*
X135304588Y-63752766D01*
X135216362Y-63761455D01*
X135172250Y-63765800D01*
X135083750Y-63765800D01*
X135039638Y-63761455D01*
X134951412Y-63752766D01*
X134838211Y-63718427D01*
X134781610Y-63701257D01*
X134625123Y-63617612D01*
X134625121Y-63617611D01*
X134589391Y-63588288D01*
X134487956Y-63505044D01*
X134404712Y-63403609D01*
X134375389Y-63367879D01*
X134341446Y-63304377D01*
X134291743Y-63211390D01*
X134272480Y-63147889D01*
X134240234Y-63041588D01*
X134222842Y-62865000D01*
X134240234Y-62688412D01*
X134291743Y-62518611D01*
X134291743Y-62518610D01*
X134375388Y-62362123D01*
X134375389Y-62362121D01*
X134404712Y-62326391D01*
X134487956Y-62224956D01*
X134589391Y-62141712D01*
X134625121Y-62112389D01*
X134643020Y-62102822D01*
X134781610Y-62028743D01*
X134838211Y-62011573D01*
X134951412Y-61977234D01*
X135039638Y-61968545D01*
X135083750Y-61964200D01*
X135172250Y-61964200D01*
X135216362Y-61968545D01*
X135216362Y-61968545D01*
G37*
G36*
X170776362Y-61968545D02*
X170864588Y-61977234D01*
X170977789Y-62011573D01*
X171034390Y-62028743D01*
X171172980Y-62102822D01*
X171190879Y-62112389D01*
X171226609Y-62141712D01*
X171328044Y-62224956D01*
X171411288Y-62326391D01*
X171440611Y-62362121D01*
X171440612Y-62362123D01*
X171524257Y-62518610D01*
X171524257Y-62518611D01*
X171575766Y-62688412D01*
X171593158Y-62865000D01*
X171575766Y-63041588D01*
X171543520Y-63147889D01*
X171524257Y-63211390D01*
X171474554Y-63304377D01*
X171440611Y-63367879D01*
X171411288Y-63403609D01*
X171328044Y-63505044D01*
X171226609Y-63588288D01*
X171190879Y-63617611D01*
X171190877Y-63617612D01*
X171034390Y-63701257D01*
X170977789Y-63718427D01*
X170864588Y-63752766D01*
X170776362Y-63761455D01*
X170732250Y-63765800D01*
X170643750Y-63765800D01*
X170599638Y-63761455D01*
X170511412Y-63752766D01*
X170398211Y-63718427D01*
X170341610Y-63701257D01*
X170185123Y-63617612D01*
X170185121Y-63617611D01*
X170149391Y-63588288D01*
X170047956Y-63505044D01*
X169964712Y-63403609D01*
X169935389Y-63367879D01*
X169901446Y-63304377D01*
X169851743Y-63211390D01*
X169832480Y-63147889D01*
X169800234Y-63041588D01*
X169782842Y-62865000D01*
X169800234Y-62688412D01*
X169851743Y-62518611D01*
X169851743Y-62518610D01*
X169935388Y-62362123D01*
X169935389Y-62362121D01*
X169964712Y-62326391D01*
X170047956Y-62224956D01*
X170149391Y-62141712D01*
X170185121Y-62112389D01*
X170203020Y-62102822D01*
X170341610Y-62028743D01*
X170398211Y-62011573D01*
X170511412Y-61977234D01*
X170599638Y-61968545D01*
X170643750Y-61964200D01*
X170732250Y-61964200D01*
X170776362Y-61968545D01*
X170776362Y-61968545D01*
G37*
G36*
X174128800Y-63765800D02*
X172327200Y-63765800D01*
X172327200Y-61964200D01*
X174128800Y-61964200D01*
X174128800Y-63765800D01*
X174128800Y-63765800D01*
G37*
G36*
X165696362Y-61968545D02*
X165784588Y-61977234D01*
X165897789Y-62011573D01*
X165954390Y-62028743D01*
X166092980Y-62102822D01*
X166110879Y-62112389D01*
X166146609Y-62141712D01*
X166248044Y-62224956D01*
X166331288Y-62326391D01*
X166360611Y-62362121D01*
X166360612Y-62362123D01*
X166444257Y-62518610D01*
X166444257Y-62518611D01*
X166495766Y-62688412D01*
X166513158Y-62865000D01*
X166495766Y-63041588D01*
X166463520Y-63147889D01*
X166444257Y-63211390D01*
X166394554Y-63304377D01*
X166360611Y-63367879D01*
X166331288Y-63403609D01*
X166248044Y-63505044D01*
X166146609Y-63588288D01*
X166110879Y-63617611D01*
X166110877Y-63617612D01*
X165954390Y-63701257D01*
X165897789Y-63718427D01*
X165784588Y-63752766D01*
X165696362Y-63761455D01*
X165652250Y-63765800D01*
X165563750Y-63765800D01*
X165519638Y-63761455D01*
X165431412Y-63752766D01*
X165318211Y-63718427D01*
X165261610Y-63701257D01*
X165105123Y-63617612D01*
X165105121Y-63617611D01*
X165069391Y-63588288D01*
X164967956Y-63505044D01*
X164884712Y-63403609D01*
X164855389Y-63367879D01*
X164821446Y-63304377D01*
X164771743Y-63211390D01*
X164752480Y-63147889D01*
X164720234Y-63041588D01*
X164702842Y-62865000D01*
X164720234Y-62688412D01*
X164771743Y-62518611D01*
X164771743Y-62518610D01*
X164855388Y-62362123D01*
X164855389Y-62362121D01*
X164884712Y-62326391D01*
X164967956Y-62224956D01*
X165069391Y-62141712D01*
X165105121Y-62112389D01*
X165123020Y-62102822D01*
X165261610Y-62028743D01*
X165318211Y-62011573D01*
X165431412Y-61977234D01*
X165519638Y-61968545D01*
X165563750Y-61964200D01*
X165652250Y-61964200D01*
X165696362Y-61968545D01*
X165696362Y-61968545D01*
G37*
G36*
X168236362Y-61968545D02*
X168324588Y-61977234D01*
X168437789Y-62011573D01*
X168494390Y-62028743D01*
X168632980Y-62102822D01*
X168650879Y-62112389D01*
X168686609Y-62141712D01*
X168788044Y-62224956D01*
X168871288Y-62326391D01*
X168900611Y-62362121D01*
X168900612Y-62362123D01*
X168984257Y-62518610D01*
X168984257Y-62518611D01*
X169035766Y-62688412D01*
X169053158Y-62865000D01*
X169035766Y-63041588D01*
X169003520Y-63147889D01*
X168984257Y-63211390D01*
X168934554Y-63304377D01*
X168900611Y-63367879D01*
X168871288Y-63403609D01*
X168788044Y-63505044D01*
X168686609Y-63588288D01*
X168650879Y-63617611D01*
X168650877Y-63617612D01*
X168494390Y-63701257D01*
X168437789Y-63718427D01*
X168324588Y-63752766D01*
X168236362Y-63761455D01*
X168192250Y-63765800D01*
X168103750Y-63765800D01*
X168059638Y-63761455D01*
X167971412Y-63752766D01*
X167858211Y-63718427D01*
X167801610Y-63701257D01*
X167645123Y-63617612D01*
X167645121Y-63617611D01*
X167609391Y-63588288D01*
X167507956Y-63505044D01*
X167424712Y-63403609D01*
X167395389Y-63367879D01*
X167361446Y-63304377D01*
X167311743Y-63211390D01*
X167292480Y-63147889D01*
X167260234Y-63041588D01*
X167242842Y-62865000D01*
X167260234Y-62688412D01*
X167311743Y-62518611D01*
X167311743Y-62518610D01*
X167395388Y-62362123D01*
X167395389Y-62362121D01*
X167424712Y-62326391D01*
X167507956Y-62224956D01*
X167609391Y-62141712D01*
X167645121Y-62112389D01*
X167663020Y-62102822D01*
X167801610Y-62028743D01*
X167858211Y-62011573D01*
X167971412Y-61977234D01*
X168059638Y-61968545D01*
X168103750Y-61964200D01*
X168192250Y-61964200D01*
X168236362Y-61968545D01*
X168236362Y-61968545D01*
G37*
G36*
X158888800Y-63765800D02*
X157087200Y-63765800D01*
X157087200Y-61964200D01*
X158888800Y-61964200D01*
X158888800Y-63765800D01*
X158888800Y-63765800D01*
G37*
G36*
X115150362Y-61905045D02*
X115238588Y-61913734D01*
X115351789Y-61948073D01*
X115408390Y-61965243D01*
X115527189Y-62028743D01*
X115564879Y-62048889D01*
X115600609Y-62078212D01*
X115702044Y-62161456D01*
X115785288Y-62262891D01*
X115814611Y-62298621D01*
X115814612Y-62298623D01*
X115898257Y-62455110D01*
X115898257Y-62455111D01*
X115949766Y-62624912D01*
X115967158Y-62801500D01*
X115949766Y-62978088D01*
X115930504Y-63041586D01*
X115898257Y-63147890D01*
X115864315Y-63211390D01*
X115814611Y-63304379D01*
X115785288Y-63340109D01*
X115702044Y-63441544D01*
X115600609Y-63524788D01*
X115564879Y-63554111D01*
X115564877Y-63554112D01*
X115408390Y-63637757D01*
X115351789Y-63654927D01*
X115238588Y-63689266D01*
X115150362Y-63697955D01*
X115106250Y-63702300D01*
X115017750Y-63702300D01*
X114973638Y-63697955D01*
X114885412Y-63689266D01*
X114772211Y-63654927D01*
X114715610Y-63637757D01*
X114559123Y-63554112D01*
X114559121Y-63554111D01*
X114523391Y-63524788D01*
X114421956Y-63441544D01*
X114338712Y-63340109D01*
X114309389Y-63304379D01*
X114259685Y-63211390D01*
X114225743Y-63147890D01*
X114193496Y-63041586D01*
X114174234Y-62978088D01*
X114156842Y-62801500D01*
X114174234Y-62624912D01*
X114225743Y-62455111D01*
X114225743Y-62455110D01*
X114309388Y-62298623D01*
X114309389Y-62298621D01*
X114338712Y-62262891D01*
X114421956Y-62161456D01*
X114523391Y-62078212D01*
X114559121Y-62048889D01*
X114596811Y-62028743D01*
X114715610Y-61965243D01*
X114772211Y-61948073D01*
X114885412Y-61913734D01*
X114973638Y-61905045D01*
X115017750Y-61900700D01*
X115106250Y-61900700D01*
X115150362Y-61905045D01*
X115150362Y-61905045D01*
G37*
G36*
X115257729Y-58099354D02*
X115388254Y-58125317D01*
X115552189Y-58193221D01*
X115699727Y-58291803D01*
X115825197Y-58417273D01*
X115923779Y-58564811D01*
X115991683Y-58728746D01*
X116026300Y-58902779D01*
X116026300Y-59080221D01*
X115991683Y-59254254D01*
X115923779Y-59418189D01*
X115825197Y-59565727D01*
X115699727Y-59691197D01*
X115552189Y-59789779D01*
X115388254Y-59857683D01*
X115257729Y-59883646D01*
X115214222Y-59892300D01*
X115036778Y-59892300D01*
X114993271Y-59883646D01*
X114862746Y-59857683D01*
X114698811Y-59789779D01*
X114551273Y-59691197D01*
X114425803Y-59565727D01*
X114327221Y-59418189D01*
X114259317Y-59254254D01*
X114224700Y-59080221D01*
X114224700Y-58902779D01*
X114259317Y-58728746D01*
X114327221Y-58564811D01*
X114425803Y-58417273D01*
X114551273Y-58291803D01*
X114698811Y-58193221D01*
X114862746Y-58125317D01*
X114993271Y-58099354D01*
X115036778Y-58090700D01*
X115214222Y-58090700D01*
X115257729Y-58099354D01*
X115257729Y-58099354D01*
G37*
G36*
X118473148Y-57105448D02*
X118527411Y-57121909D01*
X118554543Y-57130139D01*
X118579547Y-57143504D01*
X118629556Y-57170234D01*
X118695306Y-57224194D01*
X118749266Y-57289944D01*
X118775629Y-57339266D01*
X118789361Y-57364957D01*
X118789361Y-57364958D01*
X118814052Y-57446352D01*
X118822389Y-57531000D01*
X118814052Y-57615648D01*
X118797591Y-57669911D01*
X118789361Y-57697043D01*
X118775996Y-57722047D01*
X118749266Y-57772056D01*
X118695306Y-57837806D01*
X118629556Y-57891766D01*
X118579547Y-57918496D01*
X118554543Y-57931861D01*
X118527411Y-57940091D01*
X118473148Y-57956552D01*
X118409710Y-57962800D01*
X117429290Y-57962800D01*
X117365852Y-57956552D01*
X117311589Y-57940091D01*
X117284457Y-57931861D01*
X117259453Y-57918496D01*
X117209444Y-57891766D01*
X117143694Y-57837806D01*
X117089734Y-57772056D01*
X117063004Y-57722047D01*
X117049639Y-57697043D01*
X117041409Y-57669911D01*
X117024948Y-57615648D01*
X117016611Y-57531000D01*
X117024948Y-57446352D01*
X117049639Y-57364958D01*
X117049639Y-57364957D01*
X117063371Y-57339266D01*
X117089734Y-57289944D01*
X117143694Y-57224194D01*
X117209444Y-57170234D01*
X117259453Y-57143504D01*
X117284457Y-57130139D01*
X117311589Y-57121909D01*
X117365852Y-57105448D01*
X117429290Y-57099200D01*
X118409710Y-57099200D01*
X118473148Y-57105448D01*
X118473148Y-57105448D01*
G37*
G36*
X121013148Y-57105448D02*
X121067411Y-57121909D01*
X121094543Y-57130139D01*
X121119547Y-57143504D01*
X121169556Y-57170234D01*
X121235306Y-57224194D01*
X121289266Y-57289944D01*
X121315629Y-57339266D01*
X121329361Y-57364957D01*
X121329361Y-57364958D01*
X121354052Y-57446352D01*
X121362389Y-57531000D01*
X121354052Y-57615648D01*
X121337591Y-57669911D01*
X121329361Y-57697043D01*
X121315996Y-57722047D01*
X121289266Y-57772056D01*
X121235306Y-57837806D01*
X121169556Y-57891766D01*
X121119547Y-57918496D01*
X121094543Y-57931861D01*
X121067411Y-57940091D01*
X121013148Y-57956552D01*
X120949710Y-57962800D01*
X119969290Y-57962800D01*
X119905852Y-57956552D01*
X119851589Y-57940091D01*
X119824457Y-57931861D01*
X119799453Y-57918496D01*
X119749444Y-57891766D01*
X119683694Y-57837806D01*
X119629734Y-57772056D01*
X119603004Y-57722047D01*
X119589639Y-57697043D01*
X119581409Y-57669911D01*
X119564948Y-57615648D01*
X119556611Y-57531000D01*
X119564948Y-57446352D01*
X119589639Y-57364958D01*
X119589639Y-57364957D01*
X119603371Y-57339266D01*
X119629734Y-57289944D01*
X119683694Y-57224194D01*
X119749444Y-57170234D01*
X119799453Y-57143504D01*
X119824457Y-57130139D01*
X119851589Y-57121909D01*
X119905852Y-57105448D01*
X119969290Y-57099200D01*
X120949710Y-57099200D01*
X121013148Y-57105448D01*
X121013148Y-57105448D01*
G37*
G36*
X123900300Y-57962800D02*
X122098700Y-57962800D01*
X122098700Y-57099200D01*
X123900300Y-57099200D01*
X123900300Y-57962800D01*
X123900300Y-57962800D01*
G37*
G36*
X115213862Y-55555045D02*
X115302088Y-55563734D01*
X115415289Y-55598073D01*
X115471890Y-55615243D01*
X115529869Y-55646234D01*
X115628379Y-55698889D01*
X115664109Y-55728212D01*
X115765544Y-55811456D01*
X115848788Y-55912891D01*
X115878111Y-55948621D01*
X115878112Y-55948623D01*
X115961757Y-56105110D01*
X115961757Y-56105111D01*
X116013266Y-56274912D01*
X116030658Y-56451500D01*
X116013266Y-56628088D01*
X115978927Y-56741289D01*
X115961757Y-56797890D01*
X115887678Y-56936480D01*
X115878111Y-56954379D01*
X115848788Y-56990109D01*
X115765544Y-57091544D01*
X115669658Y-57170234D01*
X115628379Y-57204111D01*
X115628377Y-57204112D01*
X115471890Y-57287757D01*
X115415289Y-57304927D01*
X115302088Y-57339266D01*
X115213862Y-57347955D01*
X115169750Y-57352300D01*
X115081250Y-57352300D01*
X115037138Y-57347955D01*
X114948912Y-57339266D01*
X114835711Y-57304927D01*
X114779110Y-57287757D01*
X114622623Y-57204112D01*
X114622621Y-57204111D01*
X114581342Y-57170234D01*
X114485456Y-57091544D01*
X114402212Y-56990109D01*
X114372889Y-56954379D01*
X114363322Y-56936480D01*
X114289243Y-56797890D01*
X114272073Y-56741289D01*
X114237734Y-56628088D01*
X114220342Y-56451500D01*
X114237734Y-56274912D01*
X114289243Y-56105111D01*
X114289243Y-56105110D01*
X114372888Y-55948623D01*
X114372889Y-55948621D01*
X114402212Y-55912891D01*
X114485456Y-55811456D01*
X114586891Y-55728212D01*
X114622621Y-55698889D01*
X114721131Y-55646234D01*
X114779110Y-55615243D01*
X114835711Y-55598073D01*
X114948912Y-55563734D01*
X115037138Y-55555045D01*
X115081250Y-55550700D01*
X115169750Y-55550700D01*
X115213862Y-55555045D01*
X115213862Y-55555045D01*
G37*
G36*
X123900300Y-56438800D02*
X122098700Y-56438800D01*
X122098700Y-55575200D01*
X123900300Y-55575200D01*
X123900300Y-56438800D01*
X123900300Y-56438800D01*
G37*
G36*
X121013148Y-55581448D02*
X121067411Y-55597909D01*
X121094543Y-55606139D01*
X121111575Y-55615243D01*
X121169556Y-55646234D01*
X121235306Y-55700194D01*
X121289266Y-55765944D01*
X121313592Y-55811456D01*
X121329361Y-55840957D01*
X121329361Y-55840958D01*
X121354052Y-55922352D01*
X121362389Y-56007000D01*
X121354052Y-56091648D01*
X121349968Y-56105110D01*
X121329361Y-56173043D01*
X121315996Y-56198047D01*
X121289266Y-56248056D01*
X121235306Y-56313806D01*
X121169556Y-56367766D01*
X121119547Y-56394496D01*
X121094543Y-56407861D01*
X121067411Y-56416091D01*
X121013148Y-56432552D01*
X120949710Y-56438800D01*
X119969290Y-56438800D01*
X119905852Y-56432552D01*
X119851589Y-56416091D01*
X119824457Y-56407861D01*
X119799453Y-56394496D01*
X119749444Y-56367766D01*
X119683694Y-56313806D01*
X119629734Y-56248056D01*
X119603004Y-56198047D01*
X119589639Y-56173043D01*
X119569032Y-56105110D01*
X119564948Y-56091648D01*
X119556611Y-56007000D01*
X119564948Y-55922352D01*
X119589639Y-55840958D01*
X119589639Y-55840957D01*
X119605408Y-55811456D01*
X119629734Y-55765944D01*
X119683694Y-55700194D01*
X119749444Y-55646234D01*
X119807425Y-55615243D01*
X119824457Y-55606139D01*
X119851589Y-55597909D01*
X119905852Y-55581448D01*
X119969290Y-55575200D01*
X120949710Y-55575200D01*
X121013148Y-55581448D01*
X121013148Y-55581448D01*
G37*
G36*
X118473148Y-55581448D02*
X118527411Y-55597909D01*
X118554543Y-55606139D01*
X118571575Y-55615243D01*
X118629556Y-55646234D01*
X118695306Y-55700194D01*
X118749266Y-55765944D01*
X118773592Y-55811456D01*
X118789361Y-55840957D01*
X118789361Y-55840958D01*
X118814052Y-55922352D01*
X118822389Y-56007000D01*
X118814052Y-56091648D01*
X118809968Y-56105110D01*
X118789361Y-56173043D01*
X118775996Y-56198047D01*
X118749266Y-56248056D01*
X118695306Y-56313806D01*
X118629556Y-56367766D01*
X118579547Y-56394496D01*
X118554543Y-56407861D01*
X118527411Y-56416091D01*
X118473148Y-56432552D01*
X118409710Y-56438800D01*
X117429290Y-56438800D01*
X117365852Y-56432552D01*
X117311589Y-56416091D01*
X117284457Y-56407861D01*
X117259453Y-56394496D01*
X117209444Y-56367766D01*
X117143694Y-56313806D01*
X117089734Y-56248056D01*
X117063004Y-56198047D01*
X117049639Y-56173043D01*
X117029032Y-56105110D01*
X117024948Y-56091648D01*
X117016611Y-56007000D01*
X117024948Y-55922352D01*
X117049639Y-55840958D01*
X117049639Y-55840957D01*
X117065408Y-55811456D01*
X117089734Y-55765944D01*
X117143694Y-55700194D01*
X117209444Y-55646234D01*
X117267425Y-55615243D01*
X117284457Y-55606139D01*
X117311589Y-55597909D01*
X117365852Y-55581448D01*
X117429290Y-55575200D01*
X118409710Y-55575200D01*
X118473148Y-55581448D01*
X118473148Y-55581448D01*
G37*
G36*
X121013148Y-54057448D02*
X121067411Y-54073909D01*
X121094543Y-54082139D01*
X121119547Y-54095504D01*
X121169556Y-54122234D01*
X121235306Y-54176194D01*
X121289266Y-54241944D01*
X121315996Y-54291953D01*
X121329361Y-54316957D01*
X121329361Y-54316958D01*
X121354052Y-54398352D01*
X121362389Y-54483000D01*
X121354052Y-54567648D01*
X121337591Y-54621911D01*
X121329361Y-54649043D01*
X121321307Y-54664111D01*
X121289266Y-54724056D01*
X121235306Y-54789806D01*
X121169556Y-54843766D01*
X121119547Y-54870496D01*
X121094543Y-54883861D01*
X121067411Y-54892091D01*
X121013148Y-54908552D01*
X120949710Y-54914800D01*
X119969290Y-54914800D01*
X119905852Y-54908552D01*
X119851589Y-54892091D01*
X119824457Y-54883861D01*
X119799453Y-54870496D01*
X119749444Y-54843766D01*
X119683694Y-54789806D01*
X119629734Y-54724056D01*
X119597693Y-54664111D01*
X119589639Y-54649043D01*
X119581409Y-54621911D01*
X119564948Y-54567648D01*
X119556611Y-54483000D01*
X119564948Y-54398352D01*
X119589639Y-54316958D01*
X119589639Y-54316957D01*
X119603004Y-54291953D01*
X119629734Y-54241944D01*
X119683694Y-54176194D01*
X119749444Y-54122234D01*
X119799453Y-54095504D01*
X119824457Y-54082139D01*
X119851589Y-54073909D01*
X119905852Y-54057448D01*
X119969290Y-54051200D01*
X120949710Y-54051200D01*
X121013148Y-54057448D01*
X121013148Y-54057448D01*
G37*
G36*
X118473148Y-54057448D02*
X118527411Y-54073909D01*
X118554543Y-54082139D01*
X118579547Y-54095504D01*
X118629556Y-54122234D01*
X118695306Y-54176194D01*
X118749266Y-54241944D01*
X118775996Y-54291953D01*
X118789361Y-54316957D01*
X118789361Y-54316958D01*
X118814052Y-54398352D01*
X118822389Y-54483000D01*
X118814052Y-54567648D01*
X118797591Y-54621911D01*
X118789361Y-54649043D01*
X118781307Y-54664111D01*
X118749266Y-54724056D01*
X118695306Y-54789806D01*
X118629556Y-54843766D01*
X118579547Y-54870496D01*
X118554543Y-54883861D01*
X118527411Y-54892091D01*
X118473148Y-54908552D01*
X118409710Y-54914800D01*
X117429290Y-54914800D01*
X117365852Y-54908552D01*
X117311589Y-54892091D01*
X117284457Y-54883861D01*
X117259453Y-54870496D01*
X117209444Y-54843766D01*
X117143694Y-54789806D01*
X117089734Y-54724056D01*
X117057693Y-54664111D01*
X117049639Y-54649043D01*
X117041409Y-54621911D01*
X117024948Y-54567648D01*
X117016611Y-54483000D01*
X117024948Y-54398352D01*
X117049639Y-54316958D01*
X117049639Y-54316957D01*
X117063004Y-54291953D01*
X117089734Y-54241944D01*
X117143694Y-54176194D01*
X117209444Y-54122234D01*
X117259453Y-54095504D01*
X117284457Y-54082139D01*
X117311589Y-54073909D01*
X117365852Y-54057448D01*
X117429290Y-54051200D01*
X118409710Y-54051200D01*
X118473148Y-54057448D01*
X118473148Y-54057448D01*
G37*
G36*
X123900300Y-54914800D02*
X122098700Y-54914800D01*
X122098700Y-54051200D01*
X123900300Y-54051200D01*
X123900300Y-54914800D01*
X123900300Y-54914800D01*
G37*
G36*
X115213862Y-53015045D02*
X115302088Y-53023734D01*
X115415289Y-53058073D01*
X115471890Y-53075243D01*
X115565056Y-53125042D01*
X115628379Y-53158889D01*
X115664109Y-53188212D01*
X115765544Y-53271456D01*
X115838095Y-53359861D01*
X115878111Y-53408621D01*
X115878112Y-53408623D01*
X115961757Y-53565110D01*
X115961757Y-53565111D01*
X116013266Y-53734912D01*
X116030658Y-53911500D01*
X116013266Y-54088088D01*
X115986539Y-54176194D01*
X115961757Y-54257890D01*
X115930184Y-54316958D01*
X115878111Y-54414379D01*
X115848788Y-54450109D01*
X115765544Y-54551544D01*
X115664109Y-54634788D01*
X115628379Y-54664111D01*
X115628377Y-54664112D01*
X115471890Y-54747757D01*
X115415289Y-54764927D01*
X115302088Y-54799266D01*
X115213862Y-54807955D01*
X115169750Y-54812300D01*
X115081250Y-54812300D01*
X115037138Y-54807955D01*
X114948912Y-54799266D01*
X114835711Y-54764927D01*
X114779110Y-54747757D01*
X114622623Y-54664112D01*
X114622621Y-54664111D01*
X114586891Y-54634788D01*
X114485456Y-54551544D01*
X114402212Y-54450109D01*
X114372889Y-54414379D01*
X114320816Y-54316958D01*
X114289243Y-54257890D01*
X114264461Y-54176194D01*
X114237734Y-54088088D01*
X114220342Y-53911500D01*
X114237734Y-53734912D01*
X114289243Y-53565111D01*
X114289243Y-53565110D01*
X114372888Y-53408623D01*
X114372889Y-53408621D01*
X114412905Y-53359861D01*
X114485456Y-53271456D01*
X114586891Y-53188212D01*
X114622621Y-53158889D01*
X114685944Y-53125042D01*
X114779110Y-53075243D01*
X114835711Y-53058073D01*
X114948912Y-53023734D01*
X115037138Y-53015045D01*
X115081250Y-53010700D01*
X115169750Y-53010700D01*
X115213862Y-53015045D01*
X115213862Y-53015045D01*
G37*
G36*
X123900300Y-53390800D02*
X122098700Y-53390800D01*
X122098700Y-52527200D01*
X123900300Y-52527200D01*
X123900300Y-53390800D01*
X123900300Y-53390800D01*
G37*
G36*
X121013148Y-52533448D02*
X121067411Y-52549909D01*
X121094543Y-52558139D01*
X121119547Y-52571504D01*
X121169556Y-52598234D01*
X121235306Y-52652194D01*
X121289266Y-52717944D01*
X121315996Y-52767953D01*
X121329361Y-52792957D01*
X121329361Y-52792958D01*
X121354052Y-52874352D01*
X121362389Y-52959000D01*
X121354052Y-53043648D01*
X121337591Y-53097911D01*
X121329361Y-53125043D01*
X121315996Y-53150047D01*
X121289266Y-53200056D01*
X121235306Y-53265806D01*
X121169556Y-53319766D01*
X121119547Y-53346496D01*
X121094543Y-53359861D01*
X121067411Y-53368091D01*
X121013148Y-53384552D01*
X120949710Y-53390800D01*
X119969290Y-53390800D01*
X119905852Y-53384552D01*
X119851589Y-53368091D01*
X119824457Y-53359861D01*
X119799453Y-53346496D01*
X119749444Y-53319766D01*
X119683694Y-53265806D01*
X119629734Y-53200056D01*
X119603004Y-53150047D01*
X119589639Y-53125043D01*
X119581409Y-53097911D01*
X119564948Y-53043648D01*
X119556611Y-52959000D01*
X119564948Y-52874352D01*
X119589639Y-52792958D01*
X119589639Y-52792957D01*
X119603004Y-52767953D01*
X119629734Y-52717944D01*
X119683694Y-52652194D01*
X119749444Y-52598234D01*
X119799453Y-52571504D01*
X119824457Y-52558139D01*
X119851589Y-52549909D01*
X119905852Y-52533448D01*
X119969290Y-52527200D01*
X120949710Y-52527200D01*
X121013148Y-52533448D01*
X121013148Y-52533448D01*
G37*
G36*
X118473148Y-52533448D02*
X118527411Y-52549909D01*
X118554543Y-52558139D01*
X118579547Y-52571504D01*
X118629556Y-52598234D01*
X118695306Y-52652194D01*
X118749266Y-52717944D01*
X118775996Y-52767953D01*
X118789361Y-52792957D01*
X118789361Y-52792958D01*
X118814052Y-52874352D01*
X118822389Y-52959000D01*
X118814052Y-53043648D01*
X118797591Y-53097911D01*
X118789361Y-53125043D01*
X118775996Y-53150047D01*
X118749266Y-53200056D01*
X118695306Y-53265806D01*
X118629556Y-53319766D01*
X118579547Y-53346496D01*
X118554543Y-53359861D01*
X118527411Y-53368091D01*
X118473148Y-53384552D01*
X118409710Y-53390800D01*
X117429290Y-53390800D01*
X117365852Y-53384552D01*
X117311589Y-53368091D01*
X117284457Y-53359861D01*
X117259453Y-53346496D01*
X117209444Y-53319766D01*
X117143694Y-53265806D01*
X117089734Y-53200056D01*
X117063004Y-53150047D01*
X117049639Y-53125043D01*
X117041409Y-53097911D01*
X117024948Y-53043648D01*
X117016611Y-52959000D01*
X117024948Y-52874352D01*
X117049639Y-52792958D01*
X117049639Y-52792957D01*
X117063004Y-52767953D01*
X117089734Y-52717944D01*
X117143694Y-52652194D01*
X117209444Y-52598234D01*
X117259453Y-52571504D01*
X117284457Y-52558139D01*
X117311589Y-52549909D01*
X117365852Y-52533448D01*
X117429290Y-52527200D01*
X118409710Y-52527200D01*
X118473148Y-52533448D01*
X118473148Y-52533448D01*
G37*
G36*
X115213862Y-50475045D02*
X115302088Y-50483734D01*
X115415289Y-50518073D01*
X115471890Y-50535243D01*
X115610480Y-50609322D01*
X115628379Y-50618889D01*
X115664109Y-50648212D01*
X115765544Y-50731456D01*
X115848788Y-50832891D01*
X115878111Y-50868621D01*
X115878112Y-50868623D01*
X115961757Y-51025110D01*
X115961757Y-51025111D01*
X116013266Y-51194912D01*
X116030658Y-51371500D01*
X116013266Y-51548088D01*
X115978927Y-51661289D01*
X115961757Y-51717890D01*
X115887678Y-51856480D01*
X115878111Y-51874379D01*
X115848788Y-51910109D01*
X115765544Y-52011544D01*
X115664109Y-52094788D01*
X115628379Y-52124111D01*
X115628377Y-52124112D01*
X115471890Y-52207757D01*
X115415289Y-52224927D01*
X115302088Y-52259266D01*
X115213862Y-52267955D01*
X115169750Y-52272300D01*
X115081250Y-52272300D01*
X115037138Y-52267955D01*
X114948912Y-52259266D01*
X114835711Y-52224927D01*
X114779110Y-52207757D01*
X114622623Y-52124112D01*
X114622621Y-52124111D01*
X114586891Y-52094788D01*
X114485456Y-52011544D01*
X114402212Y-51910109D01*
X114372889Y-51874379D01*
X114363322Y-51856480D01*
X114289243Y-51717890D01*
X114272073Y-51661289D01*
X114237734Y-51548088D01*
X114220342Y-51371500D01*
X114237734Y-51194912D01*
X114289243Y-51025111D01*
X114289243Y-51025110D01*
X114372888Y-50868623D01*
X114372889Y-50868621D01*
X114402212Y-50832891D01*
X114485456Y-50731456D01*
X114586891Y-50648212D01*
X114622621Y-50618889D01*
X114640520Y-50609322D01*
X114779110Y-50535243D01*
X114835711Y-50518073D01*
X114948912Y-50483734D01*
X115037138Y-50475045D01*
X115081250Y-50470700D01*
X115169750Y-50470700D01*
X115213862Y-50475045D01*
X115213862Y-50475045D01*
G37*
M02*
