M48
;DRILL file {KiCad 5.0.2+dfsg1-1} date Sun 14 Jul 2019 12:59:33 AM PDT
;FORMAT={-:-/ absolute / inch / decimal}
FMAT,2
INCH,TZ
T1C0.0300
T2C0.0394
T3C0.0400
T4C0.1200
%
G90
G05
T1
X5.42Y-3.925
X5.42Y-4.025
X5.42Y-4.125
X5.42Y-4.225
X5.42Y-4.325
X5.42Y-4.425
X6.42Y-4.025
X6.42Y-4.125
X6.42Y-4.225
X6.42Y-4.325
T2
X4.47Y-3.925
X4.47Y-4.025
X4.47Y-4.125
X4.47Y-4.225
X4.47Y-2.975
X4.47Y-3.075
X4.47Y-3.175
T3
X6.17Y-2.975
X6.27Y-2.975
X6.37Y-2.975
X6.47Y-2.975
X6.57Y-2.975
X6.67Y-2.975
X6.77Y-2.975
X6.87Y-2.975
X5.47Y-4.875
X5.57Y-4.875
X5.67Y-4.875
X5.77Y-4.875
X5.87Y-4.875
X5.97Y-4.875
X6.07Y-4.875
X6.17Y-4.875
X5.11Y-2.975
X5.21Y-2.975
X5.31Y-2.975
X5.41Y-2.975
X5.51Y-2.975
X5.61Y-2.975
X5.71Y-2.975
X5.81Y-2.975
X5.91Y-2.975
X6.01Y-2.975
X6.37Y-4.875
X6.47Y-4.875
X6.57Y-4.875
X6.67Y-4.875
X6.77Y-4.875
X6.87Y-4.875
T4
X6.97Y-3.575
X4.97Y-2.975
X4.92Y-4.875
X6.97Y-4.675
T0
M30
