M48
;DRILL file {KiCad 5.0.2+dfsg1-1} date Wed 24 Jul 2019 12:12:55 AM PDT
;FORMAT={-:-/ absolute / inch / decimal}
FMAT,2
INCH,TZ
T1C0.0200
T2C0.0300
T3C0.0315
T4C0.0354
T5C0.0394
T6C0.0400
T7C0.0433
T8C0.1200
%
G90
G05
T1
X4.64Y-2.655
X4.74Y-2.655
X4.84Y-2.655
X4.6425Y-2.085
X4.7425Y-2.085
X4.8425Y-2.085
X4.6425Y-2.145
X4.7425Y-2.145
X4.8425Y-2.145
X4.64Y-2.595
X4.74Y-2.595
X4.84Y-2.595
X4.6425Y-2.205
X4.7425Y-2.205
X4.8425Y-2.205
X4.64Y-2.715
X4.74Y-2.715
X4.84Y-2.715
X4.6425Y-2.265
X4.7425Y-2.265
X4.8425Y-2.265
X4.64Y-2.535
X4.74Y-2.535
X4.84Y-2.535
T2
X5.42Y-3.925
X5.42Y-4.025
X5.42Y-4.125
X5.42Y-4.225
X5.42Y-4.325
X5.42Y-4.425
X6.42Y-4.025
X6.42Y-4.125
X6.42Y-4.225
X6.42Y-4.325
T3
X4.82Y-4.475
X5.22Y-4.475
T4
X4.82Y-4.65
X4.92Y-4.65
T5
X5.32Y-2.675
X5.42Y-2.675
X5.52Y-2.675
X6.02Y-2.575
X6.12Y-2.575
X6.22Y-2.575
X6.62Y-2.775
X6.72Y-2.775
X6.82Y-2.775
X4.57Y-3.925
X4.57Y-4.025
X4.57Y-4.125
X4.57Y-4.225
X6.02Y-2.475
X6.12Y-2.475
X6.22Y-2.475
X5.32Y-2.475
X5.42Y-2.475
X5.52Y-2.475
X6.62Y-2.475
X6.72Y-2.475
X6.82Y-2.475
X5.92Y-2.475
X5.92Y-2.575
X5.92Y-2.675
X5.92Y-2.775
X4.5325Y-2.0225
X4.5325Y-2.1225
X4.5325Y-2.2225
X4.5325Y-2.3225
X6.62Y-2.575
X6.72Y-2.575
X6.82Y-2.575
X5.32Y-2.775
X5.42Y-2.775
X5.52Y-2.775
X4.53Y-2.4725
X4.53Y-2.5725
X4.53Y-2.6725
X4.53Y-2.7725
X6.52Y-2.475
X6.52Y-2.575
X6.52Y-2.675
X6.52Y-2.775
X4.57Y-2.975
X4.57Y-3.075
X4.57Y-3.175
X5.32Y-2.575
X5.42Y-2.575
X5.52Y-2.575
X6.62Y-2.675
X6.72Y-2.675
X6.82Y-2.675
X5.22Y-2.475
X5.22Y-2.575
X5.22Y-2.675
X5.22Y-2.775
X5.77Y-3.575
X5.87Y-3.575
X5.97Y-3.575
X6.02Y-2.775
X6.12Y-2.775
X6.22Y-2.775
X6.02Y-2.675
X6.12Y-2.675
X6.22Y-2.675
T6
X5.47Y-4.875
X5.57Y-4.875
X5.67Y-4.875
X5.77Y-4.875
X5.87Y-4.875
X5.97Y-4.875
X6.07Y-4.875
X6.17Y-4.875
X6.37Y-4.875
X6.47Y-4.875
X6.57Y-4.875
X6.67Y-4.875
X6.77Y-4.875
X6.87Y-4.875
X6.17Y-2.975
X6.27Y-2.975
X6.37Y-2.975
X6.47Y-2.975
X6.57Y-2.975
X6.67Y-2.975
X6.77Y-2.975
X6.87Y-2.975
X5.11Y-2.975
X5.21Y-2.975
X5.31Y-2.975
X5.41Y-2.975
X5.51Y-2.975
X5.61Y-2.975
X5.71Y-2.975
X5.81Y-2.975
X5.91Y-2.975
X6.01Y-2.975
T7
X5.0641Y-4.6978
X5.0641Y-4.875
X5.32Y-4.6978
X5.32Y-4.875
T8
X4.97Y-2.975
X4.92Y-4.875
X6.97Y-4.675
X6.97Y-3.575
T0
M30
