G04 #@! TF.GenerationSoftware,KiCad,Pcbnew,5.0.2+dfsg1-1*
G04 #@! TF.CreationDate,2019-07-23T01:47:13-07:00*
G04 #@! TF.ProjectId,WeightAndMotionSensorShield,57656967-6874-4416-9e64-4d6f74696f6e,v01*
G04 #@! TF.SameCoordinates,Original*
G04 #@! TF.FileFunction,Legend,Top*
G04 #@! TF.FilePolarity,Positive*
%FSLAX46Y46*%
G04 Gerber Fmt 4.6, Leading zero omitted, Abs format (unit mm)*
G04 Created by KiCad (PCBNEW 5.0.2+dfsg1-1) date Tue 23 Jul 2019 01:47:13 AM PDT*
%MOMM*%
%LPD*%
G01*
G04 APERTURE LIST*
%ADD10C,0.300000*%
%ADD11C,0.150000*%
%ADD12C,0.120000*%
G04 APERTURE END LIST*
D10*
X130490857Y-81088571D02*
X130847999Y-82588571D01*
X131133714Y-81517142D01*
X131419428Y-82588571D01*
X131776571Y-81088571D01*
X132919428Y-82517142D02*
X132776571Y-82588571D01*
X132490857Y-82588571D01*
X132347999Y-82517142D01*
X132276571Y-82374285D01*
X132276571Y-81802857D01*
X132347999Y-81660000D01*
X132490857Y-81588571D01*
X132776571Y-81588571D01*
X132919428Y-81660000D01*
X132990857Y-81802857D01*
X132990857Y-81945714D01*
X132276571Y-82088571D01*
X133633714Y-82588571D02*
X133633714Y-81588571D01*
X133633714Y-81088571D02*
X133562285Y-81160000D01*
X133633714Y-81231428D01*
X133705142Y-81160000D01*
X133633714Y-81088571D01*
X133633714Y-81231428D01*
X134990857Y-81588571D02*
X134990857Y-82802857D01*
X134919428Y-82945714D01*
X134848000Y-83017142D01*
X134705142Y-83088571D01*
X134490857Y-83088571D01*
X134348000Y-83017142D01*
X134990857Y-82517142D02*
X134848000Y-82588571D01*
X134562285Y-82588571D01*
X134419428Y-82517142D01*
X134348000Y-82445714D01*
X134276571Y-82302857D01*
X134276571Y-81874285D01*
X134348000Y-81731428D01*
X134419428Y-81660000D01*
X134562285Y-81588571D01*
X134848000Y-81588571D01*
X134990857Y-81660000D01*
X135705142Y-82588571D02*
X135705142Y-81088571D01*
X136348000Y-82588571D02*
X136348000Y-81802857D01*
X136276571Y-81660000D01*
X136133714Y-81588571D01*
X135919428Y-81588571D01*
X135776571Y-81660000D01*
X135705142Y-81731428D01*
X136848000Y-81588571D02*
X137419428Y-81588571D01*
X137062285Y-81088571D02*
X137062285Y-82374285D01*
X137133714Y-82517142D01*
X137276571Y-82588571D01*
X137419428Y-82588571D01*
X139705142Y-82588571D02*
X139705142Y-81802857D01*
X139633714Y-81660000D01*
X139490857Y-81588571D01*
X139205142Y-81588571D01*
X139062285Y-81660000D01*
X139705142Y-82517142D02*
X139562285Y-82588571D01*
X139205142Y-82588571D01*
X139062285Y-82517142D01*
X138990857Y-82374285D01*
X138990857Y-82231428D01*
X139062285Y-82088571D01*
X139205142Y-82017142D01*
X139562285Y-82017142D01*
X139705142Y-81945714D01*
X140419428Y-81588571D02*
X140419428Y-82588571D01*
X140419428Y-81731428D02*
X140490857Y-81660000D01*
X140633714Y-81588571D01*
X140848000Y-81588571D01*
X140990857Y-81660000D01*
X141062285Y-81802857D01*
X141062285Y-82588571D01*
X142419428Y-82588571D02*
X142419428Y-81088571D01*
X142419428Y-82517142D02*
X142276571Y-82588571D01*
X141990857Y-82588571D01*
X141848000Y-82517142D01*
X141776571Y-82445714D01*
X141705142Y-82302857D01*
X141705142Y-81874285D01*
X141776571Y-81731428D01*
X141848000Y-81660000D01*
X141990857Y-81588571D01*
X142276571Y-81588571D01*
X142419428Y-81660000D01*
X144276571Y-82588571D02*
X144276571Y-81588571D01*
X144276571Y-81731428D02*
X144348000Y-81660000D01*
X144490857Y-81588571D01*
X144705142Y-81588571D01*
X144848000Y-81660000D01*
X144919428Y-81802857D01*
X144919428Y-82588571D01*
X144919428Y-81802857D02*
X144990857Y-81660000D01*
X145133714Y-81588571D01*
X145348000Y-81588571D01*
X145490857Y-81660000D01*
X145562285Y-81802857D01*
X145562285Y-82588571D01*
X146490857Y-82588571D02*
X146348000Y-82517142D01*
X146276571Y-82445714D01*
X146205142Y-82302857D01*
X146205142Y-81874285D01*
X146276571Y-81731428D01*
X146348000Y-81660000D01*
X146490857Y-81588571D01*
X146705142Y-81588571D01*
X146848000Y-81660000D01*
X146919428Y-81731428D01*
X146990857Y-81874285D01*
X146990857Y-82302857D01*
X146919428Y-82445714D01*
X146848000Y-82517142D01*
X146705142Y-82588571D01*
X146490857Y-82588571D01*
X147419428Y-81588571D02*
X147990857Y-81588571D01*
X147633714Y-81088571D02*
X147633714Y-82374285D01*
X147705142Y-82517142D01*
X147848000Y-82588571D01*
X147990857Y-82588571D01*
X148490857Y-82588571D02*
X148490857Y-81588571D01*
X148490857Y-81088571D02*
X148419428Y-81160000D01*
X148490857Y-81231428D01*
X148562285Y-81160000D01*
X148490857Y-81088571D01*
X148490857Y-81231428D01*
X149419428Y-82588571D02*
X149276571Y-82517142D01*
X149205142Y-82445714D01*
X149133714Y-82302857D01*
X149133714Y-81874285D01*
X149205142Y-81731428D01*
X149276571Y-81660000D01*
X149419428Y-81588571D01*
X149633714Y-81588571D01*
X149776571Y-81660000D01*
X149848000Y-81731428D01*
X149919428Y-81874285D01*
X149919428Y-82302857D01*
X149848000Y-82445714D01*
X149776571Y-82517142D01*
X149633714Y-82588571D01*
X149419428Y-82588571D01*
X150562285Y-81588571D02*
X150562285Y-82588571D01*
X150562285Y-81731428D02*
X150633714Y-81660000D01*
X150776571Y-81588571D01*
X150990857Y-81588571D01*
X151133714Y-81660000D01*
X151205142Y-81802857D01*
X151205142Y-82588571D01*
X152990857Y-82517142D02*
X153133714Y-82588571D01*
X153419428Y-82588571D01*
X153562285Y-82517142D01*
X153633714Y-82374285D01*
X153633714Y-82302857D01*
X153562285Y-82160000D01*
X153419428Y-82088571D01*
X153205142Y-82088571D01*
X153062285Y-82017142D01*
X152990857Y-81874285D01*
X152990857Y-81802857D01*
X153062285Y-81660000D01*
X153205142Y-81588571D01*
X153419428Y-81588571D01*
X153562285Y-81660000D01*
X154848000Y-82517142D02*
X154705142Y-82588571D01*
X154419428Y-82588571D01*
X154276571Y-82517142D01*
X154205142Y-82374285D01*
X154205142Y-81802857D01*
X154276571Y-81660000D01*
X154419428Y-81588571D01*
X154705142Y-81588571D01*
X154848000Y-81660000D01*
X154919428Y-81802857D01*
X154919428Y-81945714D01*
X154205142Y-82088571D01*
X155562285Y-81588571D02*
X155562285Y-82588571D01*
X155562285Y-81731428D02*
X155633714Y-81660000D01*
X155776571Y-81588571D01*
X155990857Y-81588571D01*
X156133714Y-81660000D01*
X156205142Y-81802857D01*
X156205142Y-82588571D01*
X156848000Y-82517142D02*
X156990857Y-82588571D01*
X157276571Y-82588571D01*
X157419428Y-82517142D01*
X157490857Y-82374285D01*
X157490857Y-82302857D01*
X157419428Y-82160000D01*
X157276571Y-82088571D01*
X157062285Y-82088571D01*
X156919428Y-82017142D01*
X156848000Y-81874285D01*
X156848000Y-81802857D01*
X156919428Y-81660000D01*
X157062285Y-81588571D01*
X157276571Y-81588571D01*
X157419428Y-81660000D01*
X158348000Y-82588571D02*
X158205142Y-82517142D01*
X158133714Y-82445714D01*
X158062285Y-82302857D01*
X158062285Y-81874285D01*
X158133714Y-81731428D01*
X158205142Y-81660000D01*
X158348000Y-81588571D01*
X158562285Y-81588571D01*
X158705142Y-81660000D01*
X158776571Y-81731428D01*
X158848000Y-81874285D01*
X158848000Y-82302857D01*
X158776571Y-82445714D01*
X158705142Y-82517142D01*
X158562285Y-82588571D01*
X158348000Y-82588571D01*
X159490857Y-82588571D02*
X159490857Y-81588571D01*
X159490857Y-81874285D02*
X159562285Y-81731428D01*
X159633714Y-81660000D01*
X159776571Y-81588571D01*
X159919428Y-81588571D01*
X161490857Y-82517142D02*
X161633714Y-82588571D01*
X161919428Y-82588571D01*
X162062285Y-82517142D01*
X162133714Y-82374285D01*
X162133714Y-82302857D01*
X162062285Y-82160000D01*
X161919428Y-82088571D01*
X161705142Y-82088571D01*
X161562285Y-82017142D01*
X161490857Y-81874285D01*
X161490857Y-81802857D01*
X161562285Y-81660000D01*
X161705142Y-81588571D01*
X161919428Y-81588571D01*
X162062285Y-81660000D01*
X162776571Y-82588571D02*
X162776571Y-81088571D01*
X163419428Y-82588571D02*
X163419428Y-81802857D01*
X163348000Y-81660000D01*
X163205142Y-81588571D01*
X162990857Y-81588571D01*
X162848000Y-81660000D01*
X162776571Y-81731428D01*
X164133714Y-82588571D02*
X164133714Y-81588571D01*
X164133714Y-81088571D02*
X164062285Y-81160000D01*
X164133714Y-81231428D01*
X164205142Y-81160000D01*
X164133714Y-81088571D01*
X164133714Y-81231428D01*
X165419428Y-82517142D02*
X165276571Y-82588571D01*
X164990857Y-82588571D01*
X164848000Y-82517142D01*
X164776571Y-82374285D01*
X164776571Y-81802857D01*
X164848000Y-81660000D01*
X164990857Y-81588571D01*
X165276571Y-81588571D01*
X165419428Y-81660000D01*
X165490857Y-81802857D01*
X165490857Y-81945714D01*
X164776571Y-82088571D01*
X166348000Y-82588571D02*
X166205142Y-82517142D01*
X166133714Y-82374285D01*
X166133714Y-81088571D01*
X167562285Y-82588571D02*
X167562285Y-81088571D01*
X167562285Y-82517142D02*
X167419428Y-82588571D01*
X167133714Y-82588571D01*
X166990857Y-82517142D01*
X166919428Y-82445714D01*
X166848000Y-82302857D01*
X166848000Y-81874285D01*
X166919428Y-81731428D01*
X166990857Y-81660000D01*
X167133714Y-81588571D01*
X167419428Y-81588571D01*
X167562285Y-81660000D01*
X148026571Y-84138571D02*
X148383714Y-85138571D01*
X148740857Y-84138571D01*
X149240857Y-83781428D02*
X149312285Y-83710000D01*
X149455142Y-83638571D01*
X149812285Y-83638571D01*
X149955142Y-83710000D01*
X150026571Y-83781428D01*
X150098000Y-83924285D01*
X150098000Y-84067142D01*
X150026571Y-84281428D01*
X149169428Y-85138571D01*
X150098000Y-85138571D01*
D11*
X139390380Y-120999285D02*
X139390380Y-121570714D01*
X139390380Y-121285000D02*
X138390380Y-121285000D01*
X138533238Y-121380238D01*
X138628476Y-121475476D01*
X138676095Y-121570714D01*
D12*
G04 #@! TO.C,J4*
X141538000Y-64075000D02*
X141538000Y-65405000D01*
X140208000Y-64075000D02*
X141538000Y-64075000D01*
X138938000Y-64075000D02*
X138938000Y-66735000D01*
X138938000Y-66735000D02*
X133798000Y-66735000D01*
X138938000Y-64075000D02*
X133798000Y-64075000D01*
X133798000Y-64075000D02*
X133798000Y-66735000D01*
G04 #@! TO.C,J5*
X133918000Y-61535000D02*
X131258000Y-61535000D01*
X133918000Y-69215000D02*
X133918000Y-61535000D01*
X131258000Y-69215000D02*
X131258000Y-61535000D01*
X133918000Y-69215000D02*
X131258000Y-69215000D01*
X133918000Y-70485000D02*
X133918000Y-71815000D01*
X133918000Y-71815000D02*
X132588000Y-71815000D01*
G04 #@! TO.C,J7*
X141538000Y-61535000D02*
X141538000Y-62865000D01*
X140208000Y-61535000D02*
X141538000Y-61535000D01*
X138938000Y-61535000D02*
X138938000Y-64195000D01*
X138938000Y-64195000D02*
X133798000Y-64195000D01*
X138938000Y-61535000D02*
X133798000Y-61535000D01*
X133798000Y-61535000D02*
X133798000Y-64195000D01*
G04 #@! TO.C,J6*
X133798000Y-66615000D02*
X133798000Y-69275000D01*
X138938000Y-66615000D02*
X133798000Y-66615000D01*
X138938000Y-69275000D02*
X133798000Y-69275000D01*
X138938000Y-66615000D02*
X138938000Y-69275000D01*
X140208000Y-66615000D02*
X141538000Y-66615000D01*
X141538000Y-66615000D02*
X141538000Y-67945000D01*
G04 #@! TO.C,J3*
X141538000Y-69155000D02*
X141538000Y-70485000D01*
X140208000Y-69155000D02*
X141538000Y-69155000D01*
X138938000Y-69155000D02*
X138938000Y-71815000D01*
X138938000Y-71815000D02*
X133798000Y-71815000D01*
X138938000Y-69155000D02*
X133798000Y-69155000D01*
X133798000Y-69155000D02*
X133798000Y-71815000D01*
X151578000Y-69155000D02*
X151578000Y-71815000D01*
X156718000Y-69155000D02*
X151578000Y-69155000D01*
X156718000Y-71815000D02*
X151578000Y-71815000D01*
X156718000Y-69155000D02*
X156718000Y-71815000D01*
X157988000Y-69155000D02*
X159318000Y-69155000D01*
X159318000Y-69155000D02*
X159318000Y-70485000D01*
G04 #@! TO.C,J4*
X151578000Y-64075000D02*
X151578000Y-66735000D01*
X156718000Y-64075000D02*
X151578000Y-64075000D01*
X156718000Y-66735000D02*
X151578000Y-66735000D01*
X156718000Y-64075000D02*
X156718000Y-66735000D01*
X157988000Y-64075000D02*
X159318000Y-64075000D01*
X159318000Y-64075000D02*
X159318000Y-65405000D01*
G04 #@! TO.C,J7*
X151578000Y-61535000D02*
X151578000Y-64195000D01*
X156718000Y-61535000D02*
X151578000Y-61535000D01*
X156718000Y-64195000D02*
X151578000Y-64195000D01*
X156718000Y-61535000D02*
X156718000Y-64195000D01*
X157988000Y-61535000D02*
X159318000Y-61535000D01*
X159318000Y-61535000D02*
X159318000Y-62865000D01*
G04 #@! TO.C,J6*
X159318000Y-66615000D02*
X159318000Y-67945000D01*
X157988000Y-66615000D02*
X159318000Y-66615000D01*
X156718000Y-66615000D02*
X156718000Y-69275000D01*
X156718000Y-69275000D02*
X151578000Y-69275000D01*
X156718000Y-66615000D02*
X151578000Y-66615000D01*
X151578000Y-66615000D02*
X151578000Y-69275000D01*
G04 #@! TO.C,J5*
X151698000Y-71815000D02*
X150368000Y-71815000D01*
X151698000Y-70485000D02*
X151698000Y-71815000D01*
X151698000Y-69215000D02*
X149038000Y-69215000D01*
X149038000Y-69215000D02*
X149038000Y-61535000D01*
X151698000Y-69215000D02*
X151698000Y-61535000D01*
X151698000Y-61535000D02*
X149038000Y-61535000D01*
G04 #@! TO.C,J1*
X145228000Y-92135000D02*
X145228000Y-90805000D01*
X146558000Y-92135000D02*
X145228000Y-92135000D01*
X147828000Y-92135000D02*
X147828000Y-89475000D01*
X147828000Y-89475000D02*
X152968000Y-89475000D01*
X147828000Y-92135000D02*
X152968000Y-92135000D01*
X152968000Y-92135000D02*
X152968000Y-89475000D01*
D11*
G04 #@! TO.C,P1*
X140208000Y-125095000D02*
X157988000Y-125095000D01*
X157988000Y-125095000D02*
X157988000Y-122555000D01*
X157988000Y-122555000D02*
X140208000Y-122555000D01*
X137388000Y-125375000D02*
X138938000Y-125375000D01*
X140208000Y-125095000D02*
X140208000Y-122555000D01*
X138938000Y-122275000D02*
X137388000Y-122275000D01*
X137388000Y-122275000D02*
X137388000Y-125375000D01*
G04 #@! TO.C,P2*
X163068000Y-125095000D02*
X175768000Y-125095000D01*
X175768000Y-125095000D02*
X175768000Y-122555000D01*
X175768000Y-122555000D02*
X163068000Y-122555000D01*
X160248000Y-125375000D02*
X161798000Y-125375000D01*
X163068000Y-125095000D02*
X163068000Y-122555000D01*
X161798000Y-122275000D02*
X160248000Y-122275000D01*
X160248000Y-122275000D02*
X160248000Y-125375000D01*
G04 #@! TO.C,P3*
X131064000Y-76835000D02*
X153924000Y-76835000D01*
X153924000Y-76835000D02*
X153924000Y-74295000D01*
X153924000Y-74295000D02*
X131064000Y-74295000D01*
X128244000Y-77115000D02*
X129794000Y-77115000D01*
X131064000Y-76835000D02*
X131064000Y-74295000D01*
X129794000Y-74015000D02*
X128244000Y-74015000D01*
X128244000Y-74015000D02*
X128244000Y-77115000D01*
G04 #@! TO.C,P4*
X157988000Y-76835000D02*
X175768000Y-76835000D01*
X175768000Y-76835000D02*
X175768000Y-74295000D01*
X175768000Y-74295000D02*
X157988000Y-74295000D01*
X155168000Y-77115000D02*
X156718000Y-77115000D01*
X157988000Y-76835000D02*
X157988000Y-74295000D01*
X156718000Y-74015000D02*
X155168000Y-74015000D01*
X155168000Y-74015000D02*
X155168000Y-77115000D01*
G04 #@! TO.C,P5*
X127254000Y-123825000D02*
G75*
G03X127254000Y-123825000I-2286000J0D01*
G01*
G04 #@! TO.C,P6*
X179324000Y-118745000D02*
G75*
G03X179324000Y-118745000I-2286000J0D01*
G01*
G04 #@! TO.C,P7*
X128524000Y-75565000D02*
G75*
G03X128524000Y-75565000I-2286000J0D01*
G01*
G04 #@! TO.C,P8*
X179324000Y-90805000D02*
G75*
G03X179324000Y-90805000I-2286000J0D01*
G01*
D12*
G04 #@! TO.C,J1*
X114748000Y-81975000D02*
X117408000Y-81975000D01*
X114748000Y-76835000D02*
X114748000Y-81975000D01*
X117408000Y-76835000D02*
X117408000Y-81975000D01*
X114748000Y-76835000D02*
X117408000Y-76835000D01*
X114748000Y-75565000D02*
X114748000Y-74235000D01*
X114748000Y-74235000D02*
X116078000Y-74235000D01*
G04 #@! TO.C,J2*
X114748000Y-108645000D02*
X117408000Y-108645000D01*
X114748000Y-100965000D02*
X114748000Y-108645000D01*
X117408000Y-100965000D02*
X117408000Y-108645000D01*
X114748000Y-100965000D02*
X117408000Y-100965000D01*
X114748000Y-99695000D02*
X114748000Y-98365000D01*
X114748000Y-98365000D02*
X116078000Y-98365000D01*
G04 #@! TO.C,D1*
X126688000Y-118745462D02*
G75*
G03X121138000Y-117200170I-2990000J462D01*
G01*
X126688000Y-118744538D02*
G75*
G02X121138000Y-120289830I-2990000J-462D01*
G01*
X126198000Y-118745000D02*
G75*
G03X126198000Y-118745000I-2500000J0D01*
G01*
X121138000Y-117200000D02*
X121138000Y-120290000D01*
G04 #@! TO.C,J3*
X174558000Y-69155000D02*
X174558000Y-70485000D01*
X173228000Y-69155000D02*
X174558000Y-69155000D01*
X171958000Y-69155000D02*
X171958000Y-71815000D01*
X171958000Y-71815000D02*
X166818000Y-71815000D01*
X171958000Y-69155000D02*
X166818000Y-69155000D01*
X166818000Y-69155000D02*
X166818000Y-71815000D01*
G04 #@! TO.C,J4*
X174558000Y-64075000D02*
X174558000Y-65405000D01*
X173228000Y-64075000D02*
X174558000Y-64075000D01*
X171958000Y-64075000D02*
X171958000Y-66735000D01*
X171958000Y-66735000D02*
X166818000Y-66735000D01*
X171958000Y-64075000D02*
X166818000Y-64075000D01*
X166818000Y-64075000D02*
X166818000Y-66735000D01*
G04 #@! TO.C,J5*
X166938000Y-61535000D02*
X164278000Y-61535000D01*
X166938000Y-69215000D02*
X166938000Y-61535000D01*
X164278000Y-69215000D02*
X164278000Y-61535000D01*
X166938000Y-69215000D02*
X164278000Y-69215000D01*
X166938000Y-70485000D02*
X166938000Y-71815000D01*
X166938000Y-71815000D02*
X165608000Y-71815000D01*
G04 #@! TO.C,J6*
X166818000Y-66615000D02*
X166818000Y-69275000D01*
X171958000Y-66615000D02*
X166818000Y-66615000D01*
X171958000Y-69275000D02*
X166818000Y-69275000D01*
X171958000Y-66615000D02*
X171958000Y-69275000D01*
X173228000Y-66615000D02*
X174558000Y-66615000D01*
X174558000Y-66615000D02*
X174558000Y-67945000D01*
G04 #@! TO.C,J7*
X174558000Y-61535000D02*
X174558000Y-62865000D01*
X173228000Y-61535000D02*
X174558000Y-61535000D01*
X171958000Y-61535000D02*
X171958000Y-64195000D01*
X171958000Y-64195000D02*
X166818000Y-64195000D01*
X171958000Y-61535000D02*
X166818000Y-61535000D01*
X166818000Y-61535000D02*
X166818000Y-64195000D01*
G04 #@! TO.C,SW1*
X129628000Y-123555000D02*
X134128000Y-123555000D01*
X128378000Y-119555000D02*
X128378000Y-121055000D01*
X134128000Y-117055000D02*
X129628000Y-117055000D01*
X135378000Y-121055000D02*
X135378000Y-119555000D01*
G04 #@! TO.C,R1*
X130778000Y-116305000D02*
X130778000Y-113565000D01*
X130778000Y-113565000D02*
X124238000Y-113565000D01*
X124238000Y-113565000D02*
X124238000Y-116305000D01*
X124238000Y-116305000D02*
X130778000Y-116305000D01*
X131548000Y-114935000D02*
X130778000Y-114935000D01*
X123468000Y-114935000D02*
X124238000Y-114935000D01*
G04 #@! TO.C,J1*
D11*
X153630380Y-91138333D02*
X154344666Y-91138333D01*
X154487523Y-91185952D01*
X154582761Y-91281190D01*
X154630380Y-91424047D01*
X154630380Y-91519285D01*
X154630380Y-90138333D02*
X154630380Y-90709761D01*
X154630380Y-90424047D02*
X153630380Y-90424047D01*
X153773238Y-90519285D01*
X153868476Y-90614523D01*
X153916095Y-90709761D01*
G04 #@! TO.C,P1*
X147089904Y-121737380D02*
X147089904Y-120737380D01*
X147470857Y-120737380D01*
X147566095Y-120785000D01*
X147613714Y-120832619D01*
X147661333Y-120927857D01*
X147661333Y-121070714D01*
X147613714Y-121165952D01*
X147566095Y-121213571D01*
X147470857Y-121261190D01*
X147089904Y-121261190D01*
X148613714Y-121737380D02*
X148042285Y-121737380D01*
X148328000Y-121737380D02*
X148328000Y-120737380D01*
X148232761Y-120880238D01*
X148137523Y-120975476D01*
X148042285Y-121023095D01*
G04 #@! TO.C,P2*
X167663904Y-121737380D02*
X167663904Y-120737380D01*
X168044857Y-120737380D01*
X168140095Y-120785000D01*
X168187714Y-120832619D01*
X168235333Y-120927857D01*
X168235333Y-121070714D01*
X168187714Y-121165952D01*
X168140095Y-121213571D01*
X168044857Y-121261190D01*
X167663904Y-121261190D01*
X168616285Y-120832619D02*
X168663904Y-120785000D01*
X168759142Y-120737380D01*
X168997238Y-120737380D01*
X169092476Y-120785000D01*
X169140095Y-120832619D01*
X169187714Y-120927857D01*
X169187714Y-121023095D01*
X169140095Y-121165952D01*
X168568666Y-121737380D01*
X169187714Y-121737380D01*
G04 #@! TO.C,P3*
X140485904Y-78811380D02*
X140485904Y-77811380D01*
X140866857Y-77811380D01*
X140962095Y-77859000D01*
X141009714Y-77906619D01*
X141057333Y-78001857D01*
X141057333Y-78144714D01*
X141009714Y-78239952D01*
X140962095Y-78287571D01*
X140866857Y-78335190D01*
X140485904Y-78335190D01*
X141390666Y-77811380D02*
X142009714Y-77811380D01*
X141676380Y-78192333D01*
X141819238Y-78192333D01*
X141914476Y-78239952D01*
X141962095Y-78287571D01*
X142009714Y-78382809D01*
X142009714Y-78620904D01*
X141962095Y-78716142D01*
X141914476Y-78763761D01*
X141819238Y-78811380D01*
X141533523Y-78811380D01*
X141438285Y-78763761D01*
X141390666Y-78716142D01*
G04 #@! TO.C,P4*
X164869904Y-78811380D02*
X164869904Y-77811380D01*
X165250857Y-77811380D01*
X165346095Y-77859000D01*
X165393714Y-77906619D01*
X165441333Y-78001857D01*
X165441333Y-78144714D01*
X165393714Y-78239952D01*
X165346095Y-78287571D01*
X165250857Y-78335190D01*
X164869904Y-78335190D01*
X166298476Y-78144714D02*
X166298476Y-78811380D01*
X166060380Y-77763761D02*
X165822285Y-78478047D01*
X166441333Y-78478047D01*
G04 #@! TO.C,J1*
X115744666Y-82637380D02*
X115744666Y-83351666D01*
X115697047Y-83494523D01*
X115601809Y-83589761D01*
X115458952Y-83637380D01*
X115363714Y-83637380D01*
X116744666Y-83637380D02*
X116173238Y-83637380D01*
X116458952Y-83637380D02*
X116458952Y-82637380D01*
X116363714Y-82780238D01*
X116268476Y-82875476D01*
X116173238Y-82923095D01*
G04 #@! TO.C,J2*
X115744666Y-96607380D02*
X115744666Y-97321666D01*
X115697047Y-97464523D01*
X115601809Y-97559761D01*
X115458952Y-97607380D01*
X115363714Y-97607380D01*
X116173238Y-96702619D02*
X116220857Y-96655000D01*
X116316095Y-96607380D01*
X116554190Y-96607380D01*
X116649428Y-96655000D01*
X116697047Y-96702619D01*
X116744666Y-96797857D01*
X116744666Y-96893095D01*
X116697047Y-97035952D01*
X116125619Y-97607380D01*
X116744666Y-97607380D01*
G04 #@! TO.C,D1*
X122959904Y-115237380D02*
X122959904Y-114237380D01*
X123198000Y-114237380D01*
X123340857Y-114285000D01*
X123436095Y-114380238D01*
X123483714Y-114475476D01*
X123531333Y-114665952D01*
X123531333Y-114808809D01*
X123483714Y-114999285D01*
X123436095Y-115094523D01*
X123340857Y-115189761D01*
X123198000Y-115237380D01*
X122959904Y-115237380D01*
X124483714Y-115237380D02*
X123912285Y-115237380D01*
X124198000Y-115237380D02*
X124198000Y-114237380D01*
X124102761Y-114380238D01*
X124007523Y-114475476D01*
X123912285Y-114523095D01*
G04 #@! TO.C,SW1*
X130544666Y-116459761D02*
X130687523Y-116507380D01*
X130925619Y-116507380D01*
X131020857Y-116459761D01*
X131068476Y-116412142D01*
X131116095Y-116316904D01*
X131116095Y-116221666D01*
X131068476Y-116126428D01*
X131020857Y-116078809D01*
X130925619Y-116031190D01*
X130735142Y-115983571D01*
X130639904Y-115935952D01*
X130592285Y-115888333D01*
X130544666Y-115793095D01*
X130544666Y-115697857D01*
X130592285Y-115602619D01*
X130639904Y-115555000D01*
X130735142Y-115507380D01*
X130973238Y-115507380D01*
X131116095Y-115555000D01*
X131449428Y-115507380D02*
X131687523Y-116507380D01*
X131878000Y-115793095D01*
X132068476Y-116507380D01*
X132306571Y-115507380D01*
X133211333Y-116507380D02*
X132639904Y-116507380D01*
X132925619Y-116507380D02*
X132925619Y-115507380D01*
X132830380Y-115650238D01*
X132735142Y-115745476D01*
X132639904Y-115793095D01*
G04 #@! TO.C,R1*
X127341333Y-117757380D02*
X127008000Y-117281190D01*
X126769904Y-117757380D02*
X126769904Y-116757380D01*
X127150857Y-116757380D01*
X127246095Y-116805000D01*
X127293714Y-116852619D01*
X127341333Y-116947857D01*
X127341333Y-117090714D01*
X127293714Y-117185952D01*
X127246095Y-117233571D01*
X127150857Y-117281190D01*
X126769904Y-117281190D01*
X128293714Y-117757380D02*
X127722285Y-117757380D01*
X128008000Y-117757380D02*
X128008000Y-116757380D01*
X127912761Y-116900238D01*
X127817523Y-116995476D01*
X127722285Y-117043095D01*
G04 #@! TD*
M02*
