<?xml version="1.0" encoding="UTF-8" standalone="no"?>
<!-- Created with Inkscape (http://www.inkscape.org/) -->

<svg
   xmlns:dc="http://purl.org/dc/elements/1.1/"
   xmlns:cc="http://creativecommons.org/ns#"
   xmlns:rdf="http://www.w3.org/1999/02/22-rdf-syntax-ns#"
   xmlns:svg="http://www.w3.org/2000/svg"
   xmlns="http://www.w3.org/2000/svg"
   xmlns:sodipodi="http://sodipodi.sourceforge.net/DTD/sodipodi-0.dtd"
   xmlns:inkscape="http://www.inkscape.org/namespaces/inkscape"
   width="0.5in"
   height="0.5in"
   viewBox="0 0 12.7 12.7"
   version="1.1"
   id="svg8"
   inkscape:version="0.92.4 (5da689c313, 2019-01-14)"
   sodipodi:docname="christina-silk.svg"
   inkscape:export-filename="/tmp/christina-silk.png"
   inkscape:export-xdpi="600"
   inkscape:export-ydpi="600">
  <defs
     id="defs2">
    <filter
       style="color-interpolation-filters:sRGB;"
       inkscape:label="Invert"
       id="filter827">
      <feColorMatrix
         values="1 0 0 0 0 0 1 0 0 0 0 0 1 0 0 -0.21 -0.72 -0.07 2 0 "
         result="fbSourceGraphic"
         id="feColorMatrix825" />
      <feColorMatrix
         result="fbSourceGraphicAlpha"
         in="fbSourceGraphic"
         values="0 0 0 -1 0 0 0 0 -1 0 0 0 0 -1 0 0 0 0 1 0"
         id="feColorMatrix849" />
      <feColorMatrix
         id="feColorMatrix851"
         type="hueRotate"
         values="180"
         result="color1"
         in="fbSourceGraphic" />
      <feColorMatrix
         id="feColorMatrix853"
         values="-1 0 0 0 1 0 -1 0 0 1 0 0 -1 0 1 -0.21 -0.72 -0.07 2 0 "
         result="color2" />
    </filter>
    <filter
       style="color-interpolation-filters:sRGB;"
       inkscape:label="Invert"
       id="filter831">
      <feColorMatrix
         values="1 0 0 0 0 0 1 0 0 0 0 0 1 0 0 -0.21 -0.72 -0.07 2 0 "
         result="fbSourceGraphic"
         id="feColorMatrix829" />
      <feColorMatrix
         result="fbSourceGraphicAlpha"
         in="fbSourceGraphic"
         values="0 0 0 -1 0 0 0 0 -1 0 0 0 0 -1 0 0 0 0 1 0"
         id="feColorMatrix855" />
      <feColorMatrix
         id="feColorMatrix857"
         type="hueRotate"
         values="180"
         result="color1"
         in="fbSourceGraphic" />
      <feColorMatrix
         id="feColorMatrix859"
         values="-1 0 0 0 1 0 -1 0 0 1 0 0 -1 0 1 -0.21 -0.72 -0.07 2 0 "
         result="color2" />
    </filter>
    <filter
       style="color-interpolation-filters:sRGB;"
       inkscape:label="Invert"
       id="filter835">
      <feColorMatrix
         values="1 0 0 0 0 0 1 0 0 0 0 0 1 0 0 -0.21 -0.72 -0.07 2 0 "
         result="fbSourceGraphic"
         id="feColorMatrix833" />
      <feColorMatrix
         result="fbSourceGraphicAlpha"
         in="fbSourceGraphic"
         values="0 0 0 -1 0 0 0 0 -1 0 0 0 0 -1 0 0 0 0 1 0"
         id="feColorMatrix861" />
      <feColorMatrix
         id="feColorMatrix863"
         type="hueRotate"
         values="180"
         result="color1"
         in="fbSourceGraphic" />
      <feColorMatrix
         id="feColorMatrix865"
         values="-1 0 0 0 1 0 -1 0 0 1 0 0 -1 0 1 -0.21 -0.72 -0.07 2 0 "
         result="color2" />
    </filter>
  </defs>
  <sodipodi:namedview
     id="base"
     pagecolor="#ffffff"
     bordercolor="#666666"
     borderopacity="1.0"
     inkscape:pageopacity="0.0"
     inkscape:pageshadow="2"
     inkscape:zoom="11.2"
     inkscape:cx="40.440366"
     inkscape:cy="14.413194"
     inkscape:document-units="mm"
     inkscape:current-layer="layer1"
     showgrid="false"
     inkscape:snap-global="true"
     fit-margin-top="0"
     fit-margin-left="0"
     fit-margin-right="0"
     fit-margin-bottom="0"
     inkscape:window-width="1880"
     inkscape:window-height="1080"
     inkscape:window-x="40"
     inkscape:window-y="0"
     inkscape:window-maximized="1"
     showguides="true"
     inkscape:guide-bbox="true"
     inkscape:snap-page="true"
     inkscape:snap-bbox="true"
     inkscape:bbox-nodes="true"
     inkscape:snap-text-baseline="true"
     units="in" />
  <metadata
     id="metadata5">
    <rdf:RDF>
      <cc:Work
         rdf:about="">
        <dc:format>image/svg+xml</dc:format>
        <dc:type
           rdf:resource="http://purl.org/dc/dcmitype/StillImage" />
        <dc:title />
      </cc:Work>
    </rdf:RDF>
  </metadata>
  <g
     inkscape:label="Layer 1"
     inkscape:groupmode="layer"
     id="layer1"
     transform="translate(-3.3802414e-6,-284.30001)">
    <rect
       style="opacity:1;fill:#000000;fill-opacity:1;stroke:none;stroke-width:25.39999962;stroke-linecap:round;stroke-linejoin:round;stroke-miterlimit:4;stroke-dasharray:none;stroke-opacity:1;paint-order:stroke markers fill"
       id="rect815"
       width="12.7"
       height="12.7"
       x="3.8016778e-06"
       y="284.30002" />
    <path
       style="fill:#ffffff;stroke-width:1"
       d="m 4.9006142,284.30068 c -0.3077317,0.005 -0.5038503,0.0416 -0.6235587,0.11534 -0.038394,0.0237 -0.1362733,0.0518 -0.2175335,0.0625 -0.3470376,0.0457 -0.7838669,0.38937 -1.128432,0.88779 -0.1017133,0.14714 -0.3007403,0.37758 -0.4423608,0.5121 -0.3051416,0.28986 -0.6031022,0.72325 -0.7040006,1.02407 -0.06502,0.19384 -0.074823,0.3312 -0.094826,1.32633 -0.041359,2.05754 0.096901,3.18569 0.4046624,3.30185 0.1889392,0.0713 0.3336589,0.52587 0.5078729,1.59527 0.048474,0.29755 0.096408,0.58217 0.1065512,0.63249 0.016575,0.0822 0.0096,0.0898 -0.069125,0.0747 -0.082437,-0.0158 -0.088245,-0.0312 -0.097825,-0.2632 -0.00942,-0.22809 -0.01604,-0.24685 -0.08944,-0.25217 -0.086841,-0.006 -0.1053307,0.0375 -0.120935,0.28687 l -0.0092,0.14711 -0.2012405,-0.0913 c -0.1106856,-0.0502 -0.2064996,-0.085 -0.2128977,-0.0773 -0.046753,0.0562 -1.02891591,2.98274 -1.00804255,3.00361 0.0376818,0.0377 0.38119525,0.12308 1.10804935,0.27548 l 0.6282627,0.13171 3.1012288,0.003 3.1012288,0.003 0.7032507,-0.15638 c 0.8479353,-0.18852 0.8603163,-0.19188 0.8603163,-0.23526 0,-0.019 -0.287604,-0.66574 -0.6391701,-1.43731 -0.4268348,-0.93676 -0.6891859,-1.46901 -0.7895549,-1.60195 l -0.1503168,-0.19906 -0.2313719,2.7e-4 c -0.2301312,2.6e-4 -0.2328809,10e-4 -0.4932162,0.20887 -0.1439767,0.11474 -0.266231,0.19555 -0.2716608,0.17956 -0.014199,-0.0418 0.050751,-0.17861 0.1483398,-0.31235 0.046387,-0.0636 0.1041211,-0.20494 0.1282975,-0.31414 0.059539,-0.26892 0.050786,-1.11888 -0.018474,-1.789 l -0.056173,-0.54333 0.1062102,-0.31181 c 0.3643632,-1.0693 0.4813547,-1.67512 0.4893304,-2.53377 0.00327,-0.35204 0.00805,-0.83639 0.010567,-1.07635 0.00502,-0.47756 -0.059122,-0.83297 -0.2015132,-1.11691 -0.064334,-0.1283 -0.1315629,-0.18912 -0.3671,-0.33213 -0.2064601,-0.12536 -0.3013486,-0.20588 -0.3339691,-0.28346 -0.058163,-0.13833 -0.2131719,-0.25581 -0.5416174,-0.41039 -0.5313919,-0.25008 -1.2200372,-0.39986 -1.9756598,-0.42975 -0.061941,-0.002 -0.1205865,-0.004 -0.1761535,-0.005 -0.048621,-6.6e-4 -0.094834,-6.6e-4 -0.1387959,-7e-5 z m 0.6209002,1.35053 c 0.1189748,0 0.3062953,0.30687 0.4144107,0.67878 0.043194,0.14857 0.055474,0.29147 0.045197,0.52648 -0.012555,0.28705 -0.028449,0.35161 -0.1446584,0.58675 -0.2531377,0.51219 -0.6657751,0.85202 -1.4229987,1.17206 -0.5607899,0.23702 -0.9385259,0.33702 -1.5949253,0.42218 -0.2934873,0.0381 -0.5447923,0.0682 -0.5584557,0.067 -0.087291,-0.008 0.184897,-0.0709 0.5705219,-0.13238 0.9292307,-0.14806 1.7885289,-0.48113 2.3214223,-0.89979 0.7220041,-0.56724 0.8986868,-1.43729 0.454427,-2.23778 -0.055934,-0.10078 -0.094123,-0.18331 -0.084941,-0.18331 z m 0.1719269,0.66187 c 0.00317,7.9e-4 0.00746,0.007 0.012816,0.0188 0.048623,0.10649 0.041721,0.53656 -0.011794,0.73754 -0.1338048,0.50251 -0.5121267,0.94367 -1.0683738,1.24575 -0.5607124,0.30451 -1.2114246,0.51625 -1.9022394,0.61899 -0.2495599,0.0371 -0.4851585,0.0661 -0.5235523,0.0645 -0.087856,-0.004 0.3150332,-0.11529 0.7491977,-0.20737 0.6911551,-0.1466 1.4205747,-0.42803 1.8511796,-0.7143 0.6100012,-0.40553 0.9546666,-1.03092 0.8936518,-1.62151 -0.010075,-0.0975 -0.010393,-0.14471 -8.839e-4,-0.14241 z m 0.3462398,0.34876 0.2214871,0.27398 c 0.4461636,0.5519 1.0151996,1.06129 1.240846,1.11085 0.082077,0.018 0.1074921,0.0484 0.1366145,0.16313 0.034394,0.1355 0.032841,0.14008 -0.03988,0.11712 -0.2100512,-0.0663 -0.4843877,-0.0835 -0.8138237,-0.051 -0.5487118,0.0542 -0.8864428,0.17685 -1.0916202,0.39649 -0.076986,0.0824 -0.1084618,0.0905 -0.3490347,0.0892 -0.2486308,-0.001 -0.2721905,-0.008 -0.3947775,-0.1167 l -0.1304108,-0.11521 0.2728879,-0.17773 c 0.5968858,-0.38877 0.9477113,-0.9513 0.9477113,-1.51946 z m 0.8057115,1.72043 c 0.051994,-5.3e-4 0.1022388,10e-4 0.1497032,0.006 0.3748376,0.0387 0.7085784,0.29334 0.7856692,0.5995 0.042106,0.16721 -0.00157,0.52455 -0.083509,0.683 -0.080774,0.1562 -0.351739,0.37132 -0.5215071,0.41407 -0.2261833,0.057 -0.5339694,0.0457 -0.7449711,-0.0271 -0.6167625,-0.21303 -0.9494713,-1.0159 -0.5706583,-1.37712 0.1722188,-0.16422 0.6213189,-0.29489 0.9852735,-0.29873 z m 0.9518697,0.14091 c 0.00938,-4e-5 0.019733,2.6e-4 0.031222,7.9e-4 0.1064361,0.005 0.1074545,0.006 0.016838,0.0198 -0.053117,0.008 -0.087329,0.0294 -0.076079,0.0476 0.01125,0.0182 0.035098,0.0241 0.052969,0.013 0.01787,-0.011 0.032449,-0.003 0.032449,0.0169 0,0.0203 -0.031413,0.037 -0.069807,0.037 -0.046538,0 -0.069807,-0.0233 -0.069807,-0.0698 0,-0.0495 0.016521,-0.065 0.082214,-0.0653 z m -3.106478,0.0692 c 0.038453,-10e-4 0.066355,0.0238 0.1300018,0.0875 0.3492223,0.34922 0.086379,1.0947 -0.4739237,1.34412 -0.1876736,0.0835 -0.6564325,0.12335 -0.8204363,0.0697 -0.3212914,-0.10515 -0.5332188,-0.32937 -0.6134698,-0.64912 -0.018302,-0.0729 0.010251,-0.1041 0.2291224,-0.24964 0.1618971,-0.10766 0.3328121,-0.18732 0.4845584,-0.22585 0.202878,-0.0515 0.5758869,-0.1853 0.9735482,-0.34917 0.040639,-0.0168 0.067527,-0.0268 0.090599,-0.0275 z m 0.6104019,0.35845 c 0.00519,-2.7e-4 0.010213,-1.4e-4 0.01493,7.9e-4 0.1913062,0.0342 0.2298105,0.0836 0.3203348,0.4112 0.097032,0.35117 0.4135314,0.6751 0.7601733,0.77804 0.2030475,0.0603 0.6116201,0.0699 0.7960993,0.0186 0.1956127,-0.0543 0.4406409,-0.22817 0.5458441,-0.38714 0.055593,-0.084 0.1156136,-0.24447 0.1409773,-0.37706 l 0.044107,-0.23082 -0.015748,0.21092 c -0.00867,0.116 -0.07187,0.43799 -0.1404319,0.71552 -0.068562,0.27753 -0.1205309,0.55565 -0.1155497,0.61804 0.00793,0.0993 -0.023531,0.14645 -0.2518913,0.37794 -0.3598256,0.36475 -0.7449542,0.67022 -0.9932494,0.78778 -0.1148662,0.0544 -0.2197805,0.12649 -0.2331444,0.16027 -0.055645,0.14065 -0.030329,0.5433 0.043834,0.6965 0.1503666,0.31062 0.7214765,0.6389 1.1113896,0.6389 h 0.2116705 v 0.3251 0.32504 l -0.9963853,0.78315 c -0.5480071,0.43071 -1.0074241,0.78531 -1.0209269,0.78805 -0.013503,0.003 -0.5897758,-0.35197 -1.2806576,-0.78826 l -1.2561846,-0.79323 0.00886,-0.13668 c 0.00488,-0.0752 0.017779,-0.22454 0.028632,-0.33193 l 0.019701,-0.19524 0.2851585,0.0145 c 0.256964,0.0131 0.310464,0.004 0.541277,-0.092 0.6013552,-0.25008 0.8443788,-0.5772 0.78526,-1.05719 -0.018407,-0.14945 -0.029861,-0.16594 -0.1293884,-0.18672 -0.2896249,-0.0605 -0.561709,-0.24114 -0.9905224,-0.65758 L 3.107787,290.95209 v -0.49969 -0.49976 l 0.1665413,0.10355 c 0.3030889,0.18841 0.8247249,0.19182 1.1894453,0.008 0.3233998,-0.16319 0.6335117,-0.60291 0.6335117,-0.89829 0,-0.0818 0.1259775,-0.21018 0.2038991,-0.2148 z m -2.7466038,1.20683 c 0.00288,5.2e-4 0.00625,0.0107 0.010089,0.0306 0.016698,0.0864 0.031503,0.21597 0.032927,0.28796 0.00142,0.072 0.014505,0.13088 0.029041,0.13088 0.014537,0 0.023153,-0.0746 0.019156,-0.16579 l -0.0073,-0.16579 0.030472,0.14323 c 0.016774,0.0788 0.056109,0.34577 0.087395,0.59336 0.031286,0.24758 0.052163,0.59934 0.046356,0.78171 l -0.010567,0.33159 -0.045947,-0.19995 c -0.025273,-0.10998 -0.058261,-0.44767 -0.073284,-0.75042 l -0.027336,-0.55048 -0.00525,0.41707 c -0.00404,0.31957 -0.014853,0.40753 -0.046288,0.3761 -0.027899,-0.0279 -0.044007,-0.25635 -0.050378,-0.71382 -0.00513,-0.36865 -0.00159,-0.54855 0.010907,-0.54625 z m 4.6086908,1.41802 c 0.00524,2.6e-4 0.013177,0.0154 0.02386,0.0474 0.059408,0.17767 0.1631218,0.60998 0.1948324,0.81218 0.033929,0.21635 0.025698,0.35115 -0.013907,0.22742 -0.1072806,-0.33515 -0.1375312,-0.45919 -0.1790167,-0.73529 -0.032825,-0.21846 -0.041493,-0.35233 -0.025769,-0.35169 z m 0.5018058,0.0262 0.048742,0.22688 c 0.026818,0.12478 0.074076,0.40435 0.1049832,0.62131 0.030906,0.21695 0.050841,0.42899 0.044311,0.47119 -0.00727,0.047 -0.021555,0.0158 -0.036812,-0.0803 -0.01371,-0.0864 -0.047138,-0.28272 -0.074238,-0.43629 -0.027099,-0.15358 -0.057721,-0.39703 -0.068103,-0.54101 z m -4.3812049,0.0105 c 0.0041,0.003 0.00926,0.0294 0.015815,0.0768 0.014596,0.10558 0.028097,0.32154 0.029995,0.47992 0.00205,0.171 -0.0107,0.28795 -0.031427,0.28795 -0.021816,0 -0.033066,-0.17996 -0.029995,-0.47992 0.00267,-0.26066 0.00659,-0.37068 0.015611,-0.36471 z m 0.09803,0.12332 c 0.0276,0.0183 0.096932,0.68889 0.1076419,1.05317 0.00649,0.2206 0.00718,0.40112 0.00157,0.40112 -0.04008,0 -0.1489518,-1.4168 -0.1117321,-1.45402 8.047e-4,-7.9e-4 0.00163,-9.2e-4 0.00252,-2.7e-4 z m 3.7591458,0.28502 0.050855,0.20942 c 0.027982,0.11518 0.0754,0.33131 0.105324,0.48026 0.06781,0.33754 0.056165,0.55177 -0.01452,0.2671 -0.075995,-0.30606 -0.1012763,-0.4537 -0.122026,-0.71246 z"
       id="path826"
       inkscape:connector-curvature="0" />
    <text
       xml:space="preserve"
       style="font-style:normal;font-weight:normal;font-size:1.50762796px;line-height:1.25;font-family:sans-serif;letter-spacing:0px;word-spacing:0px;fill:#ffffff;fill-opacity:1;stroke:none;stroke-width:0.26458332;"
       x="-297.08344"
       y="11.778703"
       id="text991"
       transform="rotate(-90)"><tspan
         sodipodi:role="line"
         id="tspan989"
         x="-297.08344"
         y="11.778703"
         style="stroke-width:0.26458332;fill:#ffffff;">christina-siu.com</tspan></text>
  </g>
</svg>
